G04 DipTrace 3.0.0.1*
G04 BottomMask.gbr*
%MOMM*%
G04 #@! TF.FileFunction,Soldermask,Bot*
G04 #@! TF.Part,Single*
%AMOUTLINE1*
4,1,8,
1.05,-1.0,
1.05,1.0,
-0.75,1.0,
-0.75,0.94142,
-1.05,1.24142,
-1.05,-1.24142,
-0.75,-0.94142,
-0.75,-1.0,
1.05,-1.0,
0*%
%AMOUTLINE4*
4,1,8,
1.0,1.05,
-1.0,1.05,
-1.0,-0.75,
-0.94142,-0.75,
-1.24142,-1.05,
1.24142,-1.05,
0.94142,-0.75,
1.0,-0.75,
1.0,1.05,
0*%
%ADD32R,1.7X1.7*%
%ADD33C,1.7*%
%ADD43C,3.2*%
%ADD44C,2.3*%
%ADD50R,2.4X1.4*%
%ADD52R,3.45X2.35*%
%ADD54R,1.15X2.35*%
%ADD56R,0.8X2.2*%
%ADD58R,2.9X1.35*%
%ADD62C,1.9*%
%ADD63R,1.9X1.9*%
%ADD64O,3.2X2.5*%
%ADD66R,1.82X1.82*%
%ADD68C,1.82*%
%ADD70R,1.7X1.5*%
%ADD72R,1.5X1.7*%
%ADD74C,1.8*%
%ADD76R,1.8X1.8*%
%ADD78R,2.0X1.8*%
%ADD80R,1.8X2.0*%
%ADD87OUTLINE1*%
%ADD90OUTLINE4*%
%FSLAX35Y35*%
G04*
G71*
G90*
G75*
G01*
G04 BotMask*
%LPD*%
D80*
X2603500Y7112000D3*
X2323500D3*
D78*
X3569000Y4114500D3*
Y3834500D3*
X3492500Y4889500D3*
Y5169500D3*
X4699000Y7429500D3*
Y7149500D3*
D80*
X5778500Y4699000D3*
X5498500D3*
X3111500Y10160000D3*
X2831500D3*
D78*
X190500Y4254500D3*
Y4534500D3*
D80*
X4826000Y9334500D3*
X5106000D3*
X4826000Y8890000D3*
X5106000D3*
X3111500Y12763500D3*
X2831500D3*
X3111500Y12319000D3*
X2831500D3*
X2095500Y317500D3*
X2375500D3*
X3683000D3*
X3963000D3*
D76*
X5207000Y2032000D3*
D74*
Y2286000D3*
D80*
X4508500Y2984500D3*
X4228500D3*
X2921000D3*
X2641000D3*
D78*
X3619500Y2159000D3*
Y2439000D3*
D76*
X3556000Y3048000D3*
D74*
Y2794000D3*
D72*
X1905000Y11557000D3*
X1715000D3*
X1905000Y12065000D3*
X1715000D3*
D80*
X5106000Y10604500D3*
D87*
X4810000D3*
D78*
X4826000Y10122500D3*
D90*
Y9826500D3*
D72*
X1905000Y11049000D3*
X1715000D3*
D78*
X4826000Y11392500D3*
D90*
Y11096500D3*
D70*
X5588000Y3111500D3*
Y2921500D3*
D43*
X571500Y12890500D3*
X381000Y444500D3*
D68*
X1016000Y7366000D3*
Y7112000D3*
Y6858000D3*
X1270000D3*
Y7112000D3*
D66*
Y7366000D3*
D68*
X3238500Y6223000D3*
Y5969000D3*
Y5715000D3*
X3492500D3*
Y5969000D3*
D66*
Y6223000D3*
D64*
X698500Y12065000D3*
Y11065000D3*
Y11565000D3*
Y10565000D3*
D63*
X2286000Y13335000D3*
D62*
X2032000D3*
X1778000D3*
D33*
X5397500Y889000D3*
X5297500Y1143000D3*
X5197500Y889000D3*
X5097500Y1143000D3*
X4997500Y889000D3*
D32*
X4897500Y1143000D3*
D44*
X5742500Y659000D3*
X4552500D3*
D68*
X889000Y3048000D3*
Y2794000D3*
Y2540000D3*
X1143000D3*
Y2794000D3*
D66*
Y3048000D3*
D58*
X3810000Y13081000D3*
Y12781000D3*
D78*
X4826000Y8255000D3*
Y7975000D3*
D80*
X3098500Y7442500D3*
X3378500D3*
D78*
X2146000Y7633000D3*
Y7913000D3*
X2590500Y7633000D3*
Y7913000D3*
D80*
X3960000Y8050000D3*
X4240000D3*
D78*
X4130000Y6140000D3*
Y5860000D3*
D80*
X3111500Y6985000D3*
X3391500D3*
X5397500Y7302500D3*
X5677500D3*
D78*
X5842000Y5524500D3*
Y5244500D3*
X2603500Y6413500D3*
Y6693500D3*
X5524500Y8001000D3*
Y8281000D3*
D80*
X4780000Y11900000D3*
X5060000D3*
D78*
X4635500Y5842000D3*
Y6122000D3*
D80*
X2743500Y3670000D3*
X3023500D3*
X4077000D3*
X4357000D3*
X2730500Y4191000D3*
X3010500D3*
X4077000Y4178000D3*
X4357000D3*
D78*
X5207000Y5842000D3*
Y6122000D3*
D80*
X5016500Y5334000D3*
X5296500D3*
D78*
X5207000Y6540500D3*
Y6820500D3*
D80*
X2730500Y5270500D3*
X3010500D3*
X3873500D3*
X4153500D3*
X2730500Y4699000D3*
X3010500D3*
X3873500D3*
X4153500D3*
X1714500Y10414000D3*
X1994500D3*
X1016000Y3619500D3*
X736000D3*
X317500Y3048000D3*
X597500D3*
D78*
X1905000Y3429000D3*
Y3149000D3*
D80*
X1710000Y12540000D3*
X1990000D3*
D78*
X1397000Y5588000D3*
Y5308000D3*
X2190000Y4200000D3*
Y3920000D3*
X5461000Y9842500D3*
Y10122500D3*
D80*
X1994500Y9906000D3*
X1714500D3*
D78*
X635000Y5588000D3*
Y5308000D3*
D80*
X254000Y2603500D3*
X534000D3*
D78*
X1905000Y2667000D3*
Y2387000D3*
D80*
X2095500Y825500D3*
X2375500D3*
D78*
X3111500Y9652000D3*
Y9372000D3*
D80*
X2190000Y4670000D3*
X1910000D3*
X2095500Y1333500D3*
X2375500D3*
D78*
X2540000Y9334500D3*
Y9614500D3*
X381000Y7810500D3*
Y8090500D3*
X1524000Y7810500D3*
Y8090500D3*
X1016000Y7810500D3*
Y8090500D3*
D80*
X3683000Y825500D3*
X3963000D3*
X3683000Y1333500D3*
X3963000D3*
D78*
X5080000Y3175000D3*
Y2895000D3*
D63*
X1206500Y952500D3*
D62*
X1656500D3*
Y302500D3*
X1206500D3*
D63*
X2730500Y952500D3*
D62*
X3180500D3*
Y302500D3*
X2730500D3*
D56*
X3873500Y7556500D3*
X4000500D3*
X4127500D3*
X4254500D3*
Y7016500D3*
X4127500D3*
X4000500D3*
X3873500D3*
X5334000Y4159000D3*
X5207000D3*
X5080000D3*
X4953000D3*
Y4699000D3*
X5080000D3*
X5207000D3*
X5334000D3*
X889000Y4127500D3*
X762000D3*
X635000D3*
X508000D3*
Y4667500D3*
X635000D3*
X762000D3*
X889000D3*
D33*
X6032500Y11112500D3*
Y11366500D3*
Y11620500D3*
Y11874500D3*
Y12128500D3*
Y12382500D3*
Y12636500D3*
D76*
X4318000Y12192000D3*
D74*
Y11938000D3*
Y11684000D3*
Y11430000D3*
Y11176000D3*
Y10922000D3*
Y10668000D3*
Y10414000D3*
Y10160000D3*
Y9906000D3*
Y9652000D3*
Y9398000D3*
Y9144000D3*
Y8890000D3*
X3556000D3*
Y9144000D3*
Y9398000D3*
Y9652000D3*
Y9906000D3*
Y10160000D3*
Y10414000D3*
Y10668000D3*
Y10922000D3*
Y11176000D3*
Y11430000D3*
Y11684000D3*
Y11938000D3*
Y12192000D3*
D54*
X2540000Y2540000D3*
X2770000D3*
X3000000D3*
D52*
X2770000Y1960000D3*
D54*
X4127500Y2540000D3*
X4357500D3*
X4587500D3*
D52*
X4357500Y1960000D3*
D50*
X3065000Y8647000D3*
Y8393000D3*
X2435000D3*
Y8647000D3*
M02*
