%TF.GenerationSoftware,Novarm,DipTrace,3.3.1.3*%
%TF.CreationDate,2020-09-22T12:03:10+00:00*%
%FSLAX35Y35*%
%MOMM*%
%TF.FileFunction,Plated,1,2,PTH,Drill*%
%TF.Part,Single*%
%TA.AperFunction,ComponentDrill*%
%ADD14C,1.0*%
%ADD20C,1.3*%
%ADD43C,0.8*%
%ADD46C,0.9*%
%ADD47C,1.02*%
%ADD48C,1.1*%
%ADD49C,0.7*%
%TA.AperFunction,ViaDrill*%
%ADD93C,0.8*%
G75*
G01*
D46*
X5207000Y2032000D3*
Y2286000D3*
X3556000Y3048000D3*
Y2794000D3*
D47*
X1016000Y7366000D3*
Y7112000D3*
Y6858000D3*
X1270000D3*
Y7112000D3*
Y7366000D3*
X3238500Y6223000D3*
Y5969000D3*
Y5715000D3*
X3492500D3*
Y5969000D3*
Y6223000D3*
D20*
X698500Y12065000D3*
Y11065000D3*
Y11565000D3*
Y10565000D3*
D48*
X2286000Y13335000D3*
X2032000D3*
X1778000D3*
D43*
X5397500Y889000D3*
X5297500Y1143000D3*
X5197500Y889000D3*
X5097500Y1143000D3*
X4997500Y889000D3*
X4897500Y1143000D3*
D47*
X889000Y3048000D3*
Y2794000D3*
Y2540000D3*
X1143000D3*
Y2794000D3*
Y3048000D3*
D14*
X1206500Y952500D3*
X1656500D3*
Y302500D3*
X1206500D3*
X2730500Y952500D3*
X3180500D3*
Y302500D3*
X2730500D3*
D93*
X2476500Y2032000D3*
X2667000D3*
Y1778000D3*
X3048000Y2032000D3*
X2476500Y1778000D3*
X2857500Y2032000D3*
Y1778000D3*
X3048000D3*
X4064000Y2032000D3*
X4254500D3*
X4445000D3*
X4635500D3*
X4064000Y1841500D3*
X4254500D3*
X4445000D3*
X4635500D3*
X2476500Y2984500D3*
X5810250Y1143000D3*
X5524500Y9080500D3*
X2476500Y5270500D3*
X5397500Y10604500D3*
X6064250Y1492250D3*
D49*
X6032500Y11112500D3*
Y11366500D3*
Y11620500D3*
Y11874500D3*
Y12128500D3*
Y12382500D3*
Y12636500D3*
D46*
X4318000Y12192000D3*
Y11938000D3*
Y11684000D3*
Y11430000D3*
Y11176000D3*
Y10922000D3*
Y10668000D3*
Y10414000D3*
Y10160000D3*
Y9906000D3*
Y9652000D3*
Y9398000D3*
Y9144000D3*
Y8890000D3*
X3556000D3*
Y9144000D3*
Y9398000D3*
Y9652000D3*
Y9906000D3*
Y10160000D3*
Y10414000D3*
Y10668000D3*
Y10922000D3*
Y11176000D3*
Y11430000D3*
Y11684000D3*
Y11938000D3*
Y12192000D3*
D93*
X1494000Y12065000D3*
Y11855000D3*
X1704000Y11835000D3*
X2901500Y12049000D3*
X3111500Y11849000D3*
X5485010Y13053500D3*
X4826000Y8699500D3*
X5060000Y11617500D3*
X5061000Y11112500D3*
X3238500Y12890500D3*
X4572000Y2349500D3*
X3937000Y2540000D3*
X205510Y4029500D3*
X4080000Y13081000D3*
X2680000Y8393000D3*
X2190000Y4425000D3*
X2831500Y12998500D3*
X4188000Y317500D3*
X5143500Y9525000D3*
X5207000Y8763000D3*
X1016000Y11430000D3*
X1156000Y11230000D3*
X1084000Y4667500D3*
X2730500Y5524500D3*
X4384510Y7352520D3*
X5442000Y5842000D3*
X5461000Y4445000D3*
X3396510Y7677500D3*
X381000Y9665350D3*
X5497000Y6482000D3*
X4445000Y3873500D3*
X5207000Y5207000D3*
Y6297000D3*
X4563000Y11522500D3*
X4000500Y6751500D3*
X5081000Y7302500D3*
X3606510Y7842500D3*
X4127500D3*
X3790000Y3694010D3*
X5196000Y7417500D3*
X4096000Y8385000D3*
X4143000Y9652000D3*
X715500Y2664460D3*
X1249000Y4292500D3*
X775000Y4922500D3*
X2159000Y9334500D3*
X5524500Y11366500D3*
Y12700000D3*
X2516510Y11176000D3*
X2631510Y13236000D3*
X5651500Y11747500D3*
X5241000Y7957500D3*
X2135000Y6997000D3*
X4572000Y10604500D3*
X2032000Y3619500D3*
X5106000Y10385010D3*
X5080000Y12255500D3*
X1644000Y8548000D3*
X1714500Y10229000D3*
X1529000Y8778000D3*
X3841000D3*
M02*
