%TF.GenerationSoftware,Novarm,DipTrace,3.3.1.3*%
%TF.CreationDate,2020-09-22T11:58:15+00:00*%
%FSLAX35Y35*%
%MOMM*%
%TF.FileFunction,Copper,L1,Top*%
%TF.Part,Single*%
%TA.AperFunction,Conductor*%
%ADD13C,0.4*%
%ADD14C,1.0*%
%ADD15C,1.5*%
%ADD17C,0.95*%
%ADD20C,1.3*%
%TA.AperFunction,CopperBalancing*%
%ADD22C,0.635*%
%ADD23C,0.33*%
%TA.AperFunction,ComponentPad*%
%ADD26R,1.6X1.6*%
%ADD27C,1.6*%
%ADD30C,1.62*%
%ADD31R,1.62X1.62*%
%ADD32O,3.0X2.3*%
%ADD33R,1.7X1.7*%
%ADD34C,1.7*%
%ADD35C,1.5*%
%ADD36R,1.5X1.5*%
%TA.AperFunction,ViaPad*%
%ADD93C,1.3*%
G75*
G01*
%LPD*%
X1016000Y11430000D2*
D13*
X3556000D1*
X1156000Y11230000D2*
X968500D1*
X898500Y11300000D1*
Y11503000D1*
X1075500Y11680000D1*
X3284000D1*
X3288000Y11684000D1*
X3556000D1*
Y3048000D2*
D14*
X2759750D1*
X2613250Y3194500D1*
X1408750D1*
X874000Y3729250D1*
Y4597500D1*
X668000D1*
X508000Y4757500D1*
Y6698000D1*
X668000Y6858000D1*
X1016000D1*
X1084000Y4667500D2*
D15*
X874000D1*
Y4597500D1*
X4384510Y7352520D2*
D14*
X3843000D1*
X3738020Y7457500D1*
X3466510D1*
Y6863020D1*
X2823500Y6220010D1*
Y6039000D1*
X2893500Y5969000D1*
X2823500Y5899000D1*
Y5524500D1*
X2730500D1*
X3238500Y5969000D2*
X2893500D1*
X3396510Y7677500D2*
Y7457500D1*
X3466510D1*
X5442000Y5842000D2*
Y4464000D1*
X5461000Y4445000D1*
X381000Y9665350D2*
D13*
X1829500D1*
X3086150Y10922000D1*
X3556000D1*
X3492500Y6223000D2*
X3365500Y6096000D1*
Y5524500D1*
X3111500Y5270500D1*
X2476500D1*
X4445000Y3873500D2*
X4207500D1*
X4202000Y3879000D1*
Y6412000D1*
X4272000Y6482000D1*
X5497000D1*
X5207000Y6297000D2*
Y5207000D1*
X4318000Y11176000D2*
X4493000D1*
X4563000Y11246000D1*
Y11522500D1*
X1494000Y11855000D2*
D20*
Y12065000D1*
X2901500Y12049000D2*
X1918000D1*
X1704000Y11835000D1*
X3111500Y11849000D2*
D14*
X3246500D1*
X3311500Y11914000D1*
Y12192000D1*
X3556000D1*
X4826000Y8699500D2*
X5358000Y8167500D1*
X5487000D1*
X5707000Y7947500D1*
Y2252000D1*
X5487000Y2032000D1*
X5207000D1*
X5060000Y11617500D2*
X5158490Y11519010D1*
X5334000D1*
Y12636500D1*
Y13053500D1*
X5485010D1*
X5061000Y11112500D2*
X5334000D1*
Y11519010D1*
Y12636500D2*
X3492500D1*
X3238500Y12890500D1*
X5707000Y7947500D2*
Y8374000D1*
X5905500Y8572500D1*
Y10096500D1*
X5397500Y10604500D1*
X4997500Y889000D2*
X4762500D1*
X4381500Y1270000D1*
Y1778000D1*
X4445000Y1841500D1*
X5081000Y7302500D2*
D13*
X4530000Y6751500D1*
X4000500D1*
X3606510Y7842500D2*
X4127500D1*
X5196000Y7417500D2*
Y7228000D1*
X4565000Y6597000D1*
X4067870D1*
X3997863Y6526993D1*
Y3901873D1*
X3790000Y3694010D1*
X4143000Y9652000D2*
X4096000Y9605000D1*
Y8385000D1*
X715500Y2664460D2*
X530510Y2849450D1*
Y4025740D1*
X254000Y4302250D1*
Y8634000D1*
X283000Y8663000D1*
X3956000D1*
Y11068000D1*
X4318000Y11430000D1*
X775000Y4922500D2*
X1179000D1*
X1249000Y4852500D1*
Y4292500D1*
X2159000Y9334500D2*
X2476500Y9652000D1*
X3556000D1*
X5524500Y12700000D2*
Y11366500D1*
X2516510Y11176000D2*
X3556000D1*
X5651500Y11747500D2*
Y13236000D1*
X2631510D1*
X2135000Y6997000D2*
X3095500Y7957500D1*
X5241000D1*
X4572000Y10604500D2*
X4678000Y10710500D1*
Y11614000D1*
X4608000Y11684000D1*
X4318000D1*
X6064250Y1492250D2*
X5048250D1*
X4897500Y1341500D1*
Y1143000D1*
X5810250D2*
X5297500D1*
X5524500Y9080500D2*
X5031570D1*
X4714070Y9398000D1*
X4318000D1*
X4572000Y2349500D2*
D17*
X3709500D1*
X3320000Y1960000D1*
D20*
X3180000D1*
D15*
X3120000D1*
D20*
X3048000Y2032000D1*
X2032000Y3619500D2*
D13*
Y7112000D1*
X3082750Y8162750D1*
X4248000D1*
X4318000Y8232750D1*
Y8890000D1*
X3556000D2*
X3726000Y9060000D1*
Y12252000D1*
X3796000Y12322000D1*
X4678000D1*
X4748000Y12252000D1*
Y10947500D1*
X4818000Y10877500D1*
X5740010D1*
X5810010Y10947500D1*
Y11398010D1*
X6032500Y11620500D1*
X5106000Y10385010D2*
X4880990Y10160000D1*
X4318000D1*
X698500Y12065000D2*
Y12322000D1*
X768500Y12392000D1*
X4943500D1*
X5080000Y12255500D1*
X1644000Y8548000D2*
X3956000D1*
X4026000Y8618000D1*
Y9836000D1*
X4096000Y9906000D1*
X4318000D1*
X1714500Y10229000D2*
Y10995000D1*
X1644500Y11065000D1*
X698500D1*
X3841000Y8778000D2*
X3796000Y8733000D1*
X1574000D1*
X1529000Y8778000D1*
D93*
X2476500Y2032000D3*
X2667000D3*
Y1778000D3*
X3048000Y2032000D3*
X2476500Y1778000D3*
X2857500Y2032000D3*
Y1778000D3*
X3048000D3*
X4064000Y2032000D3*
X4254500D3*
X4445000D3*
X4635500D3*
X4064000Y1841500D3*
X4254500D3*
X4445000D3*
X4635500D3*
X2476500Y2984500D3*
X5810250Y1143000D3*
X5524500Y9080500D3*
X2476500Y5270500D3*
X5397500Y10604500D3*
X6064250Y1492250D3*
X1494000Y12065000D3*
Y11855000D3*
X1704000Y11835000D3*
X2901500Y12049000D3*
X3111500Y11849000D3*
X5485010Y13053500D3*
X4826000Y8699500D3*
X5060000Y11617500D3*
X5061000Y11112500D3*
X3238500Y12890500D3*
X4572000Y2349500D3*
X3937000Y2540000D3*
X205510Y4029500D3*
X4080000Y13081000D3*
X2680000Y8393000D3*
X2190000Y4425000D3*
X2831500Y12998500D3*
X4188000Y317500D3*
X5143500Y9525000D3*
X5207000Y8763000D3*
X1016000Y11430000D3*
X1156000Y11230000D3*
X1084000Y4667500D3*
X2730500Y5524500D3*
X4384510Y7352520D3*
X5442000Y5842000D3*
X5461000Y4445000D3*
X3396510Y7677500D3*
X381000Y9665350D3*
X5497000Y6482000D3*
X4445000Y3873500D3*
X5207000Y5207000D3*
Y6297000D3*
X4563000Y11522500D3*
X4000500Y6751500D3*
X5081000Y7302500D3*
X3606510Y7842500D3*
X4127500D3*
X3790000Y3694010D3*
X5196000Y7417500D3*
X4096000Y8385000D3*
X4143000Y9652000D3*
X715500Y2664460D3*
X1249000Y4292500D3*
X775000Y4922500D3*
X2159000Y9334500D3*
X5524500Y11366500D3*
Y12700000D3*
X2516510Y11176000D3*
X2631510Y13236000D3*
X5651500Y11747500D3*
X5241000Y7957500D3*
X2135000Y6997000D3*
X4572000Y10604500D3*
X2032000Y3619500D3*
X5106000Y10385010D3*
X5080000Y12255500D3*
X1644000Y8548000D3*
X1714500Y10229000D3*
X1529000Y8778000D3*
X3841000D3*
X3975163Y2127583D2*
D22*
X4787837D1*
X3975163Y2064417D2*
X4787837D1*
X3975163Y2001250D2*
X4787837D1*
X3975163Y1938083D2*
X4787837D1*
X3975163Y1874917D2*
X4787837D1*
X3975163Y1811750D2*
X4787837D1*
X3975163Y1748583D2*
X4787837D1*
X3975163Y1685417D2*
X4787837D1*
X4794127Y2190750D2*
X3968750D1*
Y1682873D1*
X4794127Y1682750D1*
X4794250Y2190873D1*
X2387663Y2127583D2*
X3136837D1*
X2387663Y2064417D2*
X3136837D1*
X2387663Y2001250D2*
X3136837D1*
X2387663Y1938083D2*
X3136837D1*
X2387663Y1874917D2*
X3136837D1*
X2387663Y1811750D2*
X3136837D1*
X2387663Y1748583D2*
X3136837D1*
X2387663Y1685417D2*
X3136837D1*
X3143127Y2190750D2*
X2381250D1*
Y1682873D1*
X3143127Y1682750D1*
X3143250Y2190873D1*
X133396Y13335383D2*
X1602362D1*
X2461625D2*
X2513729D1*
X5689463D2*
X6089654D1*
X133396Y13272217D2*
X1614393D1*
X5755635D2*
X6089654D1*
X133396Y13209050D2*
X1658508D1*
X5762107D2*
X6089654D1*
X133396Y13145883D2*
X445357D1*
X697679D2*
X2506164D1*
X5762107D2*
X6089654D1*
X133396Y13082717D2*
X358677D1*
X784268D2*
X5196607D1*
X5762107D2*
X6089654D1*
X133396Y13019550D2*
X314289D1*
X828656D2*
X3157128D1*
X3319945D2*
X5193326D1*
X5762107D2*
X6089654D1*
X133396Y12956383D2*
X290865D1*
X852172D2*
X3098157D1*
X3378825D2*
X5193326D1*
X5762107D2*
X6089654D1*
X133396Y12893217D2*
X283117D1*
X859919D2*
X3082844D1*
X3432054D2*
X5193326D1*
X5474633D2*
X5540865D1*
X5762107D2*
X6089654D1*
X133396Y12830050D2*
X289589D1*
X853357D2*
X3095604D1*
X3495218D2*
X5193326D1*
X5762107D2*
X6089654D1*
X133396Y12766883D2*
X311555D1*
X831390D2*
X3148469D1*
X5762107D2*
X5934615D1*
X133396Y12703717D2*
X353755D1*
X789190D2*
X3229042D1*
X5762107D2*
X5881750D1*
X133396Y12640550D2*
X434420D1*
X708617D2*
X3292206D1*
X5762107D2*
X5866893D1*
X133396Y12577383D2*
X3355370D1*
X5762107D2*
X5878196D1*
X133396Y12514217D2*
X3430657D1*
X5762107D2*
X5924042D1*
X133396Y12451050D2*
X673677D1*
X5038317D2*
X5193326D1*
X5762107D2*
X5882388D1*
X133396Y12387883D2*
X611334D1*
X5155349D2*
X5193326D1*
X5762107D2*
X5866985D1*
X133396Y12324717D2*
X587909D1*
X5762107D2*
X5877740D1*
X133396Y12261550D2*
X587818D1*
X809151D2*
X3190305D1*
X4858213D2*
X4920071D1*
X5762107D2*
X5922492D1*
X133396Y12198383D2*
X509068D1*
X887901D2*
X1420617D1*
X1567393D2*
X3170982D1*
X3836651D2*
X4147336D1*
X4488617D2*
X4637336D1*
X4858669D2*
X4935748D1*
X5762107D2*
X5883026D1*
X133396Y12135217D2*
X470604D1*
X926364D2*
X1355904D1*
X1632107D2*
X1786750D1*
X3029737D2*
X3170891D1*
X3836651D2*
X4147336D1*
X4488617D2*
X4637336D1*
X4858669D2*
X4985240D1*
X5762107D2*
X5866985D1*
X133396Y12072050D2*
X458026D1*
X939034D2*
X1338495D1*
X1649515D2*
X1723586D1*
X3055349D2*
X3170891D1*
X3836651D2*
X4147336D1*
X4488617D2*
X4637336D1*
X4858669D2*
X5193326D1*
X5762107D2*
X5877193D1*
X133396Y12008883D2*
X465956D1*
X931104D2*
X1338404D1*
X3051612D2*
X3170891D1*
X3836651D2*
X4163469D1*
X4472575D2*
X4637336D1*
X4858669D2*
X5193326D1*
X5762107D2*
X5920943D1*
X133396Y11945717D2*
X497492D1*
X899476D2*
X1338404D1*
X3836651D2*
X4147518D1*
X4488435D2*
X4637336D1*
X4858669D2*
X5193326D1*
X5762107D2*
X5883664D1*
X133396Y11882550D2*
X576972D1*
X819997D2*
X1338404D1*
X1969073D2*
X2959706D1*
X3836651D2*
X4156998D1*
X4478955D2*
X4637336D1*
X4858669D2*
X5193326D1*
X5762107D2*
X5867076D1*
X133396Y11819383D2*
X1342688D1*
X1905817D2*
X2958795D1*
X3836651D2*
X4198013D1*
X4438031D2*
X4637336D1*
X4858669D2*
X5193326D1*
X5788721D2*
X5876737D1*
X133396Y11756217D2*
X601034D1*
X796026D2*
X997974D1*
X3836651D2*
X4164107D1*
X4858669D2*
X4998456D1*
X5121534D2*
X5193326D1*
X5806859D2*
X5919485D1*
X133396Y11693050D2*
X504420D1*
X892549D2*
X934719D1*
X3836651D2*
X4147610D1*
X4858669D2*
X4924901D1*
X5796833D2*
X5884302D1*
X133396Y11629883D2*
X468690D1*
X3836651D2*
X4156542D1*
X4858669D2*
X4904849D1*
X5749802D2*
X5867167D1*
X133396Y11566717D2*
X457844D1*
X1116039D2*
X3434576D1*
X3836651D2*
X4196646D1*
X4858669D2*
X4913235D1*
X5635140D2*
X5824875D1*
X133396Y11503550D2*
X467597D1*
X3836651D2*
X4164745D1*
X4858669D2*
X4957167D1*
X5635140D2*
X5761711D1*
X133396Y11440383D2*
X501594D1*
X3836651D2*
X4147701D1*
X4858669D2*
X5040839D1*
X5660570D2*
X5708391D1*
X133396Y11377217D2*
X590370D1*
X3836651D2*
X4111334D1*
X4858669D2*
X5193326D1*
X5679711D2*
X5699367D1*
X133396Y11314050D2*
X787883D1*
X1285752D2*
X2453300D1*
X2579659D2*
X3433300D1*
X3836651D2*
X4048170D1*
X4858669D2*
X5193326D1*
X5670596D2*
X5699367D1*
X133396Y11250883D2*
X585266D1*
X1310179D2*
X2381021D1*
X3836651D2*
X3985005D1*
X4858669D2*
X4998638D1*
X5123357D2*
X5193326D1*
X5625297D2*
X5699367D1*
X133396Y11187717D2*
X500136D1*
X1305531D2*
X2361334D1*
X3836651D2*
X3921841D1*
X4858669D2*
X4925722D1*
X5474633D2*
X5699367D1*
X133396Y11124550D2*
X466959D1*
X1738747D2*
X2369992D1*
X3836651D2*
X3862050D1*
X4858669D2*
X4905852D1*
X5474633D2*
X5699367D1*
X133396Y11061383D2*
X457935D1*
X1801273D2*
X2414472D1*
X2618487D2*
X3431933D1*
X4103252D2*
X4193912D1*
X4442041D2*
X4567336D1*
X4858669D2*
X4914420D1*
X5464515D2*
X5699367D1*
X133396Y10998217D2*
X469420D1*
X1825062D2*
X3008651D1*
X4066612D2*
X4166112D1*
X4469932D2*
X4567336D1*
X4858669D2*
X4958625D1*
X5410830D2*
X5699367D1*
X133396Y10935050D2*
X506060D1*
X890909D2*
X1603821D1*
X1825153D2*
X2945396D1*
X4066612D2*
X4147883D1*
X4488161D2*
X4567336D1*
X5919880D2*
X6089654D1*
X133396Y10871883D2*
X607961D1*
X789099D2*
X1603821D1*
X1825153D2*
X2882232D1*
X4066612D2*
X4155175D1*
X4480778D2*
X4567336D1*
X5888252D2*
X6089654D1*
X133396Y10808717D2*
X1603821D1*
X1825153D2*
X2819068D1*
X3126716D2*
X3430657D1*
X4066612D2*
X4192636D1*
X4443317D2*
X4567336D1*
X5825088D2*
X6089654D1*
X133396Y10745550D2*
X572779D1*
X824190D2*
X1603821D1*
X1825153D2*
X2755904D1*
X3063552D2*
X3404771D1*
X4066612D2*
X4166841D1*
X4469203D2*
X4516750D1*
X4788669D2*
X5342258D1*
X5452758D2*
X6089654D1*
X133396Y10682383D2*
X496125D1*
X900935D2*
X1603821D1*
X1825153D2*
X2692740D1*
X3000388D2*
X3385995D1*
X4066612D2*
X4147974D1*
X4784750D2*
X5263782D1*
X5531234D2*
X6089654D1*
X133396Y10619217D2*
X465409D1*
X931651D2*
X1603821D1*
X1825153D2*
X2629485D1*
X2937224D2*
X3392740D1*
X4066612D2*
X4154810D1*
X4740544D2*
X5242545D1*
X5579086D2*
X6089654D1*
X133396Y10556050D2*
X458026D1*
X938942D2*
X1603821D1*
X1825153D2*
X2566321D1*
X2874060D2*
X3429380D1*
X4066612D2*
X4191451D1*
X4719580D2*
X5249927D1*
X5642250D2*
X6089654D1*
X133396Y10492883D2*
X471334D1*
X925635D2*
X1603821D1*
X1825153D2*
X2503157D1*
X2810896D2*
X3405500D1*
X4066612D2*
X4167571D1*
X4677471D2*
X4996451D1*
X5215596D2*
X5292037D1*
X5705414D2*
X6089654D1*
X133396Y10429717D2*
X510800D1*
X886169D2*
X1603821D1*
X1825153D2*
X2439992D1*
X2747732D2*
X3386086D1*
X4066612D2*
X4148157D1*
X4487888D2*
X4957167D1*
X5254789D2*
X5375982D1*
X5768578D2*
X6089654D1*
X133396Y10366550D2*
X638860D1*
X758109D2*
X1603821D1*
X1825153D2*
X2376828D1*
X2684567D2*
X3392375D1*
X4066612D2*
X4154354D1*
X4481599D2*
X4933742D1*
X5260531D2*
X5439146D1*
X5831742D2*
X6089654D1*
X133396Y10303383D2*
X1578755D1*
X1850310D2*
X2313664D1*
X2621403D2*
X3428196D1*
X4066612D2*
X4190175D1*
X4445778D2*
X4870578D1*
X5237380D2*
X5502310D1*
X5894906D2*
X6089654D1*
X133396Y10240217D2*
X1559250D1*
X1869724D2*
X2250500D1*
X2558239D2*
X3406229D1*
X4066612D2*
X4168300D1*
X5148695D2*
X5565474D1*
X5958070D2*
X6089654D1*
X133396Y10177050D2*
X1568183D1*
X1860791D2*
X2187336D1*
X2495075D2*
X3386268D1*
X4066612D2*
X4148248D1*
X5051898D2*
X5628729D1*
X6019320D2*
X6089654D1*
X133396Y10113883D2*
X1613117D1*
X1815948D2*
X2124172D1*
X2431911D2*
X3392011D1*
X4066612D2*
X4153990D1*
X4988734D2*
X5691893D1*
X6045023D2*
X6089654D1*
X133396Y10050717D2*
X2061008D1*
X2368747D2*
X3427011D1*
X4066612D2*
X4188990D1*
X4447054D2*
X5755058D1*
X6046117D2*
X6089654D1*
X133396Y9987550D2*
X1997844D1*
X2305583D2*
X3407050D1*
X4467015D2*
X5764901D1*
X6046117D2*
X6089654D1*
X133396Y9924383D2*
X1934680D1*
X2242328D2*
X3386360D1*
X4487614D2*
X5764901D1*
X6046117D2*
X6089654D1*
X133396Y9861217D2*
X1871516D1*
X2179164D2*
X3391555D1*
X4482419D2*
X5764901D1*
X6046117D2*
X6089654D1*
X133396Y9798050D2*
X306268D1*
X455778D2*
X1808352D1*
X2116000D2*
X3425826D1*
X4448239D2*
X5764901D1*
X6046117D2*
X6089654D1*
X133396Y9734883D2*
X242558D1*
X2052836D2*
X2406815D1*
X4466195D2*
X5764901D1*
X6046117D2*
X6089654D1*
X133396Y9671717D2*
X225513D1*
X1989672D2*
X2342375D1*
X4487432D2*
X5764901D1*
X6046117D2*
X6089654D1*
X133396Y9608550D2*
X236542D1*
X1926508D2*
X2279211D1*
X4482784D2*
X5764901D1*
X6046117D2*
X6089654D1*
X133396Y9545383D2*
X285761D1*
X476195D2*
X2216047D1*
X2523695D2*
X3424641D1*
X4449333D2*
X5764901D1*
X6046117D2*
X6089654D1*
X133396Y9482217D2*
X2131008D1*
X2460531D2*
X3408599D1*
X4781924D2*
X5764901D1*
X6046117D2*
X6089654D1*
X133396Y9419050D2*
X2029654D1*
X2397367D2*
X3386724D1*
X4846820D2*
X5764901D1*
X6046117D2*
X6089654D1*
X133396Y9355883D2*
X2004862D1*
X2334203D2*
X3390826D1*
X4909984D2*
X5764901D1*
X6046117D2*
X6089654D1*
X133396Y9292717D2*
X2009328D1*
X2308682D2*
X3423547D1*
X4450427D2*
X4665500D1*
X4973148D2*
X5764901D1*
X6046117D2*
X6089654D1*
X133396Y9229550D2*
X2046516D1*
X2271495D2*
X3409420D1*
X4464646D2*
X4728664D1*
X5036403D2*
X5509693D1*
X5539330D2*
X5764901D1*
X6046117D2*
X6089654D1*
X133396Y9166383D2*
X3386907D1*
X4487067D2*
X4791828D1*
X5653005D2*
X5764901D1*
X6046117D2*
X6089654D1*
X133396Y9103217D2*
X3390461D1*
X4483513D2*
X4854992D1*
X5678435D2*
X5764901D1*
X6046117D2*
X6089654D1*
X133396Y9040050D2*
X3422453D1*
X4451612D2*
X4918157D1*
X5674515D2*
X5764901D1*
X6046117D2*
X6089654D1*
X133396Y8976883D2*
X3410240D1*
X3796729D2*
X3845370D1*
X4463825D2*
X5013404D1*
X5638330D2*
X5764901D1*
X6046117D2*
X6089654D1*
X133396Y8913717D2*
X1460448D1*
X1597562D2*
X3387089D1*
X3733565D2*
X3772453D1*
X4486885D2*
X5764901D1*
X6046117D2*
X6089654D1*
X133396Y8850550D2*
X1392180D1*
X1665830D2*
X3390188D1*
X4483877D2*
X5764901D1*
X6046117D2*
X6089654D1*
X133396Y8787383D2*
X1373677D1*
X4452614D2*
X4698951D1*
X4953005D2*
X5764901D1*
X6046117D2*
X6089654D1*
X133396Y8724217D2*
X190422D1*
X4428643D2*
X4672427D1*
X4997575D2*
X5764901D1*
X6046117D2*
X6089654D1*
X4428643Y8661050D2*
X4675435D1*
X5060739D2*
X5764901D1*
X6046117D2*
X6089654D1*
X4428643Y8597883D2*
X4710253D1*
X5123903D2*
X5734641D1*
X6046117D2*
X6089654D1*
X364633Y8534717D2*
X1488977D1*
X4428643D2*
X4794563D1*
X5187067D2*
X5671477D1*
X6040739D2*
X6089654D1*
X364633Y8471550D2*
X1509393D1*
X4428643D2*
X4857727D1*
X5250232D2*
X5608313D1*
X6000817D2*
X6089654D1*
X364633Y8408383D2*
X1584771D1*
X1703200D2*
X3942167D1*
X4428643D2*
X4920891D1*
X5313396D2*
X5570852D1*
X5937653D2*
X6089654D1*
X364633Y8345217D2*
X3945722D1*
X4428643D2*
X4984055D1*
X5376560D2*
X5566386D1*
X5874489D2*
X6089654D1*
X364633Y8282050D2*
X3981542D1*
X4428643D2*
X5047219D1*
X5847601D2*
X6089654D1*
X364633Y8218883D2*
X2985045D1*
X4427732D2*
X5110383D1*
X5847601D2*
X6089654D1*
X364633Y8155717D2*
X2921880D1*
X4394828D2*
X5173547D1*
X5847601D2*
X6089654D1*
X364633Y8092550D2*
X2858716D1*
X4331664D2*
X5170995D1*
X5847601D2*
X6089654D1*
X364633Y8029383D2*
X2795552D1*
X5378200D2*
X5428847D1*
X5847601D2*
X6089654D1*
X364633Y7966217D2*
X2732388D1*
X5396429D2*
X5492011D1*
X5847601D2*
X6089654D1*
X364633Y7903050D2*
X2669224D1*
X5386312D2*
X5555175D1*
X5847601D2*
X6089654D1*
X364633Y7839883D2*
X2606060D1*
X3131729D2*
X3450891D1*
X4283083D2*
X5142740D1*
X5339281D2*
X5566386D1*
X5847601D2*
X6089654D1*
X364633Y7776717D2*
X2542896D1*
X3068565D2*
X3278625D1*
X4267862D2*
X5566386D1*
X5847601D2*
X6089654D1*
X364633Y7713550D2*
X2479732D1*
X3005401D2*
X3245266D1*
X3688083D2*
X4045891D1*
X4209073D2*
X5566386D1*
X5847601D2*
X6089654D1*
X364633Y7650383D2*
X2416568D1*
X2942237D2*
X3243352D1*
X3549633D2*
X5566386D1*
X5847601D2*
X6089654D1*
X364633Y7587217D2*
X2353404D1*
X2879073D2*
X3255839D1*
X3779138D2*
X5566386D1*
X5847601D2*
X6089654D1*
X364633Y7524050D2*
X961242D1*
X1070739D2*
X1098403D1*
X1441612D2*
X2290240D1*
X2815909D2*
X3255839D1*
X3867732D2*
X5085045D1*
X5306924D2*
X5566386D1*
X5847601D2*
X6089654D1*
X364633Y7460883D2*
X874289D1*
X1441612D2*
X2227076D1*
X2752745D2*
X3255839D1*
X4493539D2*
X5046763D1*
X5345205D2*
X5566386D1*
X5847601D2*
X6089654D1*
X364633Y7397717D2*
X847401D1*
X1441612D2*
X2163912D1*
X2689580D2*
X3269875D1*
X4533187D2*
X4959628D1*
X5350310D2*
X5566386D1*
X5847601D2*
X6089654D1*
X364633Y7334550D2*
X847401D1*
X1441612D2*
X2100748D1*
X2626416D2*
X3325839D1*
X4539021D2*
X4928821D1*
X5326429D2*
X5566386D1*
X5847601D2*
X6089654D1*
X364633Y7271383D2*
X874107D1*
X1441612D2*
X2037584D1*
X2563252D2*
X3325839D1*
X3607146D2*
X3727883D1*
X4516143D2*
X4896008D1*
X5306651D2*
X5566386D1*
X5847601D2*
X6089654D1*
X364633Y7208217D2*
X875292D1*
X1441612D2*
X1974420D1*
X2500088D2*
X3325839D1*
X3607146D2*
X4339927D1*
X4429099D2*
X4832844D1*
X5304737D2*
X5566386D1*
X5847601D2*
X6089654D1*
X364633Y7145050D2*
X847675D1*
X1438330D2*
X1926750D1*
X2436924D2*
X3325839D1*
X3607146D2*
X4769680D1*
X5266911D2*
X5566386D1*
X5847601D2*
X6089654D1*
X364633Y7081883D2*
X847128D1*
X1438877D2*
X1921373D1*
X2373760D2*
X3325839D1*
X3607146D2*
X4706516D1*
X5203747D2*
X5566386D1*
X5847601D2*
X6089654D1*
X364633Y7018717D2*
X873196D1*
X1412810D2*
X1921373D1*
X2310596D2*
X3325839D1*
X3607146D2*
X4643352D1*
X5140583D2*
X5566386D1*
X5847601D2*
X6089654D1*
X364633Y6955550D2*
X569315D1*
X1409802D2*
X1921373D1*
X2284802D2*
X3325839D1*
X3607146D2*
X4580188D1*
X5077419D2*
X5566386D1*
X5847601D2*
X6089654D1*
X364633Y6892383D2*
X506151D1*
X1438057D2*
X1921373D1*
X2247888D2*
X3299589D1*
X3607146D2*
X3944719D1*
X4056221D2*
X4517024D1*
X5014255D2*
X5566386D1*
X5847601D2*
X6089654D1*
X364633Y6829217D2*
X442987D1*
X1439151D2*
X1921373D1*
X2142614D2*
X3236425D1*
X3602862D2*
X3866698D1*
X4951091D2*
X5566386D1*
X5847601D2*
X6089654D1*
X364633Y6766050D2*
X385839D1*
X1413721D2*
X1921373D1*
X2142614D2*
X3173261D1*
X3565765D2*
X3845552D1*
X4887927D2*
X5566386D1*
X5847601D2*
X6089654D1*
X709164Y6702883D2*
X952584D1*
X1079398D2*
X1206516D1*
X1333422D2*
X1921373D1*
X2142614D2*
X3110097D1*
X3502601D2*
X3853026D1*
X4824763D2*
X5566386D1*
X5847601D2*
X6089654D1*
X648643Y6639717D2*
X1921373D1*
X2142614D2*
X3046933D1*
X3439437D2*
X3895227D1*
X4761599D2*
X5566386D1*
X5847601D2*
X6089654D1*
X648643Y6576550D2*
X1921373D1*
X2142614D2*
X2983768D1*
X3376273D2*
X3899784D1*
X5847601D2*
X6089654D1*
X648643Y6513383D2*
X1921373D1*
X2142614D2*
X2920604D1*
X3313109D2*
X3887206D1*
X5847601D2*
X6089654D1*
X648643Y6450217D2*
X1921373D1*
X2142614D2*
X2857440D1*
X3249945D2*
X3887206D1*
X5847601D2*
X6089654D1*
X648643Y6387050D2*
X1921373D1*
X2142614D2*
X2794276D1*
X3186781D2*
X3211907D1*
X3265075D2*
X3320826D1*
X3664112D2*
X3887206D1*
X5847601D2*
X6089654D1*
X648643Y6323883D2*
X1921373D1*
X2142614D2*
X2731112D1*
X3664112D2*
X3887206D1*
X4312614D2*
X5053782D1*
X5360245D2*
X5566386D1*
X5847601D2*
X6089654D1*
X648643Y6260717D2*
X1921373D1*
X2142614D2*
X2689185D1*
X3664112D2*
X3887206D1*
X4312614D2*
X5055878D1*
X5358148D2*
X5566386D1*
X5847601D2*
X6089654D1*
X648643Y6197550D2*
X1921373D1*
X2142614D2*
X2682896D1*
X2997289D2*
X3068808D1*
X3664112D2*
X3887206D1*
X4312614D2*
X5089328D1*
X5324698D2*
X5566386D1*
X5847601D2*
X6089654D1*
X648643Y6134383D2*
X1921373D1*
X2142614D2*
X2682896D1*
X2964112D2*
X3092597D1*
X3664112D2*
X3887206D1*
X4312614D2*
X5096347D1*
X5317679D2*
X5566386D1*
X5847601D2*
X6089654D1*
X648643Y6071217D2*
X1921373D1*
X2142614D2*
X2682896D1*
X3664112D2*
X3887206D1*
X4312614D2*
X5096347D1*
X5317679D2*
X5566386D1*
X5847601D2*
X6089654D1*
X648643Y6008050D2*
X1921373D1*
X2142614D2*
X2686451D1*
X3659463D2*
X3887206D1*
X4312614D2*
X5096347D1*
X5317679D2*
X5566386D1*
X5847601D2*
X6089654D1*
X648643Y5944883D2*
X1921373D1*
X2142614D2*
X2690917D1*
X3662380D2*
X3887206D1*
X4312614D2*
X5096347D1*
X5847601D2*
X6089654D1*
X648643Y5881717D2*
X1921373D1*
X2142614D2*
X2682896D1*
X3639229D2*
X3887206D1*
X4312614D2*
X5096347D1*
X5847601D2*
X6089654D1*
X648643Y5818550D2*
X1921373D1*
X2142614D2*
X2682896D1*
X2964112D2*
X3103352D1*
X3627653D2*
X3887206D1*
X4312614D2*
X5096347D1*
X5847601D2*
X6089654D1*
X648643Y5755383D2*
X1921373D1*
X2142614D2*
X2682896D1*
X2964112D2*
X3071907D1*
X3659099D2*
X3887206D1*
X4312614D2*
X5096347D1*
X5847601D2*
X6089654D1*
X648643Y5692217D2*
X1921373D1*
X2142614D2*
X2682896D1*
X2964112D2*
X3068443D1*
X3662562D2*
X3887206D1*
X4312614D2*
X5096347D1*
X5847601D2*
X6089654D1*
X648643Y5629050D2*
X1921373D1*
X2142614D2*
X2617545D1*
X2964112D2*
X3090956D1*
X3640049D2*
X3887206D1*
X4312614D2*
X5096347D1*
X5847601D2*
X6089654D1*
X648643Y5565883D2*
X1921373D1*
X2142614D2*
X2580722D1*
X2964112D2*
X3160865D1*
X3570140D2*
X3887206D1*
X4312614D2*
X5096347D1*
X5847601D2*
X6089654D1*
X648643Y5502717D2*
X1921373D1*
X2142614D2*
X2576438D1*
X2962380D2*
X3189849D1*
X3473799D2*
X3887206D1*
X4312614D2*
X5096347D1*
X5847601D2*
X6089654D1*
X648643Y5439550D2*
X1921373D1*
X2142614D2*
X2601412D1*
X2933851D2*
X3126685D1*
X3434424D2*
X3887206D1*
X4312614D2*
X5096347D1*
X5847601D2*
X6089654D1*
X648643Y5376383D2*
X1921373D1*
X2142614D2*
X2364888D1*
X2588135D2*
X2705500D1*
X2755570D2*
X3063521D1*
X3371260D2*
X3887206D1*
X4312614D2*
X5096347D1*
X5847601D2*
X6089654D1*
X648643Y5313217D2*
X1921373D1*
X2142614D2*
X2327063D1*
X3308096D2*
X3887206D1*
X4312614D2*
X5095709D1*
X5847601D2*
X6089654D1*
X648643Y5250050D2*
X1921373D1*
X2142614D2*
X2322232D1*
X3244932D2*
X3887206D1*
X4312614D2*
X5057701D1*
X5847601D2*
X6089654D1*
X648643Y5186883D2*
X1921373D1*
X2142614D2*
X2346477D1*
X3180218D2*
X3887206D1*
X4312614D2*
X5052688D1*
X5847601D2*
X6089654D1*
X648643Y5123717D2*
X1921373D1*
X2142614D2*
X2442909D1*
X2510114D2*
X3887206D1*
X4312614D2*
X5076750D1*
X5847601D2*
X6089654D1*
X648643Y5060550D2*
X711776D1*
X838135D2*
X1921373D1*
X2142614D2*
X3887206D1*
X4312614D2*
X5171633D1*
X5242302D2*
X5301334D1*
X5847601D2*
X6089654D1*
X1257953Y4997383D2*
X1921373D1*
X2142614D2*
X3887206D1*
X4312614D2*
X5301334D1*
X5847601D2*
X6089654D1*
X1321117Y4934217D2*
X1921373D1*
X2142614D2*
X3887206D1*
X4312614D2*
X5301334D1*
X5847601D2*
X6089654D1*
X1357940Y4871050D2*
X1921373D1*
X2142614D2*
X3887206D1*
X4312614D2*
X5301334D1*
X5847601D2*
X6089654D1*
X653838Y4807883D2*
X673010D1*
X1359672D2*
X1921373D1*
X2142614D2*
X3887206D1*
X4312614D2*
X5301334D1*
X5847601D2*
X6089654D1*
X1359672Y4744717D2*
X1921373D1*
X2142614D2*
X3887206D1*
X4312614D2*
X5301334D1*
X5847601D2*
X6089654D1*
X364633Y4681550D2*
X390943D1*
X1359672D2*
X1921373D1*
X2142614D2*
X3887206D1*
X4312614D2*
X5301334D1*
X5847601D2*
X6089654D1*
X364633Y4618383D2*
X450826D1*
X1359672D2*
X1921373D1*
X2142614D2*
X3887206D1*
X4312614D2*
X5301334D1*
X5847601D2*
X6089654D1*
X364633Y4555217D2*
X513990D1*
X1359672D2*
X1921373D1*
X2142614D2*
X3887206D1*
X4312614D2*
X5301334D1*
X5847601D2*
X6089654D1*
X364633Y4492050D2*
X578521D1*
X1014685D2*
X1138339D1*
X1359672D2*
X1921373D1*
X2142614D2*
X3887206D1*
X4312614D2*
X5301334D1*
X5847601D2*
X6089654D1*
X364633Y4428883D2*
X733378D1*
X1014685D2*
X1138339D1*
X1359672D2*
X1921373D1*
X2142614D2*
X3887206D1*
X4312614D2*
X5306073D1*
X5847601D2*
X6089654D1*
X364633Y4365717D2*
X733378D1*
X1014685D2*
X1112545D1*
X1385466D2*
X1921373D1*
X2142614D2*
X3887206D1*
X4312614D2*
X5328130D1*
X5847601D2*
X6089654D1*
X407562Y4302550D2*
X733378D1*
X1014685D2*
X1093677D1*
X1404333D2*
X1921373D1*
X2142614D2*
X3887206D1*
X4312614D2*
X5409979D1*
X5512002D2*
X5566386D1*
X5847601D2*
X6089654D1*
X133396Y4239383D2*
X164494D1*
X470726D2*
X733378D1*
X1014685D2*
X1103157D1*
X1394854D2*
X1921373D1*
X2142614D2*
X3887206D1*
X4312614D2*
X5566386D1*
X5847601D2*
X6089654D1*
X133396Y4176217D2*
X226151D1*
X533890D2*
X733378D1*
X1014685D2*
X1149003D1*
X1349008D2*
X1921373D1*
X2142614D2*
X3887206D1*
X4312614D2*
X5566386D1*
X5847601D2*
X6089654D1*
X133396Y4113050D2*
X289407D1*
X597054D2*
X733378D1*
X1014685D2*
X1921373D1*
X2142614D2*
X3887206D1*
X4312614D2*
X5566386D1*
X5847601D2*
X6089654D1*
X133396Y4049883D2*
X352571D1*
X638343D2*
X733378D1*
X1014685D2*
X1921373D1*
X2142614D2*
X3887206D1*
X4312614D2*
X5566386D1*
X5847601D2*
X6089654D1*
X133396Y3986717D2*
X415735D1*
X641169D2*
X733378D1*
X1014685D2*
X1921373D1*
X2142614D2*
X3887206D1*
X4312614D2*
X4341315D1*
X4548682D2*
X5566386D1*
X5847601D2*
X6089654D1*
X133396Y3923550D2*
X419836D1*
X641169D2*
X733378D1*
X1014685D2*
X1921373D1*
X2142614D2*
X3865696D1*
X4591976D2*
X5566386D1*
X5847601D2*
X6089654D1*
X133396Y3860383D2*
X419836D1*
X641169D2*
X733378D1*
X1014685D2*
X1921373D1*
X2142614D2*
X3802532D1*
X4600088D2*
X5566386D1*
X5847601D2*
X6089654D1*
X133396Y3797217D2*
X419836D1*
X641169D2*
X733378D1*
X1014685D2*
X1921373D1*
X2142614D2*
X3675748D1*
X4047015D2*
X4130018D1*
X4579672D2*
X5566386D1*
X5847601D2*
X6089654D1*
X133396Y3734050D2*
X419836D1*
X641169D2*
X733378D1*
X1065453D2*
X1921373D1*
X2142614D2*
X3639836D1*
X3983851D2*
X4385318D1*
X4504659D2*
X5566386D1*
X5847601D2*
X6089654D1*
X133396Y3670883D2*
X419836D1*
X641169D2*
X746685D1*
X1128617D2*
X1885461D1*
X2178526D2*
X3636190D1*
X3943838D2*
X5566386D1*
X5847601D2*
X6089654D1*
X133396Y3607717D2*
X419836D1*
X641169D2*
X799276D1*
X1191781D2*
X1876802D1*
X2187185D2*
X3661802D1*
X3918135D2*
X5566386D1*
X5847601D2*
X6089654D1*
X133396Y3544550D2*
X419836D1*
X641169D2*
X862440D1*
X1254945D2*
X1896581D1*
X2167497D2*
X5566386D1*
X5847601D2*
X6089654D1*
X133396Y3481383D2*
X419836D1*
X641169D2*
X925604D1*
X1318109D2*
X1968951D1*
X2095036D2*
X5566386D1*
X5847601D2*
X6089654D1*
X133396Y3418217D2*
X419836D1*
X641169D2*
X988768D1*
X1381273D2*
X5566386D1*
X5847601D2*
X6089654D1*
X133396Y3355050D2*
X419836D1*
X641169D2*
X1051933D1*
X1444437D2*
X5566386D1*
X5847601D2*
X6089654D1*
X133396Y3291883D2*
X419836D1*
X641169D2*
X1115097D1*
X2712093D2*
X5566386D1*
X5847601D2*
X6089654D1*
X133396Y3228717D2*
X419836D1*
X641169D2*
X1178261D1*
X2775258D2*
X5566386D1*
X5847601D2*
X6089654D1*
X133396Y3165550D2*
X419836D1*
X641169D2*
X766464D1*
X3726638D2*
X5566386D1*
X5847601D2*
X6089654D1*
X133396Y3102383D2*
X419836D1*
X641169D2*
X726542D1*
X3726638D2*
X5566386D1*
X5847601D2*
X6089654D1*
X133396Y3039217D2*
X419836D1*
X641169D2*
X717610D1*
X1314646D2*
X2572245D1*
X3726638D2*
X5566386D1*
X5847601D2*
X6089654D1*
X133396Y2976050D2*
X419836D1*
X641169D2*
X733834D1*
X1314646D2*
X2635409D1*
X3726638D2*
X5566386D1*
X5847601D2*
X6089654D1*
X133396Y2912883D2*
X419836D1*
X641169D2*
X767831D1*
X1314646D2*
X3385357D1*
X3726638D2*
X5566386D1*
X5847601D2*
X6089654D1*
X133396Y2849717D2*
X419836D1*
X684099D2*
X726998D1*
X1304984D2*
X3395110D1*
X3716885D2*
X5566386D1*
X5847601D2*
X6089654D1*
X133396Y2786550D2*
X440982D1*
X1314463D2*
X3385539D1*
X3726455D2*
X5566386D1*
X5847601D2*
X6089654D1*
X133396Y2723383D2*
X502779D1*
X1298786D2*
X3401308D1*
X3710687D2*
X5566386D1*
X5847601D2*
X6089654D1*
X133396Y2660217D2*
X559927D1*
X1262784D2*
X3454263D1*
X3657732D2*
X5566386D1*
X5847601D2*
X6089654D1*
X133396Y2597050D2*
X575969D1*
X1304437D2*
X5566386D1*
X5847601D2*
X6089654D1*
X133396Y2533883D2*
X636763D1*
X1314554D2*
X5566386D1*
X5847601D2*
X6089654D1*
X133396Y2470717D2*
X732558D1*
X1299424D2*
X3651412D1*
X4665531D2*
X5566386D1*
X5847601D2*
X6089654D1*
X133396Y2407550D2*
X783782D1*
X994268D2*
X1037805D1*
X1248200D2*
X3574849D1*
X4715935D2*
X5090149D1*
X5323877D2*
X5566386D1*
X5847601D2*
X6089654D1*
X133396Y2344383D2*
X3511685D1*
X4727510D2*
X5047128D1*
X5366898D2*
X5566386D1*
X5847601D2*
X6089654D1*
X133396Y2281217D2*
X2282675D1*
X3241833D2*
X3448521D1*
X4892849D2*
X5036464D1*
X5377562D2*
X5539953D1*
X5847601D2*
X6089654D1*
X133396Y2218050D2*
X2258886D1*
X3265622D2*
X3385357D1*
X4916638D2*
X5051047D1*
X5362888D2*
X5476789D1*
X5843317D2*
X6089654D1*
X133396Y2154883D2*
X2258886D1*
X3265622D2*
X3322193D1*
X3707588D2*
X3846373D1*
X4916638D2*
X5036373D1*
X5806130D2*
X6089654D1*
X133396Y2091717D2*
X2258886D1*
X3644424D2*
X3846373D1*
X4916638D2*
X5036373D1*
X5742966D2*
X6089654D1*
X133396Y2028550D2*
X2258886D1*
X3581260D2*
X3846373D1*
X4916638D2*
X5036373D1*
X5679802D2*
X6089654D1*
X133396Y1965383D2*
X2258886D1*
X3518096D2*
X3846373D1*
X4916638D2*
X5036373D1*
X5616638D2*
X6089654D1*
X133396Y1902217D2*
X2258886D1*
X3464047D2*
X3846373D1*
X4916638D2*
X5036373D1*
X5527862D2*
X6089654D1*
X133396Y1839050D2*
X2258886D1*
X3413825D2*
X3846373D1*
X4916638D2*
X6089654D1*
X133396Y1775883D2*
X2258886D1*
X3265622D2*
X3846373D1*
X4916638D2*
X6089654D1*
X133396Y1712717D2*
X2258886D1*
X3265622D2*
X3846373D1*
X4916638D2*
X6089654D1*
X133396Y1649550D2*
X2258886D1*
X3265622D2*
X3846373D1*
X4916638D2*
X6089654D1*
X133396Y1586383D2*
X2289055D1*
X3235453D2*
X3876542D1*
X4886468D2*
X4996998D1*
X133396Y1523217D2*
X4240852D1*
X4522159D2*
X4925357D1*
X133396Y1460050D2*
X4240852D1*
X4522159D2*
X4862193D1*
X133396Y1396883D2*
X4240852D1*
X4522159D2*
X4802766D1*
X133396Y1333717D2*
X4240852D1*
X4522159D2*
X4786815D1*
X5043513D2*
X6089654D1*
X133396Y1270550D2*
X4240852D1*
X4577211D2*
X4731854D1*
X5399255D2*
X5726347D1*
X5894177D2*
X6089654D1*
X133396Y1207383D2*
X4256347D1*
X4640375D2*
X4731854D1*
X5951325D2*
X6089654D1*
X133396Y1144217D2*
X4311034D1*
X4703539D2*
X4731854D1*
X5965909D2*
X6089654D1*
X133396Y1081050D2*
X1030878D1*
X1382185D2*
X1540018D1*
X1773018D2*
X2554836D1*
X2906143D2*
X3063977D1*
X3296976D2*
X4374198D1*
X5952419D2*
X6089654D1*
X133396Y1017883D2*
X1030878D1*
X1382185D2*
X1493990D1*
X1819047D2*
X2554836D1*
X2906143D2*
X3018039D1*
X3343005D2*
X4437362D1*
X5497419D2*
X5722427D1*
X5898005D2*
X6089654D1*
X133396Y954717D2*
X1030878D1*
X1382185D2*
X1480865D1*
X1832080D2*
X2554836D1*
X2906143D2*
X3004914D1*
X3356130D2*
X4500526D1*
X5548916D2*
X6089654D1*
X133396Y891550D2*
X1030878D1*
X1382185D2*
X1492258D1*
X1820778D2*
X2554836D1*
X2906143D2*
X3016216D1*
X3344828D2*
X4563690D1*
X5563135D2*
X6089654D1*
X133396Y828383D2*
X1030878D1*
X1382185D2*
X1535005D1*
X1777940D2*
X2554836D1*
X2906143D2*
X3059055D1*
X3301989D2*
X4441190D1*
X5551195D2*
X5631190D1*
X5853890D2*
X6089654D1*
X133396Y765217D2*
X4377479D1*
X5504073D2*
X5567479D1*
X5917510D2*
X6089654D1*
X133396Y702050D2*
X259602D1*
X502445D2*
X4351594D1*
X4753396D2*
X5541594D1*
X5943396D2*
X6089654D1*
X133396Y638883D2*
X170279D1*
X591768D2*
X4347857D1*
X4757133D2*
X5537857D1*
X5947133D2*
X6089654D1*
X637067Y575717D2*
X4365084D1*
X4739906D2*
X5555084D1*
X5929906D2*
X6089654D1*
X661130Y512550D2*
X4411021D1*
X4693968D2*
X5601021D1*
X5883968D2*
X6089654D1*
X669424Y449383D2*
X1116008D1*
X1297054D2*
X1565995D1*
X1747041D2*
X2639966D1*
X2821013D2*
X3089953D1*
X3271000D2*
X6089654D1*
X663317Y386217D2*
X1053026D1*
X1360036D2*
X1503013D1*
X1810023D2*
X2576985D1*
X2883995D2*
X3026972D1*
X3333982D2*
X6089654D1*
X641989Y323050D2*
X1032154D1*
X1380909D2*
X1482141D1*
X1830896D2*
X2556112D1*
X2904867D2*
X3006099D1*
X3354854D2*
X6089654D1*
X133396Y259883D2*
X161398D1*
X600609D2*
X1036347D1*
X1376716D2*
X1486334D1*
X1826703D2*
X2560305D1*
X2900674D2*
X3010292D1*
X3350661D2*
X6089654D1*
X133396Y196717D2*
X239823D1*
X522133D2*
X1067974D1*
X1344997D2*
X1517961D1*
X1794984D2*
X2592024D1*
X2869047D2*
X3042011D1*
X3319034D2*
X6089654D1*
X133396Y133550D2*
X1189472D1*
X1223545D2*
X1639459D1*
X1673638D2*
X2713430D1*
X2747645D2*
X3163417D1*
X3197570D2*
X6089654D1*
X5066043Y2196290D2*
X5069416D1*
X5060637Y2211373D1*
X5053120Y2228448D1*
X5047587Y2246266D1*
X5044110Y2264595D1*
X5042734Y2283201D1*
X5043476Y2301843D1*
X5046326Y2320281D1*
X5051249Y2338276D1*
X5058180Y2355597D1*
X5067030Y2372021D1*
X5077685Y2387336D1*
X5090008Y2401344D1*
X5103840Y2413864D1*
X5119002Y2424735D1*
X5135298Y2433818D1*
X5152520Y2440994D1*
X5170444Y2446171D1*
X5188839Y2449283D1*
X5207468Y2450289D1*
X5226092Y2449177D1*
X5244469Y2445960D1*
X5262363Y2440681D1*
X5279543Y2433407D1*
X5295788Y2424231D1*
X5310887Y2413274D1*
X5324647Y2400675D1*
X5336890Y2386597D1*
X5347458Y2371222D1*
X5356214Y2354748D1*
X5363047Y2337387D1*
X5367867Y2319364D1*
X5370612Y2300911D1*
X5371224Y2281334D1*
X5369636Y2262745D1*
X5365951Y2244456D1*
X5360216Y2226703D1*
X5352505Y2209714D1*
X5344612Y2196282D1*
X5371290Y2196290D1*
Y2166303D1*
X5431310Y2166290D1*
X5572696Y2307610D1*
X5572710Y4345893D1*
X5557956Y4331479D1*
X5539004Y4317709D1*
X5518131Y4307074D1*
X5495851Y4299835D1*
X5472713Y4296170D1*
X5449287D1*
X5426149Y4299835D1*
X5403869Y4307074D1*
X5382996Y4317709D1*
X5364044Y4331479D1*
X5347479Y4348044D1*
X5333709Y4366996D1*
X5323074Y4387869D1*
X5315835Y4410149D1*
X5312918Y4426966D1*
X5309363Y4442992D1*
X5307711Y4464041D1*
X5307710Y5096826D1*
X5294750Y5086222D1*
X5274776Y5073982D1*
X5253133Y5065017D1*
X5230354Y5059548D1*
X5207000Y5057710D1*
X5183646Y5059548D1*
X5160867Y5065017D1*
X5139224Y5073982D1*
X5119250Y5086222D1*
X5101436Y5101436D1*
X5086222Y5119250D1*
X5073982Y5139224D1*
X5065017Y5160867D1*
X5059548Y5183646D1*
X5057710Y5207000D1*
X5059548Y5230354D1*
X5065017Y5253133D1*
X5073982Y5274776D1*
X5086222Y5294750D1*
X5101436Y5312564D1*
X5102680Y5313714D1*
X5102710Y6190190D1*
X5093479Y6200044D1*
X5079709Y6218996D1*
X5069074Y6239869D1*
X5061835Y6262149D1*
X5058170Y6285287D1*
Y6308713D1*
X5061835Y6331851D1*
X5069074Y6354131D1*
X5079709Y6375004D1*
X5081516Y6377707D1*
X4315112Y6377710D1*
X4306236Y6368748D1*
X4306290Y3977768D1*
X4338112Y3977790D1*
X4357250Y3994278D1*
X4377224Y4006518D1*
X4398867Y4015483D1*
X4421646Y4020952D1*
X4445000Y4022790D1*
X4468354Y4020952D1*
X4491133Y4015483D1*
X4512776Y4006518D1*
X4532750Y3994278D1*
X4550564Y3979064D1*
X4565778Y3961250D1*
X4578018Y3941276D1*
X4586983Y3919633D1*
X4592452Y3896854D1*
X4594290Y3873500D1*
X4592452Y3850146D1*
X4586983Y3827367D1*
X4578018Y3805724D1*
X4565778Y3785750D1*
X4550564Y3767936D1*
X4532750Y3752722D1*
X4512776Y3740482D1*
X4491133Y3731517D1*
X4468354Y3726048D1*
X4445000Y3724210D1*
X4421646Y3726048D1*
X4398867Y3731517D1*
X4377224Y3740482D1*
X4357250Y3752722D1*
X4339436Y3767936D1*
X4338286Y3769180D1*
X4199317Y3769531D1*
X4183154Y3772091D1*
X4167590Y3777149D1*
X4153009Y3784578D1*
X4139769Y3794197D1*
X4122697Y3811269D1*
X4113078Y3824509D1*
X4105649Y3839090D1*
X4100591Y3854654D1*
X4098030Y3870849D1*
X4090787Y3854527D1*
X4082236Y3840573D1*
X4071608Y3828129D1*
X3939292Y3695814D1*
X3938830Y3682297D1*
X3935165Y3659159D1*
X3927926Y3636879D1*
X3917291Y3616006D1*
X3903521Y3597054D1*
X3886956Y3580489D1*
X3868004Y3566719D1*
X3847131Y3556084D1*
X3824851Y3548845D1*
X3801713Y3545180D1*
X3778287D1*
X3755149Y3548845D1*
X3732869Y3556084D1*
X3711996Y3566719D1*
X3693044Y3580489D1*
X3676479Y3597054D1*
X3662709Y3616006D1*
X3652074Y3636879D1*
X3644835Y3659159D1*
X3641170Y3682297D1*
Y3705723D1*
X3644835Y3728861D1*
X3652074Y3751141D1*
X3662709Y3772014D1*
X3676479Y3790966D1*
X3693044Y3807531D1*
X3711996Y3821301D1*
X3732869Y3831936D1*
X3755149Y3839175D1*
X3778287Y3842840D1*
X3791693Y3843233D1*
X3893557Y3945056D1*
X3893895Y6535176D1*
X3896455Y6551339D1*
X3901512Y6566903D1*
X3908941Y6581485D1*
X3918561Y6594724D1*
X3924143Y6600759D1*
X3932724Y6618482D1*
X3912750Y6630722D1*
X3894936Y6645936D1*
X3879722Y6663750D1*
X3867482Y6683724D1*
X3858517Y6705367D1*
X3853048Y6728146D1*
X3851210Y6751500D1*
X3853048Y6774854D1*
X3858517Y6797633D1*
X3867482Y6819276D1*
X3879722Y6839250D1*
X3894936Y6857064D1*
X3912750Y6872278D1*
X3932724Y6884518D1*
X3954367Y6893483D1*
X3977146Y6898952D1*
X4000500Y6900790D1*
X4023854Y6898952D1*
X4046633Y6893483D1*
X4068276Y6884518D1*
X4088250Y6872278D1*
X4106064Y6857064D1*
X4107214Y6855820D1*
X4486763Y6855790D1*
X4931702Y7300691D1*
X4933548Y7325854D1*
X4939017Y7348633D1*
X4947982Y7370276D1*
X4960222Y7390250D1*
X4975436Y7408064D1*
X4993250Y7423278D1*
X5013224Y7435518D1*
X5034867Y7444483D1*
X5049966Y7448424D1*
X5054017Y7463633D1*
X5062982Y7485276D1*
X5075222Y7505250D1*
X5090436Y7523064D1*
X5108250Y7538278D1*
X5128224Y7550518D1*
X5149867Y7559483D1*
X5172646Y7564952D1*
X5196000Y7566790D1*
X5219354Y7564952D1*
X5242133Y7559483D1*
X5263776Y7550518D1*
X5283750Y7538278D1*
X5301564Y7523064D1*
X5316778Y7505250D1*
X5329018Y7485276D1*
X5337983Y7463633D1*
X5343452Y7440854D1*
X5345290Y7417500D1*
X5343452Y7394146D1*
X5337983Y7371367D1*
X5329018Y7349724D1*
X5316778Y7329750D1*
X5301564Y7311936D1*
X5300320Y7310786D1*
X5299969Y7219817D1*
X5297409Y7203654D1*
X5292351Y7188090D1*
X5284922Y7173509D1*
X5275303Y7160269D1*
X5203748Y7088259D1*
X4701748Y6586259D1*
X5390268Y6586290D1*
X5400044Y6595521D1*
X5418996Y6609291D1*
X5439869Y6619926D1*
X5462149Y6627165D1*
X5485287Y6630830D1*
X5508713D1*
X5531851Y6627165D1*
X5554131Y6619926D1*
X5572727Y6610566D1*
X5572710Y7891831D1*
X5431389Y8033195D1*
X5369707Y8033210D1*
X5378926Y8014631D1*
X5386165Y7992351D1*
X5389830Y7969213D1*
Y7945787D1*
X5386165Y7922649D1*
X5378926Y7900369D1*
X5368291Y7879496D1*
X5354521Y7860544D1*
X5337956Y7843979D1*
X5319004Y7830209D1*
X5298131Y7819574D1*
X5275851Y7812335D1*
X5252713Y7808670D1*
X5229287D1*
X5206149Y7812335D1*
X5183869Y7819574D1*
X5162996Y7830209D1*
X5144044Y7843979D1*
X5134286Y7853180D1*
X4276404Y7853210D1*
X4276330Y7830787D1*
X4272665Y7807649D1*
X4265426Y7785369D1*
X4254791Y7764496D1*
X4241021Y7745544D1*
X4224456Y7728979D1*
X4205504Y7715209D1*
X4184631Y7704574D1*
X4162351Y7697335D1*
X4139213Y7693670D1*
X4115787D1*
X4092649Y7697335D1*
X4070369Y7704574D1*
X4049496Y7715209D1*
X4030544Y7728979D1*
X4020786Y7738180D1*
X3713242Y7738210D1*
X3703466Y7728979D1*
X3684514Y7715209D1*
X3663641Y7704574D1*
X3641361Y7697335D1*
X3618223Y7693670D1*
X3594797D1*
X3571659Y7697335D1*
X3549379Y7704574D1*
X3542684Y7707660D1*
X3545340Y7689213D1*
Y7665787D1*
X3541675Y7642649D1*
X3534436Y7620369D1*
X3530813Y7612510D1*
X3530800Y7591732D1*
X3748556Y7591376D1*
X3769369Y7588080D1*
X3789411Y7581568D1*
X3808186Y7572001D1*
X3825234Y7559615D1*
X3882475Y7502960D1*
X3898652Y7486783D1*
X4319237Y7486810D1*
X4338377Y7494503D1*
X4361156Y7499972D1*
X4384510Y7501810D1*
X4407864Y7499972D1*
X4430643Y7494503D1*
X4452286Y7485538D1*
X4472260Y7473298D1*
X4490074Y7458084D1*
X4505288Y7440270D1*
X4517528Y7420296D1*
X4526493Y7398653D1*
X4531962Y7375874D1*
X4533800Y7352520D1*
X4531962Y7329166D1*
X4526493Y7306387D1*
X4517528Y7284744D1*
X4505288Y7264770D1*
X4490074Y7246956D1*
X4472260Y7231742D1*
X4452286Y7219502D1*
X4430643Y7210537D1*
X4407864Y7205068D1*
X4384510Y7203230D1*
X4361156Y7205068D1*
X4338377Y7210537D1*
X4319520Y7218217D1*
X3832464Y7218644D1*
X3811651Y7221940D1*
X3791609Y7228452D1*
X3772834Y7238019D1*
X3755786Y7250405D1*
X3698545Y7307060D1*
X3682368Y7323237D1*
X3600846Y7323210D1*
X3600386Y6852484D1*
X3597090Y6831671D1*
X3590578Y6811629D1*
X3581011Y6792854D1*
X3568625Y6775806D1*
X3511970Y6718565D1*
X3163876Y6370472D1*
X3187423Y6380200D1*
X3212643Y6386255D1*
X3238500Y6388290D1*
X3264357Y6386255D1*
X3289577Y6380200D1*
X3313540Y6370274D1*
X3327182Y6362384D1*
X3327210Y6388290D1*
X3657790D1*
Y6057710D1*
X3631996D1*
X3639774Y6044040D1*
X3649700Y6020077D1*
X3655755Y5994857D1*
X3657790Y5969000D1*
X3655755Y5943143D1*
X3649700Y5917923D1*
X3639774Y5893960D1*
X3626222Y5871845D1*
X3609378Y5852122D1*
X3598215Y5842026D1*
X3609378Y5831878D1*
X3626222Y5812155D1*
X3639774Y5790040D1*
X3649700Y5766077D1*
X3655755Y5740857D1*
X3657790Y5715000D1*
X3655755Y5689143D1*
X3649700Y5663923D1*
X3639774Y5639960D1*
X3626222Y5617845D1*
X3609378Y5598122D1*
X3589655Y5581278D1*
X3567540Y5567726D1*
X3543577Y5557800D1*
X3518357Y5551745D1*
X3492500Y5549710D1*
X3469815Y5551370D1*
X3469469Y5516317D1*
X3466909Y5500154D1*
X3461852Y5484590D1*
X3454422Y5470008D1*
X3444803Y5456769D1*
X3373248Y5384759D1*
X3179231Y5191197D1*
X3165991Y5181578D1*
X3151410Y5174149D1*
X3135846Y5169092D1*
X3119683Y5166531D1*
X3018167Y5166210D1*
X2583310D1*
X2573456Y5156979D1*
X2554504Y5143209D1*
X2533631Y5132574D1*
X2511351Y5125335D1*
X2488213Y5121670D1*
X2464787D1*
X2441649Y5125335D1*
X2419369Y5132574D1*
X2398496Y5143209D1*
X2379544Y5156979D1*
X2362979Y5173544D1*
X2349209Y5192496D1*
X2338574Y5213369D1*
X2331335Y5235649D1*
X2327670Y5258787D1*
Y5282213D1*
X2331335Y5305351D1*
X2338574Y5327631D1*
X2349209Y5348504D1*
X2362979Y5367456D1*
X2379544Y5384021D1*
X2398496Y5397791D1*
X2419369Y5408426D1*
X2441649Y5415665D1*
X2464787Y5419330D1*
X2488213D1*
X2511351Y5415665D1*
X2533631Y5408426D1*
X2554504Y5397791D1*
X2573456Y5384021D1*
X2583214Y5374820D1*
X3068310Y5374790D1*
X3243286Y5549775D1*
X3225531Y5550220D1*
X3199914Y5554277D1*
X3175246Y5562292D1*
X3152136Y5574067D1*
X3131153Y5589312D1*
X3112812Y5607653D1*
X3097567Y5628636D1*
X3085792Y5651746D1*
X3077777Y5676414D1*
X3073720Y5702031D1*
Y5727969D1*
X3077777Y5753586D1*
X3085792Y5778254D1*
X3097567Y5801364D1*
X3112812Y5822347D1*
X3124712Y5834734D1*
X2957862Y5834710D1*
X2957790Y5524500D1*
X2956137Y5503492D1*
X2951218Y5483002D1*
X2943153Y5463534D1*
X2932143Y5445566D1*
X2918458Y5429542D1*
X2902434Y5415857D1*
X2884466Y5404847D1*
X2864998Y5396782D1*
X2844508Y5391863D1*
X2823500Y5390210D1*
X2795701D1*
X2776633Y5382517D1*
X2753854Y5377048D1*
X2730500Y5375210D1*
X2707146Y5377048D1*
X2684367Y5382517D1*
X2662724Y5391482D1*
X2642750Y5403722D1*
X2624936Y5418936D1*
X2609722Y5436750D1*
X2597482Y5456724D1*
X2588517Y5478367D1*
X2583048Y5501146D1*
X2581210Y5524500D1*
X2583048Y5547854D1*
X2588517Y5570633D1*
X2597482Y5592276D1*
X2609722Y5612250D1*
X2624936Y5630064D1*
X2642750Y5645278D1*
X2662724Y5657518D1*
X2684367Y5666483D1*
X2689171Y5667838D1*
X2689624Y5909536D1*
X2692920Y5930349D1*
X2699432Y5950391D1*
X2703867Y5960002D1*
X2703847Y5978034D1*
X2695782Y5997502D1*
X2690863Y6017992D1*
X2689211Y6039041D1*
X2689624Y6230546D1*
X2692920Y6251359D1*
X2699432Y6271401D1*
X2708999Y6290176D1*
X2721385Y6307224D1*
X2778040Y6364465D1*
X3332244Y6918669D1*
X3332220Y7339622D1*
X3317576Y7348857D1*
X3301552Y7362542D1*
X3287867Y7378566D1*
X3276857Y7396533D1*
X3268792Y7416002D1*
X3263873Y7436492D1*
X3262221Y7457541D1*
X3262220Y7612357D1*
X3254527Y7631367D1*
X3249058Y7654146D1*
X3247220Y7677500D1*
X3249058Y7700854D1*
X3254527Y7723633D1*
X3263492Y7745276D1*
X3275732Y7765250D1*
X3290946Y7783064D1*
X3308760Y7798278D1*
X3328734Y7810518D1*
X3350377Y7819483D1*
X3373156Y7824952D1*
X3396510Y7826790D1*
X3419864Y7824952D1*
X3442643Y7819483D1*
X3460336Y7812340D1*
X3457680Y7830787D1*
X3457642Y7853252D1*
X3138721Y7853210D1*
X2284284Y6998795D1*
X2283830Y6985287D1*
X2280165Y6962149D1*
X2272926Y6939869D1*
X2262291Y6918996D1*
X2248521Y6900044D1*
X2231956Y6883479D1*
X2213004Y6869709D1*
X2192131Y6859074D1*
X2169851Y6851835D1*
X2146713Y6848170D1*
X2136327Y6847762D1*
X2136290Y3726388D1*
X2152778Y3707250D1*
X2165018Y3687276D1*
X2173983Y3665633D1*
X2179452Y3642854D1*
X2181290Y3619500D1*
X2179452Y3596146D1*
X2173983Y3573367D1*
X2165018Y3551724D1*
X2152778Y3531750D1*
X2137564Y3513936D1*
X2119750Y3498722D1*
X2099776Y3486482D1*
X2078133Y3477517D1*
X2055354Y3472048D1*
X2032000Y3470210D1*
X2008646Y3472048D1*
X1985867Y3477517D1*
X1964224Y3486482D1*
X1944250Y3498722D1*
X1926436Y3513936D1*
X1911222Y3531750D1*
X1898982Y3551724D1*
X1890017Y3573367D1*
X1884548Y3596146D1*
X1882710Y3619500D1*
X1884548Y3642854D1*
X1890017Y3665633D1*
X1898982Y3687276D1*
X1911222Y3707250D1*
X1926436Y3725064D1*
X1927680Y3726214D1*
X1928031Y7120183D1*
X1930591Y7136346D1*
X1935649Y7151910D1*
X1943078Y7166491D1*
X1952697Y7179731D1*
X2024252Y7251741D1*
X3015019Y8242053D1*
X3028259Y8251672D1*
X3042840Y8259101D1*
X3058404Y8264159D1*
X3074567Y8266719D1*
X3176083Y8267040D1*
X4004508D1*
X3990436Y8279436D1*
X3975222Y8297250D1*
X3962982Y8317224D1*
X3954017Y8338867D1*
X3948548Y8361646D1*
X3946710Y8385000D1*
X3948548Y8408354D1*
X3954017Y8431133D1*
X3958822Y8443753D1*
X1750909Y8443710D1*
X1731750Y8427222D1*
X1711776Y8414982D1*
X1690133Y8406017D1*
X1667354Y8400548D1*
X1644000Y8398710D1*
X1620646Y8400548D1*
X1597867Y8406017D1*
X1576224Y8414982D1*
X1556250Y8427222D1*
X1538436Y8442436D1*
X1523222Y8460250D1*
X1510982Y8480224D1*
X1502017Y8501867D1*
X1496548Y8524646D1*
X1494710Y8548000D1*
X1495132Y8558752D1*
X358201Y8558710D1*
X358290Y4345497D1*
X609813Y4093471D1*
X619432Y4080232D1*
X626862Y4065650D1*
X631919Y4050086D1*
X634479Y4033923D1*
X634800Y3932407D1*
Y2892706D1*
X713755Y2813694D1*
X724880Y2813381D1*
X728277Y2832586D1*
X736292Y2857254D1*
X748067Y2880364D1*
X763312Y2901347D1*
X781653Y2919688D1*
X783285Y2920974D1*
X772122Y2931122D1*
X755278Y2950845D1*
X741726Y2972960D1*
X731800Y2996923D1*
X725745Y3022143D1*
X723710Y3048000D1*
X725745Y3073857D1*
X731800Y3099077D1*
X741726Y3123040D1*
X755278Y3145155D1*
X772122Y3164878D1*
X791845Y3181722D1*
X813960Y3195274D1*
X837923Y3205200D1*
X863143Y3211255D1*
X889000Y3213290D1*
X914857Y3211255D1*
X940077Y3205200D1*
X964040Y3195274D1*
X977682Y3187384D1*
X977710Y3213290D1*
X1200015D1*
X771885Y3642035D1*
X759499Y3659084D1*
X749932Y3677859D1*
X743420Y3697901D1*
X740124Y3718714D1*
X739710Y3799250D1*
Y4463247D1*
X657464Y4463624D1*
X636651Y4466920D1*
X616609Y4473432D1*
X597834Y4482999D1*
X580785Y4495385D1*
X523545Y4552040D1*
X405885Y4670285D1*
X393499Y4687333D1*
X383932Y4706109D1*
X377420Y4726151D1*
X374124Y4746964D1*
X373710Y4827500D1*
X374124Y6708536D1*
X377420Y6729349D1*
X383932Y6749391D1*
X393499Y6768167D1*
X405885Y6785215D1*
X462540Y6842455D1*
X580785Y6960115D1*
X597833Y6972501D1*
X616609Y6982068D1*
X636651Y6988580D1*
X657464Y6991876D1*
X738000Y6992290D1*
X901971D1*
X890312Y7004653D1*
X875067Y7025636D1*
X863292Y7048746D1*
X855277Y7073414D1*
X851220Y7099031D1*
Y7124969D1*
X855277Y7150586D1*
X863292Y7175254D1*
X875067Y7198364D1*
X890312Y7219347D1*
X908653Y7237688D1*
X910285Y7238974D1*
X899122Y7249122D1*
X882278Y7268845D1*
X868726Y7290960D1*
X858800Y7314923D1*
X852745Y7340143D1*
X850710Y7366000D1*
X852745Y7391857D1*
X858800Y7417077D1*
X868726Y7441040D1*
X882278Y7463155D1*
X899122Y7482878D1*
X918845Y7499722D1*
X940960Y7513274D1*
X964923Y7523200D1*
X990143Y7529255D1*
X1016000Y7531290D1*
X1041857Y7529255D1*
X1067077Y7523200D1*
X1091040Y7513274D1*
X1104682Y7505384D1*
X1104710Y7531290D1*
X1435290D1*
Y7200710D1*
X1409496D1*
X1417274Y7187040D1*
X1427200Y7163077D1*
X1433255Y7137857D1*
X1435290Y7112000D1*
X1433255Y7086143D1*
X1427200Y7060923D1*
X1417274Y7036960D1*
X1403722Y7014845D1*
X1386878Y6995122D1*
X1375715Y6985026D1*
X1391000Y6970605D1*
X1402919Y6956252D1*
X1413144Y6940647D1*
X1421546Y6923989D1*
X1428017Y6906490D1*
X1432475Y6888374D1*
X1434863Y6869871D1*
X1435027Y6848672D1*
X1432924Y6830134D1*
X1428746Y6811951D1*
X1422545Y6794355D1*
X1414401Y6777569D1*
X1404417Y6761809D1*
X1392721Y6747274D1*
X1379461Y6734149D1*
X1364807Y6722603D1*
X1348944Y6712781D1*
X1332076Y6704810D1*
X1314418Y6698790D1*
X1296193Y6694799D1*
X1277634Y6692886D1*
X1258978Y6693078D1*
X1240463Y6695370D1*
X1222324Y6699735D1*
X1204792Y6706116D1*
X1188092Y6714432D1*
X1172434Y6724577D1*
X1158020Y6736422D1*
X1145032Y6749816D1*
X1143002Y6752229D1*
X1132878Y6741122D1*
X1113155Y6724278D1*
X1091040Y6710726D1*
X1067077Y6700800D1*
X1041857Y6694745D1*
X1016000Y6692710D1*
X990143Y6694745D1*
X964923Y6700800D1*
X940960Y6710726D1*
X919730Y6723686D1*
X723695Y6723710D1*
X642243Y6642328D1*
X642290Y4990930D1*
X654222Y5010250D1*
X669436Y5028064D1*
X687250Y5043278D1*
X707224Y5055518D1*
X728867Y5064483D1*
X751646Y5069952D1*
X775000Y5071790D1*
X798354Y5069952D1*
X821133Y5064483D1*
X842776Y5055518D1*
X862750Y5043278D1*
X880564Y5028064D1*
X881714Y5026820D1*
X1187183Y5026469D1*
X1203346Y5023909D1*
X1218910Y5018852D1*
X1233492Y5011422D1*
X1246731Y5001803D1*
X1322744Y4926244D1*
X1333373Y4913800D1*
X1341923Y4899847D1*
X1348186Y4884728D1*
X1352006Y4868815D1*
X1353290Y4852500D1*
Y4399232D1*
X1362521Y4389456D1*
X1376291Y4370504D1*
X1386926Y4349631D1*
X1394165Y4327351D1*
X1397830Y4304213D1*
Y4280787D1*
X1394165Y4257649D1*
X1386926Y4235369D1*
X1376291Y4214496D1*
X1362521Y4195544D1*
X1345956Y4178979D1*
X1327004Y4165209D1*
X1306131Y4154574D1*
X1283851Y4147335D1*
X1260713Y4143670D1*
X1237287D1*
X1214149Y4147335D1*
X1191869Y4154574D1*
X1170996Y4165209D1*
X1152044Y4178979D1*
X1135479Y4195544D1*
X1121709Y4214496D1*
X1111074Y4235369D1*
X1103835Y4257649D1*
X1100170Y4280787D1*
Y4304213D1*
X1103835Y4327351D1*
X1111074Y4349631D1*
X1121709Y4370504D1*
X1135479Y4389456D1*
X1144680Y4399214D1*
X1144710Y4520273D1*
X1121186Y4512611D1*
X1096498Y4508701D1*
X1037333Y4508210D1*
X1008258D1*
X1008290Y3784935D1*
X1464383Y3328782D1*
X2623786Y3328376D1*
X2644599Y3325080D1*
X2664641Y3318568D1*
X2683416Y3309001D1*
X2700465Y3296615D1*
X2757705Y3239960D1*
X2815388Y3182277D1*
X3391664Y3182290D1*
X3391710Y3212290D1*
X3720290D1*
Y2883710D1*
X3693981Y2883177D1*
X3703202Y2866958D1*
X3710524Y2849799D1*
X3715854Y2831920D1*
X3719122Y2813551D1*
X3720290Y2794000D1*
X3719231Y2775373D1*
X3716066Y2756987D1*
X3710838Y2739078D1*
X3703613Y2721877D1*
X3694484Y2705607D1*
X3683569Y2690476D1*
X3671010Y2676680D1*
X3656967Y2664397D1*
X3641622Y2653786D1*
X3625173Y2644982D1*
X3607832Y2638101D1*
X3589823Y2633229D1*
X3571377Y2630431D1*
X3552733Y2629742D1*
X3534131Y2631172D1*
X3515811Y2634701D1*
X3498010Y2640285D1*
X3480956Y2647851D1*
X3464870Y2657301D1*
X3449960Y2668514D1*
X3436416Y2681346D1*
X3424415Y2695630D1*
X3414111Y2711183D1*
X3405636Y2727804D1*
X3399101Y2745278D1*
X3394588Y2763381D1*
X3392158Y2781879D1*
X3391840Y2800533D1*
X3393639Y2819102D1*
X3397532Y2837348D1*
X3403468Y2855035D1*
X3411372Y2871935D1*
X3418364Y2883700D1*
X3391710Y2883710D1*
Y2913697D1*
X2749214Y2914124D1*
X2728401Y2917420D1*
X2708359Y2923932D1*
X2689584Y2933499D1*
X2672535Y2945885D1*
X2615295Y3002540D1*
X2557612Y3060223D1*
X1398214Y3060624D1*
X1377401Y3063920D1*
X1357359Y3070432D1*
X1338584Y3079999D1*
X1321535Y3092385D1*
X1308314Y3105021D1*
X1308290Y2882710D1*
X1282496D1*
X1290274Y2869040D1*
X1300200Y2845077D1*
X1306255Y2819857D1*
X1308290Y2794000D1*
X1306255Y2768143D1*
X1300200Y2742923D1*
X1290274Y2718960D1*
X1276722Y2696845D1*
X1259878Y2677122D1*
X1248715Y2667026D1*
X1259878Y2656878D1*
X1276722Y2637155D1*
X1290274Y2615040D1*
X1300200Y2591077D1*
X1306255Y2565857D1*
X1308290Y2540000D1*
X1306255Y2514143D1*
X1300200Y2488923D1*
X1290274Y2464960D1*
X1276722Y2442845D1*
X1259878Y2423122D1*
X1240155Y2406278D1*
X1218040Y2392726D1*
X1194077Y2382800D1*
X1168857Y2376745D1*
X1143000Y2374710D1*
X1117143Y2376745D1*
X1091923Y2382800D1*
X1067960Y2392726D1*
X1045845Y2406278D1*
X1026122Y2423122D1*
X1016026Y2434285D1*
X1005878Y2423122D1*
X986155Y2406278D1*
X964040Y2392726D1*
X940077Y2382800D1*
X914857Y2376745D1*
X889000Y2374710D1*
X863143Y2376745D1*
X837923Y2382800D1*
X813960Y2392726D1*
X791845Y2406278D1*
X772122Y2423122D1*
X755278Y2442845D1*
X741726Y2464960D1*
X731800Y2488923D1*
X725745Y2514143D1*
X725584Y2515502D1*
X703787Y2515630D1*
X680649Y2519295D1*
X658369Y2526534D1*
X637496Y2537169D1*
X618544Y2550939D1*
X601979Y2567504D1*
X588209Y2586456D1*
X577574Y2607329D1*
X570335Y2629609D1*
X566670Y2652747D1*
X566277Y2666153D1*
X451207Y2781719D1*
X441588Y2794959D1*
X434158Y2809540D1*
X429101Y2825104D1*
X426541Y2841267D1*
X426220Y2942783D1*
Y3982484D1*
X174697Y4234519D1*
X165078Y4247758D1*
X157648Y4262340D1*
X152591Y4277904D1*
X150031Y4294067D1*
X149710Y4395583D1*
X150031Y8642183D1*
X152591Y8658346D1*
X157648Y8673910D1*
X165078Y8688492D1*
X174697Y8701731D1*
X209256Y8736744D1*
X221700Y8747373D1*
X235653Y8755923D1*
X250773Y8762186D1*
X266685Y8766006D1*
X283000Y8767290D1*
X1380122D1*
X1380170Y8789713D1*
X1383835Y8812851D1*
X1391074Y8835131D1*
X1401709Y8856004D1*
X1415479Y8874956D1*
X1432044Y8891521D1*
X1450996Y8905291D1*
X1471869Y8915926D1*
X1494149Y8923165D1*
X1517287Y8926830D1*
X1540713D1*
X1563851Y8923165D1*
X1586131Y8915926D1*
X1607004Y8905291D1*
X1625956Y8891521D1*
X1642521Y8874956D1*
X1656291Y8856004D1*
X1665948Y8837252D1*
X3400471Y8837290D1*
X3396249Y8851647D1*
X3392216Y8877110D1*
Y8902890D1*
X3396249Y8928353D1*
X3404216Y8952871D1*
X3415920Y8975841D1*
X3431073Y8996698D1*
X3449302Y9014927D1*
X3451874Y9016955D1*
X3439829Y9027829D1*
X3423087Y9047433D1*
X3409617Y9069414D1*
X3399751Y9093232D1*
X3393733Y9118299D1*
X3391710Y9144000D1*
X3393733Y9169701D1*
X3399751Y9194768D1*
X3409617Y9218586D1*
X3423087Y9240567D1*
X3439829Y9260171D1*
X3451874Y9270955D1*
X3439829Y9281829D1*
X3423087Y9301433D1*
X3409617Y9323414D1*
X3399751Y9347232D1*
X3393733Y9372299D1*
X3391710Y9398000D1*
X3393733Y9423701D1*
X3399751Y9448768D1*
X3409617Y9472586D1*
X3423087Y9494567D1*
X3439829Y9514171D1*
X3451874Y9524955D1*
X3439829Y9535829D1*
X3429170Y9547716D1*
X2519763Y9547710D1*
X2308235Y9336247D1*
X2307830Y9322787D1*
X2304165Y9299649D1*
X2296926Y9277369D1*
X2286291Y9256496D1*
X2272521Y9237544D1*
X2255956Y9220979D1*
X2237004Y9207209D1*
X2216131Y9196574D1*
X2193851Y9189335D1*
X2170713Y9185670D1*
X2147287D1*
X2124149Y9189335D1*
X2101869Y9196574D1*
X2080996Y9207209D1*
X2062044Y9220979D1*
X2045479Y9237544D1*
X2031709Y9256496D1*
X2021074Y9277369D1*
X2013835Y9299649D1*
X2010170Y9322787D1*
Y9346213D1*
X2013835Y9369351D1*
X2021074Y9391631D1*
X2031709Y9412504D1*
X2045479Y9431456D1*
X2062044Y9448021D1*
X2080996Y9461791D1*
X2101869Y9472426D1*
X2124149Y9479665D1*
X2147287Y9483330D1*
X2160693Y9483723D1*
X2408769Y9731303D1*
X2422009Y9740922D1*
X2436590Y9748351D1*
X2452154Y9753408D1*
X2468317Y9755969D1*
X2569833Y9756290D1*
X3429065D1*
X3439829Y9768171D1*
X3451874Y9778955D1*
X3436416Y9793346D1*
X3424415Y9807630D1*
X3414111Y9823183D1*
X3405636Y9839804D1*
X3399101Y9857278D1*
X3394588Y9875381D1*
X3392158Y9893879D1*
X3391840Y9912533D1*
X3393639Y9931102D1*
X3397532Y9949348D1*
X3403468Y9967035D1*
X3411372Y9983935D1*
X3421140Y9999830D1*
X3432648Y10014515D1*
X3445746Y10027800D1*
X3451788Y10032990D1*
X3439829Y10043829D1*
X3423087Y10063433D1*
X3409617Y10085414D1*
X3399751Y10109232D1*
X3393733Y10134299D1*
X3391710Y10160000D1*
X3393733Y10185701D1*
X3399751Y10210768D1*
X3409617Y10234586D1*
X3423087Y10256567D1*
X3439829Y10276171D1*
X3451874Y10286955D1*
X3439829Y10297829D1*
X3423087Y10317433D1*
X3409617Y10339414D1*
X3399751Y10363232D1*
X3393733Y10388299D1*
X3391710Y10414000D1*
X3393733Y10439701D1*
X3399751Y10464768D1*
X3409617Y10488586D1*
X3423087Y10510567D1*
X3439829Y10530171D1*
X3451874Y10540955D1*
X3439829Y10551829D1*
X3423087Y10571433D1*
X3409617Y10593414D1*
X3399751Y10617232D1*
X3393733Y10642299D1*
X3391710Y10668000D1*
X3393733Y10693701D1*
X3399751Y10718768D1*
X3409617Y10742586D1*
X3423087Y10764567D1*
X3439829Y10784171D1*
X3451874Y10794955D1*
X3439829Y10805829D1*
X3429170Y10817716D1*
X3129346Y10817710D1*
X1897231Y9586047D1*
X1883992Y9576428D1*
X1869410Y9568998D1*
X1853846Y9563941D1*
X1837683Y9561381D1*
X1736167Y9561060D1*
X487742D1*
X477956Y9551829D1*
X459004Y9538059D1*
X438131Y9527424D1*
X415851Y9520185D1*
X392713Y9516520D1*
X369287D1*
X346149Y9520185D1*
X323869Y9527424D1*
X302996Y9538059D1*
X284044Y9551829D1*
X267479Y9568394D1*
X253709Y9587346D1*
X243074Y9608219D1*
X235835Y9630499D1*
X232170Y9653637D1*
Y9677063D1*
X235835Y9700201D1*
X243074Y9722481D1*
X253709Y9743354D1*
X267479Y9762306D1*
X284044Y9778871D1*
X302996Y9792641D1*
X323869Y9803276D1*
X346149Y9810515D1*
X369287Y9814180D1*
X392713D1*
X415851Y9810515D1*
X438131Y9803276D1*
X459004Y9792641D1*
X477956Y9778871D1*
X487714Y9769670D1*
X1786378Y9769640D1*
X3018419Y11001303D1*
X3031658Y11010922D1*
X3046240Y11018352D1*
X3061804Y11023409D1*
X3077967Y11025969D1*
X3179483Y11026290D1*
X3429132D1*
X3439829Y11038171D1*
X3451874Y11048955D1*
X3439829Y11059829D1*
X3429170Y11071716D1*
X2623305Y11071710D1*
X2613466Y11062479D1*
X2594514Y11048709D1*
X2573641Y11038074D1*
X2551361Y11030835D1*
X2528223Y11027170D1*
X2504797D1*
X2481659Y11030835D1*
X2459379Y11038074D1*
X2438506Y11048709D1*
X2419554Y11062479D1*
X2402989Y11079044D1*
X2389219Y11097996D1*
X2378584Y11118869D1*
X2371345Y11141149D1*
X2367680Y11164287D1*
Y11187713D1*
X2371345Y11210851D1*
X2378584Y11233131D1*
X2389219Y11254004D1*
X2402989Y11272956D1*
X2419554Y11289521D1*
X2438506Y11303291D1*
X2459379Y11313926D1*
X2481659Y11321165D1*
X2504797Y11324830D1*
X2528223D1*
X2551361Y11321165D1*
X2573641Y11313926D1*
X2594514Y11303291D1*
X2613466Y11289521D1*
X2623224Y11280320D1*
X3428971Y11280290D1*
X3439829Y11292171D1*
X3451874Y11302955D1*
X3439829Y11313829D1*
X3429170Y11325716D1*
X1270518Y11325710D1*
X1283291Y11308004D1*
X1293926Y11287131D1*
X1301165Y11264851D1*
X1304830Y11241713D1*
Y11218287D1*
X1301165Y11195149D1*
X1293926Y11172869D1*
X1292258Y11169251D1*
X1652683Y11168969D1*
X1668846Y11166409D1*
X1684410Y11161352D1*
X1698991Y11153922D1*
X1712231Y11144303D1*
X1788244Y11068744D1*
X1798873Y11056300D1*
X1807423Y11042347D1*
X1813686Y11027227D1*
X1817506Y11011315D1*
X1818789Y10994968D1*
X1818790Y10335742D1*
X1828021Y10325956D1*
X1841791Y10307004D1*
X1852426Y10286131D1*
X1859665Y10263851D1*
X1863330Y10240713D1*
Y10217287D1*
X1859665Y10194149D1*
X1852426Y10171869D1*
X1841791Y10150996D1*
X1828021Y10132044D1*
X1811456Y10115479D1*
X1792504Y10101709D1*
X1771631Y10091074D1*
X1749351Y10083835D1*
X1726213Y10080170D1*
X1702787D1*
X1679649Y10083835D1*
X1657369Y10091074D1*
X1636496Y10101709D1*
X1617544Y10115479D1*
X1600979Y10132044D1*
X1587209Y10150996D1*
X1576574Y10171869D1*
X1569335Y10194149D1*
X1565670Y10217287D1*
Y10240713D1*
X1569335Y10263851D1*
X1576574Y10286131D1*
X1587209Y10307004D1*
X1600979Y10325956D1*
X1610180Y10335714D1*
X1610210Y10951878D1*
X1601248Y10960763D1*
X903393Y10960710D1*
X885041Y10935571D1*
X874419Y10924081D1*
X862929Y10913459D1*
X850640Y10903771D1*
X837629Y10895077D1*
X823976Y10887431D1*
X809765Y10880880D1*
X795084Y10875464D1*
X780023Y10871216D1*
X764676Y10868164D1*
X749136Y10866324D1*
X710167Y10865710D1*
X663500D1*
X647864Y10866324D1*
X632324Y10868164D1*
X616977Y10871216D1*
X601916Y10875464D1*
X587235Y10880880D1*
X573024Y10887431D1*
X559371Y10895077D1*
X546360Y10903771D1*
X534071Y10913459D1*
X522581Y10924081D1*
X511959Y10935571D1*
X502271Y10947860D1*
X493577Y10960871D1*
X485931Y10974524D1*
X479380Y10988735D1*
X473964Y11003416D1*
X469716Y11018477D1*
X466664Y11033824D1*
X464824Y11049364D1*
X464210Y11065000D1*
X464824Y11080636D1*
X466664Y11096176D1*
X469716Y11111523D1*
X473964Y11126584D1*
X479380Y11141265D1*
X485931Y11155476D1*
X493577Y11169129D1*
X502271Y11182140D1*
X511959Y11194429D1*
X522581Y11205919D1*
X534071Y11216541D1*
X546360Y11226229D1*
X559371Y11234923D1*
X573024Y11242569D1*
X587235Y11249120D1*
X601916Y11254536D1*
X616977Y11258784D1*
X632324Y11261836D1*
X647864Y11263676D1*
X686834Y11264290D1*
X749136Y11263676D1*
X764676Y11261836D1*
X780023Y11258784D1*
X806840Y11250199D1*
X799314Y11267773D1*
X795494Y11283685D1*
X794210Y11300000D1*
Y11375195D1*
X780023Y11371216D1*
X764676Y11368164D1*
X749136Y11366324D1*
X710167Y11365710D1*
X663500D1*
X647864Y11366324D1*
X632324Y11368164D1*
X616977Y11371216D1*
X601916Y11375464D1*
X587235Y11380880D1*
X573024Y11387431D1*
X559371Y11395077D1*
X546360Y11403771D1*
X534071Y11413459D1*
X522581Y11424081D1*
X511959Y11435571D1*
X502271Y11447860D1*
X493577Y11460871D1*
X485931Y11474524D1*
X479380Y11488735D1*
X473964Y11503416D1*
X469716Y11518477D1*
X466664Y11533824D1*
X464824Y11549364D1*
X464210Y11565000D1*
X464824Y11580636D1*
X466664Y11596176D1*
X469716Y11611523D1*
X473964Y11626584D1*
X479380Y11641265D1*
X485931Y11655476D1*
X493577Y11669129D1*
X502271Y11682140D1*
X511959Y11694429D1*
X522581Y11705919D1*
X534071Y11716541D1*
X546360Y11726229D1*
X559371Y11734923D1*
X573024Y11742569D1*
X587235Y11749120D1*
X601916Y11754536D1*
X616977Y11758784D1*
X632324Y11761836D1*
X647864Y11763676D1*
X686834Y11764290D1*
X749136Y11763676D1*
X764676Y11761836D1*
X780023Y11758784D1*
X795084Y11754536D1*
X809765Y11749120D1*
X823976Y11742569D1*
X837629Y11734923D1*
X850640Y11726229D1*
X862929Y11716541D1*
X874419Y11705919D1*
X885041Y11694429D1*
X894729Y11682140D1*
X908351Y11660329D1*
X1007769Y11759303D1*
X1021009Y11768922D1*
X1035590Y11776352D1*
X1051154Y11781409D1*
X1067317Y11783969D1*
X1168833Y11784290D1*
X1362518D1*
X1356074Y11797869D1*
X1348835Y11820149D1*
X1345170Y11843287D1*
X1344710Y11901667D1*
X1345170Y12076713D1*
X1348835Y12099851D1*
X1356074Y12122131D1*
X1366709Y12143004D1*
X1380479Y12161956D1*
X1397044Y12178521D1*
X1415996Y12192291D1*
X1436869Y12202926D1*
X1459149Y12210165D1*
X1482287Y12213830D1*
X1505713D1*
X1528851Y12210165D1*
X1551131Y12202926D1*
X1572004Y12192291D1*
X1590956Y12178521D1*
X1607521Y12161956D1*
X1621291Y12143004D1*
X1631926Y12122131D1*
X1639165Y12099851D1*
X1642830Y12076713D1*
X1643290Y12018333D1*
Y11985430D1*
X1821044Y12162521D1*
X1839996Y12176291D1*
X1860869Y12186926D1*
X1883149Y12194165D1*
X1906287Y12197830D1*
X1964667Y12198290D1*
X2913213Y12197830D1*
X2936351Y12194165D1*
X2958631Y12186926D1*
X2979504Y12176291D1*
X2998456Y12162521D1*
X3015021Y12145956D1*
X3028791Y12127004D1*
X3039426Y12106131D1*
X3046665Y12083851D1*
X3050330Y12060713D1*
Y12037287D1*
X3046665Y12014149D1*
X3039426Y11991869D1*
X3034496Y11981184D1*
X3033496Y11976291D1*
X3054369Y11986926D1*
X3076649Y11994165D1*
X3099787Y11997830D1*
X3123213D1*
X3146351Y11994165D1*
X3168631Y11986926D1*
X3176490Y11983303D1*
X3177210Y11984000D1*
X3177624Y12202536D1*
X3180920Y12223349D1*
X3187432Y12243391D1*
X3196999Y12262167D1*
X3209385Y12279215D1*
X3216833Y12287710D1*
X811768D1*
X802736Y12278748D1*
X802790Y12251909D1*
X823976Y12242569D1*
X837629Y12234923D1*
X850640Y12226229D1*
X862929Y12216541D1*
X874419Y12205919D1*
X885041Y12194429D1*
X894729Y12182140D1*
X903423Y12169129D1*
X911069Y12155476D1*
X917620Y12141265D1*
X923036Y12126584D1*
X927284Y12111523D1*
X930336Y12096176D1*
X932176Y12080636D1*
X932790Y12065000D1*
X932176Y12049364D1*
X930336Y12033824D1*
X927284Y12018477D1*
X923036Y12003416D1*
X917620Y11988735D1*
X911069Y11974524D1*
X903423Y11960871D1*
X894729Y11947860D1*
X885041Y11935571D1*
X874419Y11924081D1*
X862929Y11913459D1*
X850640Y11903771D1*
X837629Y11895077D1*
X823976Y11887431D1*
X809765Y11880880D1*
X795084Y11875464D1*
X780023Y11871216D1*
X764676Y11868164D1*
X749136Y11866324D1*
X710167Y11865710D1*
X663500D1*
X647864Y11866324D1*
X632324Y11868164D1*
X616977Y11871216D1*
X601916Y11875464D1*
X587235Y11880880D1*
X573024Y11887431D1*
X559371Y11895077D1*
X546360Y11903771D1*
X534071Y11913459D1*
X522581Y11924081D1*
X511959Y11935571D1*
X502271Y11947860D1*
X493577Y11960871D1*
X485931Y11974524D1*
X479380Y11988735D1*
X473964Y12003416D1*
X469716Y12018477D1*
X466664Y12033824D1*
X464824Y12049364D1*
X464210Y12065000D1*
X464824Y12080636D1*
X466664Y12096176D1*
X469716Y12111523D1*
X473964Y12126584D1*
X479380Y12141265D1*
X485931Y12155476D1*
X493577Y12169129D1*
X502271Y12182140D1*
X511959Y12194429D1*
X522581Y12205919D1*
X534071Y12216541D1*
X546360Y12226229D1*
X559371Y12234923D1*
X573024Y12242569D1*
X594174Y12251680D1*
X594531Y12330183D1*
X597092Y12346346D1*
X602149Y12361910D1*
X609578Y12376491D1*
X619197Y12389731D1*
X694756Y12465744D1*
X707200Y12476372D1*
X721153Y12484923D1*
X736273Y12491186D1*
X752185Y12495006D1*
X768500Y12496290D1*
X4951683Y12495969D1*
X4967846Y12493409D1*
X4983410Y12488351D1*
X4997991Y12480922D1*
X5011231Y12471303D1*
X5078149Y12404839D1*
X5103354Y12402952D1*
X5126133Y12397483D1*
X5147776Y12388518D1*
X5167750Y12376278D1*
X5185564Y12361064D1*
X5199729Y12344581D1*
X5199710Y12502200D1*
X3481964Y12502624D1*
X3461151Y12505920D1*
X3441109Y12512432D1*
X3422334Y12521999D1*
X3405285Y12534385D1*
X3348045Y12591040D1*
X3189692Y12749393D1*
X3170724Y12757482D1*
X3150750Y12769722D1*
X3132936Y12784936D1*
X3117722Y12802750D1*
X3105482Y12822724D1*
X3096517Y12844367D1*
X3091048Y12867146D1*
X3089210Y12890500D1*
X3091048Y12913854D1*
X3096517Y12936633D1*
X3105482Y12958276D1*
X3117722Y12978250D1*
X3132936Y12996064D1*
X3150750Y13011278D1*
X3170724Y13023518D1*
X3192367Y13032483D1*
X3215146Y13037952D1*
X3238500Y13039790D1*
X3261854Y13037952D1*
X3284633Y13032483D1*
X3306276Y13023518D1*
X3326250Y13011278D1*
X3344064Y12996064D1*
X3359278Y12978250D1*
X3371518Y12958276D1*
X3379421Y12939511D1*
X3548140Y12770775D1*
X5199753Y12770790D1*
X5200124Y13064036D1*
X5203420Y13084849D1*
X5209932Y13104891D1*
X5219522Y13123701D1*
X5208167Y13131710D1*
X2738388D1*
X2719260Y13115222D1*
X2699286Y13102982D1*
X2677643Y13094017D1*
X2654864Y13088548D1*
X2631510Y13086710D1*
X2608156Y13088548D1*
X2585377Y13094017D1*
X2563734Y13102982D1*
X2543760Y13115222D1*
X2525946Y13130436D1*
X2510732Y13148250D1*
X2498492Y13168224D1*
X2489527Y13189867D1*
X2484058Y13212646D1*
X2482220Y13236000D1*
X2484058Y13259354D1*
X2489527Y13282133D1*
X2498492Y13303776D1*
X2510732Y13323750D1*
X2525946Y13341564D1*
X2543760Y13356778D1*
X2563734Y13369018D1*
X2585377Y13377983D1*
X2608156Y13383452D1*
X2631510Y13385290D1*
X2654864Y13383452D1*
X2677643Y13377983D1*
X2699286Y13369018D1*
X2719260Y13356778D1*
X2737074Y13341564D1*
X2738224Y13340320D1*
X5659683Y13339969D1*
X5675846Y13337409D1*
X5691410Y13332351D1*
X5705991Y13324922D1*
X5719231Y13315303D1*
X5730803Y13303731D1*
X5740422Y13290491D1*
X5747851Y13275910D1*
X5752909Y13260346D1*
X5755469Y13244183D1*
X5755790Y13142667D1*
Y11854320D1*
X5765021Y11844456D1*
X5778791Y11825504D1*
X5789426Y11804631D1*
X5796665Y11782351D1*
X5800330Y11759213D1*
Y11735787D1*
X5796665Y11712649D1*
X5789426Y11690369D1*
X5778791Y11669496D1*
X5765021Y11650544D1*
X5748456Y11633979D1*
X5729504Y11620209D1*
X5708631Y11609574D1*
X5686351Y11602335D1*
X5663213Y11598670D1*
X5639787D1*
X5628828Y11599967D1*
X5628790Y11473268D1*
X5638021Y11463456D1*
X5651791Y11444504D1*
X5662426Y11423631D1*
X5669665Y11401351D1*
X5673330Y11378213D1*
Y11354787D1*
X5669665Y11331649D1*
X5662426Y11309369D1*
X5651791Y11288496D1*
X5638021Y11269544D1*
X5621456Y11252979D1*
X5602504Y11239209D1*
X5581631Y11228574D1*
X5559351Y11221335D1*
X5536213Y11217670D1*
X5512787D1*
X5489649Y11221335D1*
X5468271Y11228241D1*
X5467876Y11101964D1*
X5464580Y11081151D1*
X5458068Y11061109D1*
X5448501Y11042334D1*
X5436115Y11025286D1*
X5421214Y11010385D1*
X5404166Y10997999D1*
X5385391Y10988432D1*
X5365309Y10981912D1*
X5696737Y10981790D1*
X5705773Y10990752D1*
X5706041Y11406193D1*
X5708601Y11422356D1*
X5713658Y11437920D1*
X5721088Y11452502D1*
X5730707Y11465741D1*
X5802262Y11537751D1*
X5873608Y11609097D1*
X5873701Y11632998D1*
X5877611Y11657686D1*
X5885335Y11681458D1*
X5896683Y11703729D1*
X5911375Y11723951D1*
X5929049Y11741625D1*
X5936454Y11747463D1*
X5919865Y11761865D1*
X5903632Y11780872D1*
X5890572Y11802184D1*
X5881006Y11825277D1*
X5875171Y11849582D1*
X5873210Y11874500D1*
X5875171Y11899418D1*
X5881006Y11923723D1*
X5890572Y11946816D1*
X5903632Y11968128D1*
X5919865Y11987135D1*
X5936454Y12001463D1*
X5919865Y12015865D1*
X5903632Y12034872D1*
X5890572Y12056184D1*
X5881006Y12079277D1*
X5875171Y12103582D1*
X5873210Y12128500D1*
X5875171Y12153418D1*
X5881006Y12177723D1*
X5890572Y12200816D1*
X5903632Y12222128D1*
X5919865Y12241135D1*
X5936454Y12255463D1*
X5921277Y12268470D1*
X5908708Y12282256D1*
X5897836Y12297417D1*
X5888812Y12313746D1*
X5881759Y12331017D1*
X5876774Y12348994D1*
X5873924Y12367432D1*
X5873250Y12386075D1*
X5874760Y12404670D1*
X5878434Y12422961D1*
X5884222Y12440696D1*
X5892043Y12457634D1*
X5901791Y12473541D1*
X5913332Y12488199D1*
X5926507Y12501407D1*
X5936356Y12509485D1*
X5919865Y12523865D1*
X5903632Y12542872D1*
X5890572Y12564184D1*
X5881006Y12587277D1*
X5875171Y12611582D1*
X5873210Y12636500D1*
X5875171Y12661418D1*
X5881006Y12685723D1*
X5890572Y12708816D1*
X5903632Y12730128D1*
X5919865Y12749135D1*
X5938872Y12765368D1*
X5960184Y12778428D1*
X5983277Y12787994D1*
X6007582Y12793829D1*
X6032500Y12795790D1*
X6057418Y12793829D1*
X6081723Y12787994D1*
X6096075Y12782458D1*
X6096050Y13398623D1*
X2455261Y13398519D1*
X2455290Y13165710D1*
X2116710D1*
X2116599Y13188364D1*
X2099949Y13179945D1*
X2082474Y13173410D1*
X2064386Y13168837D1*
X2045904Y13166282D1*
X2027254Y13165777D1*
X2008661Y13167326D1*
X1990352Y13170913D1*
X1972549Y13176492D1*
X1955467Y13183997D1*
X1939316Y13193336D1*
X1924290Y13204395D1*
X1910572Y13217041D1*
X1904997Y13223083D1*
X1887945Y13206271D1*
X1866454Y13190657D1*
X1842784Y13178596D1*
X1817520Y13170387D1*
X1791282Y13166232D1*
X1764718D1*
X1738480Y13170387D1*
X1713216Y13178596D1*
X1689546Y13190657D1*
X1668055Y13206271D1*
X1649271Y13225055D1*
X1633657Y13246546D1*
X1621596Y13270216D1*
X1613387Y13295480D1*
X1609232Y13321718D1*
Y13348282D1*
X1613387Y13374520D1*
X1621111Y13398469D1*
X127032Y13398500D1*
X127000Y567112D1*
X140484Y591888D1*
X152790Y610304D1*
X166502Y627698D1*
X181537Y643963D1*
X197802Y658998D1*
X215196Y672710D1*
X233612Y685016D1*
X252937Y695838D1*
X273051Y705111D1*
X293831Y712777D1*
X315149Y718789D1*
X336872Y723110D1*
X358868Y725714D1*
X381000Y726583D1*
X403132Y725714D1*
X425128Y723110D1*
X446851Y718789D1*
X468169Y712777D1*
X488949Y705111D1*
X509063Y695838D1*
X528388Y685016D1*
X546804Y672710D1*
X564198Y658998D1*
X580463Y643963D1*
X595498Y627698D1*
X609210Y610304D1*
X621516Y591888D1*
X632338Y572563D1*
X641611Y552449D1*
X649277Y531669D1*
X655289Y510351D1*
X659610Y488628D1*
X662214Y466632D1*
X663083Y444500D1*
X662214Y422368D1*
X659610Y400372D1*
X655289Y378649D1*
X649277Y357331D1*
X641611Y336551D1*
X632338Y316437D1*
X621516Y297112D1*
X609210Y278696D1*
X595498Y261302D1*
X580463Y245037D1*
X564198Y230002D1*
X546804Y216290D1*
X528388Y203984D1*
X509063Y193162D1*
X488949Y183889D1*
X468169Y176223D1*
X446851Y170211D1*
X425128Y165890D1*
X403132Y163286D1*
X381000Y162417D1*
X358868Y163286D1*
X336872Y165890D1*
X315149Y170211D1*
X293831Y176223D1*
X273051Y183889D1*
X252937Y193162D1*
X233612Y203984D1*
X215196Y216290D1*
X197802Y230002D1*
X181537Y245037D1*
X166502Y261302D1*
X152790Y278696D1*
X140484Y297112D1*
X127018Y322173D1*
X127000Y127060D1*
X6096018Y127000D1*
X6096004Y1346409D1*
X6075963Y1343420D1*
X6052537D1*
X6029399Y1347085D1*
X6007119Y1354324D1*
X5986246Y1364959D1*
X5967294Y1378729D1*
X5957536Y1387930D1*
X5091451Y1387960D1*
X5005791Y1302303D1*
X5056790Y1302290D1*
Y1296912D1*
X5074940Y1300684D1*
X5093531Y1302241D1*
X5112176Y1301612D1*
X5130620Y1298809D1*
X5148610Y1293868D1*
X5165899Y1286857D1*
X5182249Y1277874D1*
X5197507Y1266982D1*
X5214271Y1278817D1*
X5236542Y1290165D1*
X5260314Y1297889D1*
X5285002Y1301799D1*
X5309998D1*
X5334686Y1297889D1*
X5358458Y1290165D1*
X5380729Y1278817D1*
X5400951Y1264125D1*
X5417862Y1247276D1*
X5703372Y1247290D1*
X5722500Y1263778D1*
X5742474Y1276018D1*
X5764117Y1284983D1*
X5786896Y1290452D1*
X5810250Y1292290D1*
X5833604Y1290452D1*
X5856383Y1284983D1*
X5878026Y1276018D1*
X5898000Y1263778D1*
X5915814Y1248564D1*
X5931028Y1230750D1*
X5943268Y1210776D1*
X5952233Y1189133D1*
X5957702Y1166354D1*
X5959540Y1143000D1*
X5957702Y1119646D1*
X5952233Y1096867D1*
X5943268Y1075224D1*
X5931028Y1055250D1*
X5915814Y1037436D1*
X5898000Y1022222D1*
X5878026Y1009982D1*
X5856383Y1001017D1*
X5833604Y995548D1*
X5810250Y993710D1*
X5786896Y995548D1*
X5764117Y1001017D1*
X5742474Y1009982D1*
X5722500Y1022222D1*
X5704686Y1037436D1*
X5703536Y1038680D1*
X5451956Y1038710D1*
X5469816Y1030928D1*
X5491128Y1017868D1*
X5510135Y1001635D1*
X5526368Y982628D1*
X5539428Y961316D1*
X5548994Y938223D1*
X5554829Y913918D1*
X5556790Y889000D1*
X5554829Y864082D1*
X5548994Y839777D1*
X5539428Y816684D1*
X5526368Y795372D1*
X5510135Y776365D1*
X5491128Y760132D1*
X5469816Y747072D1*
X5446723Y737506D1*
X5422418Y731671D1*
X5397500Y729710D1*
X5372582Y731671D1*
X5348277Y737506D1*
X5325184Y747072D1*
X5303872Y760132D1*
X5297618Y765062D1*
X5280729Y753183D1*
X5258458Y741835D1*
X5234686Y734111D1*
X5209998Y730201D1*
X5185002D1*
X5160314Y734111D1*
X5136542Y741835D1*
X5114271Y753183D1*
X5097618Y765062D1*
X5080729Y753183D1*
X5058458Y741835D1*
X5034686Y734111D1*
X5009998Y730201D1*
X4985002D1*
X4960314Y734111D1*
X4936542Y741835D1*
X4914271Y753183D1*
X4911956Y754730D1*
X4751964Y755124D1*
X4731111Y758431D1*
X4730069Y749476D1*
X4736620Y735265D1*
X4742036Y720584D1*
X4746284Y705523D1*
X4749336Y690176D1*
X4751176Y674636D1*
X4751790Y659000D1*
X4751176Y643364D1*
X4749336Y627824D1*
X4746284Y612477D1*
X4742036Y597416D1*
X4736620Y582735D1*
X4730069Y568524D1*
X4722423Y554871D1*
X4713729Y541860D1*
X4704041Y529571D1*
X4693419Y518081D1*
X4681929Y507459D1*
X4669640Y497771D1*
X4656629Y489077D1*
X4642976Y481431D1*
X4628765Y474880D1*
X4614084Y469464D1*
X4599023Y465216D1*
X4583676Y462164D1*
X4568136Y460324D1*
X4552500Y459710D1*
X4536864Y460324D1*
X4521324Y462164D1*
X4505977Y465216D1*
X4490916Y469464D1*
X4476235Y474880D1*
X4462024Y481431D1*
X4448371Y489077D1*
X4435360Y497771D1*
X4423071Y507459D1*
X4411581Y518081D1*
X4400959Y529571D1*
X4391271Y541860D1*
X4382577Y554871D1*
X4374931Y568524D1*
X4368380Y582735D1*
X4362964Y597416D1*
X4358716Y612477D1*
X4355664Y627824D1*
X4353824Y643364D1*
X4353210Y659000D1*
X4353824Y674636D1*
X4355664Y690176D1*
X4358716Y705523D1*
X4362964Y720584D1*
X4368380Y735265D1*
X4374931Y749476D1*
X4382577Y763129D1*
X4391271Y776140D1*
X4400959Y788429D1*
X4411581Y799919D1*
X4423071Y810541D1*
X4435360Y820229D1*
X4448371Y828923D1*
X4462024Y836569D1*
X4476235Y843120D1*
X4490916Y848536D1*
X4505977Y852784D1*
X4521324Y855836D1*
X4536864Y857676D1*
X4552500Y858290D1*
X4568136Y857676D1*
X4583676Y855836D1*
X4612613Y848951D1*
X4279385Y1182785D1*
X4266999Y1199833D1*
X4257432Y1218609D1*
X4250920Y1238651D1*
X4247624Y1259464D1*
X4247210Y1340000D1*
Y1566680D1*
X3930387Y1566969D1*
X3917323Y1569039D1*
X3904743Y1573126D1*
X3892958Y1579131D1*
X3882258Y1586905D1*
X3872905Y1596258D1*
X3865131Y1606958D1*
X3859126Y1618743D1*
X3855039Y1631323D1*
X3852969Y1644387D1*
X3852710Y1814333D1*
Y2217693D1*
X3764174Y2217710D1*
X3462846Y1916466D1*
X3457926Y1902869D1*
X3447291Y1881996D1*
X3433521Y1863044D1*
X3416956Y1846479D1*
X3398004Y1832709D1*
X3377131Y1822074D1*
X3354851Y1814835D1*
X3331713Y1811170D1*
X3259206Y1810710D1*
X3259031Y1644387D1*
X3256961Y1631323D1*
X3252874Y1618743D1*
X3246869Y1606958D1*
X3239095Y1596258D1*
X3229742Y1586905D1*
X3219042Y1579131D1*
X3207257Y1573126D1*
X3194677Y1569039D1*
X3181613Y1566969D1*
X3011667Y1566710D1*
X2342887Y1566970D1*
X2329823Y1569039D1*
X2317244Y1573126D1*
X2305459Y1579131D1*
X2294758Y1586905D1*
X2285405Y1596258D1*
X2277631Y1606959D1*
X2271626Y1618744D1*
X2267539Y1631323D1*
X2265470Y1644387D1*
X2265210Y1814333D1*
X2265469Y2229113D1*
X2267539Y2242177D1*
X2271626Y2254757D1*
X2277631Y2266542D1*
X2285405Y2277242D1*
X2294758Y2286595D1*
X2305458Y2294369D1*
X2317243Y2300374D1*
X2329823Y2304461D1*
X2342887Y2306531D1*
X2512833Y2306790D1*
X3181613Y2306531D1*
X3194677Y2304461D1*
X3207257Y2300374D1*
X3219042Y2294369D1*
X3229742Y2286595D1*
X3239095Y2277242D1*
X3246869Y2266542D1*
X3252874Y2254757D1*
X3256961Y2242177D1*
X3259031Y2229113D1*
X3259290Y2109206D1*
X3282904Y2109290D1*
X3623909Y2449714D1*
X3640640Y2461870D1*
X3659066Y2471258D1*
X3678734Y2477649D1*
X3699160Y2480884D1*
X3779500Y2481290D1*
X4501831D1*
X4514869Y2487426D1*
X4537149Y2494665D1*
X4560287Y2498330D1*
X4583713D1*
X4606851Y2494665D1*
X4629131Y2487426D1*
X4650004Y2476791D1*
X4668956Y2463021D1*
X4685521Y2446456D1*
X4699291Y2427504D1*
X4709926Y2406631D1*
X4717165Y2384351D1*
X4720830Y2361213D1*
Y2337787D1*
X4717165Y2314649D1*
X4714940Y2306760D1*
X4832613Y2306530D1*
X4845677Y2304461D1*
X4858257Y2300374D1*
X4870042Y2294369D1*
X4880742Y2286595D1*
X4890095Y2277242D1*
X4897869Y2266542D1*
X4903874Y2254757D1*
X4907961Y2242177D1*
X4910030Y2229113D1*
X4910290Y2059167D1*
X4910031Y1644387D1*
X4907961Y1631323D1*
X4903874Y1618743D1*
X4897869Y1606958D1*
X4890095Y1596258D1*
X4880742Y1586905D1*
X4870042Y1579131D1*
X4858257Y1573126D1*
X4845677Y1569039D1*
X4832613Y1566969D1*
X4662667Y1566710D1*
X4515831D1*
X4515790Y1325643D1*
X4738188Y1103227D1*
X4738210Y1302290D1*
X4793171D1*
X4793531Y1349683D1*
X4796091Y1365846D1*
X4801148Y1381410D1*
X4808578Y1395992D1*
X4818197Y1409231D1*
X4889752Y1481241D1*
X4980519Y1571553D1*
X4993758Y1581172D1*
X5008340Y1588602D1*
X5023904Y1593659D1*
X5040067Y1596219D1*
X5141583Y1596540D1*
X5957430D1*
X5967294Y1605771D1*
X5986246Y1619541D1*
X6007119Y1630176D1*
X6029399Y1637415D1*
X6052537Y1641080D1*
X6075963D1*
X6096002Y1638031D1*
X6096040Y10966487D1*
X6081723Y10961006D1*
X6057418Y10955171D1*
X6032500Y10953210D1*
X6007582Y10955171D1*
X5983277Y10961006D1*
X5960184Y10970572D1*
X5938872Y10983632D1*
X5919865Y10999865D1*
X5914327Y11005856D1*
X5913979Y10939317D1*
X5911419Y10923154D1*
X5906362Y10907590D1*
X5898932Y10893008D1*
X5889313Y10879769D1*
X5813754Y10803756D1*
X5801310Y10793127D1*
X5787357Y10784577D1*
X5772237Y10778314D1*
X5756325Y10774494D1*
X5739978Y10773211D1*
X4809817Y10773531D1*
X4793654Y10776091D1*
X4785743Y10778325D1*
X4782290Y10774000D1*
X4781969Y10702317D1*
X4779409Y10686154D1*
X4774352Y10670590D1*
X4766922Y10656009D1*
X4757303Y10642769D1*
X4721260Y10606271D1*
X4720830Y10592787D1*
X4717165Y10569649D1*
X4709926Y10547369D1*
X4699291Y10526496D1*
X4685521Y10507544D1*
X4668956Y10490979D1*
X4650004Y10477209D1*
X4629131Y10466574D1*
X4606851Y10459335D1*
X4583713Y10455670D1*
X4560287D1*
X4537149Y10459335D1*
X4514869Y10466574D1*
X4493996Y10477209D1*
X4475044Y10490979D1*
X4458479Y10507544D1*
X4444709Y10526496D1*
X4434074Y10547369D1*
X4432885Y10550591D1*
X4422126Y10541045D1*
X4435647Y10528675D1*
X4447890Y10514597D1*
X4458458Y10499222D1*
X4467214Y10482748D1*
X4474047Y10465387D1*
X4478867Y10447364D1*
X4481612Y10428911D1*
X4482224Y10409334D1*
X4480636Y10390745D1*
X4476951Y10372456D1*
X4471216Y10354703D1*
X4463505Y10337714D1*
X4453918Y10321709D1*
X4442578Y10306894D1*
X4429631Y10293461D1*
X4422223Y10287009D1*
X4434171Y10276171D1*
X4444830Y10264284D1*
X4837805Y10264290D1*
X4956705Y10383204D1*
X4958548Y10408364D1*
X4964017Y10431143D1*
X4972982Y10452786D1*
X4985222Y10472760D1*
X5000436Y10490574D1*
X5018250Y10505788D1*
X5038224Y10518028D1*
X5059867Y10526993D1*
X5082646Y10532462D1*
X5106000Y10534300D1*
X5129354Y10532462D1*
X5152133Y10526993D1*
X5173776Y10518028D1*
X5193750Y10505788D1*
X5211564Y10490574D1*
X5226778Y10472760D1*
X5239018Y10452786D1*
X5247983Y10431143D1*
X5253452Y10408364D1*
X5255290Y10385010D1*
X5253452Y10361656D1*
X5247983Y10338877D1*
X5239018Y10317234D1*
X5226778Y10297260D1*
X5211564Y10279446D1*
X5193750Y10264232D1*
X5173776Y10251992D1*
X5152133Y10243027D1*
X5129354Y10237558D1*
X5106000Y10235720D1*
X5104307Y10235787D1*
X4948721Y10080697D1*
X4935482Y10071078D1*
X4920900Y10063648D1*
X4905336Y10058591D1*
X4889173Y10056031D1*
X4787657Y10055710D1*
X4444857D1*
X4434171Y10043829D1*
X4422126Y10033045D1*
X4434171Y10022171D1*
X4450913Y10002567D1*
X4464383Y9980586D1*
X4474249Y9956768D1*
X4480267Y9931701D1*
X4482290Y9906000D1*
X4480267Y9880299D1*
X4474249Y9855232D1*
X4464383Y9831414D1*
X4450913Y9809433D1*
X4434171Y9789829D1*
X4422126Y9779045D1*
X4434171Y9768171D1*
X4450913Y9748567D1*
X4464383Y9726586D1*
X4474249Y9702768D1*
X4480267Y9677701D1*
X4482290Y9652000D1*
X4480267Y9626299D1*
X4474249Y9601232D1*
X4464383Y9577414D1*
X4450913Y9555433D1*
X4434171Y9535829D1*
X4422126Y9525045D1*
X4434171Y9514171D1*
X4444830Y9502284D1*
X4722253Y9501969D1*
X4738416Y9499409D1*
X4753980Y9494352D1*
X4768562Y9486922D1*
X4781801Y9477303D1*
X4853811Y9405748D1*
X5074810Y9184749D1*
X5417755Y9184790D1*
X5427544Y9194021D1*
X5446496Y9207791D1*
X5467369Y9218426D1*
X5489649Y9225665D1*
X5512787Y9229330D1*
X5536213D1*
X5559351Y9225665D1*
X5581631Y9218426D1*
X5602504Y9207791D1*
X5621456Y9194021D1*
X5638021Y9177456D1*
X5651791Y9158504D1*
X5662426Y9137631D1*
X5669665Y9115351D1*
X5673330Y9092213D1*
Y9068787D1*
X5669665Y9045649D1*
X5662426Y9023369D1*
X5651791Y9002496D1*
X5638021Y8983544D1*
X5621456Y8966979D1*
X5602504Y8953209D1*
X5581631Y8942574D1*
X5559351Y8935335D1*
X5536213Y8931670D1*
X5512787D1*
X5489649Y8935335D1*
X5467369Y8942574D1*
X5446496Y8953209D1*
X5427544Y8966979D1*
X5417786Y8976180D1*
X5023387Y8976531D1*
X5007224Y8979091D1*
X4991660Y8984148D1*
X4977078Y8991578D1*
X4963839Y9001197D1*
X4891829Y9072752D1*
X4670830Y9293751D1*
X4444916Y9293710D1*
X4434171Y9281829D1*
X4422126Y9271045D1*
X4434171Y9260171D1*
X4450913Y9240567D1*
X4464383Y9218586D1*
X4474249Y9194768D1*
X4480267Y9169701D1*
X4482290Y9144000D1*
X4480267Y9118299D1*
X4474249Y9093232D1*
X4464383Y9069414D1*
X4450913Y9047433D1*
X4434171Y9027829D1*
X4422126Y9017045D1*
X4434171Y9006171D1*
X4450913Y8986567D1*
X4464383Y8964586D1*
X4474249Y8940768D1*
X4480267Y8915701D1*
X4482290Y8890000D1*
X4480267Y8864299D1*
X4474249Y8839232D1*
X4464383Y8815414D1*
X4450913Y8793433D1*
X4434171Y8773829D1*
X4422284Y8763170D1*
X4421969Y8224567D1*
X4419409Y8208404D1*
X4414352Y8192840D1*
X4406922Y8178259D1*
X4397303Y8165019D1*
X4321744Y8089006D1*
X4309300Y8078378D1*
X4295347Y8069827D1*
X4280197Y8063556D1*
X4285500Y8061790D1*
X5134159D1*
X5144044Y8071021D1*
X5162996Y8084791D1*
X5183869Y8095426D1*
X5206149Y8102665D1*
X5229241Y8106324D1*
X4777155Y8558430D1*
X4758224Y8566482D1*
X4738250Y8578722D1*
X4720436Y8593936D1*
X4705222Y8611750D1*
X4692982Y8631724D1*
X4684017Y8653367D1*
X4678548Y8676146D1*
X4676710Y8699500D1*
X4678548Y8722854D1*
X4684017Y8745633D1*
X4692982Y8767276D1*
X4705222Y8787250D1*
X4720436Y8805064D1*
X4738250Y8820278D1*
X4758224Y8832518D1*
X4779867Y8841483D1*
X4802646Y8846952D1*
X4826000Y8848790D1*
X4849354Y8846952D1*
X4872133Y8841483D1*
X4893776Y8832518D1*
X4913750Y8820278D1*
X4931564Y8805064D1*
X4946778Y8787250D1*
X4959018Y8767276D1*
X4966921Y8748511D1*
X5413677Y8301739D1*
X5497536Y8301376D1*
X5518349Y8298080D1*
X5538391Y8291568D1*
X5557167Y8282001D1*
X5565966Y8276118D1*
X5572710Y8274167D1*
X5573124Y8384536D1*
X5576420Y8405349D1*
X5582932Y8425391D1*
X5592499Y8444166D1*
X5604885Y8461215D1*
X5661540Y8518455D1*
X5771169Y8628084D1*
X5771210Y10040951D1*
X5348630Y10463454D1*
X5329724Y10471482D1*
X5309750Y10483722D1*
X5291936Y10498936D1*
X5276722Y10516750D1*
X5264482Y10536724D1*
X5255517Y10558367D1*
X5250048Y10581146D1*
X5248210Y10604500D1*
X5250048Y10627854D1*
X5255517Y10650633D1*
X5264482Y10672276D1*
X5276722Y10692250D1*
X5291936Y10710064D1*
X5309750Y10725278D1*
X5329724Y10737518D1*
X5351367Y10746483D1*
X5374146Y10751952D1*
X5397500Y10753790D1*
X5420854Y10751952D1*
X5443633Y10746483D1*
X5465276Y10737518D1*
X5485250Y10725278D1*
X5503064Y10710064D1*
X5518278Y10692250D1*
X5530518Y10672276D1*
X5538421Y10653511D1*
X6007615Y10183715D1*
X6020001Y10166666D1*
X6029568Y10147891D1*
X6036080Y10127849D1*
X6039376Y10107036D1*
X6039790Y10026500D1*
X6039376Y8561964D1*
X6036080Y8541151D1*
X6029568Y8521109D1*
X6020001Y8502334D1*
X6007615Y8485285D1*
X5950960Y8428045D1*
X5841331Y8318416D1*
X5841290Y2252000D1*
X5839637Y2230992D1*
X5834717Y2210502D1*
X5826653Y2191034D1*
X5815643Y2173066D1*
X5801957Y2157043D1*
X5574214Y1929885D1*
X5557166Y1917499D1*
X5538391Y1907932D1*
X5518349Y1901420D1*
X5497536Y1898124D1*
X5417000Y1897710D1*
X5371336D1*
X5371290Y1867710D1*
X5042710D1*
Y2196290D1*
X5066043D1*
X3124712Y6103266D2*
X3112812Y6115653D1*
X3097567Y6136636D1*
X3085792Y6159746D1*
X3077777Y6184414D1*
X3073720Y6210031D1*
Y6235969D1*
X3077777Y6261586D1*
X3085792Y6286254D1*
X3091035Y6297626D1*
X2957766Y6164361D1*
X2957790Y6103252D1*
X3124555Y6103290D1*
X663495Y10365714D2*
X640595Y10367031D1*
X617626Y10371062D1*
X595285Y10377748D1*
X573878Y10386999D1*
X553699Y10398687D1*
X535022Y10412652D1*
X518105Y10428703D1*
X503179Y10446620D1*
X490448Y10466159D1*
X480087Y10487050D1*
X472237Y10509009D1*
X467006Y10531735D1*
X464465Y10554916D1*
X464650Y10578236D1*
X467558Y10601374D1*
X473148Y10624014D1*
X481345Y10645846D1*
X492036Y10666571D1*
X505075Y10685905D1*
X520283Y10703583D1*
X537452Y10719365D1*
X556347Y10733032D1*
X576709Y10744399D1*
X598260Y10753309D1*
X620704Y10759641D1*
X643734Y10763307D1*
X668167Y10764290D1*
X746359Y10763875D1*
X769503Y10761011D1*
X792153Y10755463D1*
X814001Y10747308D1*
X834746Y10736656D1*
X854105Y10723654D1*
X871812Y10708479D1*
X887626Y10691340D1*
X901329Y10672471D1*
X912734Y10652130D1*
X921685Y10630596D1*
X928059Y10608165D1*
X931770Y10585142D1*
X932790Y10565000D1*
X931426Y10541720D1*
X927351Y10518759D1*
X920622Y10496431D1*
X911331Y10475041D1*
X899605Y10454884D1*
X885605Y10436234D1*
X869522Y10419348D1*
X851576Y10404455D1*
X832014Y10391761D1*
X811102Y10381440D1*
X789128Y10373631D1*
X766393Y10368443D1*
X743207Y10365947D1*
X663500Y10365728D1*
X5941176Y643364D2*
X5939336Y627824D1*
X5936284Y612477D1*
X5932036Y597416D1*
X5926620Y582735D1*
X5920069Y568524D1*
X5912423Y554871D1*
X5903729Y541860D1*
X5894041Y529571D1*
X5883419Y518081D1*
X5871929Y507459D1*
X5859640Y497771D1*
X5846629Y489077D1*
X5832976Y481431D1*
X5818765Y474880D1*
X5804084Y469464D1*
X5789023Y465216D1*
X5773676Y462164D1*
X5758136Y460324D1*
X5742500Y459710D1*
X5726864Y460324D1*
X5711324Y462164D1*
X5695977Y465216D1*
X5680916Y469464D1*
X5666235Y474880D1*
X5652024Y481431D1*
X5638371Y489077D1*
X5625360Y497771D1*
X5613071Y507459D1*
X5601581Y518081D1*
X5590959Y529571D1*
X5581271Y541860D1*
X5572577Y554871D1*
X5564931Y568524D1*
X5558380Y582735D1*
X5552964Y597416D1*
X5548716Y612477D1*
X5545664Y627824D1*
X5543824Y643364D1*
X5543210Y659000D1*
X5543824Y674636D1*
X5545664Y690176D1*
X5548716Y705523D1*
X5552964Y720584D1*
X5558380Y735265D1*
X5564931Y749476D1*
X5572577Y763129D1*
X5581271Y776140D1*
X5590959Y788429D1*
X5601581Y799919D1*
X5613071Y810541D1*
X5625360Y820229D1*
X5638371Y828923D1*
X5652024Y836569D1*
X5666235Y843120D1*
X5680916Y848536D1*
X5695977Y852784D1*
X5711324Y855836D1*
X5726864Y857676D1*
X5742500Y858290D1*
X5758136Y857676D1*
X5773676Y855836D1*
X5789023Y852784D1*
X5804084Y848536D1*
X5818765Y843120D1*
X5832976Y836569D1*
X5846629Y828923D1*
X5859640Y820229D1*
X5871929Y810541D1*
X5883419Y799919D1*
X5894041Y788429D1*
X5903729Y776140D1*
X5912423Y763129D1*
X5920069Y749476D1*
X5926620Y735265D1*
X5932036Y720584D1*
X5936284Y705523D1*
X5939336Y690176D1*
X5941176Y674636D1*
X5941790Y659000D1*
X5941176Y643364D1*
X1041877Y1121790D2*
X1375790D1*
Y783210D1*
X1037210D1*
Y1121790D1*
X1041877D1*
X1825268Y939218D2*
X1821113Y912980D1*
X1812904Y887716D1*
X1800843Y864046D1*
X1785229Y842555D1*
X1766445Y823771D1*
X1744954Y808157D1*
X1721284Y796096D1*
X1696020Y787887D1*
X1669782Y783732D1*
X1643218D1*
X1616980Y787887D1*
X1591716Y796096D1*
X1568046Y808157D1*
X1546555Y823771D1*
X1527771Y842555D1*
X1512157Y864046D1*
X1500096Y887716D1*
X1491887Y912980D1*
X1487732Y939218D1*
Y965782D1*
X1491887Y992020D1*
X1500096Y1017284D1*
X1512157Y1040954D1*
X1527771Y1062445D1*
X1546555Y1081229D1*
X1568046Y1096843D1*
X1591716Y1108904D1*
X1616980Y1117113D1*
X1643218Y1121268D1*
X1669782D1*
X1696020Y1117113D1*
X1721284Y1108904D1*
X1744954Y1096843D1*
X1766445Y1081229D1*
X1785229Y1062445D1*
X1800843Y1040954D1*
X1812904Y1017284D1*
X1821113Y992020D1*
X1825268Y965782D1*
Y939218D1*
Y289218D2*
X1821113Y262980D1*
X1812904Y237716D1*
X1800843Y214046D1*
X1785229Y192555D1*
X1766445Y173771D1*
X1744954Y158157D1*
X1721284Y146096D1*
X1696020Y137887D1*
X1669782Y133732D1*
X1643218D1*
X1616980Y137887D1*
X1591716Y146096D1*
X1568046Y158157D1*
X1546555Y173771D1*
X1527771Y192555D1*
X1512157Y214046D1*
X1500096Y237716D1*
X1491887Y262980D1*
X1487732Y289218D1*
Y315782D1*
X1491887Y342020D1*
X1500096Y367284D1*
X1512157Y390954D1*
X1527771Y412445D1*
X1546555Y431229D1*
X1568046Y446843D1*
X1591716Y458904D1*
X1616980Y467113D1*
X1643218Y471268D1*
X1669782D1*
X1696020Y467113D1*
X1721284Y458904D1*
X1744954Y446843D1*
X1766445Y431229D1*
X1785229Y412445D1*
X1800843Y390954D1*
X1812904Y367284D1*
X1821113Y342020D1*
X1825268Y315782D1*
Y289218D1*
X1375726Y297834D2*
X1374185Y279240D1*
X1370607Y260930D1*
X1365036Y243124D1*
X1357539Y226039D1*
X1348208Y209883D1*
X1337155Y194851D1*
X1324516Y181128D1*
X1310444Y168878D1*
X1295108Y158251D1*
X1278697Y149377D1*
X1261409Y142362D1*
X1243454Y137292D1*
X1225049Y134229D1*
X1206420Y133210D1*
X1187792Y134247D1*
X1169391Y137327D1*
X1151440Y142414D1*
X1134159Y149445D1*
X1117755Y158335D1*
X1102430Y168976D1*
X1088369Y181239D1*
X1075743Y194975D1*
X1064705Y210016D1*
X1055389Y226181D1*
X1047908Y243273D1*
X1042354Y261084D1*
X1038794Y279399D1*
X1037270Y297994D1*
X1037802Y316643D1*
X1040383Y335121D1*
X1044981Y353203D1*
X1051541Y370669D1*
X1059984Y387306D1*
X1070206Y402914D1*
X1082083Y417302D1*
X1095472Y430296D1*
X1110209Y441738D1*
X1126116Y451488D1*
X1142999Y459429D1*
X1160653Y465464D1*
X1178864Y469519D1*
X1197411Y471546D1*
X1216068Y471519D1*
X1234609Y469440D1*
X1252808Y465333D1*
X1270446Y459248D1*
X1287306Y451260D1*
X1303185Y441464D1*
X1317890Y429981D1*
X1331241Y416950D1*
X1343078Y402528D1*
X1353256Y386891D1*
X1361651Y370230D1*
X1368162Y352745D1*
X1372709Y334651D1*
X1375238Y316166D1*
X1375726Y297834D1*
X2565877Y1121789D2*
X2899791D1*
Y783209D1*
X2561211D1*
Y1121789D1*
X2565877D1*
X3349268Y939218D2*
X3345113Y912980D1*
X3336904Y887716D1*
X3324843Y864046D1*
X3309229Y842555D1*
X3290445Y823771D1*
X3268954Y808157D1*
X3245284Y796096D1*
X3220020Y787887D1*
X3193782Y783732D1*
X3167218D1*
X3140980Y787887D1*
X3115716Y796096D1*
X3092046Y808157D1*
X3070555Y823771D1*
X3051771Y842555D1*
X3036157Y864046D1*
X3024096Y887716D1*
X3015887Y912980D1*
X3011732Y939218D1*
Y965782D1*
X3015887Y992020D1*
X3024096Y1017284D1*
X3036157Y1040954D1*
X3051771Y1062445D1*
X3070555Y1081229D1*
X3092046Y1096843D1*
X3115716Y1108904D1*
X3140980Y1117113D1*
X3167218Y1121268D1*
X3193782D1*
X3220020Y1117113D1*
X3245284Y1108904D1*
X3268954Y1096843D1*
X3290445Y1081229D1*
X3309229Y1062445D1*
X3324843Y1040954D1*
X3336904Y1017284D1*
X3345113Y992020D1*
X3349268Y965782D1*
Y939218D1*
Y289218D2*
X3345113Y262980D1*
X3336904Y237716D1*
X3324843Y214046D1*
X3309229Y192555D1*
X3290445Y173771D1*
X3268954Y158157D1*
X3245284Y146096D1*
X3220020Y137887D1*
X3193782Y133732D1*
X3167218D1*
X3140980Y137887D1*
X3115716Y146096D1*
X3092046Y158157D1*
X3070555Y173771D1*
X3051771Y192555D1*
X3036157Y214046D1*
X3024096Y237716D1*
X3015887Y262980D1*
X3011732Y289218D1*
Y315782D1*
X3015887Y342020D1*
X3024096Y367284D1*
X3036157Y390954D1*
X3051771Y412445D1*
X3070555Y431229D1*
X3092046Y446843D1*
X3115716Y458904D1*
X3140980Y467113D1*
X3167218Y471268D1*
X3193782D1*
X3220020Y467113D1*
X3245284Y458904D1*
X3268954Y446843D1*
X3290445Y431229D1*
X3309229Y412445D1*
X3324843Y390954D1*
X3336904Y367284D1*
X3345113Y342020D1*
X3349268Y315782D1*
Y289218D1*
X2899726Y297834D2*
X2898185Y279240D1*
X2894607Y260930D1*
X2889036Y243124D1*
X2881539Y226039D1*
X2872208Y209883D1*
X2861155Y194851D1*
X2848516Y181128D1*
X2834444Y168878D1*
X2819108Y158251D1*
X2802697Y149377D1*
X2785409Y142362D1*
X2767454Y137292D1*
X2749049Y134229D1*
X2730420Y133210D1*
X2711792Y134247D1*
X2693391Y137327D1*
X2675440Y142414D1*
X2658159Y149445D1*
X2641755Y158335D1*
X2626430Y168976D1*
X2612369Y181239D1*
X2599743Y194975D1*
X2588705Y210016D1*
X2579389Y226181D1*
X2571908Y243273D1*
X2566354Y261084D1*
X2562794Y279399D1*
X2561270Y297994D1*
X2561802Y316643D1*
X2564383Y335121D1*
X2568981Y353203D1*
X2575541Y370669D1*
X2583984Y387306D1*
X2594206Y402914D1*
X2606083Y417302D1*
X2619472Y430296D1*
X2634209Y441738D1*
X2650116Y451488D1*
X2666999Y459429D1*
X2684653Y465464D1*
X2702864Y469519D1*
X2721411Y471546D1*
X2740068Y471519D1*
X2758609Y469440D1*
X2776808Y465333D1*
X2794446Y459248D1*
X2811306Y451260D1*
X2827185Y441464D1*
X2841890Y429981D1*
X2855241Y416950D1*
X2867078Y402528D1*
X2877256Y386891D1*
X2885651Y370230D1*
X2892162Y352745D1*
X2896709Y334651D1*
X2899238Y316166D1*
X2899726Y297834D1*
X4482291Y12217657D2*
Y12027709D1*
X4455585D1*
X4464383Y12012586D1*
X4474249Y11988768D1*
X4480267Y11963701D1*
X4482290Y11938000D1*
X4480267Y11912299D1*
X4474249Y11887232D1*
X4464383Y11863414D1*
X4450913Y11841433D1*
X4434171Y11821829D1*
X4422126Y11811045D1*
X4434171Y11800171D1*
X4444830Y11788284D1*
X4616183Y11787969D1*
X4632346Y11785409D1*
X4640257Y11783175D1*
X4643710Y11787500D1*
Y12208867D1*
X4634748Y12217763D1*
X4482310Y12217710D1*
X4180324Y12027709D2*
X4153711D1*
Y12217749D1*
X3839185Y12217710D1*
X3830237Y12208748D1*
X3830290Y9060000D1*
X3829006Y9043685D1*
X3825186Y9027773D1*
X3818923Y9012653D1*
X3810373Y8998700D1*
X3799721Y8986234D1*
X3719504Y8906016D1*
X3720290Y8890000D1*
X3718267Y8864299D1*
X3717904Y8862471D1*
X3727479Y8874956D1*
X3744044Y8891521D1*
X3762996Y8905291D1*
X3783869Y8915926D1*
X3806149Y8923165D1*
X3829287Y8926830D1*
X3851752Y8926868D1*
X3852031Y11076183D1*
X3854591Y11092346D1*
X3859648Y11107910D1*
X3867078Y11122492D1*
X3876697Y11135731D1*
X3948252Y11207741D1*
X4154556Y11414045D1*
X4153710Y11430000D1*
X4155733Y11455701D1*
X4161751Y11480768D1*
X4171617Y11504586D1*
X4185087Y11526567D1*
X4201829Y11546171D1*
X4213874Y11556955D1*
X4201829Y11567829D1*
X4185087Y11587433D1*
X4171617Y11609414D1*
X4161751Y11633232D1*
X4155733Y11658299D1*
X4153710Y11684000D1*
X4155733Y11709701D1*
X4161751Y11734768D1*
X4171617Y11758586D1*
X4185087Y11780567D1*
X4201829Y11800171D1*
X4213874Y11810955D1*
X4201829Y11821829D1*
X4185087Y11841433D1*
X4171617Y11863414D1*
X4161751Y11887232D1*
X4155733Y11912299D1*
X4153710Y11938000D1*
X4155733Y11963701D1*
X4161751Y11988768D1*
X4171617Y12012586D1*
X4180523Y12027738D1*
X4444830Y11071716D2*
X4434171Y11059829D1*
X4422126Y11049045D1*
X4434171Y11038171D1*
X4450913Y11018567D1*
X4464383Y10996586D1*
X4474249Y10972768D1*
X4480267Y10947701D1*
X4482290Y10922000D1*
X4480267Y10896299D1*
X4474249Y10871232D1*
X4464383Y10847414D1*
X4450913Y10825433D1*
X4434171Y10805829D1*
X4422126Y10795045D1*
X4434171Y10784171D1*
X4450913Y10764567D1*
X4464383Y10742586D1*
X4474249Y10718768D1*
X4474564Y10717653D1*
X4493996Y10731791D1*
X4514869Y10742426D1*
X4537149Y10749665D1*
X4560287Y10753330D1*
X4573693Y10753723D1*
X4573710Y11109263D1*
X4560731Y11096697D1*
X4547491Y11087078D1*
X4532910Y11079648D1*
X4517346Y11074591D1*
X4501183Y11072031D1*
X4444966Y11071710D1*
X4213874Y11049045D2*
X4201829Y11059829D1*
X4185087Y11079433D1*
X4171617Y11101414D1*
X4161751Y11125232D1*
X4161518Y11126056D1*
X4060279Y11024790D1*
X4060290Y10004055D1*
X4079685Y10009006D1*
X4096000Y10010290D1*
X4191065D1*
X4201829Y10022171D1*
X4213874Y10032955D1*
X4201829Y10043829D1*
X4185087Y10063433D1*
X4171617Y10085414D1*
X4161751Y10109232D1*
X4155733Y10134299D1*
X4153710Y10160000D1*
X4155733Y10185701D1*
X4161751Y10210768D1*
X4171617Y10234586D1*
X4185087Y10256567D1*
X4201829Y10276171D1*
X4213874Y10286955D1*
X4198416Y10301346D1*
X4186415Y10315630D1*
X4176111Y10331183D1*
X4167636Y10347804D1*
X4161101Y10365278D1*
X4156588Y10383381D1*
X4154158Y10401879D1*
X4153840Y10420533D1*
X4155639Y10439102D1*
X4159532Y10457348D1*
X4165468Y10475035D1*
X4173372Y10491935D1*
X4183140Y10507830D1*
X4194648Y10522515D1*
X4207746Y10535800D1*
X4213788Y10540990D1*
X4201829Y10551829D1*
X4185087Y10571433D1*
X4171617Y10593414D1*
X4161751Y10617232D1*
X4155733Y10642299D1*
X4153710Y10668000D1*
X4155733Y10693701D1*
X4161751Y10718768D1*
X4171617Y10742586D1*
X4185087Y10764567D1*
X4201829Y10784171D1*
X4213874Y10794955D1*
X4201829Y10805829D1*
X4185087Y10825433D1*
X4171617Y10847414D1*
X4161751Y10871232D1*
X4155733Y10896299D1*
X4153710Y10922000D1*
X4155733Y10947701D1*
X4161751Y10972768D1*
X4171617Y10996586D1*
X4185087Y11018567D1*
X4201829Y11038171D1*
X4213874Y11048955D1*
X4213716Y8763170D2*
X4200290Y8775495D1*
Y8491836D1*
X4213688Y8476670D1*
X4213710Y8763128D1*
X3429170Y11534284D2*
X3439829Y11546171D1*
X3451874Y11556955D1*
X3439829Y11567829D1*
X3429170Y11579716D1*
X3312549Y11579710D1*
X3300315Y11576994D1*
X3283968Y11575711D1*
X1118648Y11575710D1*
X1097878Y11554889D1*
X1112956Y11543521D1*
X1122714Y11534320D1*
X3429086Y11534290D1*
X852714Y12868368D2*
X850110Y12846372D1*
X845789Y12824649D1*
X839777Y12803331D1*
X832111Y12782551D1*
X822838Y12762437D1*
X812016Y12743112D1*
X799710Y12724696D1*
X785998Y12707302D1*
X770963Y12691037D1*
X754698Y12676002D1*
X737304Y12662290D1*
X718888Y12649984D1*
X699563Y12639162D1*
X679449Y12629889D1*
X658669Y12622223D1*
X637351Y12616211D1*
X615628Y12611890D1*
X593632Y12609286D1*
X571500Y12608417D1*
X549368Y12609286D1*
X527372Y12611890D1*
X505649Y12616211D1*
X484331Y12622223D1*
X463551Y12629889D1*
X443437Y12639162D1*
X424112Y12649984D1*
X405696Y12662290D1*
X388302Y12676002D1*
X372037Y12691037D1*
X357002Y12707302D1*
X343290Y12724696D1*
X330984Y12743112D1*
X320162Y12762437D1*
X310889Y12782551D1*
X303223Y12803331D1*
X297211Y12824649D1*
X292890Y12846372D1*
X290286Y12868368D1*
X289417Y12890500D1*
X290286Y12912632D1*
X292890Y12934628D1*
X297211Y12956351D1*
X303223Y12977669D1*
X310889Y12998449D1*
X320162Y13018563D1*
X330984Y13037888D1*
X343290Y13056304D1*
X357002Y13073698D1*
X372037Y13089963D1*
X388302Y13104998D1*
X405696Y13118710D1*
X424112Y13131016D1*
X443437Y13141838D1*
X463551Y13151111D1*
X484331Y13158777D1*
X505649Y13164789D1*
X527372Y13169110D1*
X549368Y13171714D1*
X571500Y13172583D1*
X593632Y13171714D1*
X615628Y13169110D1*
X637351Y13164789D1*
X658669Y13158777D1*
X679449Y13151111D1*
X699563Y13141838D1*
X718888Y13131016D1*
X737304Y13118710D1*
X754698Y13104998D1*
X770963Y13089963D1*
X785998Y13073698D1*
X799710Y13056304D1*
X812016Y13037888D1*
X822838Y13018563D1*
X832111Y12998449D1*
X839777Y12977669D1*
X845789Y12956351D1*
X850110Y12934628D1*
X852714Y12912632D1*
X853583Y12890500D1*
X852714Y12868368D1*
X2977082Y11784259D2*
X2969517Y11802867D1*
X2964048Y11825646D1*
X2962210Y11849000D1*
X2964048Y11872354D1*
X2969517Y11895133D1*
X2978482Y11916776D1*
X2982173Y11923368D1*
X2969276Y11915981D1*
X2947633Y11907017D1*
X2924854Y11901548D1*
X2901500Y11899710D1*
X1979924D1*
X1864438Y11784309D1*
X2976893Y11784290D1*
X5547172Y12917894D2*
X5531143Y12911517D1*
X5508364Y12906048D1*
X5485010Y12904210D1*
X5468249Y12905268D1*
X5468290Y12838305D1*
X5489649Y12845165D1*
X5512787Y12848830D1*
X5536213D1*
X5547172Y12847533D1*
X5547210Y12917721D1*
X5010989Y11476579D2*
X4992224Y11484482D1*
X4972250Y11496722D1*
X4954436Y11511936D1*
X4939222Y11529750D1*
X4926982Y11549724D1*
X4918017Y11571367D1*
X4912548Y11594146D1*
X4910710Y11617500D1*
X4912548Y11640854D1*
X4918017Y11663633D1*
X4926982Y11685276D1*
X4939222Y11705250D1*
X4954436Y11723064D1*
X4972250Y11738278D1*
X4992224Y11750518D1*
X5013867Y11759483D1*
X5036646Y11764952D1*
X5060000Y11766790D1*
X5083354Y11764952D1*
X5106133Y11759483D1*
X5127776Y11750518D1*
X5147750Y11738278D1*
X5165564Y11723064D1*
X5180778Y11705250D1*
X5193018Y11685276D1*
X5199717Y11669776D1*
X5199710Y12166237D1*
X5185564Y12149936D1*
X5167750Y12134722D1*
X5147776Y12122482D1*
X5126133Y12113517D1*
X5103354Y12108048D1*
X5080000Y12106210D1*
X5056646Y12108048D1*
X5033867Y12113517D1*
X5012224Y12122482D1*
X4992250Y12134722D1*
X4974436Y12149936D1*
X4959222Y12167750D1*
X4946982Y12187724D1*
X4938017Y12209367D1*
X4932548Y12232146D1*
X4930710Y12255500D1*
X4930777Y12257193D1*
X4900365Y12287647D1*
X4846065Y12287710D1*
X4851006Y12268315D1*
X4852290Y12252000D1*
Y10990633D1*
X4861252Y10981737D1*
X4988898Y10981790D1*
X4973250Y10991722D1*
X4955436Y11006936D1*
X4940222Y11024750D1*
X4927982Y11044724D1*
X4919017Y11066367D1*
X4913548Y11089146D1*
X4911710Y11112500D1*
X4913548Y11135854D1*
X4919017Y11158633D1*
X4927982Y11180276D1*
X4940222Y11200250D1*
X4955436Y11218064D1*
X4973250Y11233278D1*
X4993224Y11245518D1*
X5014867Y11254483D1*
X5037646Y11259952D1*
X5061000Y11261790D1*
X5084354Y11259952D1*
X5107133Y11254483D1*
X5125990Y11246803D1*
X5199633Y11246790D1*
X5199710Y11384753D1*
X5147954Y11385134D1*
X5127141Y11388430D1*
X5107099Y11394942D1*
X5088324Y11404509D1*
X5071276Y11416895D1*
X5014035Y11473550D1*
X5011135Y11476450D1*
X5311286Y5913891D2*
X5321222Y5929750D1*
X5336436Y5947564D1*
X5354250Y5962778D1*
X5374224Y5975018D1*
X5395867Y5983983D1*
X5418646Y5989452D1*
X5442000Y5991290D1*
X5465354Y5989452D1*
X5488133Y5983983D1*
X5509776Y5975018D1*
X5529750Y5962778D1*
X5547564Y5947564D1*
X5562778Y5929750D1*
X5572714Y5913891D1*
X5572710Y6353289D1*
X5554131Y6344074D1*
X5531851Y6336835D1*
X5508713Y6333170D1*
X5485287D1*
X5462149Y6336835D1*
X5439869Y6344074D1*
X5418996Y6354709D1*
X5400044Y6368479D1*
X5390286Y6377680D1*
X5332664Y6377710D1*
X5340018Y6364776D1*
X5348983Y6343133D1*
X5354452Y6320354D1*
X5356290Y6297000D1*
X5354452Y6273646D1*
X5348983Y6250867D1*
X5340018Y6229224D1*
X5327778Y6209250D1*
X5312564Y6191436D1*
X5311320Y6190286D1*
X5311290Y5914096D1*
X756057Y4774526D2*
X740149Y4777335D1*
X717869Y4784574D1*
X696996Y4795209D1*
X678044Y4808979D1*
X661479Y4825544D1*
X647709Y4844496D1*
X642272Y4854204D1*
X642290Y4813195D1*
X723672Y4731743D1*
X732071Y4739816D1*
X745131Y4761129D1*
X752908Y4770987D1*
X5207000Y2450199D2*
D23*
Y2286000D1*
X5042801D2*
X5371199D1*
X3556000Y2794000D2*
Y2629801D1*
X3391801Y2794000D2*
X3720199D1*
X1270000Y6858000D2*
Y6692801D1*
Y6858000D2*
X1435199D1*
X698500Y10764199D2*
Y10365801D1*
X464301Y10565000D2*
X932699D1*
X2032000Y13335000D2*
Y13165801D1*
X5097500Y1302199D2*
Y1143000D1*
X1206500Y1121698D2*
Y783301D1*
X1037302Y952500D2*
X1375699D1*
X1206500Y471699D2*
Y133301D1*
X1037301Y302500D2*
X1375699D1*
X2730500Y1121698D2*
Y783301D1*
X2561302Y952500D2*
X2899699D1*
X2730500Y471699D2*
Y133301D1*
X2561301Y302500D2*
X2899699D1*
X5873301Y12382500D2*
X6032500D1*
X4153801Y10414000D2*
X4482199D1*
X3391801Y9906000D2*
X3556000D1*
D26*
X5207000Y2032000D3*
D27*
Y2286000D3*
D26*
X3556000Y3048000D3*
D27*
Y2794000D3*
D30*
X1016000Y7366000D3*
Y7112000D3*
Y6858000D3*
X1270000D3*
Y7112000D3*
D31*
Y7366000D3*
D30*
X3238500Y6223000D3*
Y5969000D3*
Y5715000D3*
X3492500D3*
Y5969000D3*
D31*
Y6223000D3*
D32*
X698500Y12065000D3*
Y11065000D3*
Y11565000D3*
Y10565000D3*
D33*
X2286000Y13335000D3*
D34*
X2032000D3*
X1778000D3*
D35*
X5397500Y889000D3*
X5297500Y1143000D3*
X5197500Y889000D3*
X5097500Y1143000D3*
X4997500Y889000D3*
D36*
X4897500Y1143000D3*
D30*
X889000Y3048000D3*
Y2794000D3*
Y2540000D3*
X1143000D3*
Y2794000D3*
D31*
Y3048000D3*
D33*
X1206500Y952500D3*
D34*
X1656500D3*
Y302500D3*
X1206500D3*
D33*
X2730500Y952500D3*
D34*
X3180500D3*
Y302500D3*
X2730500D3*
D35*
X6032500Y11112500D3*
Y11366500D3*
Y11620500D3*
Y11874500D3*
Y12128500D3*
Y12382500D3*
Y12636500D3*
D26*
X4318000Y12192000D3*
D27*
Y11938000D3*
Y11684000D3*
Y11430000D3*
Y11176000D3*
Y10922000D3*
Y10668000D3*
Y10414000D3*
Y10160000D3*
Y9906000D3*
Y9652000D3*
Y9398000D3*
Y9144000D3*
Y8890000D3*
X3556000D3*
Y9144000D3*
Y9398000D3*
Y9652000D3*
Y9906000D3*
Y10160000D3*
Y10414000D3*
Y10668000D3*
Y10922000D3*
Y11176000D3*
Y11430000D3*
Y11684000D3*
Y11938000D3*
Y12192000D3*
M02*
