G04 DipTrace 3.0.0.1*
G04 Top.gbr*
%MOMM*%
G04 #@! TF.FileFunction,Copper,L1,Top*
G04 #@! TF.Part,Single*
G04 #@! TA.AperFunction,Conductor*
%ADD13C,0.4*%
%ADD14C,1.0*%
%ADD15C,1.5*%
%ADD17C,0.95*%
G04 #@! TA.AperFunction,ViaPad*
%ADD20C,1.3*%
G04 #@! TA.AperFunction,CopperBalancing*
%ADD21C,0.635*%
%ADD22C,0.33*%
G04 #@! TA.AperFunction,ComponentPad*
%ADD25R,1.6X1.6*%
%ADD26C,1.6*%
%ADD29C,1.62*%
%ADD30R,1.62X1.62*%
%ADD31O,3.0X2.3*%
%ADD32R,1.7X1.7*%
%ADD33C,1.7*%
%ADD34C,1.5*%
%ADD35R,1.5X1.5*%
%FSLAX35Y35*%
G04*
G71*
G90*
G75*
G01*
G04 Top*
%LPD*%
X1016000Y11430000D2*
D13*
X3556000D1*
X1156000Y11230000D2*
X968500D1*
X898500Y11300000D1*
Y11610000D1*
X968500Y11680000D1*
X3284000D1*
X3288000Y11684000D1*
X3556000D1*
Y3048000D2*
D14*
X2759750D1*
X2613250Y3194500D1*
X1408750D1*
X874000Y3729250D1*
Y4597500D1*
X668000D1*
X444500Y4821000D1*
Y6634500D1*
X668000Y6858000D1*
X1016000D1*
X1084000Y4667500D2*
D15*
X874000D1*
Y4597500D1*
X4384510Y7352520D2*
D14*
X3843000D1*
X3738020Y7457500D1*
X3466510D1*
Y6863020D1*
X2823500Y6220010D1*
Y6039000D1*
X2893500Y5969000D1*
X2823500Y5899000D1*
Y5524500D1*
X2730500D1*
X3238500Y5969000D2*
X2893500D1*
X3396510Y7677500D2*
Y7457500D1*
X3466510D1*
X5442000Y5842000D2*
Y4464000D1*
X5461000Y4445000D1*
X381000Y9665350D2*
D13*
X1829500D1*
X3086150Y10922000D1*
X3556000D1*
X3492500Y6223000D2*
X3365500Y6096000D1*
Y5524500D1*
X3111500Y5270500D1*
X2476500D1*
X4445000Y3873500D2*
X4207500D1*
X4202000Y3879000D1*
Y6412000D1*
X4272000Y6482000D1*
X5497000D1*
X5207000Y6297000D2*
Y5207000D1*
X4318000Y11176000D2*
X4493000D1*
X4563000Y11246000D1*
Y11522500D1*
X1494000Y11855000D2*
D20*
Y12065000D1*
X2901500Y12049000D2*
X1918000D1*
X1704000Y11835000D1*
X3111500Y11849000D2*
D14*
X3246500D1*
X3311500Y11914000D1*
Y12192000D1*
X3556000D1*
X4826000Y8699500D2*
X5358000Y8167500D1*
X5487000D1*
X5707000Y7947500D1*
Y2252000D1*
X5487000Y2032000D1*
X5207000D1*
X5060000Y11617500D2*
X5158490Y11519010D1*
X5334000D1*
Y12636500D1*
Y13053500D1*
X5485010D1*
X5061000Y11112500D2*
X5334000D1*
Y11519010D1*
Y12636500D2*
X3492500D1*
X3238500Y12890500D1*
X5707000Y7947500D2*
Y8374000D1*
X5905500Y8572500D1*
Y10096500D1*
X5397500Y10604500D1*
X5081000Y7302500D2*
D13*
X4530000Y6751500D1*
X4000500D1*
X3606510Y7842500D2*
X4127500D1*
X5196000Y7417500D2*
Y7228000D1*
X4565000Y6597000D1*
X4067870D1*
X3997863Y6526993D1*
Y3901873D1*
X3790000Y3694010D1*
X4143000Y9652000D2*
X4096000Y9605000D1*
Y8385000D1*
X715500Y2664460D2*
X530510Y2849450D1*
Y4025740D1*
X213000Y4343250D1*
Y8593000D1*
X283000Y8663000D1*
X3956000D1*
Y11068000D1*
X4318000Y11430000D1*
X775000Y4922500D2*
X1179000D1*
X1249000Y4852500D1*
Y4292500D1*
X2159000Y9334500D2*
X2476500Y9652000D1*
X3556000D1*
X5524500Y12700000D2*
Y11366500D1*
X2516510Y11176000D2*
X3556000D1*
X5651500Y11747500D2*
Y13236000D1*
X2631510D1*
X2135000Y6997000D2*
X3095500Y7957500D1*
X5241000D1*
X4572000Y10604500D2*
X4678000Y10710500D1*
Y11614000D1*
X4608000Y11684000D1*
X4318000D1*
X5905500Y1714500D2*
X5917500D1*
Y1016000D1*
X5080000D1*
X5016500Y952500D1*
Y889000D1*
X4997500Y908000D1*
Y889000D1*
X5524500Y9080500D2*
X5031570D1*
X4714070Y9398000D1*
X4318000D1*
X4572000Y2349500D2*
D17*
X3709500D1*
X3320000Y1960000D1*
D20*
X3180000D1*
D15*
X3120000D1*
D20*
X3048000Y2032000D1*
X2032000Y3619500D2*
D13*
Y7112000D1*
X3082750Y8162750D1*
X4248000D1*
X4318000Y8232750D1*
Y8890000D1*
X3556000D2*
X3726000Y9060000D1*
Y12252000D1*
X3796000Y12322000D1*
X4678000D1*
X4748000Y12252000D1*
Y10947500D1*
X4818000Y10877500D1*
X5740010D1*
X5810010Y10947500D1*
Y11398010D1*
X6032500Y11620500D1*
X5106000Y10385010D2*
X4880990Y10160000D1*
X4318000D1*
X698500Y12065000D2*
Y12322000D1*
X768500Y12392000D1*
X4943500D1*
X5080000Y12255500D1*
X1644000Y8548000D2*
X3956000D1*
X4026000Y8618000D1*
Y9836000D1*
X4096000Y9906000D1*
X4318000D1*
X1714500Y10229000D2*
Y10995000D1*
X1644500Y11065000D1*
X698500D1*
X3841000Y8778000D2*
X3796000Y8733000D1*
X1574000D1*
X1529000Y8778000D1*
D20*
X2476500Y2032000D3*
X2667000D3*
Y1778000D3*
X3048000Y2032000D3*
X2476500Y1778000D3*
X2857500Y2032000D3*
Y1778000D3*
X3048000D3*
X4064000Y2032000D3*
X4254500D3*
X4445000D3*
X4635500D3*
X4064000Y1841500D3*
X4254500D3*
X4445000D3*
X4635500D3*
X2476500Y2984500D3*
X5905500Y1714500D3*
X5524500Y9080500D3*
X2476500Y5270500D3*
X5397500Y10604500D3*
X1494000Y12065000D3*
Y11855000D3*
X1704000Y11835000D3*
X2901500Y12049000D3*
X3111500Y11849000D3*
X5485010Y13053500D3*
X4826000Y8699500D3*
X5060000Y11617500D3*
X5061000Y11112500D3*
X3238500Y12890500D3*
X4572000Y2349500D3*
X3937000Y2540000D3*
X205510Y4029500D3*
X4080000Y13081000D3*
X2680000Y8393000D3*
X2190000Y4425000D3*
X2831500Y12998500D3*
X4188000Y317500D3*
X5143500Y9525000D3*
X5207000Y8763000D3*
X1016000Y11430000D3*
X1156000Y11230000D3*
X1084000Y4667500D3*
X2730500Y5524500D3*
X4384510Y7352520D3*
X5442000Y5842000D3*
X5461000Y4445000D3*
X3396510Y7677500D3*
X381000Y9665350D3*
X5497000Y6482000D3*
X4445000Y3873500D3*
X5207000Y5207000D3*
Y6297000D3*
X4563000Y11522500D3*
X4000500Y6751500D3*
X5081000Y7302500D3*
X3606510Y7842500D3*
X4127500D3*
X3790000Y3694010D3*
X5196000Y7417500D3*
X4096000Y8385000D3*
X4143000Y9652000D3*
X715500Y2664460D3*
X1249000Y4292500D3*
X775000Y4922500D3*
X2159000Y9334500D3*
X5524500Y11366500D3*
Y12700000D3*
X2516510Y11176000D3*
X2631510Y13236000D3*
X5651500Y11747500D3*
X5241000Y7957500D3*
X2135000Y6997000D3*
X4572000Y10604500D3*
X2032000Y3619500D3*
X5106000Y10385010D3*
X5080000Y12255500D3*
X1644000Y8548000D3*
X1714500Y10229000D3*
X1529000Y8778000D3*
X3841000D3*
X3975163Y2127583D2*
D21*
X4787837D1*
X3975163Y2064417D2*
X4787837D1*
X3975163Y2001250D2*
X4787837D1*
X3975163Y1938083D2*
X4787837D1*
X3975163Y1874917D2*
X4787837D1*
X3975163Y1811750D2*
X4787837D1*
X3975163Y1748583D2*
X4787837D1*
X3975163Y1685417D2*
X4787837D1*
X4794127Y2190750D2*
X3968750D1*
Y1682873D1*
X4794127Y1682750D1*
X4794250Y2190873D1*
X2387663Y2127583D2*
X3136837D1*
X2387663Y2064417D2*
X3136837D1*
X2387663Y2001250D2*
X3136837D1*
X2387663Y1938083D2*
X3136837D1*
X2387663Y1874917D2*
X3136837D1*
X2387663Y1811750D2*
X3136837D1*
X2387663Y1748583D2*
X3136837D1*
X2387663Y1685417D2*
X3136837D1*
X3143127Y2190750D2*
X2381250D1*
Y1682873D1*
X3143127Y1682750D1*
X3143250Y2190873D1*
X101662Y13367083D2*
X1605397D1*
X2461580D2*
X2553680D1*
X2709255D2*
X6121338D1*
X101662Y13303917D2*
X1605273D1*
X2461580D2*
X2492269D1*
X5737039D2*
X6121338D1*
X101662Y13240750D2*
X1631069D1*
X5762092D2*
X6121338D1*
X101662Y13177583D2*
X1709328D1*
X1846672D2*
X1963328D1*
X2461580D2*
X2487713D1*
X5762092D2*
X6121338D1*
X101662Y13114417D2*
X393564D1*
X749436D2*
X2538549D1*
X2724510D2*
X5208029D1*
X5762092D2*
X6121338D1*
X101662Y13051250D2*
X333412D1*
X809588D2*
X5193395D1*
X5762092D2*
X6121338D1*
X101662Y12988083D2*
X300422D1*
X842578D2*
X3119227D1*
X3357773D2*
X5193395D1*
X5762092D2*
X6121338D1*
X101662Y12924917D2*
X285167D1*
X857833D2*
X3086857D1*
X3400313D2*
X5193395D1*
X5762092D2*
X6121338D1*
X101662Y12861750D2*
X284547D1*
X858453D2*
X3085616D1*
X3463565D2*
X5193395D1*
X5474605D2*
X5540908D1*
X5762092D2*
X6121338D1*
X101662Y12798583D2*
X298438D1*
X844562D2*
X3114514D1*
X3526693D2*
X5193395D1*
X5762092D2*
X6121338D1*
X101662Y12735417D2*
X329567D1*
X813433D2*
X3197361D1*
X5762092D2*
X5901320D1*
X101662Y12672250D2*
X386494D1*
X756506D2*
X3260489D1*
X5762092D2*
X5870935D1*
X101662Y12609083D2*
X545740D1*
X597310D2*
X3323617D1*
X5762092D2*
X5869198D1*
X101662Y12545917D2*
X3386869D1*
X5762092D2*
X5895119D1*
X101662Y12482750D2*
X710816D1*
X5001208D2*
X5193395D1*
X5762092D2*
X5902313D1*
X101662Y12419583D2*
X642231D1*
X5069793D2*
X5193395D1*
X5762092D2*
X5871183D1*
X101662Y12356417D2*
X593737D1*
X5762092D2*
X5868950D1*
X101662Y12293250D2*
X587908D1*
X5762092D2*
X5894251D1*
X101662Y12230083D2*
X545492D1*
X851508D2*
X3176401D1*
X4858581D2*
X4926496D1*
X5762092D2*
X5903429D1*
X101662Y12166917D2*
X485837D1*
X911163D2*
X1378558D1*
X1609415D2*
X1820081D1*
X2999470D2*
X3170820D1*
X3836628D2*
X4147381D1*
X4488619D2*
X4637398D1*
X4858581D2*
X4953533D1*
X5762092D2*
X5871555D1*
X101662Y12103750D2*
X461652D1*
X935348D2*
X1343459D1*
X1644514D2*
X1755217D1*
X3046723D2*
X3170820D1*
X3836628D2*
X4147381D1*
X4488619D2*
X4637398D1*
X4858581D2*
X5193395D1*
X5762092D2*
X5868826D1*
X101662Y12040583D2*
X459420D1*
X937580D2*
X1338374D1*
X1649599D2*
X1692089D1*
X3056892D2*
X3170820D1*
X3836628D2*
X4147381D1*
X4488619D2*
X4637398D1*
X4858581D2*
X5193395D1*
X5762092D2*
X5893259D1*
X101662Y11977417D2*
X478148D1*
X918852D2*
X1338374D1*
X3836628D2*
X4152218D1*
X4483782D2*
X4637398D1*
X4858581D2*
X5193395D1*
X5762092D2*
X5904545D1*
X101662Y11914250D2*
X526765D1*
X870235D2*
X1338374D1*
X3836628D2*
X4149117D1*
X4486883D2*
X4637398D1*
X4858581D2*
X5193395D1*
X5762092D2*
X5871927D1*
X101662Y11851083D2*
X1338374D1*
X1937581D2*
X2955888D1*
X3836628D2*
X4172186D1*
X4463814D2*
X4637398D1*
X4858581D2*
X5193395D1*
X5765316D2*
X5868578D1*
X101662Y11787917D2*
X1354249D1*
X1874453D2*
X2968910D1*
X3836628D2*
X4184340D1*
X4858581D2*
X5193395D1*
X5801531D2*
X5892391D1*
X101662Y11724750D2*
X538051D1*
X3836628D2*
X4152466D1*
X4858581D2*
X4949813D1*
X5170252D2*
X5193327D1*
X5805376D2*
X5905661D1*
X101662Y11661583D2*
X482860D1*
X3836628D2*
X4148869D1*
X4858581D2*
X4910993D1*
X5779951D2*
X5872299D1*
X101662Y11598417D2*
X460660D1*
X3836628D2*
X4171442D1*
X4858581D2*
X4905536D1*
X5665725D2*
X5856548D1*
X101662Y11535250D2*
X460040D1*
X1128204D2*
X3423456D1*
X3836628D2*
X4185456D1*
X4858581D2*
X4929101D1*
X5635092D2*
X5793420D1*
X101662Y11472083D2*
X480876D1*
X3836628D2*
X4152838D1*
X4858581D2*
X5009096D1*
X5636456D2*
X5730292D1*
X101662Y11408917D2*
X533214D1*
X3836628D2*
X4143040D1*
X4858581D2*
X5075200D1*
X5674035D2*
X5699871D1*
X101662Y11345750D2*
X787834D1*
X3836628D2*
X4079912D1*
X4858581D2*
X5193395D1*
X5678748D2*
X5699414D1*
X101662Y11282583D2*
X789322D1*
X1302085D2*
X2405596D1*
X2627399D2*
X3424572D1*
X3836628D2*
X4016784D1*
X4858581D2*
X5193395D1*
X5654315D2*
X5699410D1*
X101662Y11219417D2*
X531106D1*
X1311263D2*
X2367273D1*
X3836628D2*
X3953532D1*
X4858581D2*
X4950433D1*
X5556440D2*
X5699410D1*
X101662Y11156250D2*
X480008D1*
X1701316D2*
X2362188D1*
X3836628D2*
X3890404D1*
X4858581D2*
X4911861D1*
X5474605D2*
X5699410D1*
X101662Y11093083D2*
X459792D1*
X1770273D2*
X2386000D1*
X4134904D2*
X4169892D1*
X4858581D2*
X4906652D1*
X5473241D2*
X5699410D1*
X101662Y11029917D2*
X461032D1*
X1819139D2*
X2479390D1*
X2553605D2*
X3425813D1*
X4071776D2*
X4187813D1*
X4448187D2*
X4567324D1*
X4858581D2*
X4930341D1*
X5446204D2*
X5699410D1*
X101662Y10966750D2*
X483729D1*
X1825092D2*
X2977096D1*
X4066691D2*
X4153582D1*
X4482418D2*
X4567324D1*
X5920594D2*
X5961901D1*
X101662Y10903583D2*
X540283D1*
X856717D2*
X1603908D1*
X1825092D2*
X2913844D1*
X4066691D2*
X4148373D1*
X4487627D2*
X4567324D1*
X5910920D2*
X6121338D1*
X101662Y10840417D2*
X1603908D1*
X1825092D2*
X2850716D1*
X4066691D2*
X4169085D1*
X4466915D2*
X4567324D1*
X5856722D2*
X6121338D1*
X101662Y10777250D2*
X1603908D1*
X1825092D2*
X2787588D1*
X3095216D2*
X3426929D1*
X4066691D2*
X4188929D1*
X4447071D2*
X4567324D1*
X5775114D2*
X6121338D1*
X101662Y10714083D2*
X524904D1*
X872096D2*
X1603908D1*
X1825092D2*
X2724336D1*
X3032088D2*
X3391954D1*
X4066691D2*
X4153954D1*
X4788632D2*
X5289761D1*
X5505239D2*
X6121338D1*
X101662Y10650917D2*
X477279D1*
X919721D2*
X1603908D1*
X1825092D2*
X2661208D1*
X2968960D2*
X3386249D1*
X4066691D2*
X4148249D1*
X4769904D2*
X5249205D1*
X5547407D2*
X6121338D1*
X101662Y10587750D2*
X459172D1*
X937828D2*
X1603908D1*
X1825092D2*
X2598080D1*
X2905708D2*
X3406341D1*
X4066691D2*
X4168341D1*
X4726744D2*
X5242756D1*
X5610535D2*
X6121338D1*
X101662Y10524583D2*
X462025D1*
X934975D2*
X1603908D1*
X1825092D2*
X2534952D1*
X2842580D2*
X3428169D1*
X4066691D2*
X4190169D1*
X4704420D2*
X5046675D1*
X5165291D2*
X5265080D1*
X5673663D2*
X6121338D1*
X101662Y10461417D2*
X486953D1*
X910047D2*
X1603908D1*
X1825092D2*
X2471700D1*
X2779452D2*
X3392326D1*
X4066691D2*
X4154326D1*
X4481674D2*
X4523048D1*
X4620952D2*
X4971393D1*
X5240573D2*
X5344331D1*
X5736791D2*
X6121338D1*
X101662Y10398250D2*
X547973D1*
X849027D2*
X1603908D1*
X1825092D2*
X2408572D1*
X2716200D2*
X3386125D1*
X4066691D2*
X4148125D1*
X4487875D2*
X4950929D1*
X5261037D2*
X5407459D1*
X5800043D2*
X6121338D1*
X101662Y10335083D2*
X1603164D1*
X1825836D2*
X2345444D1*
X2653072D2*
X3405597D1*
X4066691D2*
X4167597D1*
X4468403D2*
X4902188D1*
X5253100D2*
X5470711D1*
X5863171D2*
X6121338D1*
X101662Y10271917D2*
X1565213D1*
X1863787D2*
X2282192D1*
X2589944D2*
X3429409D1*
X4066691D2*
X4191409D1*
X4444591D2*
X4839060D1*
X5209815D2*
X5533839D1*
X5926299D2*
X6121338D1*
X101662Y10208750D2*
X1560252D1*
X1868748D2*
X2219065D1*
X2526692D2*
X3392698D1*
X4066691D2*
X4154698D1*
X5083559D2*
X5596967D1*
X5989551D2*
X6121338D1*
X101662Y10145583D2*
X1584313D1*
X1844687D2*
X2155937D1*
X2463564D2*
X3386001D1*
X4066691D2*
X4148001D1*
X5020432D2*
X5660095D1*
X6036804D2*
X6121338D1*
X101662Y10082417D2*
X1679811D1*
X1749197D2*
X2092685D1*
X2400436D2*
X3404853D1*
X4066691D2*
X4166853D1*
X4957056D2*
X5723347D1*
X6046105D2*
X6121338D1*
X101662Y10019250D2*
X2029557D1*
X2337184D2*
X3430650D1*
X4066691D2*
X4192650D1*
X4443350D2*
X5764895D1*
X6046105D2*
X6121338D1*
X101662Y9956083D2*
X1966429D1*
X2274057D2*
X3393194D1*
X4480806D2*
X5764895D1*
X6046105D2*
X6121338D1*
X101662Y9892917D2*
X1903177D1*
X2210929D2*
X3385877D1*
X4488123D2*
X5764895D1*
X6046105D2*
X6121338D1*
X101662Y9829750D2*
X1840049D1*
X2147801D2*
X3404108D1*
X4469892D2*
X5764895D1*
X6046105D2*
X6121338D1*
X101662Y9766583D2*
X264951D1*
X2084549D2*
X3431890D1*
X4442110D2*
X5764895D1*
X6046105D2*
X6121338D1*
X101662Y9703417D2*
X230349D1*
X2021421D2*
X2374094D1*
X4480433D2*
X5764895D1*
X6046105D2*
X6121338D1*
X101662Y9640250D2*
X227496D1*
X1958293D2*
X2310966D1*
X4488247D2*
X5764895D1*
X6046105D2*
X6121338D1*
X101662Y9577083D2*
X254285D1*
X1891444D2*
X2247714D1*
X4470512D2*
X5764895D1*
X6046105D2*
X6121338D1*
X101662Y9513917D2*
X2184586D1*
X2492214D2*
X3433254D1*
X4440746D2*
X5764895D1*
X6046105D2*
X6121338D1*
X101662Y9450750D2*
X2058950D1*
X2429086D2*
X3394063D1*
X4815173D2*
X5764895D1*
X6046105D2*
X6121338D1*
X101662Y9387583D2*
X2013062D1*
X2365958D2*
X3385629D1*
X4878301D2*
X5764895D1*
X6046105D2*
X6121338D1*
X101662Y9324417D2*
X2003760D1*
X2314240D2*
X3402744D1*
X4941553D2*
X5764895D1*
X6046105D2*
X6121338D1*
X101662Y9261250D2*
X2022611D1*
X2295389D2*
X3434618D1*
X4439382D2*
X4696929D1*
X5004681D2*
X5764895D1*
X6046105D2*
X6121338D1*
X101662Y9198083D2*
X2092065D1*
X2225935D2*
X3394559D1*
X4479441D2*
X4760181D1*
X5067808D2*
X5426187D1*
X5622813D2*
X5764895D1*
X6046105D2*
X6121338D1*
X101662Y9134917D2*
X3385629D1*
X4488371D2*
X4823309D1*
X5669818D2*
X5764895D1*
X6046105D2*
X6121338D1*
X101662Y9071750D2*
X3402124D1*
X4471876D2*
X4886437D1*
X5679864D2*
X5764895D1*
X6046105D2*
X6121338D1*
X101662Y9008583D2*
X3435983D1*
X3823109D2*
X3845318D1*
X4438017D2*
X4949689D1*
X5661633D2*
X5764895D1*
X6046105D2*
X6121338D1*
X101662Y8945417D2*
X3394931D1*
X3765314D2*
X3845384D1*
X4479069D2*
X5454588D1*
X5594412D2*
X5764895D1*
X6046105D2*
X6121338D1*
X101662Y8882250D2*
X1415765D1*
X1642157D2*
X3385505D1*
X4488495D2*
X5764895D1*
X6046105D2*
X6121338D1*
X101662Y8819083D2*
X1379178D1*
X4472496D2*
X4730291D1*
X4921709D2*
X5764895D1*
X6046105D2*
X6121338D1*
X101662Y8755917D2*
X229233D1*
X4428592D2*
X4681426D1*
X4970574D2*
X5764895D1*
X6046105D2*
X6121338D1*
X101662Y8692750D2*
X158911D1*
X4428592D2*
X4670512D1*
X5028989D2*
X5764895D1*
X6046105D2*
X6121338D1*
X4428592Y8629583D2*
X4687751D1*
X5092241D2*
X5764895D1*
X6046105D2*
X6121338D1*
X4428592Y8566417D2*
X4751995D1*
X5155369D2*
X5703131D1*
X6045981D2*
X6121338D1*
X323664Y8503250D2*
X1495264D1*
X4428592D2*
X4826037D1*
X5218497D2*
X5640003D1*
X6026882D2*
X6121338D1*
X323664Y8440083D2*
X1534455D1*
X1753530D2*
X3950928D1*
X4428592D2*
X4889165D1*
X5281625D2*
X5583696D1*
X5969335D2*
X6121338D1*
X323664Y8376917D2*
X3940634D1*
X4428592D2*
X4952293D1*
X5344877D2*
X5566333D1*
X5906207D2*
X6121338D1*
X323664Y8313750D2*
X3958493D1*
X4428592D2*
X5015545D1*
X5408005D2*
X5566333D1*
X5847668D2*
X6121338D1*
X323664Y8250583D2*
X3020132D1*
X4428592D2*
X5078673D1*
X5847668D2*
X6121338D1*
X323664Y8187417D2*
X2953531D1*
X4418298D2*
X5141801D1*
X5847668D2*
X6121338D1*
X323664Y8124250D2*
X2890403D1*
X4363355D2*
X5204929D1*
X5847668D2*
X6121338D1*
X323664Y8061083D2*
X2827275D1*
X5847668D2*
X6121338D1*
X323664Y7997917D2*
X2764024D1*
X5391014D2*
X5460293D1*
X5847668D2*
X6121338D1*
X323664Y7934750D2*
X2700896D1*
X5394858D2*
X5523545D1*
X5847668D2*
X6121338D1*
X323664Y7871583D2*
X2637768D1*
X5369433D2*
X5566333D1*
X5847668D2*
X6121338D1*
X323664Y7808417D2*
X2574640D1*
X3100301D2*
X3318408D1*
X4279143D2*
X5226757D1*
X5255159D2*
X5566333D1*
X5847668D2*
X6121338D1*
X323664Y7745250D2*
X2511388D1*
X3037049D2*
X3257141D1*
X4247145D2*
X5566333D1*
X5847668D2*
X6121338D1*
X323664Y7682083D2*
X2448260D1*
X2973921D2*
X3240894D1*
X3552118D2*
X5566333D1*
X5847668D2*
X6121338D1*
X323664Y7618917D2*
X2385132D1*
X2910793D2*
X3252800D1*
X3540212D2*
X5566333D1*
X5847668D2*
X6121338D1*
X323664Y7555750D2*
X2321880D1*
X2847541D2*
X3255900D1*
X3835884D2*
X5133367D1*
X5258681D2*
X5566333D1*
X5847668D2*
X6121338D1*
X323664Y7492583D2*
X903300D1*
X1441611D2*
X2258752D1*
X2784413D2*
X3255900D1*
X3899260D2*
X4326471D1*
X4442482D2*
X5060566D1*
X5331358D2*
X5566333D1*
X5847668D2*
X6121338D1*
X323664Y7429417D2*
X857039D1*
X1441611D2*
X2195624D1*
X2721285D2*
X3258877D1*
X4518881D2*
X4996073D1*
X5351202D2*
X5566333D1*
X5847668D2*
X6121338D1*
X323664Y7366250D2*
X844389D1*
X1441611D2*
X2132372D1*
X2658033D2*
X3291619D1*
X4539469D2*
X4939643D1*
X5342520D2*
X5566333D1*
X5847668D2*
X6121338D1*
X323664Y7303083D2*
X856791D1*
X1441611D2*
X2069244D1*
X2594905D2*
X3325850D1*
X3607184D2*
X3696184D1*
X4531779D2*
X4925380D1*
X5306678D2*
X5566333D1*
X5847668D2*
X6121338D1*
X323664Y7239917D2*
X902804D1*
X1441611D2*
X2006116D1*
X2531777D2*
X3325850D1*
X3607184D2*
X3763528D1*
X4488867D2*
X4864608D1*
X5306678D2*
X5566333D1*
X5847668D2*
X6121338D1*
X323664Y7176750D2*
X857535D1*
X1428465D2*
X1943857D1*
X2468649D2*
X3325850D1*
X3607184D2*
X4801357D1*
X5293159D2*
X5566333D1*
X5847668D2*
X6121338D1*
X323664Y7113583D2*
X844389D1*
X1441611D2*
X1921408D1*
X2405397D2*
X3325850D1*
X3607184D2*
X4738229D1*
X5235364D2*
X5566333D1*
X5847668D2*
X6121338D1*
X323664Y7050417D2*
X856295D1*
X1429705D2*
X1921408D1*
X2342269D2*
X3325850D1*
X3607184D2*
X4675101D1*
X5172236D2*
X5566333D1*
X5847668D2*
X6121338D1*
X323664Y6987250D2*
X625239D1*
X1384808D2*
X1921408D1*
X2290304D2*
X3325850D1*
X3607184D2*
X4611973D1*
X5109108D2*
X5566333D1*
X5847668D2*
X6121338D1*
X323664Y6924083D2*
X537803D1*
X1427845D2*
X1921408D1*
X2271576D2*
X3325850D1*
X3607184D2*
X4548721D1*
X5045980D2*
X5566333D1*
X5847668D2*
X6121338D1*
X323664Y6860917D2*
X474675D1*
X1441611D2*
X1921408D1*
X2202743D2*
X3268179D1*
X3607184D2*
X3892637D1*
X4108363D2*
X4485593D1*
X4982728D2*
X5566333D1*
X5847668D2*
X6121338D1*
X323664Y6797750D2*
X411423D1*
X1430325D2*
X1921408D1*
X2142592D2*
X3204927D1*
X3590193D2*
X3852205D1*
X4919600D2*
X5566333D1*
X5847668D2*
X6121338D1*
X323664Y6734583D2*
X348295D1*
X1132297D2*
X1153626D1*
X1386297D2*
X1921408D1*
X2142592D2*
X3141799D1*
X3534383D2*
X3845880D1*
X4856473D2*
X5566333D1*
X5847668D2*
X6121338D1*
X677627Y6671417D2*
X1921408D1*
X2142592D2*
X3078671D1*
X3471131D2*
X3868204D1*
X4793221D2*
X5566333D1*
X5847668D2*
X6121338D1*
X614499Y6608250D2*
X1921408D1*
X2142592D2*
X3015419D1*
X3408003D2*
X3925255D1*
X4730093D2*
X5410932D1*
X5847668D2*
X6121338D1*
X585105Y6545083D2*
X1921408D1*
X2142592D2*
X2952291D1*
X3344875D2*
X3888792D1*
X5847668D2*
X6121338D1*
X585105Y6481917D2*
X1921408D1*
X2142592D2*
X2889163D1*
X3281623D2*
X3887180D1*
X5847668D2*
X6121338D1*
X585105Y6418750D2*
X1921408D1*
X2142592D2*
X2826035D1*
X3218495D2*
X3887180D1*
X5847668D2*
X6121338D1*
X585105Y6355583D2*
X1921408D1*
X2142592D2*
X2762783D1*
X3664111D2*
X3887180D1*
X4312630D2*
X5063294D1*
X5350706D2*
X5411180D1*
X5847668D2*
X6121338D1*
X585105Y6292417D2*
X1921408D1*
X2142592D2*
X2703996D1*
X3664111D2*
X3887180D1*
X4312630D2*
X5051388D1*
X5362612D2*
X5566333D1*
X5847668D2*
X6121338D1*
X585105Y6229250D2*
X1921408D1*
X2142592D2*
X2683160D1*
X3028987D2*
X3067042D1*
X3664111D2*
X3887180D1*
X4312630D2*
X5067635D1*
X5346365D2*
X5566333D1*
X5847668D2*
X6121338D1*
X585105Y6166083D2*
X1921408D1*
X2142592D2*
X2682912D1*
X2965859D2*
X3076935D1*
X3664111D2*
X3887180D1*
X4312630D2*
X5096408D1*
X5317592D2*
X5566333D1*
X5847668D2*
X6121338D1*
X585105Y6102917D2*
X1921408D1*
X2142592D2*
X2682912D1*
X3664111D2*
X3887180D1*
X4312630D2*
X5096408D1*
X5317592D2*
X5566333D1*
X5847668D2*
X6121338D1*
X585105Y6039750D2*
X1921408D1*
X2142592D2*
X2682912D1*
X3648236D2*
X3887180D1*
X4312630D2*
X5096408D1*
X5317592D2*
X5566333D1*
X5847668D2*
X6121338D1*
X585105Y5976583D2*
X1921408D1*
X2142592D2*
X2698291D1*
X3663987D2*
X3887180D1*
X4312630D2*
X5096408D1*
X5317592D2*
X5370996D1*
X5512929D2*
X5566333D1*
X5847668D2*
X6121338D1*
X585105Y5913417D2*
X1921408D1*
X2142592D2*
X2683656D1*
X3654561D2*
X3887180D1*
X4312630D2*
X5096408D1*
X5847668D2*
X6121338D1*
X585105Y5850250D2*
X1921408D1*
X2142592D2*
X2682912D1*
X3613882D2*
X3887180D1*
X4312630D2*
X5096408D1*
X5847668D2*
X6121338D1*
X585105Y5787083D2*
X1921408D1*
X2142592D2*
X2682912D1*
X2964123D2*
X3083384D1*
X3647616D2*
X3887180D1*
X4312630D2*
X5096408D1*
X5847668D2*
X6121338D1*
X585105Y5723917D2*
X1921408D1*
X2142592D2*
X2682912D1*
X2964123D2*
X3067137D1*
X3663863D2*
X3887180D1*
X4312630D2*
X5096408D1*
X5847668D2*
X6121338D1*
X585105Y5660750D2*
X1921408D1*
X2142592D2*
X2663068D1*
X2964123D2*
X3076067D1*
X3654933D2*
X3887180D1*
X4312630D2*
X5096408D1*
X5847668D2*
X6121338D1*
X585105Y5597583D2*
X1921408D1*
X2142592D2*
X2593987D1*
X2964123D2*
X3115754D1*
X3615246D2*
X3887180D1*
X4312630D2*
X5096408D1*
X5847668D2*
X6121338D1*
X585105Y5534417D2*
X1921408D1*
X2142592D2*
X2575136D1*
X2964123D2*
X3221546D1*
X3476092D2*
X3887180D1*
X4312630D2*
X5096408D1*
X5847668D2*
X6121338D1*
X585105Y5471250D2*
X1921408D1*
X2142592D2*
X2584686D1*
X2953085D2*
X3158418D1*
X3461581D2*
X3887180D1*
X4312630D2*
X5096408D1*
X5847668D2*
X6121338D1*
X585105Y5408083D2*
X1921408D1*
X2142592D2*
X2412169D1*
X2540831D2*
X2630698D1*
X2896778D2*
X3095290D1*
X3402918D2*
X3887180D1*
X4312630D2*
X5096408D1*
X5847668D2*
X6121338D1*
X585105Y5344917D2*
X1921408D1*
X2142592D2*
X2340732D1*
X3339790D2*
X3887180D1*
X4312630D2*
X5096408D1*
X5847668D2*
X6121338D1*
X585105Y5281750D2*
X1921408D1*
X2142592D2*
X2321260D1*
X3276538D2*
X3887180D1*
X4312630D2*
X5071480D1*
X5847668D2*
X6121338D1*
X585105Y5218583D2*
X1921408D1*
X2142592D2*
X2330190D1*
X3213410D2*
X3887180D1*
X4312630D2*
X5051760D1*
X5847668D2*
X6121338D1*
X585105Y5155417D2*
X1921408D1*
X2142592D2*
X2375086D1*
X2577914D2*
X3887180D1*
X4312630D2*
X5060566D1*
X5847668D2*
X6121338D1*
X585105Y5092250D2*
X1921408D1*
X2142592D2*
X3887180D1*
X4312630D2*
X5105090D1*
X5847668D2*
X6121338D1*
X585105Y5029083D2*
X664059D1*
X885862D2*
X1921408D1*
X2142592D2*
X3887180D1*
X4312630D2*
X5301419D1*
X5847668D2*
X6121338D1*
X585105Y4965917D2*
X625904D1*
X1289434D2*
X1921408D1*
X2142592D2*
X3887180D1*
X4312630D2*
X5301419D1*
X5847668D2*
X6121338D1*
X585105Y4902750D2*
X620631D1*
X1346733D2*
X1921408D1*
X2142592D2*
X3887180D1*
X4312630D2*
X5301419D1*
X5847668D2*
X6121338D1*
X622188Y4839583D2*
X644590D1*
X1359632D2*
X1921408D1*
X2142592D2*
X3887180D1*
X4312630D2*
X5301419D1*
X5847668D2*
X6121338D1*
X685316Y4776417D2*
X737853D1*
X1359632D2*
X1921408D1*
X2142592D2*
X3887180D1*
X4312630D2*
X5301419D1*
X5847668D2*
X6121338D1*
X323664Y4713250D2*
X355984D1*
X1359632D2*
X1921408D1*
X2142592D2*
X3887180D1*
X4312630D2*
X5301419D1*
X5847668D2*
X6121338D1*
X323664Y4650083D2*
X419112D1*
X1359632D2*
X1921408D1*
X2142592D2*
X3887180D1*
X4312630D2*
X5301419D1*
X5847668D2*
X6121338D1*
X323664Y4586917D2*
X482364D1*
X1359632D2*
X1921408D1*
X2142592D2*
X3887180D1*
X4312630D2*
X5301419D1*
X5847668D2*
X6121338D1*
X323664Y4523750D2*
X545492D1*
X1359632D2*
X1921408D1*
X2142592D2*
X3887180D1*
X4312630D2*
X5301419D1*
X5847668D2*
X6121338D1*
X323664Y4460583D2*
X733388D1*
X1014599D2*
X1138324D1*
X1359632D2*
X1921408D1*
X2142592D2*
X3887180D1*
X4312630D2*
X5301419D1*
X5847668D2*
X6121338D1*
X323664Y4397417D2*
X733388D1*
X1014599D2*
X1136464D1*
X1361616D2*
X1921408D1*
X2142592D2*
X3887180D1*
X4312630D2*
X5313201D1*
X5847668D2*
X6121338D1*
X375878Y4334250D2*
X733388D1*
X1014599D2*
X1099257D1*
X1398699D2*
X1921408D1*
X2142592D2*
X3887180D1*
X4312630D2*
X5354501D1*
X5847668D2*
X6121338D1*
X101662Y4271083D2*
X131461D1*
X439006D2*
X733388D1*
X1014599D2*
X1094916D1*
X1403040D2*
X1921408D1*
X2142592D2*
X3887180D1*
X4312630D2*
X5566333D1*
X5847668D2*
X6121338D1*
X101662Y4207917D2*
X194506D1*
X502134D2*
X733388D1*
X1014599D2*
X1119597D1*
X1378359D2*
X1921408D1*
X2142592D2*
X3887180D1*
X4312630D2*
X5566333D1*
X5847668D2*
X6121338D1*
X101662Y4144750D2*
X257634D1*
X565386D2*
X733388D1*
X1014599D2*
X1221296D1*
X1276784D2*
X1921408D1*
X2142592D2*
X3887180D1*
X4312630D2*
X5566333D1*
X5847668D2*
X6121338D1*
X101662Y4081583D2*
X320886D1*
X624917D2*
X733388D1*
X1014599D2*
X1921408D1*
X2142592D2*
X3887180D1*
X4312630D2*
X5566333D1*
X5847668D2*
X6121338D1*
X101662Y4018417D2*
X384014D1*
X641164D2*
X733388D1*
X1014599D2*
X1921408D1*
X2142592D2*
X3887180D1*
X4312630D2*
X4402745D1*
X4487255D2*
X5566333D1*
X5847668D2*
X6121338D1*
X101662Y3955250D2*
X419857D1*
X641164D2*
X733388D1*
X1014599D2*
X1921408D1*
X2142592D2*
X3887180D1*
X4576304D2*
X5566333D1*
X5847668D2*
X6121338D1*
X101662Y3892083D2*
X419857D1*
X641164D2*
X733388D1*
X1014599D2*
X1921408D1*
X2142592D2*
X3834222D1*
X4599496D2*
X5566333D1*
X5847668D2*
X6121338D1*
X101662Y3828917D2*
X419857D1*
X641164D2*
X733388D1*
X1014599D2*
X1921408D1*
X2142592D2*
X3719748D1*
X4078722D2*
X4104245D1*
X4593791D2*
X5566333D1*
X5847668D2*
X6121338D1*
X101662Y3765750D2*
X419857D1*
X641164D2*
X733388D1*
X1033822D2*
X1921408D1*
X2142592D2*
X3652775D1*
X4015594D2*
X4335276D1*
X4554724D2*
X5566333D1*
X5847668D2*
X6121338D1*
X101662Y3702583D2*
X419857D1*
X641164D2*
X735992D1*
X1096950D2*
X1901565D1*
X2162435D2*
X3634668D1*
X3952466D2*
X5566333D1*
X5847668D2*
X6121338D1*
X101662Y3639417D2*
X419857D1*
X641164D2*
X767866D1*
X1160078D2*
X1877752D1*
X2186248D2*
X3644714D1*
X3935350D2*
X5566333D1*
X5847668D2*
X6121338D1*
X101662Y3576250D2*
X419857D1*
X641164D2*
X830746D1*
X1223206D2*
X1882713D1*
X2181287D2*
X3691843D1*
X3888098D2*
X5566333D1*
X5847668D2*
X6121338D1*
X101662Y3513083D2*
X419857D1*
X641164D2*
X893874D1*
X1286458D2*
X1920912D1*
X2143088D2*
X5566333D1*
X5847668D2*
X6121338D1*
X101662Y3449917D2*
X419857D1*
X641164D2*
X957126D1*
X1349586D2*
X5566333D1*
X5847668D2*
X6121338D1*
X101662Y3386750D2*
X419857D1*
X641164D2*
X1020254D1*
X1412714D2*
X5566333D1*
X5847668D2*
X6121338D1*
X101662Y3323583D2*
X419857D1*
X641164D2*
X1083382D1*
X2656669D2*
X5566333D1*
X5847668D2*
X6121338D1*
X101662Y3260417D2*
X419857D1*
X641164D2*
X1146510D1*
X2743609D2*
X5566333D1*
X5847668D2*
X6121338D1*
X101662Y3197250D2*
X419857D1*
X641164D2*
X811647D1*
X2806737D2*
X3385381D1*
X3726619D2*
X5566333D1*
X5847668D2*
X6121338D1*
X101662Y3134083D2*
X419857D1*
X641164D2*
X741573D1*
X3726619D2*
X5566333D1*
X5847668D2*
X6121338D1*
X101662Y3070917D2*
X419857D1*
X641164D2*
X719001D1*
X1314611D2*
X1349884D1*
X3726619D2*
X5566333D1*
X5847668D2*
X6121338D1*
X101662Y3007750D2*
X419857D1*
X641164D2*
X722350D1*
X1314611D2*
X2603785D1*
X3726619D2*
X5566333D1*
X5847668D2*
X6121338D1*
X101662Y2944583D2*
X419857D1*
X641164D2*
X753728D1*
X1314611D2*
X2667781D1*
X3726619D2*
X5566333D1*
X5847668D2*
X6121338D1*
X101662Y2881417D2*
X419857D1*
X652326D2*
X742317D1*
X1289683D2*
X3410558D1*
X3701442D2*
X5566333D1*
X5847668D2*
X6121338D1*
X101662Y2818250D2*
X424693D1*
X1312875D2*
X3387117D1*
X3724883D2*
X5566333D1*
X5847668D2*
X6121338D1*
X101662Y2755083D2*
X471078D1*
X1310022D2*
X3390094D1*
X3721906D2*
X5566333D1*
X5847668D2*
X6121338D1*
X101662Y2691917D2*
X534206D1*
X1279389D2*
X3420976D1*
X3691024D2*
X5566333D1*
X5847668D2*
X6121338D1*
X101662Y2628750D2*
X564220D1*
X1288814D2*
X5566333D1*
X5847668D2*
X6121338D1*
X101662Y2565583D2*
X597334D1*
X1312627D2*
X5566333D1*
X5847668D2*
X6121338D1*
X101662Y2502417D2*
X721730D1*
X1310270D2*
X5566333D1*
X5847668D2*
X6121338D1*
X101662Y2439250D2*
X751619D1*
X1280381D2*
X3606515D1*
X4697599D2*
X5141429D1*
X5272571D2*
X5566333D1*
X5847668D2*
X6121338D1*
X101662Y2376083D2*
X861380D1*
X916641D2*
X1115380D1*
X1170641D2*
X3543387D1*
X4725256D2*
X5063294D1*
X5350706D2*
X5566333D1*
X5847668D2*
X6121338D1*
X101662Y2312917D2*
X3480135D1*
X4723147D2*
X5038613D1*
X5375387D2*
X5566333D1*
X5847668D2*
X6121338D1*
X101662Y2249750D2*
X2263341D1*
X3261159D2*
X3417007D1*
X4912159D2*
X5040350D1*
X5373650D2*
X5508538D1*
X5847668D2*
X6121338D1*
X101662Y2186583D2*
X2258876D1*
X3265624D2*
X3353879D1*
X3739269D2*
X3846376D1*
X4916624D2*
X5036381D1*
X5377619D2*
X5445286D1*
X5830677D2*
X6121338D1*
X101662Y2123417D2*
X2258876D1*
X3265624D2*
X3290726D1*
X3676142D2*
X3846376D1*
X4916624D2*
X5036381D1*
X5774742D2*
X6121338D1*
X101662Y2060250D2*
X2258876D1*
X3613014D2*
X3846376D1*
X4916624D2*
X5036381D1*
X5711490D2*
X6121338D1*
X101662Y1997083D2*
X2258876D1*
X3549762D2*
X3846376D1*
X4916624D2*
X5036381D1*
X5648362D2*
X6121338D1*
X101662Y1933917D2*
X2258876D1*
X3486634D2*
X3846376D1*
X4916624D2*
X5036381D1*
X5585110D2*
X6121338D1*
X101662Y1870750D2*
X2258876D1*
X3446078D2*
X3846376D1*
X4916624D2*
X5036381D1*
X5377619D2*
X6121338D1*
X101662Y1807583D2*
X2258876D1*
X3265624D2*
X3846376D1*
X4916624D2*
X5782382D1*
X6028618D2*
X6121338D1*
X101662Y1744417D2*
X2258876D1*
X3265624D2*
X3846376D1*
X4916624D2*
X5752864D1*
X6058136D2*
X6121338D1*
X101662Y1681250D2*
X2258876D1*
X3265624D2*
X3846376D1*
X4916624D2*
X5753608D1*
X6057392D2*
X6121338D1*
X101662Y1618083D2*
X2265573D1*
X3258927D2*
X3853073D1*
X4909927D2*
X5785110D1*
X6028122D2*
X6121338D1*
X101662Y1554917D2*
X5806815D1*
X6028122D2*
X6121338D1*
X101662Y1491750D2*
X5806815D1*
X6028122D2*
X6121338D1*
X101662Y1428583D2*
X5806815D1*
X6028122D2*
X6121338D1*
X101662Y1365417D2*
X5806815D1*
X6028122D2*
X6121338D1*
X101662Y1302250D2*
X4731903D1*
X5063096D2*
X5806815D1*
X6028122D2*
X6121338D1*
X101662Y1239083D2*
X4731903D1*
X5430949D2*
X5806815D1*
X6028122D2*
X6121338D1*
X101662Y1175917D2*
X4731903D1*
X5459723D2*
X5806815D1*
X6028122D2*
X6121338D1*
X101662Y1112750D2*
X1030920D1*
X1382080D2*
X1595599D1*
X1717439D2*
X2554920D1*
X2906080D2*
X3119599D1*
X3241439D2*
X4731903D1*
X6028122D2*
X6121338D1*
X101662Y1049583D2*
X1030920D1*
X1382080D2*
X1511511D1*
X1801527D2*
X2554920D1*
X2906080D2*
X3035511D1*
X3325527D2*
X4731903D1*
X6028122D2*
X6121338D1*
X101662Y986417D2*
X1030920D1*
X1382080D2*
X1484350D1*
X1828688D2*
X2554920D1*
X2906080D2*
X3008350D1*
X3352688D2*
X4731903D1*
X6023905D2*
X6121338D1*
X101662Y923250D2*
X1030920D1*
X1382080D2*
X1483358D1*
X1829557D2*
X2554920D1*
X2906080D2*
X3007358D1*
X3353557D2*
X4835587D1*
X5971567D2*
X6121338D1*
X101662Y860083D2*
X1030920D1*
X1382080D2*
X1508286D1*
X1804628D2*
X2554920D1*
X2906080D2*
X3032286D1*
X3328628D2*
X4834471D1*
X5560554D2*
X6121338D1*
X101662Y796917D2*
X1030920D1*
X1382080D2*
X1583444D1*
X1729594D2*
X2554920D1*
X2906080D2*
X3107444D1*
X3253594D2*
X4402249D1*
X4702683D2*
X4861136D1*
X5533889D2*
X5592254D1*
X5892688D2*
X6121338D1*
X101662Y733750D2*
X4361445D1*
X4743611D2*
X4955518D1*
X5039531D2*
X5155443D1*
X5239457D2*
X5355493D1*
X5439507D2*
X5551450D1*
X5933616D2*
X6121338D1*
X101662Y670583D2*
X205916D1*
X556084D2*
X4347183D1*
X4757750D2*
X5537188D1*
X5947755D2*
X6121338D1*
X101662Y607417D2*
X144346D1*
X617600D2*
X4353632D1*
X4751301D2*
X5543637D1*
X5941306D2*
X6121338D1*
X651210Y544250D2*
X4383274D1*
X4721783D2*
X5573154D1*
X5911788D2*
X6121338D1*
X667085Y481083D2*
X4456323D1*
X4648609D2*
X5646328D1*
X5838614D2*
X6121338D1*
X668201Y417917D2*
X1076313D1*
X1336687D2*
X1526270D1*
X1786644D2*
X2600313D1*
X2860687D2*
X3050270D1*
X3310644D2*
X6121338D1*
X654807Y354750D2*
X1039106D1*
X1373894D2*
X1489187D1*
X1823851D2*
X2563106D1*
X2897894D2*
X3013187D1*
X3347851D2*
X6121338D1*
X101662Y291583D2*
X137656D1*
X624421D2*
X1031168D1*
X1381832D2*
X1481249D1*
X1831789D2*
X2555168D1*
X2905832D2*
X3005249D1*
X3355789D2*
X6121338D1*
X101662Y228417D2*
X193266D1*
X568734D2*
X1047911D1*
X1365089D2*
X1497992D1*
X1815046D2*
X2571911D1*
X2889089D2*
X3021992D1*
X3339046D2*
X6121338D1*
X101662Y165250D2*
X334776D1*
X427224D2*
X1100993D1*
X1312007D2*
X1551074D1*
X1761964D2*
X2624993D1*
X2836007D2*
X3075074D1*
X3285964D2*
X6121338D1*
X101662Y102083D2*
X6121338D1*
X5344707Y2196290D2*
X5371290D1*
Y2166400D1*
X5431358Y2166290D1*
X5572788Y2307703D1*
X5572710Y4345888D1*
X5557956Y4331479D1*
X5539004Y4317709D1*
X5518131Y4307074D1*
X5495851Y4299835D1*
X5472713Y4296170D1*
X5449287D1*
X5426149Y4299835D1*
X5403869Y4307074D1*
X5382996Y4317709D1*
X5364044Y4331479D1*
X5347479Y4348044D1*
X5333709Y4366996D1*
X5323074Y4387869D1*
X5315835Y4410149D1*
X5309363Y4442992D1*
X5307710Y4464000D1*
Y5096892D1*
X5294750Y5086222D1*
X5274776Y5073982D1*
X5253133Y5065017D1*
X5230354Y5059548D1*
X5207000Y5057710D1*
X5183646Y5059548D1*
X5160867Y5065017D1*
X5139224Y5073982D1*
X5119250Y5086222D1*
X5101436Y5101436D1*
X5086222Y5119250D1*
X5073982Y5139224D1*
X5065017Y5160867D1*
X5059548Y5183646D1*
X5057710Y5207000D1*
X5059548Y5230354D1*
X5065017Y5253133D1*
X5073982Y5274776D1*
X5086222Y5294750D1*
X5102680Y5313714D1*
X5102710Y6190134D1*
X5086222Y6209250D1*
X5073982Y6229224D1*
X5065017Y6250867D1*
X5059548Y6273646D1*
X5057710Y6297000D1*
X5059548Y6320354D1*
X5065017Y6343133D1*
X5073982Y6364776D1*
X5081516Y6377707D1*
X4315181Y6377710D1*
X4306290Y6348500D1*
Y3977792D1*
X4338097Y3977790D1*
X4357250Y3994278D1*
X4377224Y4006518D1*
X4398867Y4015483D1*
X4421646Y4020952D1*
X4445000Y4022790D1*
X4468354Y4020952D1*
X4491133Y4015483D1*
X4512776Y4006518D1*
X4532750Y3994278D1*
X4550564Y3979064D1*
X4565778Y3961250D1*
X4578018Y3941276D1*
X4586983Y3919633D1*
X4592452Y3896854D1*
X4594290Y3873500D1*
X4592452Y3850146D1*
X4586983Y3827367D1*
X4578018Y3805724D1*
X4565778Y3785750D1*
X4550564Y3767936D1*
X4532750Y3752722D1*
X4512776Y3740482D1*
X4491133Y3731517D1*
X4468354Y3726048D1*
X4445000Y3724210D1*
X4421646Y3726048D1*
X4398867Y3731517D1*
X4377224Y3740482D1*
X4357250Y3752722D1*
X4338286Y3769180D1*
X4199317Y3769531D1*
X4183154Y3772092D1*
X4167590Y3777149D1*
X4153009Y3784578D1*
X4139769Y3794197D1*
X4121299Y3812941D1*
X4109838Y3830188D1*
X4102011Y3849360D1*
X4098124Y3869720D1*
X4097049Y3869646D1*
X4090786Y3854527D1*
X4082236Y3840573D1*
X4071608Y3828129D1*
X3939272Y3695793D1*
X3937452Y3670656D1*
X3931983Y3647877D1*
X3923018Y3626234D1*
X3910778Y3606260D1*
X3895564Y3588446D1*
X3877750Y3573232D1*
X3857776Y3560992D1*
X3836133Y3552027D1*
X3813354Y3546558D1*
X3790000Y3544720D1*
X3766646Y3546558D1*
X3743867Y3552027D1*
X3722224Y3560992D1*
X3702250Y3573232D1*
X3684436Y3588446D1*
X3669222Y3606260D1*
X3656982Y3626234D1*
X3648017Y3647877D1*
X3642548Y3670656D1*
X3640710Y3694010D1*
X3642548Y3717364D1*
X3648017Y3740143D1*
X3656982Y3761786D1*
X3669222Y3781760D1*
X3684436Y3799574D1*
X3702250Y3814788D1*
X3722224Y3827028D1*
X3743867Y3835993D1*
X3766646Y3841462D1*
X3791693Y3843233D1*
X3893493Y3944991D1*
X3893895Y6535176D1*
X3896455Y6551339D1*
X3901512Y6566903D1*
X3908941Y6581485D1*
X3918561Y6594724D1*
X3938940Y6615558D1*
X3922496Y6624209D1*
X3903544Y6637979D1*
X3886979Y6654544D1*
X3873209Y6673496D1*
X3862574Y6694369D1*
X3855335Y6716649D1*
X3851670Y6739787D1*
Y6763213D1*
X3855335Y6786351D1*
X3862574Y6808631D1*
X3873209Y6829504D1*
X3886979Y6848456D1*
X3903544Y6865021D1*
X3922496Y6878791D1*
X3943369Y6889426D1*
X3965649Y6896665D1*
X3988787Y6900330D1*
X4012213D1*
X4035351Y6896665D1*
X4057631Y6889426D1*
X4078504Y6878791D1*
X4097456Y6865021D1*
X4107214Y6855820D1*
X4486796Y6855790D1*
X4931665Y7300654D1*
X4933548Y7325854D1*
X4939017Y7348633D1*
X4947982Y7370276D1*
X4960222Y7390250D1*
X4975436Y7408064D1*
X4993250Y7423278D1*
X5013224Y7435518D1*
X5034867Y7444483D1*
X5049966Y7448424D1*
X5054017Y7463633D1*
X5062982Y7485276D1*
X5075222Y7505250D1*
X5090436Y7523064D1*
X5108250Y7538278D1*
X5128224Y7550518D1*
X5149867Y7559483D1*
X5172646Y7564952D1*
X5196000Y7566790D1*
X5219354Y7564952D1*
X5242133Y7559483D1*
X5263776Y7550518D1*
X5283750Y7538278D1*
X5301564Y7523064D1*
X5316778Y7505250D1*
X5329018Y7485276D1*
X5337983Y7463633D1*
X5343452Y7440854D1*
X5345290Y7417500D1*
X5343452Y7394146D1*
X5337983Y7371367D1*
X5329018Y7349724D1*
X5316778Y7329750D1*
X5300320Y7310786D1*
X5299969Y7219817D1*
X5297409Y7203654D1*
X5292352Y7188090D1*
X5284922Y7173508D1*
X5275303Y7160269D1*
X5090139Y6974650D1*
X4701726Y6586237D1*
X5390071Y6586290D1*
X5409250Y6602778D1*
X5429224Y6615018D1*
X5450867Y6623983D1*
X5473646Y6629452D1*
X5497000Y6631290D1*
X5520354Y6629452D1*
X5543133Y6623983D1*
X5564776Y6615018D1*
X5572727Y6610566D1*
X5572710Y7891966D1*
X5431297Y8033288D1*
X5369550Y8033210D1*
X5378926Y8014631D1*
X5386165Y7992351D1*
X5389830Y7969213D1*
Y7945787D1*
X5386165Y7922649D1*
X5378926Y7900369D1*
X5368291Y7879496D1*
X5354521Y7860544D1*
X5337956Y7843979D1*
X5319004Y7830209D1*
X5298131Y7819574D1*
X5275851Y7812335D1*
X5252713Y7808670D1*
X5229287D1*
X5206149Y7812335D1*
X5183869Y7819574D1*
X5162996Y7830209D1*
X5144044Y7843979D1*
X5134286Y7853180D1*
X4276470Y7853210D1*
X4276330Y7830787D1*
X4272665Y7807649D1*
X4265426Y7785369D1*
X4254791Y7764496D1*
X4241021Y7745544D1*
X4224456Y7728979D1*
X4205504Y7715209D1*
X4184631Y7704574D1*
X4162351Y7697335D1*
X4139213Y7693670D1*
X4115787D1*
X4092649Y7697335D1*
X4070369Y7704574D1*
X4049496Y7715209D1*
X4030544Y7728979D1*
X4020786Y7738180D1*
X3713386Y7738210D1*
X3694260Y7721722D1*
X3674286Y7709482D1*
X3652643Y7700517D1*
X3629864Y7695048D1*
X3606510Y7693210D1*
X3583156Y7695048D1*
X3560377Y7700517D1*
X3542684Y7707660D1*
X3545340Y7689213D1*
Y7665787D1*
X3541675Y7642649D1*
X3534436Y7620369D1*
X3530813Y7612510D1*
X3561760Y7591790D1*
X3748556Y7591376D1*
X3769369Y7588080D1*
X3789411Y7581568D1*
X3808186Y7572001D1*
X3825234Y7559615D1*
X3898663Y7486772D1*
X4319374Y7486810D1*
X4338377Y7494503D1*
X4361156Y7499972D1*
X4384510Y7501810D1*
X4407864Y7499972D1*
X4430643Y7494503D1*
X4452286Y7485538D1*
X4472260Y7473298D1*
X4490074Y7458084D1*
X4505288Y7440270D1*
X4517528Y7420296D1*
X4526493Y7398653D1*
X4531962Y7375874D1*
X4533800Y7352520D1*
X4531962Y7329166D1*
X4526493Y7306387D1*
X4517528Y7284744D1*
X4505288Y7264770D1*
X4490074Y7246956D1*
X4472260Y7231742D1*
X4452286Y7219502D1*
X4430643Y7210537D1*
X4407864Y7205068D1*
X4384510Y7203230D1*
X4361156Y7205068D1*
X4338377Y7210537D1*
X4319520Y7218217D1*
X3832464Y7218644D1*
X3811651Y7221940D1*
X3791609Y7228452D1*
X3772834Y7238019D1*
X3755786Y7250405D1*
X3682357Y7323248D1*
X3600726Y7323210D1*
X3600386Y6852484D1*
X3597090Y6831671D1*
X3590578Y6811629D1*
X3581011Y6792854D1*
X3568625Y6775806D1*
X3449214Y6655809D1*
X3163933Y6370528D1*
X3187423Y6380200D1*
X3212643Y6386255D1*
X3238500Y6388290D1*
X3264357Y6386255D1*
X3289577Y6380200D1*
X3313540Y6370274D1*
X3327182Y6362384D1*
X3327210Y6388290D1*
X3657790D1*
Y6057710D1*
X3631869D1*
X3639774Y6044040D1*
X3649700Y6020077D1*
X3655755Y5994857D1*
X3657790Y5969000D1*
X3655755Y5943143D1*
X3649700Y5917923D1*
X3639774Y5893960D1*
X3626222Y5871845D1*
X3609378Y5852122D1*
X3598215Y5842026D1*
X3618188Y5822347D1*
X3633433Y5801364D1*
X3645208Y5778254D1*
X3653223Y5753586D1*
X3657280Y5727969D1*
Y5702031D1*
X3653223Y5676414D1*
X3645208Y5651746D1*
X3633433Y5628636D1*
X3618188Y5607653D1*
X3599847Y5589312D1*
X3578864Y5574067D1*
X3555754Y5562292D1*
X3531086Y5554277D1*
X3505469Y5550220D1*
X3479531D1*
X3469815Y5551370D1*
X3469469Y5516317D1*
X3466909Y5500154D1*
X3461852Y5484590D1*
X3454422Y5470008D1*
X3444803Y5456769D1*
X3259639Y5271151D1*
X3179231Y5191197D1*
X3165991Y5181578D1*
X3151410Y5174149D1*
X3135846Y5169092D1*
X3119682Y5166531D1*
X2857500Y5166210D1*
X2583284D1*
X2564250Y5149722D1*
X2544276Y5137482D1*
X2522633Y5128517D1*
X2499854Y5123048D1*
X2476500Y5121210D1*
X2453146Y5123048D1*
X2430367Y5128517D1*
X2408724Y5137482D1*
X2388750Y5149722D1*
X2370936Y5164936D1*
X2355722Y5182750D1*
X2343482Y5202724D1*
X2334517Y5224367D1*
X2329048Y5247146D1*
X2327210Y5270500D1*
X2329048Y5293854D1*
X2334517Y5316633D1*
X2343482Y5338276D1*
X2355722Y5358250D1*
X2370936Y5376064D1*
X2388750Y5391278D1*
X2408724Y5403518D1*
X2430367Y5412483D1*
X2453146Y5417952D1*
X2476500Y5419790D1*
X2499854Y5417952D1*
X2522633Y5412483D1*
X2544276Y5403518D1*
X2564250Y5391278D1*
X2583214Y5374820D1*
X3068216Y5374790D1*
X3243232Y5549720D1*
X3225531Y5550220D1*
X3199914Y5554277D1*
X3175246Y5562292D1*
X3152136Y5574067D1*
X3131153Y5589312D1*
X3112812Y5607653D1*
X3097567Y5628636D1*
X3085792Y5651746D1*
X3077777Y5676414D1*
X3073720Y5702031D1*
Y5727969D1*
X3077777Y5753586D1*
X3085792Y5778254D1*
X3097567Y5801364D1*
X3112812Y5822347D1*
X3124712Y5834734D1*
X2957835Y5834710D1*
X2957376Y5513964D1*
X2954080Y5493151D1*
X2947568Y5473109D1*
X2938001Y5454334D1*
X2925615Y5437286D1*
X2910714Y5422385D1*
X2893666Y5409999D1*
X2874891Y5400432D1*
X2854849Y5393920D1*
X2834036Y5390624D1*
X2795843Y5390210D1*
X2776633Y5382517D1*
X2753854Y5377048D1*
X2730500Y5375210D1*
X2707146Y5377048D1*
X2684367Y5382517D1*
X2662724Y5391482D1*
X2642750Y5403722D1*
X2624936Y5418936D1*
X2609722Y5436750D1*
X2597482Y5456724D1*
X2588517Y5478367D1*
X2583048Y5501146D1*
X2581210Y5524500D1*
X2583048Y5547854D1*
X2588517Y5570633D1*
X2597482Y5592276D1*
X2609722Y5612250D1*
X2624936Y5630064D1*
X2642750Y5645278D1*
X2662724Y5657518D1*
X2684367Y5666483D1*
X2689171Y5667838D1*
X2689624Y5909536D1*
X2692920Y5930349D1*
X2699432Y5950391D1*
X2703867Y5960002D1*
X2703847Y5978034D1*
X2695782Y5997502D1*
X2690863Y6017992D1*
X2689210Y6039000D1*
X2689624Y6230546D1*
X2692920Y6251359D1*
X2699432Y6271401D1*
X2708999Y6290176D1*
X2721385Y6307224D1*
X2840796Y6427221D1*
X3332167Y6918591D1*
X3332220Y7339642D1*
X3317576Y7348857D1*
X3301552Y7362542D1*
X3287867Y7378566D1*
X3276857Y7396534D1*
X3268792Y7416002D1*
X3263873Y7436492D1*
X3262220Y7457500D1*
Y7612157D1*
X3254527Y7631367D1*
X3249058Y7654146D1*
X3247220Y7677500D1*
X3249058Y7700854D1*
X3254527Y7723633D1*
X3263492Y7745276D1*
X3275732Y7765250D1*
X3290946Y7783064D1*
X3308760Y7798278D1*
X3328734Y7810518D1*
X3350377Y7819483D1*
X3373156Y7824952D1*
X3396510Y7826790D1*
X3419864Y7824952D1*
X3442643Y7819483D1*
X3460336Y7812340D1*
X3457680Y7830787D1*
X3457642Y7853252D1*
X3138679Y7853210D1*
X2284286Y6998797D1*
X2282452Y6973646D1*
X2276983Y6950867D1*
X2268018Y6929224D1*
X2255778Y6909250D1*
X2240564Y6891436D1*
X2222750Y6876222D1*
X2202776Y6863982D1*
X2181133Y6855017D1*
X2158354Y6849548D1*
X2136327Y6847762D1*
X2136290Y3726284D1*
X2152778Y3707250D1*
X2165018Y3687276D1*
X2173983Y3665633D1*
X2179452Y3642854D1*
X2181290Y3619500D1*
X2179452Y3596146D1*
X2173983Y3573367D1*
X2165018Y3551724D1*
X2152778Y3531750D1*
X2137564Y3513936D1*
X2119750Y3498722D1*
X2099776Y3486482D1*
X2078133Y3477517D1*
X2055354Y3472048D1*
X2032000Y3470210D1*
X2008646Y3472048D1*
X1985867Y3477517D1*
X1964224Y3486482D1*
X1944250Y3498722D1*
X1926436Y3513936D1*
X1911222Y3531750D1*
X1898982Y3551724D1*
X1890017Y3573367D1*
X1884548Y3596146D1*
X1882710Y3619500D1*
X1884548Y3642854D1*
X1890017Y3665633D1*
X1898982Y3687276D1*
X1911222Y3707250D1*
X1927680Y3726214D1*
X1928031Y7120183D1*
X1930592Y7136346D1*
X1935649Y7151910D1*
X1943078Y7166491D1*
X1952697Y7179731D1*
X2137861Y7365349D1*
X3015019Y8242053D1*
X3028259Y8251672D1*
X3042840Y8259101D1*
X3058404Y8264159D1*
X3074567Y8266719D1*
X3336750Y8267040D1*
X4004616D1*
X3990436Y8279436D1*
X3975222Y8297250D1*
X3962982Y8317224D1*
X3954017Y8338867D1*
X3948548Y8361646D1*
X3946710Y8385000D1*
X3948548Y8408354D1*
X3954017Y8431133D1*
X3958822Y8443753D1*
X1750739Y8443710D1*
X1731750Y8427222D1*
X1711776Y8414982D1*
X1690133Y8406017D1*
X1667354Y8400548D1*
X1644000Y8398710D1*
X1620646Y8400548D1*
X1597867Y8406017D1*
X1576224Y8414982D1*
X1556250Y8427222D1*
X1538436Y8442436D1*
X1523222Y8460250D1*
X1510982Y8480224D1*
X1502017Y8501867D1*
X1496548Y8524646D1*
X1494710Y8548000D1*
X1495132Y8558752D1*
X326206Y8558710D1*
X317290Y8529500D1*
Y6677458D1*
X324846Y6695467D1*
X335857Y6713434D1*
X349542Y6729458D1*
X580785Y6960115D1*
X597833Y6972501D1*
X616609Y6982068D1*
X636651Y6988580D1*
X657464Y6991876D1*
X826750Y6992290D1*
X902032D1*
X890312Y7004653D1*
X875067Y7025636D1*
X863292Y7048746D1*
X855277Y7073414D1*
X851220Y7099031D1*
Y7124969D1*
X855277Y7150586D1*
X863292Y7175254D1*
X875067Y7198364D1*
X890312Y7219347D1*
X910285Y7238974D1*
X890312Y7258653D1*
X875067Y7279636D1*
X863292Y7302746D1*
X855277Y7327414D1*
X851220Y7353031D1*
Y7378969D1*
X855277Y7404586D1*
X863292Y7429254D1*
X875067Y7452364D1*
X890312Y7473347D1*
X908653Y7491688D1*
X929636Y7506933D1*
X952746Y7518708D1*
X977414Y7526723D1*
X1003031Y7530780D1*
X1028969D1*
X1054586Y7526723D1*
X1079254Y7518708D1*
X1102364Y7506933D1*
X1104682Y7505384D1*
X1104710Y7531290D1*
X1435290D1*
Y7200710D1*
X1409369D1*
X1417274Y7187040D1*
X1427200Y7163077D1*
X1433255Y7137857D1*
X1435290Y7112000D1*
X1433255Y7086143D1*
X1427200Y7060923D1*
X1417274Y7036960D1*
X1403722Y7014845D1*
X1386878Y6995122D1*
X1375715Y6985026D1*
X1390818Y6970800D1*
X1406660Y6950978D1*
X1419281Y6928964D1*
X1428384Y6905278D1*
X1433754Y6880478D1*
X1435290Y6858000D1*
X1433342Y6832700D1*
X1427545Y6807996D1*
X1418034Y6784471D1*
X1405035Y6762678D1*
X1388854Y6743132D1*
X1369871Y6726293D1*
X1348534Y6712559D1*
X1325347Y6702252D1*
X1300855Y6695615D1*
X1275636Y6692806D1*
X1250284Y6693890D1*
X1225397Y6698842D1*
X1201561Y6707544D1*
X1179338Y6719793D1*
X1159251Y6735299D1*
X1143009Y6752238D1*
X1123347Y6732312D1*
X1102364Y6717067D1*
X1079254Y6705292D1*
X1054586Y6697277D1*
X1028969Y6693220D1*
X1003031D1*
X977414Y6697277D1*
X952746Y6705292D1*
X929636Y6717067D1*
X919730Y6723686D1*
X723677Y6723710D1*
X578705Y6578789D1*
X578790Y4876716D1*
X723711Y4731704D1*
X732071Y4739816D1*
X745131Y4761129D1*
X752908Y4770987D1*
X751646Y4775048D1*
X728867Y4780517D1*
X707224Y4789482D1*
X687250Y4801722D1*
X669436Y4816936D1*
X654222Y4834750D1*
X641982Y4854724D1*
X633017Y4876367D1*
X627548Y4899146D1*
X625710Y4922500D1*
X627548Y4945854D1*
X633017Y4968633D1*
X641982Y4990276D1*
X654222Y5010250D1*
X669436Y5028064D1*
X687250Y5043278D1*
X707224Y5055518D1*
X728867Y5064483D1*
X751646Y5069952D1*
X775000Y5071790D1*
X798354Y5069952D1*
X821133Y5064483D1*
X842776Y5055518D1*
X862750Y5043278D1*
X881714Y5026820D1*
X1187183Y5026469D1*
X1203346Y5023909D1*
X1218910Y5018852D1*
X1233492Y5011422D1*
X1246731Y5001803D1*
X1322744Y4926244D1*
X1333373Y4913800D1*
X1341923Y4899847D1*
X1348186Y4884727D1*
X1352006Y4868815D1*
X1353290Y4852500D1*
Y4399442D1*
X1369778Y4380250D1*
X1382018Y4360276D1*
X1390983Y4338633D1*
X1396452Y4315854D1*
X1398290Y4292500D1*
X1396452Y4269146D1*
X1390983Y4246367D1*
X1382018Y4224724D1*
X1369778Y4204750D1*
X1354564Y4186936D1*
X1336750Y4171722D1*
X1316776Y4159482D1*
X1295133Y4150517D1*
X1272354Y4145048D1*
X1249000Y4143210D1*
X1225646Y4145048D1*
X1202867Y4150517D1*
X1181224Y4159482D1*
X1161250Y4171722D1*
X1143436Y4186936D1*
X1128222Y4204750D1*
X1115982Y4224724D1*
X1107017Y4246367D1*
X1101548Y4269146D1*
X1099710Y4292500D1*
X1101548Y4315854D1*
X1107017Y4338633D1*
X1115982Y4360276D1*
X1128222Y4380250D1*
X1144680Y4399214D1*
X1144710Y4520331D1*
X1121186Y4512611D1*
X1096498Y4508701D1*
X1008222Y4508210D1*
X1008290Y3784774D1*
X1464363Y3328803D1*
X2623786Y3328376D1*
X2644599Y3325080D1*
X2664641Y3318568D1*
X2683416Y3309001D1*
X2700465Y3296615D1*
X2815462Y3182203D1*
X3391649Y3182290D1*
X3391710Y3212290D1*
X3720290D1*
Y2883710D1*
X3693625D1*
X3704158Y2864996D1*
X3713324Y2841334D1*
X3718736Y2816543D1*
X3720290Y2794000D1*
X3718330Y2768701D1*
X3712498Y2744006D1*
X3702933Y2720503D1*
X3689863Y2698753D1*
X3673599Y2679276D1*
X3654530Y2662535D1*
X3633111Y2648931D1*
X3609852Y2638787D1*
X3585308Y2632345D1*
X3560066Y2629760D1*
X3534726Y2631093D1*
X3509894Y2636312D1*
X3486162Y2645293D1*
X3464095Y2657821D1*
X3444221Y2673598D1*
X3427014Y2692247D1*
X3412883Y2713323D1*
X3402167Y2736323D1*
X3395120Y2760700D1*
X3391911Y2785871D1*
X3392617Y2811236D1*
X3397220Y2836190D1*
X3405610Y2860137D1*
X3417588Y2882507D1*
X3418400Y2883724D1*
X3391710Y2883710D1*
Y2913600D1*
X2749214Y2914124D1*
X2728401Y2917420D1*
X2708359Y2923932D1*
X2689584Y2933499D1*
X2672535Y2945885D1*
X2557538Y3060297D1*
X1398214Y3060624D1*
X1377401Y3063920D1*
X1357359Y3070432D1*
X1338584Y3079999D1*
X1321535Y3092385D1*
X1308267Y3105067D1*
X1308290Y2882710D1*
X1282370D1*
X1290274Y2869040D1*
X1300200Y2845077D1*
X1306255Y2819857D1*
X1308290Y2794000D1*
X1306255Y2768143D1*
X1300200Y2742923D1*
X1290274Y2718960D1*
X1276722Y2696845D1*
X1259878Y2677122D1*
X1248715Y2667026D1*
X1268688Y2647347D1*
X1283933Y2626364D1*
X1295708Y2603254D1*
X1303723Y2578586D1*
X1307780Y2552969D1*
Y2527031D1*
X1303723Y2501414D1*
X1295708Y2476746D1*
X1283933Y2453636D1*
X1268688Y2432653D1*
X1250347Y2414312D1*
X1229364Y2399067D1*
X1206254Y2387292D1*
X1181586Y2379277D1*
X1155969Y2375220D1*
X1130031D1*
X1104414Y2379277D1*
X1079746Y2387292D1*
X1056636Y2399067D1*
X1035653Y2414312D1*
X1016026Y2434285D1*
X996347Y2414312D1*
X975364Y2399067D1*
X952254Y2387292D1*
X927586Y2379277D1*
X901969Y2375220D1*
X876031D1*
X850414Y2379277D1*
X825746Y2387292D1*
X802636Y2399067D1*
X781653Y2414312D1*
X763312Y2432653D1*
X748067Y2453636D1*
X736292Y2476746D1*
X728277Y2501414D1*
X725584Y2515502D1*
X703787Y2515630D1*
X680649Y2519295D1*
X658369Y2526534D1*
X637496Y2537169D1*
X618544Y2550939D1*
X601979Y2567504D1*
X588209Y2586456D1*
X577574Y2607329D1*
X570335Y2629609D1*
X566670Y2652747D1*
X566277Y2666153D1*
X451207Y2781719D1*
X441588Y2794959D1*
X434158Y2809540D1*
X429101Y2825104D1*
X426541Y2841267D1*
X426220Y3103450D1*
Y3982652D1*
X133697Y4275519D1*
X124078Y4288759D1*
X116648Y4303340D1*
X111591Y4318904D1*
X109031Y4335067D1*
X108710Y4597250D1*
X109031Y8601183D1*
X111591Y8617346D1*
X116648Y8632910D1*
X124078Y8647491D1*
X133697Y8660731D1*
X209256Y8736744D1*
X221700Y8747373D1*
X235653Y8755923D1*
X250773Y8762186D1*
X266685Y8766006D1*
X283000Y8767290D1*
X1379987D1*
X1380170Y8789713D1*
X1383835Y8812851D1*
X1391074Y8835131D1*
X1401709Y8856004D1*
X1415479Y8874956D1*
X1432044Y8891521D1*
X1450996Y8905291D1*
X1471869Y8915926D1*
X1494149Y8923165D1*
X1517287Y8926830D1*
X1540713D1*
X1563851Y8923165D1*
X1586131Y8915926D1*
X1607004Y8905291D1*
X1625956Y8891521D1*
X1642521Y8874956D1*
X1656291Y8856004D1*
X1665948Y8837252D1*
X3400493Y8837290D1*
X3393733Y8864299D1*
X3391710Y8890000D1*
X3393733Y8915701D1*
X3399751Y8940768D1*
X3409617Y8964586D1*
X3423087Y8986567D1*
X3439829Y9006171D1*
X3451874Y9016955D1*
X3439829Y9027829D1*
X3423087Y9047433D1*
X3409617Y9069414D1*
X3399751Y9093232D1*
X3393733Y9118299D1*
X3391710Y9144000D1*
X3393733Y9169701D1*
X3399751Y9194768D1*
X3409617Y9218586D1*
X3423087Y9240567D1*
X3439829Y9260171D1*
X3451874Y9270955D1*
X3439829Y9281829D1*
X3423087Y9301433D1*
X3409617Y9323414D1*
X3399751Y9347232D1*
X3393733Y9372299D1*
X3391710Y9398000D1*
X3393733Y9423701D1*
X3399751Y9448768D1*
X3409617Y9472586D1*
X3423087Y9494567D1*
X3439829Y9514171D1*
X3451874Y9524955D1*
X3439829Y9535829D1*
X3429000Y9547710D1*
X2519784D1*
X2308286Y9336297D1*
X2306452Y9311146D1*
X2300983Y9288367D1*
X2292018Y9266724D1*
X2279778Y9246750D1*
X2264564Y9228936D1*
X2246750Y9213722D1*
X2226776Y9201482D1*
X2205133Y9192517D1*
X2182354Y9187048D1*
X2159000Y9185210D1*
X2135646Y9187048D1*
X2112867Y9192517D1*
X2091224Y9201482D1*
X2071250Y9213722D1*
X2053436Y9228936D1*
X2038222Y9246750D1*
X2025982Y9266724D1*
X2017017Y9288367D1*
X2011548Y9311146D1*
X2009710Y9334500D1*
X2011548Y9357854D1*
X2017017Y9380633D1*
X2025982Y9402276D1*
X2038222Y9422250D1*
X2053436Y9440064D1*
X2071250Y9455278D1*
X2091224Y9467518D1*
X2112867Y9476483D1*
X2135646Y9481952D1*
X2160693Y9483723D1*
X2408769Y9731303D1*
X2422008Y9740922D1*
X2436590Y9748352D1*
X2452154Y9753409D1*
X2468317Y9755969D1*
X2730500Y9756290D1*
X3429124D1*
X3439829Y9768171D1*
X3451874Y9778955D1*
X3435257Y9794589D1*
X3419541Y9814511D1*
X3407080Y9836616D1*
X3398172Y9860376D1*
X3393029Y9885224D1*
X3391773Y9910567D1*
X3394436Y9935802D1*
X3400952Y9960326D1*
X3411167Y9983553D1*
X3424837Y10004931D1*
X3441635Y10023949D1*
X3451803Y10033001D1*
X3431073Y10053302D1*
X3415920Y10074159D1*
X3404216Y10097129D1*
X3396249Y10121647D1*
X3392216Y10147110D1*
Y10172890D1*
X3396249Y10198353D1*
X3404216Y10222871D1*
X3415920Y10245841D1*
X3431073Y10266698D1*
X3449302Y10284927D1*
X3451874Y10286955D1*
X3439829Y10297829D1*
X3423087Y10317433D1*
X3409617Y10339414D1*
X3399751Y10363232D1*
X3393733Y10388299D1*
X3391710Y10414000D1*
X3393733Y10439701D1*
X3399751Y10464768D1*
X3409617Y10488586D1*
X3423087Y10510567D1*
X3439829Y10530171D1*
X3451874Y10540955D1*
X3439829Y10551829D1*
X3423087Y10571433D1*
X3409617Y10593414D1*
X3399751Y10617232D1*
X3393733Y10642299D1*
X3391710Y10668000D1*
X3393733Y10693701D1*
X3399751Y10718768D1*
X3409617Y10742586D1*
X3423087Y10764567D1*
X3439829Y10784171D1*
X3451874Y10794955D1*
X3439829Y10805829D1*
X3429000Y10817710D1*
X3129235D1*
X1897231Y9586047D1*
X1883992Y9576428D1*
X1869410Y9568998D1*
X1853846Y9563941D1*
X1837683Y9561381D1*
X1575500Y9561060D1*
X487938D1*
X468750Y9544572D1*
X448776Y9532332D1*
X427133Y9523367D1*
X404354Y9517898D1*
X381000Y9516060D1*
X357646Y9517898D1*
X334867Y9523367D1*
X313224Y9532332D1*
X293250Y9544572D1*
X275436Y9559786D1*
X260222Y9577600D1*
X247982Y9597574D1*
X239017Y9619217D1*
X233548Y9641996D1*
X231710Y9665350D1*
X233548Y9688704D1*
X239017Y9711483D1*
X247982Y9733126D1*
X260222Y9753100D1*
X275436Y9770914D1*
X293250Y9786128D1*
X313224Y9798368D1*
X334867Y9807333D1*
X357646Y9812802D1*
X381000Y9814640D1*
X404354Y9812802D1*
X427133Y9807333D1*
X448776Y9798368D1*
X468750Y9786128D1*
X487714Y9769670D1*
X1786310Y9769640D1*
X3018419Y11001303D1*
X3031658Y11010922D1*
X3046240Y11018352D1*
X3061804Y11023409D1*
X3077967Y11025969D1*
X3340150Y11026290D1*
X3429075D1*
X3449302Y11046927D1*
X3451874Y11048955D1*
X3439829Y11059829D1*
X3429000Y11071710D1*
X2623220D1*
X2604260Y11055222D1*
X2584286Y11042982D1*
X2562643Y11034017D1*
X2539864Y11028548D1*
X2516510Y11026710D1*
X2493156Y11028548D1*
X2470377Y11034017D1*
X2448734Y11042982D1*
X2428760Y11055222D1*
X2410946Y11070436D1*
X2395732Y11088250D1*
X2383492Y11108224D1*
X2374527Y11129867D1*
X2369058Y11152646D1*
X2367220Y11176000D1*
X2369058Y11199354D1*
X2374527Y11222133D1*
X2383492Y11243776D1*
X2395732Y11263750D1*
X2410946Y11281564D1*
X2428760Y11296778D1*
X2448734Y11309018D1*
X2470377Y11317983D1*
X2493156Y11323452D1*
X2516510Y11325290D1*
X2539864Y11323452D1*
X2562643Y11317983D1*
X2584286Y11309018D1*
X2604260Y11296778D1*
X2623224Y11280320D1*
X3428950Y11280290D1*
X3449302Y11300927D1*
X3451874Y11302955D1*
X3439829Y11313829D1*
X3429000Y11325710D1*
X1270620D1*
X1283291Y11308004D1*
X1293926Y11287131D1*
X1301165Y11264851D1*
X1304830Y11241713D1*
Y11218287D1*
X1301165Y11195149D1*
X1293926Y11172869D1*
X1292258Y11169251D1*
X1652683Y11168969D1*
X1668846Y11166409D1*
X1684410Y11161352D1*
X1698991Y11153922D1*
X1712231Y11144303D1*
X1788244Y11068744D1*
X1798873Y11056300D1*
X1807423Y11042347D1*
X1813686Y11027227D1*
X1817506Y11011315D1*
X1818790Y10995000D1*
Y10335815D1*
X1835278Y10316750D1*
X1847518Y10296776D1*
X1856483Y10275133D1*
X1861952Y10252354D1*
X1863790Y10229000D1*
X1861952Y10205646D1*
X1856483Y10182867D1*
X1847518Y10161224D1*
X1835278Y10141250D1*
X1820064Y10123436D1*
X1802250Y10108222D1*
X1782276Y10095982D1*
X1760633Y10087017D1*
X1737854Y10081548D1*
X1714500Y10079710D1*
X1691146Y10081548D1*
X1668367Y10087017D1*
X1646724Y10095982D1*
X1626750Y10108222D1*
X1608936Y10123436D1*
X1593722Y10141250D1*
X1581482Y10161224D1*
X1572517Y10182867D1*
X1567048Y10205646D1*
X1565210Y10229000D1*
X1567048Y10252354D1*
X1572517Y10275133D1*
X1581482Y10296776D1*
X1593722Y10316750D1*
X1610180Y10335714D1*
X1610210Y10951685D1*
X1581000Y10960710D1*
X903212D1*
X885041Y10935571D1*
X862929Y10913459D1*
X837629Y10895077D1*
X809765Y10880880D1*
X780023Y10871216D1*
X749136Y10866324D1*
X663500Y10865710D1*
X632324Y10868164D1*
X601916Y10875464D1*
X573024Y10887431D1*
X546360Y10903771D1*
X522581Y10924081D1*
X502271Y10947860D1*
X485931Y10974524D1*
X473964Y11003416D1*
X466664Y11033824D1*
X464210Y11065000D1*
X466664Y11096176D1*
X473964Y11126584D1*
X485931Y11155476D1*
X502271Y11182140D1*
X522581Y11205919D1*
X546360Y11226229D1*
X573024Y11242569D1*
X601916Y11254536D1*
X632324Y11261836D1*
X663561Y11264288D1*
X749136Y11263676D1*
X780023Y11258784D1*
X806840Y11250199D1*
X799314Y11267773D1*
X795494Y11283685D1*
X794210Y11300000D1*
Y11375282D1*
X764676Y11368164D1*
X733500Y11365710D1*
X647864Y11366324D1*
X616977Y11371216D1*
X587235Y11380880D1*
X559371Y11395077D1*
X534071Y11413459D1*
X511959Y11435571D1*
X493577Y11460871D1*
X479380Y11488735D1*
X469716Y11518477D1*
X464824Y11549364D1*
Y11580636D1*
X469716Y11611523D1*
X479380Y11641265D1*
X493577Y11669129D1*
X511959Y11694429D1*
X534071Y11716541D1*
X559371Y11734923D1*
X587235Y11749120D1*
X616977Y11758784D1*
X647864Y11763676D1*
X733500Y11764290D1*
X764676Y11761836D1*
X795084Y11754536D1*
X823976Y11742569D1*
X850640Y11726229D1*
X859904Y11718925D1*
X900769Y11759303D1*
X914009Y11768922D1*
X928590Y11776352D1*
X944154Y11781409D1*
X960317Y11783969D1*
X1222500Y11784290D1*
X1362522D1*
X1352017Y11808867D1*
X1346548Y11831646D1*
X1344710Y11855000D1*
X1345170Y12076713D1*
X1348835Y12099851D1*
X1356074Y12122131D1*
X1366709Y12143004D1*
X1380479Y12161956D1*
X1397044Y12178521D1*
X1415996Y12192291D1*
X1436869Y12202926D1*
X1459149Y12210165D1*
X1482287Y12213830D1*
X1505713D1*
X1528851Y12210165D1*
X1551131Y12202926D1*
X1572004Y12192291D1*
X1590956Y12178521D1*
X1607521Y12161956D1*
X1621291Y12143004D1*
X1631926Y12122131D1*
X1639165Y12099851D1*
X1642830Y12076713D1*
X1643337Y11985465D1*
X1821044Y12162521D1*
X1839996Y12176291D1*
X1860869Y12186926D1*
X1883149Y12194165D1*
X1906287Y12197830D1*
X2045000Y12198290D1*
X2913213Y12197830D1*
X2936351Y12194165D1*
X2958631Y12186926D1*
X2979504Y12176291D1*
X2998456Y12162521D1*
X3015021Y12145956D1*
X3028791Y12127004D1*
X3039426Y12106131D1*
X3046665Y12083851D1*
X3050330Y12060713D1*
Y12037287D1*
X3046665Y12014149D1*
X3039426Y11991869D1*
X3034496Y11981184D1*
X3033496Y11976291D1*
X3054369Y11986926D1*
X3076649Y11994165D1*
X3099787Y11997830D1*
X3123213D1*
X3146351Y11994165D1*
X3168631Y11986926D1*
X3176490Y11983303D1*
X3177210Y12072750D1*
X3177624Y12202536D1*
X3180920Y12223349D1*
X3187432Y12243391D1*
X3196999Y12262166D1*
X3209385Y12279215D1*
X3216573Y12286986D1*
X3133750Y12287710D1*
X811659D1*
X802790Y12258500D1*
Y12251927D1*
X823976Y12242569D1*
X850640Y12226229D1*
X874419Y12205919D1*
X894729Y12182140D1*
X911069Y12155476D1*
X923036Y12126584D1*
X930336Y12096176D1*
X932790Y12065000D1*
X930336Y12033824D1*
X923036Y12003416D1*
X911069Y11974524D1*
X894729Y11947860D1*
X874419Y11924081D1*
X850640Y11903771D1*
X823976Y11887431D1*
X795084Y11875464D1*
X764676Y11868164D1*
X733500Y11865710D1*
X647864Y11866324D1*
X616977Y11871216D1*
X587235Y11880880D1*
X559371Y11895077D1*
X534071Y11913459D1*
X511959Y11935571D1*
X493577Y11960871D1*
X479380Y11988735D1*
X469716Y12018477D1*
X464824Y12049364D1*
Y12080636D1*
X469716Y12111523D1*
X479380Y12141265D1*
X493577Y12169129D1*
X511959Y12194429D1*
X534071Y12216541D1*
X559371Y12234923D1*
X587235Y12249120D1*
X594174Y12251680D1*
X594531Y12330183D1*
X597091Y12346346D1*
X602148Y12361910D1*
X609578Y12376492D1*
X619197Y12389731D1*
X694756Y12465744D1*
X707200Y12476372D1*
X721153Y12484923D1*
X736273Y12491186D1*
X752185Y12495006D1*
X768500Y12496290D1*
X4951683Y12495969D1*
X4967846Y12493408D1*
X4983410Y12488351D1*
X4997991Y12480922D1*
X5011231Y12471303D1*
X5078194Y12404794D1*
X5103354Y12402952D1*
X5126133Y12397483D1*
X5147776Y12388518D1*
X5167750Y12376278D1*
X5185564Y12361064D1*
X5199729Y12344581D1*
X5199710Y12502144D1*
X3481964Y12502624D1*
X3461151Y12505920D1*
X3441109Y12512432D1*
X3422334Y12521999D1*
X3405285Y12534385D1*
X3285289Y12653796D1*
X3189611Y12749474D1*
X3170724Y12757482D1*
X3150750Y12769722D1*
X3132936Y12784936D1*
X3117722Y12802750D1*
X3105482Y12822724D1*
X3096517Y12844367D1*
X3091048Y12867146D1*
X3089210Y12890500D1*
X3091048Y12913854D1*
X3096517Y12936633D1*
X3105482Y12958276D1*
X3117722Y12978250D1*
X3132936Y12996064D1*
X3150750Y13011278D1*
X3170724Y13023518D1*
X3192367Y13032483D1*
X3215146Y13037952D1*
X3238500Y13039790D1*
X3261854Y13037952D1*
X3284633Y13032483D1*
X3306276Y13023518D1*
X3326250Y13011278D1*
X3344064Y12996064D1*
X3359278Y12978250D1*
X3371518Y12958276D1*
X3379421Y12939511D1*
X3548054Y12770861D1*
X5199683Y12770790D1*
X5200124Y13064036D1*
X5203420Y13084849D1*
X5209932Y13104891D1*
X5219522Y13123701D1*
X5207000Y13131710D1*
X2738313D1*
X2719260Y13115222D1*
X2699286Y13102982D1*
X2677643Y13094017D1*
X2654864Y13088548D1*
X2631510Y13086710D1*
X2608156Y13088548D1*
X2585377Y13094017D1*
X2563734Y13102982D1*
X2543760Y13115222D1*
X2525946Y13130436D1*
X2510732Y13148250D1*
X2498492Y13168224D1*
X2489527Y13189867D1*
X2484058Y13212646D1*
X2482220Y13236000D1*
X2484058Y13259354D1*
X2489527Y13282133D1*
X2498492Y13303776D1*
X2510732Y13323750D1*
X2525946Y13341564D1*
X2543760Y13356778D1*
X2563734Y13369018D1*
X2585377Y13377983D1*
X2608156Y13383452D1*
X2631510Y13385290D1*
X2654864Y13383452D1*
X2677643Y13377983D1*
X2699286Y13369018D1*
X2719260Y13356778D1*
X2738224Y13340320D1*
X5659683Y13339969D1*
X5675846Y13337408D1*
X5691410Y13332351D1*
X5705991Y13324922D1*
X5719231Y13315303D1*
X5730803Y13303731D1*
X5740422Y13290491D1*
X5747851Y13275910D1*
X5752908Y13260346D1*
X5755469Y13244183D1*
X5755790Y12982000D1*
Y11854255D1*
X5772278Y11835250D1*
X5784518Y11815276D1*
X5793483Y11793633D1*
X5798952Y11770854D1*
X5800790Y11747500D1*
X5798952Y11724146D1*
X5793483Y11701367D1*
X5784518Y11679724D1*
X5772278Y11659750D1*
X5757064Y11641936D1*
X5739250Y11626722D1*
X5719276Y11614482D1*
X5697633Y11605517D1*
X5674854Y11600048D1*
X5651500Y11598210D1*
X5628828Y11599967D1*
X5628790Y11473284D1*
X5645278Y11454250D1*
X5657518Y11434276D1*
X5666483Y11412633D1*
X5671952Y11389854D1*
X5673790Y11366500D1*
X5671952Y11343146D1*
X5666483Y11320367D1*
X5657518Y11298724D1*
X5645278Y11278750D1*
X5630064Y11260936D1*
X5612250Y11245722D1*
X5592276Y11233482D1*
X5570633Y11224517D1*
X5547854Y11219048D1*
X5524500Y11217210D1*
X5501146Y11219048D1*
X5478367Y11224517D1*
X5468271Y11228241D1*
X5467876Y11101964D1*
X5464580Y11081151D1*
X5458068Y11061109D1*
X5448501Y11042334D1*
X5436115Y11025286D1*
X5421214Y11010385D1*
X5404166Y10997999D1*
X5385391Y10988432D1*
X5365309Y10981912D1*
X5696706Y10981790D1*
X5705720Y11011000D1*
X5706041Y11406193D1*
X5708601Y11422356D1*
X5713658Y11437920D1*
X5721088Y11452502D1*
X5730707Y11465741D1*
X5873688Y11609177D1*
X5873701Y11632998D1*
X5877611Y11657686D1*
X5885335Y11681458D1*
X5896683Y11703729D1*
X5911375Y11723951D1*
X5929049Y11741625D1*
X5936454Y11747463D1*
X5919865Y11761865D1*
X5903632Y11780872D1*
X5890572Y11802184D1*
X5881006Y11825277D1*
X5875171Y11849582D1*
X5873210Y11874500D1*
X5875171Y11899418D1*
X5881006Y11923723D1*
X5890572Y11946816D1*
X5903632Y11968128D1*
X5919865Y11987135D1*
X5936454Y12001463D1*
X5919865Y12015865D1*
X5903632Y12034872D1*
X5890572Y12056184D1*
X5881006Y12079277D1*
X5875171Y12103582D1*
X5873210Y12128500D1*
X5875171Y12153418D1*
X5881006Y12177723D1*
X5890572Y12200816D1*
X5903632Y12222128D1*
X5919865Y12241135D1*
X5936454Y12255463D1*
X5920338Y12269393D1*
X5903802Y12288638D1*
X5890531Y12310263D1*
X5880862Y12333722D1*
X5875041Y12358418D1*
X5873215Y12383726D1*
X5875430Y12409002D1*
X5881631Y12433606D1*
X5891659Y12456913D1*
X5905262Y12478332D1*
X5922092Y12497319D1*
X5936365Y12509503D1*
X5919865Y12523865D1*
X5903632Y12542872D1*
X5890572Y12564184D1*
X5881006Y12587277D1*
X5875171Y12611582D1*
X5873210Y12636500D1*
X5875171Y12661418D1*
X5881006Y12685723D1*
X5890572Y12708816D1*
X5903632Y12730128D1*
X5919865Y12749135D1*
X5938872Y12765368D1*
X5960184Y12778428D1*
X5983277Y12787994D1*
X6007582Y12793829D1*
X6032500Y12795790D1*
X6057418Y12793829D1*
X6081723Y12787994D1*
X6104816Y12778428D1*
X6127778Y12764068D1*
X6127750Y13430126D1*
X2455292Y13430250D1*
X2455290Y13165710D1*
X2116710D1*
X2116194Y13188131D1*
X2093295Y13177196D1*
X2069019Y13169807D1*
X2043910Y13166129D1*
X2018534Y13166246D1*
X1993461Y13170155D1*
X1969254Y13177768D1*
X1946456Y13188913D1*
X1925581Y13203341D1*
X1907096Y13220728D1*
X1905014Y13223091D1*
X1887945Y13206271D1*
X1866454Y13190657D1*
X1842784Y13178596D1*
X1817520Y13170387D1*
X1791282Y13166232D1*
X1764718D1*
X1738480Y13170387D1*
X1713216Y13178596D1*
X1689546Y13190657D1*
X1668055Y13206271D1*
X1649271Y13225055D1*
X1633657Y13246546D1*
X1621596Y13270216D1*
X1613387Y13295480D1*
X1609232Y13321718D1*
Y13348282D1*
X1613387Y13374520D1*
X1621596Y13399784D1*
X1633657Y13423454D1*
X1638186Y13430232D1*
X95374Y13430250D1*
X95250Y95374D1*
X6127626Y95250D1*
X6127750Y10984880D1*
X6104816Y10970572D1*
X6081723Y10961006D1*
X6057418Y10955171D1*
X6032500Y10953210D1*
X6007582Y10955171D1*
X5983277Y10961006D1*
X5960184Y10970572D1*
X5938872Y10983632D1*
X5919865Y10999865D1*
X5914327Y11005856D1*
X5913979Y10939317D1*
X5911419Y10923154D1*
X5906362Y10907590D1*
X5898932Y10893008D1*
X5889313Y10879769D1*
X5813754Y10803756D1*
X5801310Y10793127D1*
X5787357Y10784577D1*
X5772237Y10778314D1*
X5756325Y10774494D1*
X5740010Y10773210D1*
X4809817Y10773531D1*
X4793654Y10776091D1*
X4785743Y10778325D1*
X4782290Y10756750D1*
X4781969Y10702317D1*
X4779409Y10686154D1*
X4774351Y10670590D1*
X4766922Y10656009D1*
X4757303Y10642769D1*
X4721313Y10606325D1*
X4719452Y10581146D1*
X4713983Y10558367D1*
X4705018Y10536724D1*
X4692778Y10516750D1*
X4677564Y10498936D1*
X4659750Y10483722D1*
X4639776Y10471482D1*
X4618133Y10462517D1*
X4595354Y10457048D1*
X4572000Y10455210D1*
X4548646Y10457048D1*
X4525867Y10462517D1*
X4504224Y10471482D1*
X4484250Y10483722D1*
X4466436Y10498936D1*
X4451222Y10516750D1*
X4438982Y10536724D1*
X4432885Y10550591D1*
X4422126Y10541045D1*
X4437527Y10526714D1*
X4453458Y10506964D1*
X4466158Y10484996D1*
X4475324Y10461334D1*
X4480736Y10436543D1*
X4482290Y10414000D1*
X4480330Y10388701D1*
X4474498Y10364006D1*
X4464933Y10340503D1*
X4451863Y10318753D1*
X4435599Y10299276D1*
X4422200Y10287001D1*
X4442927Y10266698D1*
X4445000Y10264290D1*
X4837782D1*
X4956770Y10383269D1*
X4958548Y10408364D1*
X4964017Y10431143D1*
X4972982Y10452786D1*
X4985222Y10472760D1*
X5000436Y10490574D1*
X5018250Y10505788D1*
X5038224Y10518028D1*
X5059867Y10526993D1*
X5082646Y10532462D1*
X5106000Y10534300D1*
X5129354Y10532462D1*
X5152133Y10526993D1*
X5173776Y10518028D1*
X5193750Y10505788D1*
X5211564Y10490574D1*
X5226778Y10472760D1*
X5239018Y10452786D1*
X5247983Y10431143D1*
X5253452Y10408364D1*
X5255290Y10385010D1*
X5253452Y10361656D1*
X5247983Y10338877D1*
X5239018Y10317234D1*
X5226778Y10297260D1*
X5211564Y10279446D1*
X5193750Y10264232D1*
X5173776Y10251992D1*
X5152133Y10243027D1*
X5129354Y10237558D1*
X5104307Y10235787D1*
X4948721Y10080697D1*
X4935482Y10071078D1*
X4920900Y10063648D1*
X4905336Y10058591D1*
X4889173Y10056031D1*
X4626990Y10055710D1*
X4445048D1*
X4424698Y10035073D1*
X4422126Y10033045D1*
X4434171Y10022171D1*
X4450913Y10002567D1*
X4464383Y9980586D1*
X4474249Y9956768D1*
X4480267Y9931701D1*
X4482290Y9906000D1*
X4480267Y9880299D1*
X4474249Y9855232D1*
X4464383Y9831414D1*
X4450913Y9809433D1*
X4434171Y9789829D1*
X4422126Y9779045D1*
X4434171Y9768171D1*
X4450913Y9748567D1*
X4464383Y9726586D1*
X4474249Y9702768D1*
X4480267Y9677701D1*
X4482290Y9652000D1*
X4480267Y9626299D1*
X4474249Y9601232D1*
X4464383Y9577414D1*
X4450913Y9555433D1*
X4434171Y9535829D1*
X4422126Y9525045D1*
X4434171Y9514171D1*
X4445000Y9502290D1*
X4722253Y9501969D1*
X4738416Y9499409D1*
X4753980Y9494352D1*
X4768562Y9486922D1*
X4781801Y9477303D1*
X4967420Y9292139D1*
X5074849Y9184709D1*
X5417655Y9184790D1*
X5436750Y9201278D1*
X5456724Y9213518D1*
X5478367Y9222483D1*
X5501146Y9227952D1*
X5524500Y9229790D1*
X5547854Y9227952D1*
X5570633Y9222483D1*
X5592276Y9213518D1*
X5612250Y9201278D1*
X5630064Y9186064D1*
X5645278Y9168250D1*
X5657518Y9148276D1*
X5666483Y9126633D1*
X5671952Y9103854D1*
X5673790Y9080500D1*
X5671952Y9057146D1*
X5666483Y9034367D1*
X5657518Y9012724D1*
X5645278Y8992750D1*
X5630064Y8974936D1*
X5612250Y8959722D1*
X5592276Y8947482D1*
X5570633Y8938517D1*
X5547854Y8933048D1*
X5524500Y8931210D1*
X5501146Y8933048D1*
X5478367Y8938517D1*
X5456724Y8947482D1*
X5436750Y8959722D1*
X5417786Y8976180D1*
X5023387Y8976531D1*
X5007224Y8979091D1*
X4991660Y8984148D1*
X4977078Y8991578D1*
X4963839Y9001197D1*
X4778220Y9186361D1*
X4670791Y9293791D1*
X4445063Y9293710D1*
X4424698Y9273073D1*
X4422126Y9271045D1*
X4434171Y9260171D1*
X4450913Y9240567D1*
X4464383Y9218586D1*
X4474249Y9194768D1*
X4480267Y9169701D1*
X4482290Y9144000D1*
X4480267Y9118299D1*
X4474249Y9093232D1*
X4464383Y9069414D1*
X4450913Y9047433D1*
X4434171Y9027829D1*
X4422126Y9017045D1*
X4434171Y9006171D1*
X4450913Y8986567D1*
X4464383Y8964586D1*
X4474249Y8940768D1*
X4480267Y8915701D1*
X4482290Y8890000D1*
X4480267Y8864299D1*
X4474249Y8839232D1*
X4464383Y8815414D1*
X4450913Y8793433D1*
X4434171Y8773829D1*
X4422290Y8763000D1*
X4421969Y8224567D1*
X4419409Y8208404D1*
X4414352Y8192840D1*
X4406922Y8178259D1*
X4397303Y8165019D1*
X4321744Y8089006D1*
X4309300Y8078378D1*
X4295347Y8069827D1*
X4280197Y8063556D1*
X4302000Y8061790D1*
X5134073D1*
X5153250Y8078278D1*
X5173224Y8090518D1*
X5194867Y8099483D1*
X5217646Y8104952D1*
X5229241Y8106324D1*
X4777109Y8558476D1*
X4758224Y8566482D1*
X4738250Y8578722D1*
X4720436Y8593936D1*
X4705222Y8611750D1*
X4692982Y8631724D1*
X4684017Y8653367D1*
X4678548Y8676146D1*
X4676710Y8699500D1*
X4678548Y8722854D1*
X4684017Y8745633D1*
X4692982Y8767276D1*
X4705222Y8787250D1*
X4720436Y8805064D1*
X4738250Y8820278D1*
X4758224Y8832518D1*
X4779867Y8841483D1*
X4802646Y8846952D1*
X4826000Y8848790D1*
X4849354Y8846952D1*
X4872133Y8841483D1*
X4893776Y8832518D1*
X4913750Y8820278D1*
X4931564Y8805064D1*
X4946778Y8787250D1*
X4959018Y8767276D1*
X4966921Y8748511D1*
X5413556Y8301859D1*
X5497536Y8301376D1*
X5518349Y8298080D1*
X5538391Y8291568D1*
X5557167Y8282001D1*
X5565966Y8276118D1*
X5572710Y8296750D1*
X5573124Y8384536D1*
X5576420Y8405349D1*
X5582932Y8425391D1*
X5592499Y8444166D1*
X5604885Y8461215D1*
X5724296Y8581211D1*
X5771214Y8628129D1*
X5771210Y10040813D1*
X5348638Y10463447D1*
X5329724Y10471482D1*
X5309750Y10483722D1*
X5291936Y10498936D1*
X5276722Y10516750D1*
X5264482Y10536724D1*
X5255517Y10558367D1*
X5250048Y10581146D1*
X5248210Y10604500D1*
X5250048Y10627854D1*
X5255517Y10650633D1*
X5264482Y10672276D1*
X5276722Y10692250D1*
X5291936Y10710064D1*
X5309750Y10725278D1*
X5329724Y10737518D1*
X5351367Y10746483D1*
X5374146Y10751952D1*
X5397500Y10753790D1*
X5420854Y10751952D1*
X5443633Y10746483D1*
X5465276Y10737518D1*
X5485250Y10725278D1*
X5503064Y10710064D1*
X5518278Y10692250D1*
X5530518Y10672276D1*
X5538421Y10653511D1*
X6007615Y10183715D1*
X6020001Y10166666D1*
X6029568Y10147891D1*
X6036080Y10127849D1*
X6039376Y10107036D1*
X6039790Y9937750D1*
X6039376Y8561964D1*
X6036080Y8541151D1*
X6029568Y8521109D1*
X6020001Y8502334D1*
X6007615Y8485285D1*
X5888204Y8365289D1*
X5841286Y8318371D1*
X5840876Y2241464D1*
X5837580Y2220651D1*
X5831068Y2200609D1*
X5821501Y2181834D1*
X5809115Y2164786D1*
X5689704Y2044789D1*
X5574214Y1929885D1*
X5557166Y1917499D1*
X5538391Y1907932D1*
X5518349Y1901420D1*
X5497536Y1898124D1*
X5371286Y1897710D1*
X5371290Y1867710D1*
X5042710D1*
Y2196290D1*
X5069375D1*
X5058080Y2216616D1*
X5049172Y2240376D1*
X5044029Y2265224D1*
X5042773Y2290567D1*
X5045436Y2315802D1*
X5051952Y2340326D1*
X5062167Y2363553D1*
X5075837Y2384931D1*
X5092635Y2403949D1*
X5112162Y2420153D1*
X5133952Y2433157D1*
X5157484Y2442650D1*
X5182197Y2448407D1*
X5207502Y2450289D1*
X5232794Y2448252D1*
X5257472Y2442345D1*
X5280945Y2432708D1*
X5302655Y2419571D1*
X5322083Y2403248D1*
X5338765Y2384128D1*
X5352304Y2362668D1*
X5362377Y2339378D1*
X5368743Y2314815D1*
X5371251Y2289564D1*
X5370187Y2266993D1*
X5365313Y2242090D1*
X5356664Y2218235D1*
X5344615Y2196270D1*
X3124712Y6103266D2*
X3112812Y6115653D1*
X3097567Y6136636D1*
X3085792Y6159746D1*
X3077777Y6184414D1*
X3073720Y6210031D1*
Y6235969D1*
X3077777Y6261586D1*
X3085792Y6286254D1*
X3090004Y6296599D1*
X2957843Y6164439D1*
X2957790Y6103304D1*
X3124556Y6103290D1*
X663484Y10365731D2*
X640048Y10367095D1*
X615083Y10371681D1*
X590904Y10379403D1*
X567902Y10390136D1*
X546451Y10403705D1*
X526898Y10419892D1*
X509562Y10438432D1*
X494723Y10459025D1*
X482621Y10481338D1*
X473454Y10505007D1*
X467370Y10529650D1*
X464468Y10554866D1*
X464794Y10580247D1*
X468344Y10605380D1*
X475059Y10629859D1*
X484832Y10653285D1*
X497503Y10675279D1*
X512867Y10695484D1*
X530674Y10713572D1*
X550636Y10729250D1*
X572429Y10742264D1*
X595699Y10752402D1*
X620069Y10759500D1*
X645144Y10763443D1*
X676200Y10764290D1*
X746858Y10763842D1*
X772024Y10760531D1*
X796565Y10754048D1*
X820083Y10744499D1*
X842196Y10732038D1*
X862547Y10716867D1*
X880803Y10699232D1*
X896670Y10679420D1*
X909891Y10657752D1*
X920249Y10634579D1*
X927579Y10610277D1*
X931759Y10585241D1*
X932689Y10558651D1*
X930266Y10533384D1*
X924652Y10508630D1*
X915936Y10484790D1*
X904261Y10462252D1*
X889816Y10441380D1*
X872835Y10422514D1*
X853594Y10405959D1*
X832405Y10391984D1*
X809611Y10380816D1*
X785582Y10372636D1*
X760709Y10367576D1*
X733500Y10365710D1*
X663500Y10365734D1*
X5556299Y876502D2*
X5552389Y851814D1*
X5544665Y828042D1*
X5533317Y805771D1*
X5518625Y785549D1*
X5500951Y767875D1*
X5480729Y753183D1*
X5458458Y741835D1*
X5434686Y734111D1*
X5409998Y730201D1*
X5385002D1*
X5360314Y734111D1*
X5336542Y741835D1*
X5314271Y753183D1*
X5297618Y765062D1*
X5278620Y751913D1*
X5255823Y740772D1*
X5231547Y733391D1*
X5206407Y729959D1*
X5181042Y730563D1*
X5156093Y735186D1*
X5132196Y743712D1*
X5109955Y755924D1*
X5097535Y765023D1*
X5080729Y753183D1*
X5058458Y741835D1*
X5034686Y734111D1*
X5009998Y730201D1*
X4985002D1*
X4960314Y734111D1*
X4936542Y741835D1*
X4914271Y753183D1*
X4894049Y767875D1*
X4876375Y785549D1*
X4861683Y805771D1*
X4850335Y828042D1*
X4842611Y851814D1*
X4838701Y876502D1*
Y901498D1*
X4842611Y926186D1*
X4850335Y949958D1*
X4861683Y972229D1*
X4869509Y983741D1*
X4738210Y983710D1*
Y1302290D1*
X5056790D1*
Y1296957D1*
X5072582Y1300329D1*
X5097500Y1302290D1*
X5122418Y1300329D1*
X5146723Y1294494D1*
X5169816Y1284928D1*
X5191128Y1271868D1*
X5197382Y1266938D1*
X5214271Y1278817D1*
X5236542Y1290165D1*
X5260314Y1297889D1*
X5285002Y1301799D1*
X5309998D1*
X5334686Y1297889D1*
X5358458Y1290165D1*
X5380729Y1278817D1*
X5400951Y1264125D1*
X5418625Y1246451D1*
X5433317Y1226229D1*
X5444665Y1203958D1*
X5452389Y1180186D1*
X5456299Y1155498D1*
Y1130502D1*
X5455087Y1120265D1*
X5813103Y1120290D1*
X5813210Y1597050D1*
X5799936Y1608936D1*
X5784722Y1626750D1*
X5772482Y1646724D1*
X5763517Y1668367D1*
X5758048Y1691146D1*
X5756210Y1714500D1*
X5758048Y1737854D1*
X5763517Y1760633D1*
X5772482Y1782276D1*
X5784722Y1802250D1*
X5799936Y1820064D1*
X5817750Y1835278D1*
X5837724Y1847518D1*
X5859367Y1856483D1*
X5882146Y1861952D1*
X5905500Y1863790D1*
X5928854Y1861952D1*
X5951633Y1856483D1*
X5973276Y1847518D1*
X5993250Y1835278D1*
X6011064Y1820064D1*
X6026278Y1802250D1*
X6038518Y1782276D1*
X6047483Y1760633D1*
X6052952Y1737854D1*
X6054790Y1714500D1*
X6052952Y1691146D1*
X6047483Y1668367D1*
X6038518Y1646724D1*
X6026278Y1626750D1*
X6021771Y1621032D1*
X6021469Y1007817D1*
X6018909Y991654D1*
X6013852Y976090D1*
X6006422Y961509D1*
X5996803Y948269D1*
X5985231Y936697D1*
X5971991Y927078D1*
X5957410Y919648D1*
X5941846Y914591D1*
X5925683Y912031D1*
X5663500Y911710D1*
X5555228D1*
X5556790Y889000D1*
X5556299Y876502D1*
X5941176Y643364D2*
X5936284Y612477D1*
X5926620Y582735D1*
X5912423Y554871D1*
X5894041Y529571D1*
X5871929Y507459D1*
X5846629Y489077D1*
X5818765Y474880D1*
X5789023Y465216D1*
X5758136Y460324D1*
X5726864D1*
X5695977Y465216D1*
X5666235Y474880D1*
X5638371Y489077D1*
X5613071Y507459D1*
X5590959Y529571D1*
X5572577Y554871D1*
X5558380Y582735D1*
X5548716Y612477D1*
X5543824Y643364D1*
Y674636D1*
X5548716Y705523D1*
X5558380Y735265D1*
X5572577Y763129D1*
X5590959Y788429D1*
X5613071Y810541D1*
X5638371Y828923D1*
X5666235Y843120D1*
X5695977Y852784D1*
X5726864Y857676D1*
X5758136D1*
X5789023Y852784D1*
X5818765Y843120D1*
X5846629Y828923D1*
X5871929Y810541D1*
X5894041Y788429D1*
X5912423Y763129D1*
X5926620Y735265D1*
X5936284Y705523D1*
X5941176Y674636D1*
Y643364D1*
X4751176D2*
X4746284Y612477D1*
X4736620Y582735D1*
X4722423Y554871D1*
X4704041Y529571D1*
X4681929Y507459D1*
X4656629Y489077D1*
X4628765Y474880D1*
X4599023Y465216D1*
X4568136Y460324D1*
X4536864D1*
X4505977Y465216D1*
X4476235Y474880D1*
X4448371Y489077D1*
X4423071Y507459D1*
X4400959Y529571D1*
X4382577Y554871D1*
X4368380Y582735D1*
X4358716Y612477D1*
X4353824Y643364D1*
Y674636D1*
X4358716Y705523D1*
X4368380Y735265D1*
X4382577Y763129D1*
X4400959Y788429D1*
X4423071Y810541D1*
X4448371Y828923D1*
X4476235Y843120D1*
X4505977Y852784D1*
X4536864Y857676D1*
X4568136D1*
X4599023Y852784D1*
X4628765Y843120D1*
X4656629Y828923D1*
X4681929Y810541D1*
X4704041Y788429D1*
X4722423Y763129D1*
X4736620Y735265D1*
X4746284Y705523D1*
X4751176Y674636D1*
Y643364D1*
X783285Y2921026D2*
X763312Y2940653D1*
X748067Y2961636D1*
X736292Y2984746D1*
X728277Y3009414D1*
X724220Y3035031D1*
Y3060969D1*
X728277Y3086586D1*
X736292Y3111254D1*
X748067Y3134364D1*
X763312Y3155347D1*
X781653Y3173688D1*
X802636Y3188933D1*
X825746Y3200708D1*
X850414Y3208723D1*
X876031Y3212780D1*
X901969D1*
X927586Y3208723D1*
X952254Y3200708D1*
X975364Y3188933D1*
X977682Y3187384D1*
X977710Y3213290D1*
X1200084D1*
X771885Y3642035D1*
X759499Y3659084D1*
X749932Y3677859D1*
X743420Y3697901D1*
X740124Y3718714D1*
X739710Y3888000D1*
Y4463097D1*
X657464Y4463624D1*
X636651Y4466920D1*
X616609Y4473432D1*
X597834Y4482999D1*
X580785Y4495385D1*
X460789Y4614796D1*
X342385Y4733785D1*
X329999Y4750834D1*
X320418Y4769648D1*
X317290Y4751250D1*
Y4386497D1*
X609813Y4093471D1*
X619432Y4080231D1*
X626862Y4065650D1*
X631919Y4050086D1*
X634479Y4033923D1*
X634800Y3771740D1*
Y2892538D1*
X713789Y2813660D1*
X724880Y2813381D1*
X728277Y2832586D1*
X736292Y2857254D1*
X748067Y2880364D1*
X763312Y2901347D1*
X783285Y2920974D1*
X1043560Y1121790D2*
X1375790D1*
Y783210D1*
X1037210D1*
Y1121790D1*
X1043560D1*
X1825268Y939218D2*
X1821113Y912980D1*
X1812904Y887716D1*
X1800843Y864046D1*
X1785229Y842555D1*
X1766445Y823771D1*
X1744954Y808157D1*
X1721284Y796096D1*
X1696020Y787887D1*
X1669782Y783732D1*
X1643218D1*
X1616980Y787887D1*
X1591716Y796096D1*
X1568046Y808157D1*
X1546555Y823771D1*
X1527771Y842555D1*
X1512157Y864046D1*
X1500096Y887716D1*
X1491887Y912980D1*
X1487732Y939218D1*
Y965782D1*
X1491887Y992020D1*
X1500096Y1017284D1*
X1512157Y1040954D1*
X1527771Y1062445D1*
X1546555Y1081229D1*
X1568046Y1096843D1*
X1591716Y1108904D1*
X1616980Y1117113D1*
X1643218Y1121268D1*
X1669782D1*
X1696020Y1117113D1*
X1721284Y1108904D1*
X1744954Y1096843D1*
X1766445Y1081229D1*
X1785229Y1062445D1*
X1800843Y1040954D1*
X1812904Y1017284D1*
X1821113Y992020D1*
X1825268Y965782D1*
Y939218D1*
Y289218D2*
X1821113Y262980D1*
X1812904Y237716D1*
X1800843Y214046D1*
X1785229Y192555D1*
X1766445Y173771D1*
X1744954Y158157D1*
X1721284Y146096D1*
X1696020Y137887D1*
X1669782Y133732D1*
X1643218D1*
X1616980Y137887D1*
X1591716Y146096D1*
X1568046Y158157D1*
X1546555Y173771D1*
X1527771Y192555D1*
X1512157Y214046D1*
X1500096Y237716D1*
X1491887Y262980D1*
X1487732Y289218D1*
Y315782D1*
X1491887Y342020D1*
X1500096Y367284D1*
X1512157Y390954D1*
X1527771Y412445D1*
X1546555Y431229D1*
X1568046Y446843D1*
X1591716Y458904D1*
X1616980Y467113D1*
X1643218Y471268D1*
X1669782D1*
X1696020Y467113D1*
X1721284Y458904D1*
X1744954Y446843D1*
X1766445Y431229D1*
X1785229Y412445D1*
X1800843Y390954D1*
X1812904Y367284D1*
X1821113Y342020D1*
X1825268Y315782D1*
Y289218D1*
X1375671Y296151D2*
X1372821Y270936D1*
X1366235Y246429D1*
X1356059Y223183D1*
X1342523Y201718D1*
X1325930Y182518D1*
X1306654Y166014D1*
X1285127Y152577D1*
X1261834Y142509D1*
X1237298Y136035D1*
X1212069Y133302D1*
X1186715Y134370D1*
X1161806Y139216D1*
X1137901Y147731D1*
X1115538Y159724D1*
X1095218Y174925D1*
X1077399Y192992D1*
X1062481Y213520D1*
X1050798Y236047D1*
X1042614Y260067D1*
X1038113Y285041D1*
X1037395Y310407D1*
X1040476Y335595D1*
X1047289Y360040D1*
X1057678Y383192D1*
X1071412Y404531D1*
X1088180Y423577D1*
X1107608Y439902D1*
X1129257Y453141D1*
X1152642Y462994D1*
X1177237Y469242D1*
X1202490Y471743D1*
X1227833Y470441D1*
X1252696Y465365D1*
X1276522Y456630D1*
X1298774Y444432D1*
X1318953Y429045D1*
X1336605Y410814D1*
X1351333Y390150D1*
X1362808Y367516D1*
X1370770Y343421D1*
X1375041Y318407D1*
X1375671Y296151D1*
X2567561Y1121789D2*
X2899791D1*
Y783209D1*
X2561211D1*
Y1121789D1*
X2567561D1*
X3349268Y939218D2*
X3345113Y912980D1*
X3336904Y887716D1*
X3324843Y864046D1*
X3309229Y842555D1*
X3290445Y823771D1*
X3268954Y808157D1*
X3245284Y796096D1*
X3220020Y787887D1*
X3193782Y783732D1*
X3167218D1*
X3140980Y787887D1*
X3115716Y796096D1*
X3092046Y808157D1*
X3070555Y823771D1*
X3051771Y842555D1*
X3036157Y864046D1*
X3024096Y887716D1*
X3015887Y912980D1*
X3011732Y939218D1*
Y965782D1*
X3015887Y992020D1*
X3024096Y1017284D1*
X3036157Y1040954D1*
X3051771Y1062445D1*
X3070555Y1081229D1*
X3092046Y1096843D1*
X3115716Y1108904D1*
X3140980Y1117113D1*
X3167218Y1121268D1*
X3193782D1*
X3220020Y1117113D1*
X3245284Y1108904D1*
X3268954Y1096843D1*
X3290445Y1081229D1*
X3309229Y1062445D1*
X3324843Y1040954D1*
X3336904Y1017284D1*
X3345113Y992020D1*
X3349268Y965782D1*
Y939218D1*
Y289218D2*
X3345113Y262980D1*
X3336904Y237716D1*
X3324843Y214046D1*
X3309229Y192555D1*
X3290445Y173771D1*
X3268954Y158157D1*
X3245284Y146096D1*
X3220020Y137887D1*
X3193782Y133732D1*
X3167218D1*
X3140980Y137887D1*
X3115716Y146096D1*
X3092046Y158157D1*
X3070555Y173771D1*
X3051771Y192555D1*
X3036157Y214046D1*
X3024096Y237716D1*
X3015887Y262980D1*
X3011732Y289218D1*
Y315782D1*
X3015887Y342020D1*
X3024096Y367284D1*
X3036157Y390954D1*
X3051771Y412445D1*
X3070555Y431229D1*
X3092046Y446843D1*
X3115716Y458904D1*
X3140980Y467113D1*
X3167218Y471268D1*
X3193782D1*
X3220020Y467113D1*
X3245284Y458904D1*
X3268954Y446843D1*
X3290445Y431229D1*
X3309229Y412445D1*
X3324843Y390954D1*
X3336904Y367284D1*
X3345113Y342020D1*
X3349268Y315782D1*
Y289218D1*
X2899671Y296151D2*
X2896821Y270936D1*
X2890235Y246429D1*
X2880059Y223183D1*
X2866523Y201718D1*
X2849930Y182518D1*
X2830654Y166014D1*
X2809127Y152577D1*
X2785834Y142509D1*
X2761298Y136035D1*
X2736069Y133302D1*
X2710715Y134370D1*
X2685806Y139216D1*
X2661901Y147731D1*
X2639538Y159724D1*
X2619218Y174925D1*
X2601399Y192992D1*
X2586481Y213520D1*
X2574798Y236047D1*
X2566614Y260067D1*
X2562113Y285041D1*
X2561395Y310407D1*
X2564476Y335595D1*
X2571289Y360040D1*
X2581678Y383192D1*
X2595412Y404531D1*
X2612180Y423577D1*
X2631608Y439902D1*
X2653257Y453141D1*
X2676642Y462994D1*
X2701237Y469242D1*
X2726490Y471743D1*
X2751833Y470441D1*
X2776696Y465365D1*
X2800522Y456630D1*
X2822774Y444432D1*
X2842953Y429045D1*
X2860605Y410814D1*
X2875333Y390150D1*
X2886808Y367516D1*
X2894770Y343421D1*
X2899041Y318407D1*
X2899671Y296151D1*
X4482291Y12217755D2*
Y12027709D1*
X4455626D1*
X4464383Y12012586D1*
X4474249Y11988768D1*
X4480267Y11963701D1*
X4482290Y11938000D1*
X4480267Y11912299D1*
X4474249Y11887232D1*
X4464383Y11863414D1*
X4450913Y11841433D1*
X4434171Y11821829D1*
X4422126Y11811045D1*
X4434171Y11800171D1*
X4445000Y11788290D1*
X4616183Y11787969D1*
X4632346Y11785409D1*
X4640257Y11783175D1*
X4643710Y11804750D1*
Y12208694D1*
X4614500Y12217710D1*
X4482167D1*
X4180293Y12027709D2*
X4153711D1*
Y12217589D1*
X3839229Y12217710D1*
X3830290Y12188500D1*
X3829969Y9051817D1*
X3827409Y9035654D1*
X3822352Y9020090D1*
X3814922Y9005509D1*
X3805303Y8992269D1*
X3719501Y8906012D1*
X3719784Y8877110D1*
X3717904Y8862471D1*
X3735436Y8883564D1*
X3753250Y8898778D1*
X3773224Y8911018D1*
X3794867Y8919983D1*
X3817646Y8925452D1*
X3841000Y8927290D1*
X3851752Y8926868D1*
X3852031Y11076183D1*
X3854591Y11092346D1*
X3859648Y11107910D1*
X3867078Y11122492D1*
X3876697Y11135731D1*
X4061861Y11321349D1*
X4154557Y11414046D1*
X4153710Y11430000D1*
X4155733Y11455701D1*
X4161751Y11480768D1*
X4171617Y11504586D1*
X4185087Y11526567D1*
X4201829Y11546171D1*
X4213874Y11556955D1*
X4201829Y11567829D1*
X4185087Y11587433D1*
X4171617Y11609414D1*
X4161751Y11633232D1*
X4155733Y11658299D1*
X4153710Y11684000D1*
X4155733Y11709701D1*
X4161751Y11734768D1*
X4171617Y11758586D1*
X4185087Y11780567D1*
X4201829Y11800171D1*
X4213874Y11810955D1*
X4201829Y11821829D1*
X4185087Y11841433D1*
X4171617Y11863414D1*
X4161751Y11887232D1*
X4155733Y11912299D1*
X4153710Y11938000D1*
X4155733Y11963701D1*
X4161751Y11988768D1*
X4171617Y12012586D1*
X4180523Y12027738D1*
X4444830Y11071716D2*
X4434171Y11059829D1*
X4422126Y11049045D1*
X4434171Y11038171D1*
X4450913Y11018567D1*
X4464383Y10996586D1*
X4474249Y10972768D1*
X4480267Y10947701D1*
X4482290Y10922000D1*
X4480267Y10896299D1*
X4474249Y10871232D1*
X4464383Y10847414D1*
X4450913Y10825433D1*
X4434171Y10805829D1*
X4422126Y10795045D1*
X4434171Y10784171D1*
X4450913Y10764567D1*
X4464383Y10742586D1*
X4474564Y10717653D1*
X4493996Y10731791D1*
X4514869Y10742426D1*
X4537149Y10749665D1*
X4560287Y10753330D1*
X4573693Y10753723D1*
X4573710Y11109235D1*
X4554300Y11091627D1*
X4540347Y11083077D1*
X4525227Y11076814D1*
X4509315Y11072994D1*
X4493000Y11071710D1*
X4445003D1*
X4213874Y11049045D2*
X4201829Y11059829D1*
X4185087Y11079433D1*
X4171617Y11101414D1*
X4161518Y11126056D1*
X4060334Y11024846D1*
X4060290Y10004003D1*
X4079685Y10009006D1*
X4096000Y10010290D1*
X4191126D1*
X4201829Y10022171D1*
X4213874Y10032955D1*
X4201829Y10043829D1*
X4185087Y10063433D1*
X4171617Y10085414D1*
X4161751Y10109232D1*
X4155733Y10134299D1*
X4153710Y10160000D1*
X4155733Y10185701D1*
X4161751Y10210768D1*
X4171617Y10234586D1*
X4185087Y10256567D1*
X4201829Y10276171D1*
X4213874Y10286955D1*
X4197257Y10302589D1*
X4181541Y10322511D1*
X4169080Y10344616D1*
X4160172Y10368376D1*
X4155029Y10393224D1*
X4153773Y10418567D1*
X4156436Y10443802D1*
X4162952Y10468326D1*
X4173167Y10491553D1*
X4186837Y10512931D1*
X4203635Y10531949D1*
X4213803Y10541001D1*
X4193073Y10561302D1*
X4177920Y10582159D1*
X4166216Y10605129D1*
X4158249Y10629647D1*
X4154216Y10655110D1*
Y10680890D1*
X4158249Y10706353D1*
X4166216Y10730871D1*
X4177920Y10753841D1*
X4193073Y10774698D1*
X4211302Y10792927D1*
X4213874Y10794955D1*
X4201829Y10805829D1*
X4185087Y10825433D1*
X4171617Y10847414D1*
X4161751Y10871232D1*
X4155733Y10896299D1*
X4153710Y10922000D1*
X4155733Y10947701D1*
X4161751Y10972768D1*
X4171617Y10996586D1*
X4185087Y11018567D1*
X4201829Y11038171D1*
X4213874Y11048955D1*
X3429170Y11534284D2*
X3439829Y11546171D1*
X3451874Y11556955D1*
X3439829Y11567829D1*
X3429000Y11579710D1*
X3312542D1*
X3292183Y11576031D1*
X3030000Y11575710D1*
X1050851Y11575165D1*
X1073131Y11567926D1*
X1094004Y11557291D1*
X1112956Y11543521D1*
X1122714Y11534320D1*
X3429124Y11534290D1*
X852714Y12868368D2*
X850110Y12846372D1*
X845789Y12824649D1*
X839777Y12803331D1*
X832111Y12782551D1*
X822838Y12762437D1*
X812016Y12743112D1*
X799710Y12724696D1*
X785998Y12707302D1*
X770963Y12691037D1*
X754698Y12676002D1*
X737304Y12662290D1*
X718888Y12649984D1*
X699563Y12639162D1*
X679449Y12629889D1*
X658669Y12622223D1*
X637351Y12616211D1*
X615628Y12611890D1*
X593632Y12609286D1*
X571500Y12608417D1*
X549368Y12609286D1*
X527372Y12611890D1*
X505649Y12616211D1*
X484331Y12622223D1*
X463551Y12629889D1*
X443437Y12639162D1*
X424112Y12649984D1*
X405696Y12662290D1*
X388302Y12676002D1*
X372037Y12691037D1*
X357002Y12707302D1*
X343290Y12724696D1*
X330984Y12743112D1*
X320162Y12762437D1*
X310889Y12782551D1*
X303223Y12803331D1*
X297211Y12824649D1*
X292890Y12846372D1*
X290286Y12868368D1*
X289417Y12890500D1*
X290286Y12912632D1*
X292890Y12934628D1*
X297211Y12956351D1*
X303223Y12977669D1*
X310889Y12998449D1*
X320162Y13018563D1*
X330984Y13037888D1*
X343290Y13056304D1*
X357002Y13073698D1*
X372037Y13089963D1*
X388302Y13104998D1*
X405696Y13118710D1*
X424112Y13131016D1*
X443437Y13141838D1*
X463551Y13151111D1*
X484331Y13158777D1*
X505649Y13164789D1*
X527372Y13169110D1*
X549368Y13171714D1*
X571500Y13172583D1*
X593632Y13171714D1*
X615628Y13169110D1*
X637351Y13164789D1*
X658669Y13158777D1*
X679449Y13151111D1*
X699563Y13141838D1*
X718888Y13131016D1*
X737304Y13118710D1*
X754698Y13104998D1*
X770963Y13089963D1*
X785998Y13073698D1*
X799710Y13056304D1*
X812016Y13037888D1*
X822838Y13018563D1*
X832111Y12998449D1*
X839777Y12977669D1*
X845789Y12956351D1*
X850110Y12934628D1*
X852714Y12912632D1*
X853583Y12890500D1*
X852714Y12868368D1*
X662214Y422368D2*
X659610Y400372D1*
X655289Y378649D1*
X649277Y357331D1*
X641611Y336551D1*
X632338Y316437D1*
X621516Y297112D1*
X609210Y278696D1*
X595498Y261302D1*
X580463Y245037D1*
X564198Y230002D1*
X546804Y216290D1*
X528388Y203984D1*
X509063Y193162D1*
X488949Y183889D1*
X468169Y176223D1*
X446851Y170211D1*
X425128Y165890D1*
X403132Y163286D1*
X381000Y162417D1*
X358868Y163286D1*
X336872Y165890D1*
X315149Y170211D1*
X293831Y176223D1*
X273051Y183889D1*
X252937Y193162D1*
X233612Y203984D1*
X215196Y216290D1*
X197802Y230002D1*
X181537Y245037D1*
X166502Y261302D1*
X152790Y278696D1*
X140484Y297112D1*
X129662Y316437D1*
X120389Y336551D1*
X112723Y357331D1*
X106711Y378649D1*
X102390Y400372D1*
X99786Y422368D1*
X98917Y444500D1*
X99786Y466632D1*
X102390Y488628D1*
X106711Y510351D1*
X112723Y531669D1*
X120389Y552449D1*
X129662Y572563D1*
X140484Y591888D1*
X152790Y610304D1*
X166502Y627698D1*
X181537Y643963D1*
X197802Y658998D1*
X215196Y672710D1*
X233612Y685016D1*
X252937Y695838D1*
X273051Y705111D1*
X293831Y712777D1*
X315149Y718789D1*
X336872Y723110D1*
X358868Y725714D1*
X381000Y726583D1*
X403132Y725714D1*
X425128Y723110D1*
X446851Y718789D1*
X468169Y712777D1*
X488949Y705111D1*
X509063Y695838D1*
X528388Y685016D1*
X546804Y672710D1*
X564198Y658998D1*
X580463Y643963D1*
X595498Y627698D1*
X609210Y610304D1*
X621516Y591888D1*
X632338Y572563D1*
X641611Y552449D1*
X649277Y531669D1*
X655289Y510351D1*
X659610Y488628D1*
X662214Y466632D1*
X663083Y444500D1*
X662214Y422368D1*
X2977082Y11784259D2*
X2969517Y11802867D1*
X2964048Y11825646D1*
X2962210Y11849000D1*
X2964048Y11872354D1*
X2969517Y11895133D1*
X2978482Y11916776D1*
X2982173Y11923368D1*
X2958631Y11911074D1*
X2936351Y11903835D1*
X2913213Y11900170D1*
X2774500Y11899710D1*
X1979882D1*
X1864393Y11784264D1*
X2977060Y11784290D1*
X5547172Y12917894D2*
X5531143Y12911517D1*
X5508364Y12906048D1*
X5485010Y12904210D1*
X5468249Y12905268D1*
X5468290Y12838319D1*
X5489649Y12845165D1*
X5512787Y12848830D1*
X5536213D1*
X5547172Y12847533D1*
X5547210Y12917661D1*
X5010989Y11476579D2*
X4992224Y11484482D1*
X4972250Y11496722D1*
X4954436Y11511936D1*
X4939222Y11529750D1*
X4926982Y11549724D1*
X4918017Y11571367D1*
X4912548Y11594146D1*
X4910710Y11617500D1*
X4912548Y11640854D1*
X4918017Y11663633D1*
X4926982Y11685276D1*
X4939222Y11705250D1*
X4954436Y11723064D1*
X4972250Y11738278D1*
X4992224Y11750518D1*
X5013867Y11759483D1*
X5036646Y11764952D1*
X5060000Y11766790D1*
X5083354Y11764952D1*
X5106133Y11759483D1*
X5127776Y11750518D1*
X5147750Y11738278D1*
X5165564Y11723064D1*
X5180778Y11705250D1*
X5193018Y11685276D1*
X5199717Y11669776D1*
X5199710Y12166288D1*
X5185564Y12149936D1*
X5167750Y12134722D1*
X5147776Y12122482D1*
X5126133Y12113517D1*
X5103354Y12108048D1*
X5080000Y12106210D1*
X5056646Y12108048D1*
X5033867Y12113517D1*
X5012224Y12122482D1*
X4992250Y12134722D1*
X4974436Y12149936D1*
X4959222Y12167750D1*
X4946982Y12187724D1*
X4938017Y12209367D1*
X4932548Y12232146D1*
X4930777Y12257193D1*
X4900229Y12287782D1*
X4845894Y12287710D1*
X4851006Y12268315D1*
X4852290Y12252000D1*
Y10990806D1*
X4881500Y10981790D1*
X4988780D1*
X4973250Y10991722D1*
X4955436Y11006936D1*
X4940222Y11024750D1*
X4927982Y11044724D1*
X4919017Y11066367D1*
X4913548Y11089146D1*
X4911710Y11112500D1*
X4913548Y11135854D1*
X4919017Y11158633D1*
X4927982Y11180276D1*
X4940222Y11200250D1*
X4955436Y11218064D1*
X4973250Y11233278D1*
X4993224Y11245518D1*
X5014867Y11254483D1*
X5037646Y11259952D1*
X5061000Y11261790D1*
X5084354Y11259952D1*
X5107133Y11254483D1*
X5125990Y11246803D1*
X5199782Y11246790D1*
X5199710Y11384731D1*
X5147954Y11385134D1*
X5127141Y11388430D1*
X5107099Y11394942D1*
X5088324Y11404509D1*
X5071276Y11416895D1*
X5011177Y11476408D1*
X4720830Y2337787D2*
X4717165Y2314649D1*
X4714940Y2306760D1*
X4832613Y2306530D1*
X4852047Y2302665D1*
X4870042Y2294369D1*
X4885602Y2282102D1*
X4897869Y2266542D1*
X4906165Y2248547D1*
X4910030Y2229113D1*
X4910290Y1746250D1*
X4910030Y1644387D1*
X4906165Y1624953D1*
X4897869Y1606958D1*
X4885602Y1591398D1*
X4870042Y1579131D1*
X4852047Y1570835D1*
X4832613Y1566970D1*
X4349750Y1566710D1*
X3930387Y1566969D1*
X3910953Y1570835D1*
X3892958Y1579131D1*
X3877398Y1591398D1*
X3865131Y1606958D1*
X3856835Y1624953D1*
X3852969Y1644387D1*
X3852710Y2127250D1*
Y2217663D1*
X3763987Y2217710D1*
X3462861Y1916481D1*
X3453019Y1892224D1*
X3440778Y1872249D1*
X3425564Y1854436D1*
X3407751Y1839222D1*
X3387776Y1826981D1*
X3366133Y1818016D1*
X3343354Y1812548D1*
X3320000Y1810710D1*
X3259353D1*
X3259031Y1644387D1*
X3255165Y1624953D1*
X3246869Y1606958D1*
X3234602Y1591398D1*
X3219042Y1579131D1*
X3201047Y1570835D1*
X3181613Y1566969D1*
X2698750Y1566710D1*
X2342887Y1566970D1*
X2323453Y1570835D1*
X2305459Y1579131D1*
X2289898Y1591398D1*
X2277631Y1606959D1*
X2269335Y1624953D1*
X2265470Y1644387D1*
X2265210Y2127250D1*
X2265469Y2229113D1*
X2269335Y2248547D1*
X2277631Y2266542D1*
X2289898Y2282102D1*
X2305458Y2294369D1*
X2323453Y2302665D1*
X2342887Y2306531D1*
X2825750Y2306790D1*
X3181613Y2306531D1*
X3201047Y2302665D1*
X3219042Y2294369D1*
X3234602Y2282102D1*
X3246869Y2266542D1*
X3255165Y2248547D1*
X3259031Y2229113D1*
X3259290Y2109267D1*
X3282815Y2109290D1*
X3623909Y2449714D1*
X3640640Y2461870D1*
X3659066Y2471258D1*
X3678734Y2477649D1*
X3699160Y2480884D1*
X3868250Y2481290D1*
X4501886D1*
X4525867Y2491483D1*
X4548646Y2496952D1*
X4572000Y2498790D1*
X4595354Y2496952D1*
X4618133Y2491483D1*
X4639776Y2482518D1*
X4659750Y2470278D1*
X4677564Y2455064D1*
X4692778Y2437250D1*
X4705018Y2417276D1*
X4713983Y2395633D1*
X4719452Y2372854D1*
X4721290Y2349500D1*
X4720830Y2337787D1*
X5311286Y5913891D2*
X5321222Y5929750D1*
X5336436Y5947564D1*
X5354250Y5962778D1*
X5374224Y5975018D1*
X5395867Y5983983D1*
X5418646Y5989452D1*
X5442000Y5991290D1*
X5465354Y5989452D1*
X5488133Y5983983D1*
X5509776Y5975018D1*
X5529750Y5962778D1*
X5547564Y5947564D1*
X5562778Y5929750D1*
X5572714Y5913891D1*
X5572710Y6353331D1*
X5554131Y6344074D1*
X5531851Y6336835D1*
X5508713Y6333170D1*
X5485287D1*
X5462149Y6336835D1*
X5439869Y6344074D1*
X5418996Y6354709D1*
X5400044Y6368479D1*
X5390286Y6377680D1*
X5332669Y6377710D1*
X5344926Y6354131D1*
X5352165Y6331851D1*
X5355830Y6308713D1*
Y6285287D1*
X5352165Y6262149D1*
X5344926Y6239869D1*
X5334291Y6218996D1*
X5320521Y6200044D1*
X5311320Y6190286D1*
X5311290Y5914140D1*
X5207000Y2450166D2*
D22*
Y2286000D1*
X5042834D2*
X5371166D1*
X3556000Y2794000D2*
Y2629834D1*
X3391834Y2794000D2*
X3720166D1*
X1270000Y6858000D2*
Y6692834D1*
Y6858000D2*
X1435166D1*
X698500Y10764166D2*
Y10365834D1*
X464334Y10565000D2*
X932666D1*
X2032000Y13335000D2*
Y13165834D1*
X5197500Y889000D2*
Y729834D1*
X1206500Y1121665D2*
Y783334D1*
X1037335Y952500D2*
X1375666D1*
X1206500Y471666D2*
Y133334D1*
X1037334Y302500D2*
X1375666D1*
X2730500Y1121665D2*
Y783334D1*
X2561335Y952500D2*
X2899666D1*
X2730500Y471666D2*
Y133334D1*
X2561334Y302500D2*
X2899666D1*
X5873334Y12382500D2*
X6032500D1*
X4153834Y10414000D2*
X4482166D1*
X3391834Y9906000D2*
X3556000D1*
D25*
X5207000Y2032000D3*
D26*
Y2286000D3*
D25*
X3556000Y3048000D3*
D26*
Y2794000D3*
D29*
X1016000Y7366000D3*
Y7112000D3*
Y6858000D3*
X1270000D3*
Y7112000D3*
D30*
Y7366000D3*
D29*
X3238500Y6223000D3*
Y5969000D3*
Y5715000D3*
X3492500D3*
Y5969000D3*
D30*
Y6223000D3*
D31*
X698500Y12065000D3*
Y11065000D3*
Y11565000D3*
Y10565000D3*
D32*
X2286000Y13335000D3*
D33*
X2032000D3*
X1778000D3*
D34*
X5397500Y889000D3*
X5297500Y1143000D3*
X5197500Y889000D3*
X5097500Y1143000D3*
X4997500Y889000D3*
D35*
X4897500Y1143000D3*
D29*
X889000Y3048000D3*
Y2794000D3*
Y2540000D3*
X1143000D3*
Y2794000D3*
D30*
Y3048000D3*
D32*
X1206500Y952500D3*
D33*
X1656500D3*
Y302500D3*
X1206500D3*
D32*
X2730500Y952500D3*
D33*
X3180500D3*
Y302500D3*
X2730500D3*
D34*
X6032500Y11112500D3*
Y11366500D3*
Y11620500D3*
Y11874500D3*
Y12128500D3*
Y12382500D3*
Y12636500D3*
D25*
X4318000Y12192000D3*
D26*
Y11938000D3*
Y11684000D3*
Y11430000D3*
Y11176000D3*
Y10922000D3*
Y10668000D3*
Y10414000D3*
Y10160000D3*
Y9906000D3*
Y9652000D3*
Y9398000D3*
Y9144000D3*
Y8890000D3*
X3556000D3*
Y9144000D3*
Y9398000D3*
Y9652000D3*
Y9906000D3*
Y10160000D3*
Y10414000D3*
Y10668000D3*
Y10922000D3*
Y11176000D3*
Y11430000D3*
Y11684000D3*
Y11938000D3*
Y12192000D3*
M02*
