G04 DipTrace 3.0.0.1*
G04 BottomSilk.gbr*
%MOMM*%
G04 #@! TF.FileFunction,Legend,Bot*
G04 #@! TF.Part,Single*
%ADD10C,0.25*%
%ADD67O,0.39124X0.39194*%
%ADD164C,0.19608*%
%ADD165C,0.31373*%
%FSLAX35Y35*%
G04*
G71*
G90*
G75*
G01*
G04 BotSilk*
%LPD*%
X24146420Y8888000D2*
D10*
X23986580D1*
X24146420Y8906920D2*
X23986580D1*
X24146420D2*
Y8847080D1*
X23986580Y8906920D2*
Y8847080D1*
X23937500Y10524580D2*
Y10684420D1*
X23956420Y10524580D2*
Y10684420D1*
Y10524580D2*
X23896580D1*
X23956420Y10684420D2*
X23896580D1*
X3517900Y1727505D2*
Y2336495D1*
X3213100Y1727505D2*
Y2336495D1*
G02X3517900Y2336495I152400J304D01*
G01*
Y1727505D2*
G02X3213100Y1727505I-152400J-304D01*
G01*
X3517900Y4204005D2*
Y4812995D1*
X3213100Y4204005D2*
Y4812995D1*
G02X3517900Y4812995I152400J304D01*
G01*
Y4204005D2*
G02X3213100Y4204005I-152400J-304D01*
G01*
X3517900Y9284005D2*
Y9892995D1*
X3213100Y9284005D2*
Y9892995D1*
G02X3517900Y9892995I152400J304D01*
G01*
Y9284005D2*
G02X3213100Y9284005I-152400J-304D01*
G01*
X3581400Y6807505D2*
Y7416495D1*
X3276600Y6807505D2*
Y7416495D1*
G02X3581400Y7416495I152400J304D01*
G01*
Y6807505D2*
G02X3276600Y6807505I-152400J-304D01*
G01*
X2107898Y3716477D2*
Y3776523D1*
X2137918Y3746500D2*
X2077940D1*
X1524015D2*
X1524634Y3764218D1*
X1526486Y3781850D1*
X1529564Y3799310D1*
X1533851Y3816512D1*
X1539328Y3833373D1*
X1545967Y3849811D1*
X1553736Y3865746D1*
X1562597Y3881099D1*
X1572508Y3895797D1*
X1583419Y3909768D1*
X1595278Y3922943D1*
X1608026Y3935259D1*
X1621603Y3946655D1*
X1635941Y3957076D1*
X1650970Y3966470D1*
X1666618Y3974794D1*
X1682809Y3982005D1*
X1699463Y3988068D1*
X1716499Y3992955D1*
X1733834Y3996641D1*
X1751385Y3999109D1*
X1769064Y4000345D1*
X1786787D1*
X1804466Y3999109D1*
X1822017Y3996641D1*
X1839352Y3992955D1*
X1856388Y3988068D1*
X1873042Y3982005D1*
X1889232Y3974794D1*
X1904881Y3966470D1*
X1919910Y3957076D1*
X1934248Y3946655D1*
X1947825Y3935259D1*
X1960573Y3922943D1*
X1972432Y3909768D1*
X1983343Y3895797D1*
X1993254Y3881099D1*
X2002115Y3865746D1*
X2009884Y3849811D1*
X2016523Y3833373D1*
X2022000Y3816512D1*
X2026287Y3799310D1*
X2029365Y3781850D1*
X2031217Y3764218D1*
X2031836Y3746500D1*
X2031217Y3728782D1*
X2029365Y3711150D1*
X2026287Y3693690D1*
X2022000Y3676488D1*
X2016523Y3659627D1*
X2009884Y3643189D1*
X2002115Y3627254D1*
X1993254Y3611901D1*
X1983343Y3597203D1*
X1972432Y3583232D1*
X1960573Y3570057D1*
X1947825Y3557741D1*
X1934248Y3546345D1*
X1919910Y3535924D1*
X1904881Y3526530D1*
X1889232Y3518206D1*
X1873042Y3510995D1*
X1856388Y3504932D1*
X1839352Y3500045D1*
X1822017Y3496359D1*
X1804466Y3493891D1*
X1786787Y3492655D1*
X1769064D1*
X1751385Y3493891D1*
X1733834Y3496359D1*
X1716499Y3500045D1*
X1699463Y3504932D1*
X1682809Y3510995D1*
X1666618Y3518206D1*
X1650970Y3526530D1*
X1635941Y3535924D1*
X1621603Y3546345D1*
X1608026Y3557741D1*
X1595278Y3570057D1*
X1583419Y3583232D1*
X1572508Y3597203D1*
X1562597Y3611901D1*
X1553736Y3627254D1*
X1545967Y3643189D1*
X1539328Y3659627D1*
X1533851Y3676488D1*
X1529564Y3693690D1*
X1526486Y3711150D1*
X1524634Y3728782D1*
X1524015Y3746500D1*
X1427023Y8584898D2*
X1366977D1*
X1397000Y8614918D2*
Y8554940D1*
X1143000Y8254925D2*
X1143619Y8272637D1*
X1145472Y8290263D1*
X1148551Y8307716D1*
X1152840Y8324913D1*
X1158318Y8341768D1*
X1164959Y8358200D1*
X1172731Y8374129D1*
X1181596Y8389477D1*
X1191510Y8404170D1*
X1202425Y8418136D1*
X1214288Y8431306D1*
X1227041Y8443618D1*
X1240622Y8455010D1*
X1254965Y8465427D1*
X1270000Y8474818D1*
X1285654Y8483139D1*
X1301850Y8490347D1*
X1318510Y8496409D1*
X1335552Y8501294D1*
X1352893Y8504978D1*
X1370450Y8507445D1*
X1388136Y8508681D1*
X1405864D1*
X1423550Y8507445D1*
X1441107Y8504978D1*
X1458448Y8501294D1*
X1475490Y8496409D1*
X1492150Y8490347D1*
X1508346Y8483139D1*
X1524000Y8474818D1*
X1539035Y8465427D1*
X1553378Y8455010D1*
X1566959Y8443618D1*
X1579712Y8431306D1*
X1591575Y8418136D1*
X1602490Y8404170D1*
X1612404Y8389477D1*
X1621269Y8374129D1*
X1629041Y8358200D1*
X1635682Y8341768D1*
X1641160Y8324913D1*
X1645449Y8307716D1*
X1648528Y8290263D1*
X1650381Y8272637D1*
X1651000Y8254925D1*
X1650381Y8237214D1*
X1648528Y8219588D1*
X1645449Y8202134D1*
X1641160Y8184938D1*
X1635682Y8168083D1*
X1629041Y8151651D1*
X1621269Y8135722D1*
X1612404Y8120373D1*
X1602490Y8105681D1*
X1591575Y8091715D1*
X1579712Y8078544D1*
X1566959Y8066233D1*
X1553378Y8054841D1*
X1539035Y8044424D1*
X1524000Y8035033D1*
X1508346Y8026712D1*
X1492150Y8019504D1*
X1475490Y8013442D1*
X1458448Y8008557D1*
X1441107Y8004872D1*
X1423550Y8002406D1*
X1405864Y8001170D1*
X1388136D1*
X1370450Y8002406D1*
X1352893Y8004872D1*
X1335552Y8008557D1*
X1318510Y8013442D1*
X1301850Y8019504D1*
X1285654Y8026712D1*
X1270000Y8035033D1*
X1254965Y8044424D1*
X1240622Y8054841D1*
X1227041Y8066233D1*
X1214288Y8078544D1*
X1202425Y8091715D1*
X1191510Y8105681D1*
X1181596Y8120373D1*
X1172731Y8135722D1*
X1164959Y8151651D1*
X1158318Y8168083D1*
X1152840Y8184938D1*
X1148551Y8202134D1*
X1145472Y8219588D1*
X1143619Y8237214D1*
X1143000Y8254925D1*
X2552398Y5303977D2*
Y5364023D1*
X2582418Y5334000D2*
X2522440D1*
X1968515D2*
X1969134Y5351718D1*
X1970986Y5369350D1*
X1974064Y5386810D1*
X1978351Y5404012D1*
X1983828Y5420873D1*
X1990467Y5437311D1*
X1998236Y5453246D1*
X2007097Y5468599D1*
X2017008Y5483297D1*
X2027919Y5497268D1*
X2039778Y5510443D1*
X2052526Y5522759D1*
X2066103Y5534155D1*
X2080441Y5544576D1*
X2095470Y5553970D1*
X2111118Y5562294D1*
X2127309Y5569505D1*
X2143963Y5575568D1*
X2160999Y5580455D1*
X2178334Y5584141D1*
X2195885Y5586609D1*
X2213564Y5587845D1*
X2231287D1*
X2248966Y5586609D1*
X2266517Y5584141D1*
X2283852Y5580455D1*
X2300888Y5575568D1*
X2317542Y5569505D1*
X2333732Y5562294D1*
X2349381Y5553970D1*
X2364410Y5544576D1*
X2378748Y5534155D1*
X2392325Y5522759D1*
X2405073Y5510443D1*
X2416932Y5497268D1*
X2427843Y5483297D1*
X2437754Y5468599D1*
X2446615Y5453246D1*
X2454384Y5437311D1*
X2461023Y5420873D1*
X2466500Y5404012D1*
X2470787Y5386810D1*
X2473865Y5369350D1*
X2475717Y5351718D1*
X2476336Y5334000D1*
X2475717Y5316282D1*
X2473865Y5298650D1*
X2470787Y5281190D1*
X2466500Y5263988D1*
X2461023Y5247127D1*
X2454384Y5230689D1*
X2446615Y5214754D1*
X2437754Y5199401D1*
X2427843Y5184703D1*
X2416932Y5170732D1*
X2405073Y5157557D1*
X2392325Y5145241D1*
X2378748Y5133845D1*
X2364410Y5123424D1*
X2349381Y5114030D1*
X2333732Y5105706D1*
X2317542Y5098495D1*
X2300888Y5092432D1*
X2283852Y5087545D1*
X2266517Y5083859D1*
X2248966Y5081391D1*
X2231287Y5080155D1*
X2213564D1*
X2195885Y5081391D1*
X2178334Y5083859D1*
X2160999Y5087545D1*
X2143963Y5092432D1*
X2127309Y5098495D1*
X2111118Y5105706D1*
X2095470Y5114030D1*
X2080441Y5123424D1*
X2066103Y5133845D1*
X2052526Y5145241D1*
X2039778Y5157557D1*
X2027919Y5170732D1*
X2017008Y5184703D1*
X2007097Y5199401D1*
X1998236Y5214754D1*
X1990467Y5230689D1*
X1983828Y5247127D1*
X1978351Y5263988D1*
X1974064Y5281190D1*
X1970986Y5298650D1*
X1969134Y5316282D1*
X1968515Y5334000D1*
X17017849Y7112000D2*
X21082151D1*
Y8636000D1*
X17017849D1*
Y7112000D1*
X23429500Y8810080D2*
Y8969920D1*
X23448420Y8810080D2*
Y8969920D1*
Y8810080D2*
X23388580D1*
X23448420Y8969920D2*
X23388580D1*
X17972500Y10303420D2*
Y10143580D1*
X17953580Y10303420D2*
Y10143580D1*
Y10303420D2*
X18013420D1*
X17953580Y10143580D2*
X18013420D1*
X16747580Y9082500D2*
X16907420D1*
X16747580Y9063580D2*
X16907420D1*
X16747580D2*
Y9123420D1*
X16907420Y9063580D2*
Y9123420D1*
X19810000Y9064080D2*
Y9223920D1*
X19828920Y9064080D2*
Y9223920D1*
Y9064080D2*
X19769080D1*
X19828920Y9223920D2*
X19769080D1*
X17669420Y11555000D2*
X17509580D1*
X17669420Y11573920D2*
X17509580D1*
X17669420D2*
Y11514080D1*
X17509580Y11573920D2*
Y11514080D1*
X17211920Y11568000D2*
X17052080D1*
X17211920Y11586920D2*
X17052080D1*
X17211920D2*
Y11527080D1*
X17052080Y11586920D2*
Y11527080D1*
X20703000Y9223920D2*
Y9064080D1*
X20684080Y9223920D2*
Y9064080D1*
Y9223920D2*
X20743920D1*
X20684080Y9064080D2*
X20743920D1*
X22114420Y10920000D2*
X21954580D1*
X22114420Y10938920D2*
X21954580D1*
X22114420D2*
Y10879080D1*
X21954580Y10938920D2*
Y10879080D1*
X20240080Y10860500D2*
X20399920D1*
X20240080Y10841580D2*
X20399920D1*
X20240080D2*
Y10901420D1*
X20399920Y10841580D2*
Y10901420D1*
X22558920Y10920000D2*
X22399080D1*
X22558920Y10938920D2*
X22399080D1*
X22558920D2*
Y10879080D1*
X22399080Y10938920D2*
Y10879080D1*
X21432977Y9576102D2*
X21493023D1*
X21463000Y9546082D2*
Y9606060D1*
X21209000Y9906075D2*
X21209619Y9923786D1*
X21211472Y9941412D1*
X21214551Y9958866D1*
X21218840Y9976062D1*
X21224318Y9992917D1*
X21230959Y10009349D1*
X21238731Y10025278D1*
X21247596Y10040627D1*
X21257510Y10055319D1*
X21268425Y10069285D1*
X21280288Y10082456D1*
X21293041Y10094767D1*
X21306622Y10106159D1*
X21320965Y10116576D1*
X21336000Y10125967D1*
X21351654Y10134288D1*
X21367850Y10141496D1*
X21384510Y10147558D1*
X21401552Y10152443D1*
X21418893Y10156128D1*
X21436450Y10158594D1*
X21454136Y10159830D1*
X21471864D1*
X21489550Y10158594D1*
X21507107Y10156128D1*
X21524448Y10152443D1*
X21541490Y10147558D1*
X21558150Y10141496D1*
X21574346Y10134288D1*
X21590000Y10125967D1*
X21605035Y10116576D1*
X21619378Y10106159D1*
X21632959Y10094767D1*
X21645712Y10082456D1*
X21657575Y10069285D1*
X21668490Y10055319D1*
X21678404Y10040627D1*
X21687269Y10025278D1*
X21695041Y10009349D1*
X21701682Y9992917D1*
X21707160Y9976062D1*
X21711449Y9958866D1*
X21714528Y9941412D1*
X21716381Y9923786D1*
X21717000Y9906075D1*
X21716381Y9888363D1*
X21714528Y9870737D1*
X21711449Y9853284D1*
X21707160Y9836087D1*
X21701682Y9819232D1*
X21695041Y9802800D1*
X21687269Y9786871D1*
X21678404Y9771523D1*
X21668490Y9756830D1*
X21657575Y9742864D1*
X21645712Y9729694D1*
X21632959Y9717382D1*
X21619378Y9705990D1*
X21605035Y9695573D1*
X21590000Y9686182D1*
X21574346Y9677861D1*
X21558150Y9670653D1*
X21541490Y9664591D1*
X21524448Y9659706D1*
X21507107Y9656022D1*
X21489550Y9653555D1*
X21471864Y9652319D1*
X21454136D1*
X21436450Y9653555D1*
X21418893Y9656022D1*
X21401552Y9659706D1*
X21384510Y9664591D1*
X21367850Y9670653D1*
X21351654Y9677861D1*
X21336000Y9686182D1*
X21320965Y9695573D1*
X21306622Y9705990D1*
X21293041Y9717382D1*
X21280288Y9729694D1*
X21268425Y9742864D1*
X21257510Y9756830D1*
X21247596Y9771523D1*
X21238731Y9786871D1*
X21230959Y9802800D1*
X21224318Y9819232D1*
X21218840Y9836087D1*
X21214551Y9853284D1*
X21211472Y9870737D1*
X21209619Y9888363D1*
X21209000Y9906075D1*
X14414500Y7492888D2*
X14922500D1*
Y5715112D1*
X14414500D1*
Y7492888D1*
X4567800Y9410000D2*
Y9640000D1*
X5078200D1*
X4652596Y9410000D2*
Y9640000D1*
X5078200Y9410000D2*
Y9640000D1*
X4567800Y9410000D2*
X5078200D1*
X4250300Y6997000D2*
Y7227000D1*
X4760700D1*
X4335096Y6997000D2*
Y7227000D1*
X4760700Y6997000D2*
Y7227000D1*
X4250300Y6997000D2*
X4760700D1*
X4186800Y2234500D2*
Y2464500D1*
X4697200D1*
X4271596Y2234500D2*
Y2464500D1*
X4697200Y2234500D2*
Y2464500D1*
X4186800Y2234500D2*
X4697200D1*
X4250300Y4647500D2*
Y4877500D1*
X4760700D1*
X4335096Y4647500D2*
Y4877500D1*
X4760700Y4647500D2*
Y4877500D1*
X4250300Y4647500D2*
X4760700D1*
X837500Y503800D2*
X1067500D1*
Y1014200D1*
X837500Y588596D2*
X1067500D1*
X837500Y1014200D2*
X1067500D1*
X837500Y503800D2*
Y1014200D1*
X889000Y7493000D2*
X1397000D1*
Y6731000D1*
X889000D1*
Y7493000D1*
X3111500Y6350000D2*
X3619500D1*
Y5588000D1*
X3111500D1*
Y6350000D1*
X762000Y3175000D2*
X1270000D1*
Y2413000D1*
X762000D1*
Y3175000D1*
X17018000Y6794500D2*
X23622000D1*
Y190500D1*
X17018000D1*
Y6794500D1*
X18033695Y5905602D2*
X19176848D1*
Y1079398D1*
X18033695D1*
Y5905602D1*
X21463152D2*
X22606305D1*
Y1079398D1*
X21463152D1*
Y5905602D1*
X4191457Y2857500D2*
X4698543D1*
Y2603500D2*
Y2857500D1*
X4191457Y2603500D2*
X4698543D1*
X4191457D2*
Y2857500D1*
X4254957Y5270500D2*
X4762043D1*
Y5016500D2*
Y5270500D1*
X4254957Y5016500D2*
X4762043D1*
X4254957D2*
Y5270500D1*
X4572457Y9969500D2*
X5079543D1*
Y9715500D2*
Y9969500D1*
X4572457Y9715500D2*
X5079543D1*
X4572457D2*
Y9969500D1*
X4254957Y7683500D2*
X4762043D1*
Y7429500D2*
Y7683500D1*
X4254957Y7429500D2*
X4762043D1*
X4254957D2*
Y7683500D1*
X23478580Y8365080D2*
Y8424920D1*
X23638420Y8365080D2*
Y8424920D1*
X17954080Y9063580D2*
Y9123420D1*
X18113920Y9063580D2*
Y9123420D1*
X17192080Y9063580D2*
Y9123420D1*
X17351920Y9063580D2*
Y9123420D1*
X17586080Y9050580D2*
Y9110420D1*
X17745920Y9050580D2*
Y9110420D1*
X17224920Y10811920D2*
Y10752080D1*
X17065080Y10811920D2*
Y10752080D1*
X16620580Y8365080D2*
Y8424920D1*
X16780420Y8365080D2*
Y8424920D1*
X17509580Y10778080D2*
Y10837920D1*
X17669420Y10778080D2*
Y10837920D1*
X18144080Y11763920D2*
X18203920D1*
X18144080Y11604080D2*
X18203920D1*
X10477500Y4953113D2*
X9461500D1*
Y7238887D1*
X10477500D1*
Y4953113D1*
X9461500Y3365387D2*
X10477500D1*
Y1079613D1*
X9461500D1*
Y3365387D1*
X13017500Y1776050D2*
Y6478950D1*
X12001500D2*
X13017500D1*
X12001500Y1776050D2*
Y6478950D1*
Y1776050D2*
X13017500D1*
X14224000D2*
Y6478950D1*
X13208000D2*
X14224000D1*
X13208000Y1776050D2*
Y6478950D1*
Y1776050D2*
X14224000D1*
X1981200Y1891919D2*
X1828800D1*
X1981200Y2299081D2*
Y1891919D1*
Y2299081D2*
X1828800D1*
Y1891919D1*
X1917700Y4558919D2*
X1765300D1*
X1917700Y4966081D2*
Y4558919D1*
Y4966081D2*
X1765300D1*
Y4558919D1*
X1828800Y9411081D2*
X1981200D1*
X1828800Y9003919D2*
Y9411081D1*
Y9003919D2*
X1981200D1*
Y9411081D1*
Y7162419D2*
X1828800D1*
X1981200Y7569581D2*
Y7162419D1*
Y7569581D2*
X1828800D1*
Y7162419D1*
X17649005Y9728482D2*
X17148995D1*
X17649005Y9988518D2*
X17148995D1*
Y9728482D2*
Y9988518D1*
X17649005Y9808476D2*
Y9728482D1*
Y9908524D2*
Y9988518D1*
Y9808476D2*
G02X17649005Y9908524I23J50024D01*
G01*
X1901500Y2801000D2*
X3051500D1*
Y3401000D1*
X1901500D1*
Y2801000D1*
X1838000Y8008000D2*
X2988000D1*
Y8608000D1*
X1838000D1*
Y8008000D1*
X1774500Y5722000D2*
X2924500D1*
Y6322000D1*
X1774500D1*
Y5722000D1*
X15430540Y7937500D2*
X16446460D1*
Y5651500D1*
X15430540D1*
Y7937500D1*
X15684520Y6032576D2*
X16192480D1*
X16065490Y6159449D2*
X16192480Y6032576D1*
X16065490Y5905475D2*
X16192480Y6032576D1*
D67*
X20671356Y9511806D3*
X20673996Y9738501D2*
D10*
X20014028D1*
X20673996Y10018500D2*
X20014028D1*
Y9738501D2*
Y10018500D1*
X20673996Y9738501D2*
Y10018500D1*
X21935500Y10227000D2*
X22535500D1*
Y9077000D1*
X21935500D1*
Y10227000D1*
X2800011Y1532000D2*
Y2532000D1*
X2279989D2*
X2800011D1*
X2279989Y1532000D2*
Y2532000D1*
Y1532000D2*
X2479990D1*
X2800011D2*
X2600010D1*
X2479990D2*
G02X2600010Y1532000I60010J-10D01*
G01*
X2800011Y3945000D2*
Y4945000D1*
X2279989D2*
X2800011D1*
X2279989Y3945000D2*
Y4945000D1*
Y3945000D2*
X2479990D1*
X2800011D2*
X2600010D1*
X2479990D2*
G02X2600010Y3945000I60010J-10D01*
G01*
X2800011Y8771000D2*
Y9771000D1*
X2279989D2*
X2800011D1*
X2279989Y8771000D2*
Y9771000D1*
Y8771000D2*
X2479990D1*
X2800011D2*
X2600010D1*
X2479990D2*
G02X2600010Y8771000I60010J-10D01*
G01*
X2800011Y6548500D2*
Y7548500D1*
X2279989D2*
X2800011D1*
X2279989Y6548500D2*
Y7548500D1*
Y6548500D2*
X2479990D1*
X2800011D2*
X2600010D1*
X2479990D2*
G02X2600010Y6548500I60010J-10D01*
G01*
X1615530Y791000D2*
Y1241000D1*
X1935470D1*
Y791000D1*
X1935385D2*
X1815620D1*
X1615360D2*
X1735380D1*
X1735465Y793475D2*
G02X1815535Y793475I40035J4691D01*
G01*
X24185500Y9975511D2*
X23185500D1*
Y9455489D2*
Y9975511D1*
X24185500Y9455489D2*
X23185500D1*
X24185500D2*
Y9655490D1*
Y9975511D2*
Y9775510D1*
Y9655490D2*
G02X24185500Y9775510I10J60010D01*
G01*
X23820837Y8893590D2*
D164*
X23808764Y8899626D1*
X23796550Y8911840D1*
X23790514Y8923913D1*
Y8948199D1*
X23796550Y8960413D1*
X23808764Y8972486D1*
X23820837Y8978663D1*
X23839087Y8984699D1*
X23869550D1*
X23887660Y8978663D1*
X23899873Y8972486D1*
X23911946Y8960413D1*
X23918123Y8948199D1*
Y8923913D1*
X23911946Y8911840D1*
X23899873Y8899626D1*
X23887660Y8893590D1*
X23790654Y8781515D2*
Y8842161D1*
X23845264Y8848197D1*
X23839227Y8842161D1*
X23833050Y8823911D1*
Y8805801D1*
X23839227Y8787551D1*
X23851300Y8775338D1*
X23869550Y8769301D1*
X23881623D1*
X23899873Y8775338D1*
X23912087Y8787551D1*
X23918123Y8805801D1*
Y8823911D1*
X23912087Y8842161D1*
X23905910Y8848197D1*
X23893837Y8854374D1*
X23940001Y10850164D2*
X23946038Y10862237D1*
X23958251Y10874450D1*
X23970324Y10880487D1*
X23994611D1*
X24006824Y10874450D1*
X24018897Y10862237D1*
X24025074Y10850164D1*
X24031111Y10831914D1*
Y10801450D1*
X24025074Y10783340D1*
X24018897Y10771127D1*
X24006824Y10759054D1*
X23994611Y10752877D1*
X23970324D1*
X23958251Y10759054D1*
X23946038Y10771127D1*
X23940001Y10783340D1*
X23827926Y10862237D2*
X23833962Y10874310D1*
X23852212Y10880346D1*
X23864285D1*
X23882535Y10874310D1*
X23894749Y10856060D1*
X23900785Y10825737D1*
Y10795414D1*
X23894749Y10771127D1*
X23882535Y10758914D1*
X23864285Y10752877D1*
X23858249D1*
X23840139Y10758914D1*
X23827926Y10771127D1*
X23821889Y10789377D1*
Y10795414D1*
X23827926Y10813664D1*
X23840139Y10825737D1*
X23858249Y10831773D1*
X23864285D1*
X23882535Y10825737D1*
X23894749Y10813664D1*
X23900785Y10795414D1*
X3382090Y2644864D2*
X3388126Y2656937D1*
X3400340Y2669150D1*
X3412413Y2675187D1*
X3436699D1*
X3448913Y2669150D1*
X3460986Y2656937D1*
X3467163Y2644864D1*
X3473199Y2626614D1*
Y2596150D1*
X3467163Y2578040D1*
X3460986Y2565827D1*
X3448913Y2553754D1*
X3436699Y2547577D1*
X3412413D1*
X3400340Y2553754D1*
X3388126Y2565827D1*
X3382090Y2578040D1*
X3318587Y2547577D2*
X3257801Y2675046D1*
X3342874D1*
X3382019Y5121364D2*
X3388056Y5133437D1*
X3400269Y5145650D1*
X3412342Y5151687D1*
X3436629D1*
X3448842Y5145650D1*
X3460916Y5133437D1*
X3467092Y5121364D1*
X3473129Y5103114D1*
Y5072650D1*
X3467092Y5054540D1*
X3460916Y5042327D1*
X3448842Y5030254D1*
X3436629Y5024077D1*
X3412342D1*
X3400269Y5030254D1*
X3388056Y5042327D1*
X3382019Y5054540D1*
X3312481Y5151546D2*
X3330590Y5145510D1*
X3336767Y5133437D1*
Y5121223D1*
X3330590Y5109150D1*
X3318517Y5102973D1*
X3294231Y5096937D1*
X3275981Y5090900D1*
X3263908Y5078687D1*
X3257871Y5066614D1*
Y5048364D1*
X3263908Y5036290D1*
X3269944Y5030114D1*
X3288194Y5024077D1*
X3312481D1*
X3330590Y5030114D1*
X3336767Y5036290D1*
X3342804Y5048364D1*
Y5066614D1*
X3336767Y5078687D1*
X3324554Y5090900D1*
X3306444Y5096937D1*
X3282158Y5102973D1*
X3269944Y5109150D1*
X3263908Y5121223D1*
Y5133437D1*
X3269944Y5145510D1*
X3288194Y5151546D1*
X3312481D1*
X3379071Y10201364D2*
X3385108Y10213437D1*
X3397321Y10225650D1*
X3409394Y10231687D1*
X3433681D1*
X3445894Y10225650D1*
X3457967Y10213437D1*
X3464144Y10201364D1*
X3470181Y10183114D1*
Y10152650D1*
X3464144Y10134540D1*
X3457967Y10122327D1*
X3445894Y10110254D1*
X3433681Y10104077D1*
X3409394D1*
X3397321Y10110254D1*
X3385108Y10122327D1*
X3379071Y10134540D1*
X3260819Y10189150D2*
X3266996Y10170900D1*
X3279069Y10158687D1*
X3297319Y10152650D1*
X3303356D1*
X3321606Y10158687D1*
X3333679Y10170900D1*
X3339856Y10189150D1*
Y10195187D1*
X3333679Y10213437D1*
X3321606Y10225510D1*
X3303356Y10231546D1*
X3297319D1*
X3279069Y10225510D1*
X3266996Y10213437D1*
X3260819Y10189150D1*
Y10158687D1*
X3266996Y10128364D1*
X3279069Y10110114D1*
X3297319Y10104077D1*
X3309392D1*
X3327642Y10110114D1*
X3333679Y10122327D1*
X3120936Y7163429D2*
X3108863Y7169466D1*
X3096650Y7181679D1*
X3090613Y7193752D1*
Y7218039D1*
X3096650Y7230252D1*
X3108863Y7242325D1*
X3120936Y7248502D1*
X3139186Y7254539D1*
X3169650D1*
X3187759Y7248502D1*
X3199973Y7242325D1*
X3212046Y7230252D1*
X3218223Y7218039D1*
Y7193752D1*
X3212046Y7181679D1*
X3199973Y7169466D1*
X3187759Y7163429D1*
X3115040Y7124214D2*
X3108863Y7112000D1*
X3090754Y7093750D1*
X3218223D1*
X3090754Y7018035D2*
X3096790Y7036285D1*
X3115040Y7048498D1*
X3145363Y7054535D1*
X3163613D1*
X3193936Y7048498D1*
X3212186Y7036284D1*
X3218223Y7018034D1*
Y7005961D1*
X3212186Y6987712D1*
X3193936Y6975638D1*
X3163613Y6969462D1*
X3145363D1*
X3115040Y6975638D1*
X3096790Y6987712D1*
X3090754Y7005962D1*
Y7018035D1*
X3115040Y6975638D2*
X3193936Y7048498D1*
X1855091Y4156164D2*
X1861128Y4168237D1*
X1873341Y4180450D1*
X1885414Y4186487D1*
X1909701D1*
X1921914Y4180450D1*
X1933987Y4168237D1*
X1940164Y4156164D1*
X1946201Y4137914D1*
Y4107450D1*
X1940164Y4089340D1*
X1933987Y4077127D1*
X1921914Y4065054D1*
X1909701Y4058877D1*
X1885414D1*
X1873341Y4065054D1*
X1861128Y4077127D1*
X1855091Y4089340D1*
X1815875Y4162060D2*
X1803662Y4168237D1*
X1785412Y4186346D1*
Y4058877D1*
X1746196Y4162060D2*
X1733983Y4168237D1*
X1715733Y4186346D1*
Y4058877D1*
X1448429Y8770582D2*
X1454466Y8782655D1*
X1466679Y8794868D1*
X1478752Y8800905D1*
X1503039D1*
X1515252Y8794868D1*
X1527325Y8782655D1*
X1533502Y8770582D1*
X1539539Y8752332D1*
Y8721868D1*
X1533502Y8703759D1*
X1527325Y8691545D1*
X1515252Y8679472D1*
X1503039Y8673295D1*
X1478752D1*
X1466679Y8679472D1*
X1454466Y8691545D1*
X1448429Y8703759D1*
X1409213Y8776478D2*
X1397000Y8782655D1*
X1378750Y8800765D1*
Y8673295D1*
X1333357Y8770441D2*
Y8776478D1*
X1327321Y8788691D1*
X1321284Y8794728D1*
X1309071Y8800765D1*
X1284784D1*
X1272711Y8794728D1*
X1266675Y8788691D1*
X1260498Y8776478D1*
Y8764405D1*
X1266675Y8752191D1*
X1278748Y8734082D1*
X1339534Y8673295D1*
X1254461D1*
X2326896Y5743664D2*
X2332932Y5755737D1*
X2345146Y5767950D1*
X2357219Y5773987D1*
X2381505D1*
X2393719Y5767950D1*
X2405792Y5755737D1*
X2411969Y5743664D1*
X2418005Y5725414D1*
Y5694950D1*
X2411969Y5676840D1*
X2405792Y5664627D1*
X2393719Y5652554D1*
X2381505Y5646377D1*
X2357219D1*
X2345146Y5652554D1*
X2332932Y5664627D1*
X2326896Y5676840D1*
X2287680Y5749560D2*
X2275467Y5755737D1*
X2257217Y5773846D1*
Y5646377D1*
X2205788Y5773846D2*
X2139105D1*
X2175464Y5725273D1*
X2157214D1*
X2145141Y5719237D1*
X2139105Y5713200D1*
X2132928Y5694950D1*
Y5682877D1*
X2139105Y5664627D1*
X2151178Y5652414D1*
X2169428Y5646377D1*
X2187678D1*
X2205788Y5652414D1*
X2211824Y5658590D1*
X2218001Y5670664D1*
X19101429Y8791664D2*
X19107466Y8803737D1*
X19119679Y8815950D1*
X19131752Y8821987D1*
X19156039D1*
X19168252Y8815950D1*
X19180325Y8803737D1*
X19186502Y8791664D1*
X19192539Y8773414D1*
Y8742950D1*
X19186502Y8724840D1*
X19180325Y8712627D1*
X19168252Y8700554D1*
X19156039Y8694377D1*
X19131752D1*
X19119679Y8700554D1*
X19107466Y8712627D1*
X19101429Y8724840D1*
X19062213Y8797560D2*
X19050000Y8803737D1*
X19031750Y8821846D1*
Y8694377D1*
X18919675Y8821846D2*
X18980321D1*
X18986357Y8767237D1*
X18980321Y8773273D1*
X18962071Y8779450D1*
X18943961D1*
X18925711Y8773273D1*
X18913498Y8761200D1*
X18907461Y8742950D1*
Y8730877D1*
X18913498Y8712627D1*
X18925711Y8700414D1*
X18943961Y8694377D1*
X18962071D1*
X18980321Y8700414D1*
X18986357Y8706590D1*
X18992534Y8718664D1*
X23466841Y9135664D2*
X23472877Y9147737D1*
X23485091Y9159950D1*
X23497164Y9165987D1*
X23521450D1*
X23533664Y9159950D1*
X23545737Y9147737D1*
X23551914Y9135664D1*
X23557950Y9117414D1*
Y9086950D1*
X23551914Y9068840D1*
X23545737Y9056627D1*
X23533664Y9044554D1*
X23521450Y9038377D1*
X23497164D1*
X23485091Y9044554D1*
X23472877Y9056627D1*
X23466841Y9068840D1*
X23427625Y9141560D2*
X23415412Y9147737D1*
X23397162Y9165846D1*
Y9038377D1*
X23285086Y9147737D2*
X23291123Y9159810D1*
X23309373Y9165846D1*
X23321446D1*
X23339696Y9159810D1*
X23351909Y9141560D1*
X23357946Y9111237D1*
Y9080914D1*
X23351909Y9056627D1*
X23339696Y9044414D1*
X23321446Y9038377D1*
X23315409D1*
X23297300Y9044414D1*
X23285086Y9056627D1*
X23279050Y9074877D1*
Y9080914D1*
X23285086Y9099164D1*
X23297300Y9111237D1*
X23315409Y9117273D1*
X23321446D1*
X23339696Y9111237D1*
X23351909Y9099164D1*
X23357946Y9080914D1*
X18034929Y10469164D2*
X18040966Y10481237D1*
X18053179Y10493450D1*
X18065252Y10499487D1*
X18089539D1*
X18101752Y10493450D1*
X18113825Y10481237D1*
X18120002Y10469164D1*
X18126039Y10450914D1*
Y10420450D1*
X18120002Y10402340D1*
X18113825Y10390127D1*
X18101752Y10378054D1*
X18089539Y10371877D1*
X18065252D1*
X18053179Y10378054D1*
X18040966Y10390127D1*
X18034929Y10402340D1*
X17995713Y10475060D2*
X17983500Y10481237D1*
X17965250Y10499346D1*
Y10371877D1*
X17901748D2*
X17840961Y10499346D1*
X17926034D1*
X16581837Y9144859D2*
X16569764Y9150896D1*
X16557550Y9163109D1*
X16551514Y9175182D1*
Y9199469D1*
X16557550Y9211682D1*
X16569764Y9223755D1*
X16581837Y9229932D1*
X16600087Y9235969D1*
X16630550D1*
X16648660Y9229932D1*
X16660873Y9223755D1*
X16672946Y9211682D1*
X16679123Y9199469D1*
Y9175182D1*
X16672946Y9163109D1*
X16660873Y9150896D1*
X16648660Y9144859D1*
X16575940Y9105643D2*
X16569764Y9093430D1*
X16551654Y9075180D1*
X16679123D1*
X16551654Y9005641D2*
X16557690Y9023751D1*
X16569764Y9029928D1*
X16581977D1*
X16594050Y9023751D1*
X16600227Y9011678D1*
X16606263Y8987391D1*
X16612300Y8969141D1*
X16624513Y8957068D1*
X16636586Y8951032D1*
X16654836D1*
X16666910Y8957068D1*
X16673087Y8963105D1*
X16679123Y8981355D1*
Y9005641D1*
X16673087Y9023751D1*
X16666910Y9029928D1*
X16654837Y9035964D1*
X16636587D1*
X16624514Y9029928D1*
X16612300Y9017714D1*
X16606264Y8999605D1*
X16600227Y8975318D1*
X16594050Y8963105D1*
X16581977Y8957068D1*
X16569763D1*
X16557690Y8963105D1*
X16551654Y8981355D1*
Y9005641D1*
X19847411Y9389664D2*
X19853447Y9401737D1*
X19865661Y9413950D1*
X19877734Y9419987D1*
X19902020D1*
X19914234Y9413950D1*
X19926307Y9401737D1*
X19932484Y9389664D1*
X19938520Y9371414D1*
Y9340950D1*
X19932484Y9322840D1*
X19926307Y9310627D1*
X19914234Y9298554D1*
X19902020Y9292377D1*
X19877734D1*
X19865661Y9298554D1*
X19853447Y9310627D1*
X19847411Y9322840D1*
X19808195Y9395560D2*
X19795982Y9401737D1*
X19777732Y9419846D1*
Y9292377D1*
X19659480Y9377450D2*
X19665656Y9359200D1*
X19677730Y9346987D1*
X19695980Y9340950D1*
X19702016D1*
X19720266Y9346987D1*
X19732339Y9359200D1*
X19738516Y9377450D1*
Y9383487D1*
X19732339Y9401737D1*
X19720266Y9413810D1*
X19702016Y9419846D1*
X19695980D1*
X19677730Y9413810D1*
X19665656Y9401737D1*
X19659480Y9377450D1*
Y9346987D1*
X19665656Y9316664D1*
X19677730Y9298414D1*
X19695980Y9292377D1*
X19708053D1*
X19726303Y9298414D1*
X19732339Y9310627D1*
X17343837Y11622734D2*
X17331764Y11628771D1*
X17319550Y11640984D1*
X17313514Y11653057D1*
Y11677344D1*
X17319550Y11689557D1*
X17331764Y11701630D1*
X17343837Y11707807D1*
X17362087Y11713844D1*
X17392550D1*
X17410660Y11707807D1*
X17422873Y11701630D1*
X17434946Y11689557D1*
X17441123Y11677344D1*
Y11653057D1*
X17434946Y11640984D1*
X17422873Y11628771D1*
X17410660Y11622734D1*
X17343977Y11577341D2*
X17337940D1*
X17325727Y11571305D1*
X17319690Y11565268D1*
X17313654Y11553055D1*
Y11528768D1*
X17319690Y11516695D1*
X17325727Y11510659D1*
X17337940Y11504482D1*
X17350014D1*
X17362227Y11510659D1*
X17380337Y11522732D1*
X17441123Y11583518D1*
Y11498445D1*
X17313654Y11422730D2*
X17319690Y11440980D1*
X17337940Y11453193D1*
X17368264Y11459230D1*
X17386514D1*
X17416837Y11453193D1*
X17435087Y11440980D1*
X17441123Y11422730D1*
Y11410657D1*
X17435087Y11392407D1*
X17416836Y11380334D1*
X17386513Y11374157D1*
X17368263D1*
X17337940Y11380334D1*
X17319690Y11392407D1*
X17313654Y11410657D1*
Y11422730D1*
X17337940Y11380334D2*
X17416837Y11453193D1*
X16886337Y11608429D2*
X16874264Y11614466D1*
X16862050Y11626679D1*
X16856014Y11638752D1*
Y11663039D1*
X16862050Y11675252D1*
X16874264Y11687325D1*
X16886337Y11693502D1*
X16904587Y11699539D1*
X16935050D1*
X16953160Y11693502D1*
X16965373Y11687325D1*
X16977446Y11675252D1*
X16983623Y11663039D1*
Y11638752D1*
X16977446Y11626679D1*
X16965373Y11614466D1*
X16953160Y11608429D1*
X16886477Y11563037D2*
X16880440D1*
X16868227Y11557000D1*
X16862190Y11550964D1*
X16856154Y11538750D1*
Y11514464D1*
X16862190Y11502391D1*
X16868227Y11496354D1*
X16880440Y11490177D1*
X16892514D1*
X16904727Y11496354D1*
X16922837Y11508427D1*
X16983623Y11569213D1*
Y11484140D1*
X16880440Y11444925D2*
X16874263Y11432712D1*
X16856154Y11414462D1*
X16983623D1*
X20792734Y9389664D2*
X20798770Y9401737D1*
X20810984Y9413950D1*
X20823057Y9419987D1*
X20847344D1*
X20859557Y9413950D1*
X20871630Y9401737D1*
X20877807Y9389664D1*
X20883844Y9371414D1*
Y9340950D1*
X20877807Y9322840D1*
X20871630Y9310627D1*
X20859557Y9298554D1*
X20847344Y9292377D1*
X20823057D1*
X20810984Y9298554D1*
X20798770Y9310627D1*
X20792734Y9322840D1*
X20747341Y9389523D2*
Y9395560D1*
X20741305Y9407773D1*
X20735268Y9413810D1*
X20723055Y9419846D1*
X20698768D1*
X20686695Y9413810D1*
X20680659Y9407773D1*
X20674482Y9395560D1*
Y9383487D1*
X20680659Y9371273D1*
X20692732Y9353164D1*
X20753518Y9292377D1*
X20668445D1*
X20623053Y9389523D2*
Y9395560D1*
X20617016Y9407773D1*
X20610980Y9413810D1*
X20598766Y9419846D1*
X20574480D1*
X20562406Y9413810D1*
X20556370Y9407773D1*
X20550193Y9395560D1*
Y9383487D1*
X20556370Y9371273D1*
X20568443Y9353164D1*
X20629230Y9292377D1*
X20544156D1*
X21788837Y10987734D2*
X21776764Y10993771D1*
X21764550Y11005984D1*
X21758514Y11018057D1*
Y11042344D1*
X21764550Y11054557D1*
X21776764Y11066630D1*
X21788837Y11072807D1*
X21807087Y11078844D1*
X21837550D1*
X21855660Y11072807D1*
X21867873Y11066630D1*
X21879946Y11054557D1*
X21886123Y11042344D1*
Y11018057D1*
X21879946Y11005984D1*
X21867873Y10993771D1*
X21855660Y10987734D1*
X21788977Y10942341D2*
X21782940D1*
X21770727Y10936305D1*
X21764690Y10930268D1*
X21758654Y10918055D1*
Y10893768D1*
X21764690Y10881695D1*
X21770727Y10875659D1*
X21782940Y10869482D1*
X21795014D1*
X21807227Y10875659D1*
X21825337Y10887732D1*
X21886123Y10948518D1*
Y10863445D1*
X21758654Y10812016D2*
Y10745334D1*
X21807227Y10781693D1*
Y10763443D1*
X21813263Y10751370D1*
X21819300Y10745334D1*
X21837550Y10739157D1*
X21849623D1*
X21867873Y10745334D1*
X21880087Y10757407D1*
X21886123Y10775657D1*
Y10793907D1*
X21880087Y10812016D1*
X21873910Y10818053D1*
X21861837Y10824230D1*
X20074337Y10953252D2*
X20062264Y10959289D1*
X20050050Y10971502D1*
X20044014Y10983575D1*
Y11007862D1*
X20050050Y11020075D1*
X20062264Y11032148D1*
X20074337Y11038325D1*
X20092587Y11044362D1*
X20123050D1*
X20141160Y11038325D1*
X20153373Y11032148D1*
X20165446Y11020075D1*
X20171623Y11007862D1*
Y10983575D1*
X20165446Y10971502D1*
X20153373Y10959289D1*
X20141160Y10953252D1*
X20074477Y10907860D2*
X20068440D1*
X20056227Y10901823D1*
X20050190Y10895787D1*
X20044154Y10883573D1*
Y10859287D1*
X20050190Y10847214D1*
X20056227Y10841177D1*
X20068440Y10835000D1*
X20080514D1*
X20092727Y10841177D1*
X20110837Y10853250D1*
X20171623Y10914037D1*
Y10828964D1*
Y10728961D2*
X20044154Y10728962D1*
X20129087Y10789748D1*
X20129086Y10698638D1*
X22233337Y10987734D2*
X22221264Y10993771D1*
X22209050Y11005984D1*
X22203014Y11018057D1*
Y11042344D1*
X22209050Y11054557D1*
X22221264Y11066630D1*
X22233337Y11072807D1*
X22251587Y11078844D1*
X22282050D1*
X22300160Y11072807D1*
X22312373Y11066630D1*
X22324446Y11054557D1*
X22330623Y11042344D1*
Y11018057D1*
X22324446Y11005984D1*
X22312373Y10993771D1*
X22300160Y10987734D1*
X22233477Y10942341D2*
X22227440D1*
X22215227Y10936305D1*
X22209190Y10930268D1*
X22203154Y10918055D1*
Y10893768D1*
X22209190Y10881695D1*
X22215227Y10875659D1*
X22227440Y10869482D1*
X22239514D1*
X22251727Y10875659D1*
X22269837Y10887732D1*
X22330623Y10948518D1*
Y10863445D1*
X22203154Y10751370D2*
Y10812016D1*
X22257764Y10818053D1*
X22251727Y10812016D1*
X22245550Y10793766D1*
Y10775657D1*
X22251727Y10757407D1*
X22263800Y10745193D1*
X22282050Y10739157D1*
X22294123D1*
X22312373Y10745193D1*
X22324587Y10757407D1*
X22330623Y10775657D1*
Y10793766D1*
X22324587Y10812016D1*
X22318410Y10818053D1*
X22306337Y10824230D1*
X21541664Y10315649D2*
X21547700Y10327722D1*
X21559914Y10339935D1*
X21571987Y10345972D1*
X21596273D1*
X21608487Y10339935D1*
X21620560Y10327722D1*
X21626737Y10315649D1*
X21632773Y10297399D1*
Y10266935D1*
X21626737Y10248825D1*
X21620560Y10236612D1*
X21608487Y10224539D1*
X21596273Y10218362D1*
X21571987D1*
X21559914Y10224539D1*
X21547700Y10236612D1*
X21541664Y10248825D1*
X21496271Y10315508D2*
Y10321545D1*
X21490235Y10333758D1*
X21484198Y10339795D1*
X21471985Y10345831D1*
X21447698D1*
X21435625Y10339795D1*
X21429588Y10333758D1*
X21423412Y10321545D1*
Y10309472D1*
X21429588Y10297258D1*
X21441662Y10279149D1*
X21502448Y10218362D1*
X21417375D1*
X21347836Y10345831D2*
X21365946Y10339795D1*
X21372123Y10327722D1*
Y10315508D1*
X21365946Y10303435D1*
X21353873Y10297258D1*
X21329586Y10291222D1*
X21311336Y10285185D1*
X21299263Y10272972D1*
X21293227Y10260899D1*
Y10242649D1*
X21299263Y10230575D1*
X21305300Y10224399D1*
X21323550Y10218362D1*
X21347836D1*
X21365946Y10224399D1*
X21372123Y10230575D1*
X21378159Y10242649D1*
Y10260899D1*
X21372123Y10272972D1*
X21359909Y10285185D1*
X21341800Y10291222D1*
X21317513Y10297258D1*
X21305300Y10303435D1*
X21299263Y10315508D1*
Y10327722D1*
X21305300Y10339795D1*
X21323550Y10345831D1*
X21347836D1*
X14747234Y8202664D2*
X14753270Y8214737D1*
X14765484Y8226950D1*
X14777557Y8232987D1*
X14801844D1*
X14814057Y8226950D1*
X14826130Y8214737D1*
X14832307Y8202664D1*
X14838344Y8184414D1*
Y8153950D1*
X14832307Y8135840D1*
X14826130Y8123627D1*
X14814057Y8111554D1*
X14801844Y8105377D1*
X14777557D1*
X14765484Y8111554D1*
X14753270Y8123627D1*
X14747234Y8135840D1*
X14695805Y8232846D2*
X14629122D1*
X14665482Y8184273D1*
X14647232D1*
X14635159Y8178237D1*
X14629122Y8172200D1*
X14622945Y8153950D1*
Y8141877D1*
X14629122Y8123627D1*
X14641195Y8111414D1*
X14659445Y8105377D1*
X14677695D1*
X14695805Y8111414D1*
X14701841Y8117590D1*
X14708018Y8129664D1*
X14577553Y8202523D2*
Y8208560D1*
X14571516Y8220773D1*
X14565480Y8226810D1*
X14553266Y8232846D1*
X14528980D1*
X14516906Y8226810D1*
X14510870Y8220773D1*
X14504693Y8208560D1*
Y8196487D1*
X14510870Y8184273D1*
X14522943Y8166164D1*
X14583730Y8105377D1*
X14498656D1*
X4900376Y9825987D2*
Y9698377D1*
X4857840D1*
X4839590Y9704554D1*
X4827376Y9716627D1*
X4821340Y9728840D1*
X4815303Y9746950D1*
Y9777414D1*
X4821340Y9795664D1*
X4827376Y9807737D1*
X4839590Y9819950D1*
X4857840Y9825987D1*
X4900376D1*
X4776087Y9801560D2*
X4763874Y9807737D1*
X4745624Y9825846D1*
Y9698377D1*
X4610181Y7412987D2*
Y7285377D1*
X4567644D1*
X4549394Y7291554D1*
X4537181Y7303627D1*
X4531144Y7315840D1*
X4525108Y7333950D1*
Y7364414D1*
X4531144Y7382664D1*
X4537181Y7394737D1*
X4549394Y7406950D1*
X4567644Y7412987D1*
X4610181D1*
X4479715Y7382523D2*
Y7388560D1*
X4473679Y7400773D1*
X4467642Y7406810D1*
X4455429Y7412846D1*
X4431142D1*
X4419069Y7406810D1*
X4413033Y7400773D1*
X4406856Y7388560D1*
Y7376487D1*
X4413033Y7364273D1*
X4425106Y7346164D1*
X4485892Y7285377D1*
X4400819D1*
X4546681Y2650487D2*
Y2522877D1*
X4504144D1*
X4485894Y2529054D1*
X4473681Y2541127D1*
X4467644Y2553340D1*
X4461608Y2571450D1*
Y2601914D1*
X4467644Y2620164D1*
X4473681Y2632237D1*
X4485894Y2644450D1*
X4504144Y2650487D1*
X4546681D1*
X4410179Y2650346D2*
X4343496D1*
X4379856Y2601773D1*
X4361606D1*
X4349533Y2595737D1*
X4343496Y2589700D1*
X4337319Y2571450D1*
Y2559377D1*
X4343496Y2541127D1*
X4355569Y2528914D1*
X4373819Y2522877D1*
X4392069D1*
X4410179Y2528914D1*
X4416215Y2535090D1*
X4422392Y2547164D1*
X4613199Y5063487D2*
Y4935877D1*
X4570663D1*
X4552413Y4942054D1*
X4540199Y4954127D1*
X4534163Y4966340D1*
X4528126Y4984450D1*
Y5014914D1*
X4534163Y5033164D1*
X4540199Y5045237D1*
X4552413Y5057450D1*
X4570663Y5063487D1*
X4613199D1*
X4428124Y4935877D2*
Y5063346D1*
X4488910Y4978414D1*
X4397801D1*
X651514Y863611D2*
X779123D1*
Y821074D1*
X772946Y802824D1*
X760873Y790611D1*
X748660Y784574D1*
X730550Y778538D1*
X700087D1*
X681837Y784574D1*
X669764Y790611D1*
X657550Y802824D1*
X651514Y821074D1*
Y863611D1*
X651654Y708999D2*
X657690Y727109D1*
X669764Y733286D1*
X681977D1*
X694050Y727109D1*
X700227Y715036D1*
X706263Y690749D1*
X712300Y672499D1*
X724513Y660426D1*
X736586Y654390D1*
X754836D1*
X766910Y660426D1*
X773087Y666463D1*
X779123Y684713D1*
Y708999D1*
X773087Y727109D1*
X766910Y733286D1*
X754837Y739322D1*
X736587D1*
X724514Y733286D1*
X712300Y721072D1*
X706264Y702963D1*
X700227Y678676D1*
X694050Y666463D1*
X681977Y660426D1*
X669763D1*
X657690Y666463D1*
X651654Y684713D1*
Y708999D1*
X1174751Y7678987D2*
Y7581840D1*
X1180788Y7563590D1*
X1186965Y7557554D1*
X1199038Y7551377D1*
X1211251D1*
X1223324Y7557554D1*
X1229361Y7563590D1*
X1235538Y7581840D1*
Y7593914D1*
X1129359Y7648523D2*
Y7654560D1*
X1123322Y7666773D1*
X1117285Y7672810D1*
X1105072Y7678846D1*
X1080785D1*
X1068712Y7672810D1*
X1062676Y7666773D1*
X1056499Y7654560D1*
Y7642487D1*
X1062676Y7630273D1*
X1074749Y7612164D1*
X1135535Y7551377D1*
X1050462D1*
X3397251Y6535987D2*
Y6438840D1*
X3403288Y6420590D1*
X3409465Y6414554D1*
X3421538Y6408377D1*
X3433751D1*
X3445824Y6414554D1*
X3451861Y6420590D1*
X3458038Y6438840D1*
Y6450914D1*
X3345822Y6535846D2*
X3279139D1*
X3315499Y6487273D1*
X3297249D1*
X3285176Y6481237D1*
X3279139Y6475200D1*
X3272962Y6456950D1*
Y6444877D1*
X3279139Y6426627D1*
X3291212Y6414414D1*
X3309462Y6408377D1*
X3327712D1*
X3345822Y6414414D1*
X3351859Y6420590D1*
X3358035Y6432664D1*
X1047751Y3360987D2*
Y3263840D1*
X1053788Y3245590D1*
X1059965Y3239554D1*
X1072038Y3233377D1*
X1084251D1*
X1096324Y3239554D1*
X1102361Y3245590D1*
X1108538Y3263840D1*
Y3275914D1*
X984249Y3233377D2*
X923462Y3360846D1*
X1008535D1*
X20418574Y6980487D2*
Y6852877D1*
X20345715D1*
X20300322Y6950023D2*
Y6956060D1*
X20294285Y6968273D1*
X20288249Y6974310D1*
X20276035Y6980346D1*
X20251749D1*
X20239676Y6974310D1*
X20233639Y6968273D1*
X20227462Y6956060D1*
Y6943987D1*
X20233639Y6931773D1*
X20245712Y6913664D1*
X20306499Y6852877D1*
X20221426D1*
X4549681Y2982700D2*
X4495071D1*
X4476821Y2988877D1*
X4470644Y2994914D1*
X4464608Y3006987D1*
Y3019200D1*
X4470644Y3031273D1*
X4476821Y3037450D1*
X4495071Y3043487D1*
X4549681D1*
Y2915877D1*
X4507144Y2982700D2*
X4464608Y2915877D1*
X4413179Y3043346D2*
X4346496D1*
X4382856Y2994773D1*
X4364606D1*
X4352533Y2988737D1*
X4346496Y2982700D1*
X4340319Y2964450D1*
Y2952377D1*
X4346496Y2934127D1*
X4358569Y2921914D1*
X4376819Y2915877D1*
X4395069D1*
X4413179Y2921914D1*
X4419215Y2928090D1*
X4425392Y2940164D1*
X4616199Y5395700D2*
X4561590D1*
X4543340Y5401877D1*
X4537163Y5407914D1*
X4531126Y5419987D1*
Y5432200D1*
X4537163Y5444273D1*
X4543340Y5450450D1*
X4561590Y5456487D1*
X4616199D1*
Y5328877D1*
X4573663Y5395700D2*
X4531126Y5328877D1*
X4431124D2*
Y5456346D1*
X4491910Y5371414D1*
X4400801D1*
X4930681Y10094700D2*
X4876071D1*
X4857821Y10100877D1*
X4851644Y10106914D1*
X4845608Y10118987D1*
Y10131200D1*
X4851644Y10143273D1*
X4857821Y10149450D1*
X4876071Y10155487D1*
X4930681D1*
Y10027877D1*
X4888144Y10094700D2*
X4845608Y10027877D1*
X4733533Y10155346D2*
X4794179D1*
X4800215Y10100737D1*
X4794179Y10106773D1*
X4775929Y10112950D1*
X4757819D1*
X4739569Y10106773D1*
X4727356Y10094700D1*
X4721319Y10076450D1*
Y10064377D1*
X4727356Y10046127D1*
X4739569Y10033914D1*
X4757819Y10027877D1*
X4775929D1*
X4794179Y10033914D1*
X4800215Y10040090D1*
X4806392Y10052164D1*
X4610092Y7808700D2*
X4555483D1*
X4537233Y7814877D1*
X4531056Y7820914D1*
X4525019Y7832987D1*
Y7845200D1*
X4531056Y7857273D1*
X4537233Y7863450D1*
X4555483Y7869487D1*
X4610092D1*
Y7741877D1*
X4567556Y7808700D2*
X4525019Y7741877D1*
X4412944Y7851237D2*
X4418981Y7863310D1*
X4437231Y7869346D1*
X4449304D1*
X4467554Y7863310D1*
X4479767Y7845060D1*
X4485804Y7814737D1*
Y7784414D1*
X4479767Y7760127D1*
X4467554Y7747914D1*
X4449304Y7741877D1*
X4443267D1*
X4425158Y7747914D1*
X4412944Y7760127D1*
X4406908Y7778377D1*
Y7784414D1*
X4412944Y7802664D1*
X4425158Y7814737D1*
X4443267Y7820773D1*
X4449304D1*
X4467554Y7814737D1*
X4479767Y7802664D1*
X4485804Y7784414D1*
X23343300Y8534521D2*
Y8479911D1*
X23337123Y8461661D1*
X23331087Y8455484D1*
X23319014Y8449448D1*
X23306800D1*
X23294727Y8455484D1*
X23288550Y8461661D1*
X23282514Y8479911D1*
Y8534521D1*
X23410123D1*
X23343300Y8491984D2*
X23410123Y8449447D1*
X23306940Y8410232D2*
X23300764Y8398018D1*
X23282654Y8379768D1*
X23410123D1*
X23282654Y8304053D2*
X23288690Y8322303D1*
X23306940Y8334516D1*
X23337264Y8340553D1*
X23355514D1*
X23385837Y8334516D1*
X23404087Y8322303D1*
X23410123Y8304053D1*
Y8291980D1*
X23404087Y8273730D1*
X23385836Y8261657D1*
X23355513Y8255480D1*
X23337263D1*
X23306940Y8261657D1*
X23288690Y8273730D1*
X23282654Y8291980D1*
Y8304053D1*
X23306940Y8261657D2*
X23385837Y8334516D1*
X17818800Y9205716D2*
Y9151106D1*
X17812623Y9132856D1*
X17806587Y9126679D1*
X17794514Y9120643D1*
X17782300D1*
X17770227Y9126679D1*
X17764050Y9132856D1*
X17758014Y9151106D1*
Y9205716D1*
X17885623D1*
X17818800Y9163179D2*
X17885623Y9120643D1*
X17782440Y9081427D2*
X17776264Y9069214D1*
X17758154Y9050964D1*
X17885623D1*
X17782440Y9011748D2*
X17776263Y8999535D1*
X17758154Y8981285D1*
X17885623D1*
X17056800Y9233021D2*
Y9178411D1*
X17050623Y9160161D1*
X17044587Y9153984D1*
X17032514Y9147948D1*
X17020300D1*
X17008227Y9153984D1*
X17002050Y9160161D1*
X16996014Y9178411D1*
Y9233021D1*
X17123623D1*
X17056800Y9190484D2*
X17123623Y9147947D1*
X17020440Y9108732D2*
X17014264Y9096518D1*
X16996154Y9078268D1*
X17123623D1*
X17026477Y9032876D2*
X17020440D1*
X17008227Y9026839D1*
X17002190Y9020803D1*
X16996154Y9008589D1*
Y8984303D1*
X17002190Y8972230D1*
X17008227Y8966193D1*
X17020440Y8960016D1*
X17032513D1*
X17044727Y8966193D1*
X17062837Y8978266D1*
X17123623Y9039053D1*
Y8953980D1*
X17450800Y9220021D2*
Y9165411D1*
X17444623Y9147161D1*
X17438587Y9140984D1*
X17426514Y9134948D1*
X17414300D1*
X17402227Y9140984D1*
X17396050Y9147161D1*
X17390014Y9165411D1*
Y9220021D1*
X17517623D1*
X17450800Y9177484D2*
X17517623Y9134947D1*
X17414440Y9095732D2*
X17408264Y9083518D1*
X17390154Y9065268D1*
X17517623D1*
X17390154Y9013839D2*
Y8947157D1*
X17438727Y8983516D1*
Y8965266D1*
X17444763Y8953193D1*
X17450800Y8947157D1*
X17469050Y8940980D1*
X17481123D1*
X17499373Y8947157D1*
X17511587Y8959230D1*
X17517623Y8977480D1*
Y8995730D1*
X17511587Y9013839D1*
X17505410Y9019876D1*
X17493337Y9026053D1*
X16929800Y10924539D2*
Y10869929D1*
X16923623Y10851679D1*
X16917587Y10845502D1*
X16905514Y10839466D1*
X16893300D1*
X16881227Y10845502D1*
X16875050Y10851679D1*
X16869014Y10869929D1*
Y10924539D1*
X16996623D1*
X16929800Y10882002D2*
X16996623Y10839466D1*
X16893440Y10800250D2*
X16887264Y10788037D1*
X16869154Y10769787D1*
X16996623D1*
Y10669785D2*
X16869154D1*
X16954087Y10730571D1*
X16954086Y10639462D1*
X16485300Y8534450D2*
Y8479841D1*
X16479123Y8461591D1*
X16473087Y8455414D1*
X16461014Y8449377D1*
X16448800D1*
X16436727Y8455414D1*
X16430550Y8461591D1*
X16424514Y8479841D1*
Y8534450D1*
X16552123D1*
X16485300Y8491914D2*
X16552123Y8449377D1*
X16448940Y8410162D2*
X16442764Y8397948D1*
X16424654Y8379698D1*
X16552123D1*
X16424654Y8310160D2*
X16430690Y8328269D1*
X16442764Y8334446D1*
X16454977D1*
X16467050Y8328269D1*
X16473227Y8316196D1*
X16479263Y8291910D1*
X16485300Y8273660D1*
X16497513Y8261587D1*
X16509586Y8255550D1*
X16527836D1*
X16539910Y8261587D1*
X16546087Y8267623D1*
X16552123Y8285873D1*
Y8310159D1*
X16546087Y8328269D1*
X16539910Y8334446D1*
X16527837Y8340483D1*
X16509587D1*
X16497514Y8334446D1*
X16485300Y8322233D1*
X16479264Y8304123D1*
X16473227Y8279837D1*
X16467050Y8267623D1*
X16454977Y8261587D1*
X16442763D1*
X16430690Y8267623D1*
X16424654Y8285873D1*
Y8310160D1*
X17374300Y10944502D2*
Y10889893D1*
X17368123Y10871643D1*
X17362087Y10865466D1*
X17350014Y10859429D1*
X17337800D1*
X17325727Y10865466D1*
X17319550Y10871643D1*
X17313514Y10889893D1*
Y10944502D1*
X17441123D1*
X17374300Y10901966D2*
X17441123Y10859429D1*
X17337940Y10820214D2*
X17331764Y10808000D1*
X17313654Y10789750D1*
X17441123D1*
X17356050Y10671498D2*
X17374300Y10677675D1*
X17386513Y10689748D1*
X17392550Y10707998D1*
Y10714035D1*
X17386514Y10732285D1*
X17374300Y10744358D1*
X17356050Y10750535D1*
X17350014D1*
X17331764Y10744358D1*
X17319690Y10732285D1*
X17313654Y10714035D1*
Y10707998D1*
X17319690Y10689748D1*
X17331763Y10677675D1*
X17356050Y10671498D1*
X17386513D1*
X17416836Y10677675D1*
X17435087Y10689748D1*
X17441123Y10707998D1*
Y10720071D1*
X17435087Y10738321D1*
X17422873Y10744358D1*
X18340825Y11899200D2*
X18286216D1*
X18267966Y11905377D1*
X18261789Y11911414D1*
X18255752Y11923487D1*
Y11935700D1*
X18261789Y11947773D1*
X18267966Y11953950D1*
X18286216Y11959987D1*
X18340825D1*
Y11832377D1*
X18298289Y11899200D2*
X18255752Y11832377D1*
X18210360Y11929523D2*
Y11935560D1*
X18204323Y11947773D1*
X18198287Y11953810D1*
X18186073Y11959846D1*
X18161787D1*
X18149713Y11953810D1*
X18143677Y11947773D1*
X18137500Y11935560D1*
Y11923487D1*
X18143677Y11911273D1*
X18155750Y11893164D1*
X18216537Y11832377D1*
X18131463D1*
X18055748Y11959846D2*
X18073998Y11953810D1*
X18086211Y11935560D1*
X18092248Y11905237D1*
Y11886987D1*
X18086211Y11856664D1*
X18073998Y11838414D1*
X18055748Y11832377D1*
X18043675D1*
X18025425Y11838414D1*
X18013352Y11856664D1*
X18007175Y11886987D1*
Y11905237D1*
X18013352Y11935560D1*
X18025425Y11953810D1*
X18043675Y11959846D1*
X18055748D1*
X18013352Y11935560D2*
X18086211Y11856664D1*
X10109020Y7968200D2*
X10054411D1*
X10036161Y7974377D1*
X10029984Y7980414D1*
X10023947Y7992487D1*
Y8004700D1*
X10029984Y8016773D1*
X10036161Y8022950D1*
X10054411Y8028987D1*
X10109020D1*
Y7901377D1*
X10066484Y7968200D2*
X10023947Y7901377D1*
X9978555Y7998523D2*
Y8004560D1*
X9972518Y8016773D1*
X9966482Y8022810D1*
X9954268Y8028846D1*
X9929982D1*
X9917909Y8022810D1*
X9911872Y8016773D1*
X9905695Y8004560D1*
Y7992487D1*
X9911872Y7980273D1*
X9923945Y7962164D1*
X9984732Y7901377D1*
X9899659D1*
X9860443Y8004560D2*
X9848230Y8010737D1*
X9829980Y8028846D1*
Y7901377D1*
X10136325Y4094700D2*
X10081716D1*
X10063466Y4100877D1*
X10057289Y4106914D1*
X10051252Y4118987D1*
Y4131200D1*
X10057289Y4143273D1*
X10063466Y4149450D1*
X10081716Y4155487D1*
X10136325D1*
Y4027877D1*
X10093789Y4094700D2*
X10051252Y4027877D1*
X10005860Y4125023D2*
Y4131060D1*
X9999823Y4143273D1*
X9993787Y4149310D1*
X9981573Y4155346D1*
X9957287D1*
X9945213Y4149310D1*
X9939177Y4143273D1*
X9933000Y4131060D1*
Y4118987D1*
X9939177Y4106773D1*
X9951250Y4088664D1*
X10012037Y4027877D1*
X9926963D1*
X9881571Y4125023D2*
Y4131060D1*
X9875534Y4143273D1*
X9869498Y4149310D1*
X9857284Y4155346D1*
X9832998D1*
X9820925Y4149310D1*
X9814888Y4143273D1*
X9808711Y4131060D1*
Y4118987D1*
X9814888Y4106773D1*
X9826961Y4088664D1*
X9887748Y4027877D1*
X9802675D1*
X12676325Y7269700D2*
X12621716D1*
X12603466Y7275877D1*
X12597289Y7281914D1*
X12591252Y7293987D1*
Y7306200D1*
X12597289Y7318273D1*
X12603466Y7324450D1*
X12621716Y7330487D1*
X12676325D1*
Y7202877D1*
X12633789Y7269700D2*
X12591252Y7202877D1*
X12545860Y7300023D2*
Y7306060D1*
X12539823Y7318273D1*
X12533787Y7324310D1*
X12521573Y7330346D1*
X12497287D1*
X12485213Y7324310D1*
X12479177Y7318273D1*
X12473000Y7306060D1*
Y7293987D1*
X12479177Y7281773D1*
X12491250Y7263664D1*
X12552037Y7202877D1*
X12466963D1*
X12415534Y7330346D2*
X12348852D1*
X12385211Y7281773D1*
X12366961D1*
X12354888Y7275737D1*
X12348852Y7269700D1*
X12342675Y7251450D1*
Y7239377D1*
X12348852Y7221127D1*
X12360925Y7208914D1*
X12379175Y7202877D1*
X12397425D1*
X12415534Y7208914D1*
X12421571Y7215090D1*
X12427748Y7227164D1*
X13885844Y7269700D2*
X13831234D1*
X13812984Y7275877D1*
X13806807Y7281914D1*
X13800770Y7293987D1*
Y7306200D1*
X13806807Y7318273D1*
X13812984Y7324450D1*
X13831234Y7330487D1*
X13885844D1*
Y7202877D1*
X13843307Y7269700D2*
X13800770Y7202877D1*
X13755378Y7300023D2*
Y7306060D1*
X13749341Y7318273D1*
X13743305Y7324310D1*
X13731091Y7330346D1*
X13706805D1*
X13694732Y7324310D1*
X13688695Y7318273D1*
X13682518Y7306060D1*
Y7293987D1*
X13688695Y7281773D1*
X13700768Y7263664D1*
X13761555Y7202877D1*
X13676482D1*
X13576480D2*
Y7330346D1*
X13637266Y7245414D1*
X13546156D1*
X1703600Y2262325D2*
Y2207716D1*
X1697423Y2189466D1*
X1691387Y2183289D1*
X1679314Y2177252D1*
X1667100D1*
X1655027Y2183289D1*
X1648850Y2189466D1*
X1642814Y2207716D1*
Y2262325D1*
X1770423D1*
X1703600Y2219789D2*
X1770423Y2177252D1*
X1642954Y2125823D2*
Y2059141D1*
X1691527Y2095500D1*
Y2077250D1*
X1697564Y2065177D1*
X1703600Y2059141D1*
X1721850Y2052964D1*
X1733923D1*
X1752173Y2059140D1*
X1764387Y2071214D1*
X1770423Y2089463D1*
Y2107713D1*
X1764387Y2125823D1*
X1758210Y2131860D1*
X1746137Y2138037D1*
X1642954Y1940888D2*
Y2001535D1*
X1697564Y2007571D1*
X1691527Y2001535D1*
X1685350Y1983285D1*
Y1965175D1*
X1691527Y1946925D1*
X1703600Y1934712D1*
X1721850Y1928675D1*
X1733923D1*
X1752173Y1934712D1*
X1764387Y1946925D1*
X1770423Y1965175D1*
Y1983284D1*
X1764387Y2001534D1*
X1758210Y2007571D1*
X1746137Y2013748D1*
X1640100Y4926237D2*
Y4871627D1*
X1633923Y4853377D1*
X1627887Y4847200D1*
X1615814Y4841164D1*
X1603600D1*
X1591527Y4847200D1*
X1585350Y4853377D1*
X1579314Y4871627D1*
Y4926237D1*
X1706923D1*
X1640100Y4883700D2*
X1706923Y4841164D1*
X1579454Y4789735D2*
Y4723052D1*
X1628027Y4759412D1*
Y4741162D1*
X1634064Y4729089D1*
X1640100Y4723052D1*
X1658350Y4716875D1*
X1670423D1*
X1688673Y4723052D1*
X1700887Y4735125D1*
X1706923Y4753375D1*
Y4771625D1*
X1700887Y4789735D1*
X1694710Y4795771D1*
X1682637Y4801948D1*
X1597563Y4604800D2*
X1585490Y4610837D1*
X1579454Y4629087D1*
Y4641160D1*
X1585490Y4659410D1*
X1603740Y4671623D1*
X1634064Y4677660D1*
X1664387D1*
X1688673Y4671623D1*
X1700887Y4659409D1*
X1706923Y4641160D1*
Y4635123D1*
X1700887Y4617013D1*
X1688673Y4604800D1*
X1670423Y4598763D1*
X1664386D1*
X1646136Y4604800D1*
X1634063Y4617013D1*
X1628027Y4635123D1*
Y4641160D1*
X1634064Y4659410D1*
X1646137Y4671623D1*
X1664387Y4677660D1*
X1703600Y9374325D2*
Y9319716D1*
X1697423Y9301466D1*
X1691387Y9295289D1*
X1679314Y9289252D1*
X1667100D1*
X1655027Y9295289D1*
X1648850Y9301466D1*
X1642814Y9319716D1*
Y9374325D1*
X1770423D1*
X1703600Y9331789D2*
X1770423Y9289252D1*
X1642954Y9237823D2*
Y9171141D1*
X1691527Y9207500D1*
Y9189250D1*
X1697564Y9177177D1*
X1703600Y9171141D1*
X1721850Y9164964D1*
X1733923D1*
X1752173Y9171140D1*
X1764387Y9183214D1*
X1770423Y9201463D1*
Y9219713D1*
X1764387Y9237823D1*
X1758210Y9243860D1*
X1746137Y9250037D1*
X1770423Y9101461D2*
X1642954Y9040675D1*
Y9125748D1*
X1703600Y7532755D2*
Y7478146D1*
X1697423Y7459896D1*
X1691387Y7453719D1*
X1679314Y7447682D1*
X1667100D1*
X1655027Y7453719D1*
X1648850Y7459896D1*
X1642814Y7478146D1*
Y7532755D1*
X1770423D1*
X1703600Y7490219D2*
X1770423Y7447682D1*
X1642954Y7396253D2*
Y7329570D1*
X1691527Y7365930D1*
Y7347680D1*
X1697564Y7335607D1*
X1703600Y7329570D1*
X1721850Y7323393D1*
X1733923D1*
X1752173Y7329570D1*
X1764387Y7341643D1*
X1770423Y7359893D1*
Y7378143D1*
X1764387Y7396253D1*
X1758210Y7402289D1*
X1746137Y7408466D1*
X1642954Y7253855D2*
X1648990Y7271964D1*
X1661064Y7278141D1*
X1673277D1*
X1685350Y7271964D1*
X1691527Y7259891D1*
X1697563Y7235605D1*
X1703600Y7217355D1*
X1715813Y7205282D1*
X1727886Y7199245D1*
X1746136D1*
X1758210Y7205282D1*
X1764387Y7211318D1*
X1770423Y7229568D1*
Y7253855D1*
X1764387Y7271964D1*
X1758210Y7278141D1*
X1746137Y7284178D1*
X1727887D1*
X1715814Y7278141D1*
X1703600Y7265928D1*
X1697564Y7247818D1*
X1691527Y7223532D1*
X1685350Y7211318D1*
X1673277Y7205282D1*
X1661063D1*
X1648990Y7211318D1*
X1642954Y7229568D1*
Y7253855D1*
X17476376Y10414487D2*
Y10323377D1*
X17470340Y10305127D1*
X17458126Y10293054D1*
X17439876Y10286877D1*
X17427803D1*
X17409553Y10293054D1*
X17397340Y10305127D1*
X17391303Y10323377D1*
Y10414487D1*
X17352087Y10390060D2*
X17339874Y10396237D1*
X17321624Y10414346D1*
Y10286877D1*
X2581181Y3586987D2*
Y3495877D1*
X2575144Y3477627D1*
X2562931Y3465554D1*
X2544681Y3459377D1*
X2532608D1*
X2514358Y3465554D1*
X2502144Y3477627D1*
X2496108Y3495877D1*
Y3586987D1*
X2450715Y3556523D2*
Y3562560D1*
X2444679Y3574773D1*
X2438642Y3580810D1*
X2426429Y3586846D1*
X2402142D1*
X2390069Y3580810D1*
X2384033Y3574773D1*
X2377856Y3562560D1*
Y3550487D1*
X2384033Y3538273D1*
X2396106Y3520164D1*
X2456892Y3459377D1*
X2371819D1*
X2517681Y8793987D2*
Y8702877D1*
X2511644Y8684627D1*
X2499431Y8672554D1*
X2481181Y8666377D1*
X2469108D1*
X2450858Y8672554D1*
X2438644Y8684627D1*
X2432608Y8702877D1*
Y8793987D1*
X2381179Y8793846D2*
X2314496D1*
X2350856Y8745273D1*
X2332606D1*
X2320533Y8739237D1*
X2314496Y8733200D1*
X2308319Y8714950D1*
Y8702877D1*
X2314496Y8684627D1*
X2326569Y8672414D1*
X2344819Y8666377D1*
X2363069D1*
X2381179Y8672414D1*
X2387215Y8678590D1*
X2393392Y8690664D1*
X2457199Y6507987D2*
Y6416877D1*
X2451163Y6398627D1*
X2438949Y6386554D1*
X2420699Y6380377D1*
X2408626D1*
X2390376Y6386554D1*
X2378163Y6398627D1*
X2372126Y6416877D1*
Y6507987D1*
X2272124Y6380377D2*
Y6507846D1*
X2332910Y6422914D1*
X2241801D1*
X16043181Y8123487D2*
Y8032377D1*
X16037144Y8014127D1*
X16024931Y8002054D1*
X16006681Y7995877D1*
X15994608D1*
X15976358Y8002054D1*
X15964144Y8014127D1*
X15958108Y8032377D1*
Y8123487D1*
X15846033Y8123346D2*
X15906679D1*
X15912715Y8068737D1*
X15906679Y8074773D1*
X15888429Y8080950D1*
X15870319D1*
X15852069Y8074773D1*
X15839856Y8062700D1*
X15833819Y8044450D1*
Y8032377D1*
X15839856Y8014127D1*
X15852069Y8001914D1*
X15870319Y7995877D1*
X15888429D1*
X15906679Y8001914D1*
X15912715Y8008090D1*
X15918892Y8020164D1*
X20457084Y10461987D2*
Y10370877D1*
X20451048Y10352627D1*
X20438834Y10340554D1*
X20420584Y10334377D1*
X20408511D1*
X20390261Y10340554D1*
X20378048Y10352627D1*
X20372011Y10370877D1*
Y10461987D1*
X20302472Y10461846D2*
X20320582Y10455810D1*
X20326759Y10443737D1*
Y10431523D1*
X20320582Y10419450D1*
X20308509Y10413273D1*
X20284222Y10407237D1*
X20265972Y10401200D1*
X20253899Y10388987D1*
X20247863Y10376914D1*
Y10358664D1*
X20253899Y10346590D1*
X20259936Y10340414D1*
X20278186Y10334377D1*
X20302472D1*
X20320582Y10340414D1*
X20326759Y10346590D1*
X20332795Y10358664D1*
Y10376914D1*
X20326759Y10388987D1*
X20314545Y10401200D1*
X20296436Y10407237D1*
X20272149Y10413273D1*
X20259936Y10419450D1*
X20253899Y10431523D1*
Y10443737D1*
X20259936Y10455810D1*
X20278186Y10461846D1*
X20302472D1*
X22375020Y10412987D2*
Y10321877D1*
X22368984Y10303627D1*
X22356770Y10291554D1*
X22338520Y10285377D1*
X22326447D1*
X22308197Y10291554D1*
X22295984Y10303627D1*
X22289947Y10321877D1*
Y10412987D1*
X22250732Y10388560D2*
X22238518Y10394737D1*
X22220268Y10412846D1*
Y10285377D1*
X22144553Y10412846D2*
X22162803Y10406810D1*
X22175016Y10388560D1*
X22181053Y10358237D1*
Y10339987D1*
X22175016Y10309664D1*
X22162803Y10291414D1*
X22144553Y10285377D1*
X22132480D1*
X22114230Y10291414D1*
X22102156Y10309664D1*
X22095980Y10339987D1*
Y10358237D1*
X22102156Y10388560D1*
X22114230Y10406810D1*
X22132480Y10412846D1*
X22144553D1*
X22102156Y10388560D2*
X22175016Y10309664D1*
X2691594Y2717987D2*
X2643020Y2590377D1*
X2594447Y2717987D1*
X2518732D2*
X2530945Y2711950D1*
X2543018Y2699737D1*
X2549195Y2687664D1*
X2555232Y2669414D1*
Y2638950D1*
X2549195Y2620840D1*
X2543018Y2608627D1*
X2530945Y2596554D1*
X2518732Y2590377D1*
X2494445D1*
X2482372Y2596554D1*
X2470159Y2608627D1*
X2464122Y2620840D1*
X2458086Y2638950D1*
Y2669414D1*
X2464122Y2687664D1*
X2470159Y2699737D1*
X2482372Y2711950D1*
X2494445Y2717987D1*
X2518732D1*
X2418870Y2693560D2*
X2406656Y2699737D1*
X2388406Y2717846D1*
Y2590377D1*
X2718898Y5130987D2*
X2670325Y5003377D1*
X2621752Y5130987D1*
X2546037D2*
X2558250Y5124950D1*
X2570323Y5112737D1*
X2576500Y5100664D1*
X2582537Y5082414D1*
Y5051950D1*
X2576500Y5033840D1*
X2570323Y5021627D1*
X2558250Y5009554D1*
X2546037Y5003377D1*
X2521750D1*
X2509677Y5009554D1*
X2497463Y5021627D1*
X2491427Y5033840D1*
X2485390Y5051950D1*
Y5082414D1*
X2491427Y5100664D1*
X2497463Y5112737D1*
X2509677Y5124950D1*
X2521750Y5130987D1*
X2546037D1*
X2439998Y5100523D2*
Y5106560D1*
X2433961Y5118773D1*
X2427925Y5124810D1*
X2415711Y5130846D1*
X2391425D1*
X2379352Y5124810D1*
X2373315Y5118773D1*
X2367138Y5106560D1*
Y5094487D1*
X2373315Y5082273D1*
X2385388Y5064164D1*
X2446175Y5003377D1*
X2361102D1*
X2718898Y9956987D2*
X2670325Y9829377D1*
X2621752Y9956987D1*
X2546037D2*
X2558250Y9950950D1*
X2570323Y9938737D1*
X2576500Y9926664D1*
X2582537Y9908414D1*
Y9877950D1*
X2576500Y9859840D1*
X2570323Y9847627D1*
X2558250Y9835554D1*
X2546037Y9829377D1*
X2521750D1*
X2509677Y9835554D1*
X2497463Y9847627D1*
X2491427Y9859840D1*
X2485390Y9877950D1*
Y9908414D1*
X2491427Y9926664D1*
X2497463Y9938737D1*
X2509677Y9950950D1*
X2521750Y9956987D1*
X2546037D1*
X2433961Y9956846D2*
X2367279D1*
X2403638Y9908273D1*
X2385388D1*
X2373315Y9902237D1*
X2367279Y9896200D1*
X2361102Y9877950D1*
Y9865877D1*
X2367279Y9847627D1*
X2379352Y9835414D1*
X2397602Y9829377D1*
X2415852D1*
X2433961Y9835414D1*
X2439998Y9841590D1*
X2446175Y9853664D1*
X2721917Y7734487D2*
X2673344Y7606877D1*
X2624770Y7734487D1*
X2549055D2*
X2561268Y7728450D1*
X2573341Y7716237D1*
X2579518Y7704164D1*
X2585555Y7685914D1*
Y7655450D1*
X2579518Y7637340D1*
X2573341Y7625127D1*
X2561268Y7613054D1*
X2549055Y7606877D1*
X2524768D1*
X2512695Y7613054D1*
X2500482Y7625127D1*
X2494445Y7637340D1*
X2488409Y7655450D1*
Y7685914D1*
X2494445Y7704164D1*
X2500482Y7716237D1*
X2512695Y7728450D1*
X2524768Y7734487D1*
X2549055D1*
X2388406Y7606877D2*
Y7734346D1*
X2449193Y7649414D1*
X2358083D1*
X1951310Y1426987D2*
X1902737Y1299377D1*
X1854164Y1426987D1*
X1778448D2*
X1790662Y1420950D1*
X1802735Y1408737D1*
X1808912Y1396664D1*
X1814948Y1378414D1*
Y1347950D1*
X1808912Y1329840D1*
X1802735Y1317627D1*
X1790662Y1305554D1*
X1778448Y1299377D1*
X1754162D1*
X1742088Y1305554D1*
X1729875Y1317627D1*
X1723838Y1329840D1*
X1717802Y1347950D1*
Y1378414D1*
X1723838Y1396664D1*
X1729875Y1408737D1*
X1742088Y1420950D1*
X1754162Y1426987D1*
X1778448D1*
X1605727Y1408737D2*
X1611763Y1420810D1*
X1630013Y1426846D1*
X1642086D1*
X1660336Y1420810D1*
X1672550Y1402560D1*
X1678586Y1372237D1*
Y1341914D1*
X1672550Y1317627D1*
X1660336Y1305414D1*
X1642086Y1299377D1*
X1636050D1*
X1617940Y1305414D1*
X1605727Y1317627D1*
X1599690Y1335877D1*
Y1341914D1*
X1605727Y1360164D1*
X1617940Y1372237D1*
X1636050Y1378273D1*
X1642086D1*
X1660336Y1372237D1*
X1672550Y1360164D1*
X1678586Y1341914D1*
X23864398Y10357487D2*
X23815825Y10229877D1*
X23767252Y10357487D1*
X23691537D2*
X23703750Y10351450D1*
X23715823Y10339237D1*
X23722000Y10327164D1*
X23728037Y10308914D1*
Y10278450D1*
X23722000Y10260340D1*
X23715823Y10248127D1*
X23703750Y10236054D1*
X23691537Y10229877D1*
X23667250D1*
X23655177Y10236054D1*
X23642963Y10248127D1*
X23636927Y10260340D1*
X23630890Y10278450D1*
Y10308914D1*
X23636927Y10327164D1*
X23642963Y10339237D1*
X23655177Y10351450D1*
X23667250Y10357487D1*
X23691537D1*
X23567388Y10229877D2*
X23506602Y10357346D1*
X23591675D1*
X3042277Y10190836D2*
Y10081477D1*
X3096887Y10136086D2*
X2987527D1*
X2948311Y10175605D2*
X2936098Y10181782D1*
X2917848Y10199891D1*
Y10072422D1*
X2805773Y10199891D2*
X2866419D1*
X2872455Y10145282D1*
X2866419Y10151318D1*
X2848169Y10157495D1*
X2830059D1*
X2811809Y10151318D1*
X2799596Y10139245D1*
X2793559Y10120995D1*
Y10108922D1*
X2799596Y10090672D1*
X2811809Y10078459D1*
X2830059Y10072422D1*
X2848169D1*
X2866419Y10078459D1*
X2872455Y10084635D1*
X2878632Y10096709D1*
X2754343Y10200032D2*
X2705770Y10072422D1*
X2657197Y10200032D1*
X3232777Y7841336D2*
Y7731977D1*
X3287387Y7786586D2*
X3178027D1*
X3138811Y7826105D2*
X3126598Y7832282D1*
X3108348Y7850391D1*
Y7722922D1*
X2996273Y7850391D2*
X3056919D1*
X3062955Y7795782D1*
X3056919Y7801818D1*
X3038669Y7807995D1*
X3020559D1*
X3002309Y7801818D1*
X2990096Y7789745D1*
X2984059Y7771495D1*
Y7759422D1*
X2990096Y7741172D1*
X3002309Y7728959D1*
X3020559Y7722922D1*
X3038669D1*
X3056919Y7728959D1*
X3062955Y7735135D1*
X3069132Y7747209D1*
X2944843Y7850532D2*
X2896270Y7722922D1*
X2847697Y7850532D1*
X3169277Y5301336D2*
Y5191977D1*
X3223887Y5246586D2*
X3114527D1*
X3075311Y5286105D2*
X3063098Y5292282D1*
X3044848Y5310391D1*
Y5182922D1*
X2932773Y5310391D2*
X2993419D1*
X2999455Y5255782D1*
X2993419Y5261818D1*
X2975169Y5267995D1*
X2957059D1*
X2938809Y5261818D1*
X2926596Y5249745D1*
X2920559Y5231495D1*
Y5219422D1*
X2926596Y5201172D1*
X2938809Y5188959D1*
X2957059Y5182922D1*
X2975169D1*
X2993419Y5188959D1*
X2999455Y5195135D1*
X3005632Y5207209D1*
X2881343Y5310532D2*
X2832770Y5182922D1*
X2784197Y5310532D1*
X3550277Y2888336D2*
Y2778977D1*
X3604887Y2833586D2*
X3495527D1*
X3456311Y2873105D2*
X3444098Y2879282D1*
X3425848Y2897391D1*
Y2769922D1*
X3313773Y2897391D2*
X3374419D1*
X3380455Y2842782D1*
X3374419Y2848818D1*
X3356169Y2854995D1*
X3338059D1*
X3319809Y2848818D1*
X3307596Y2836745D1*
X3301559Y2818495D1*
Y2806422D1*
X3307596Y2788172D1*
X3319809Y2775959D1*
X3338059Y2769922D1*
X3356169D1*
X3374419Y2775959D1*
X3380455Y2782135D1*
X3386632Y2794209D1*
X3262343Y2897532D2*
X3213770Y2769922D1*
X3165197Y2897532D1*
X15626450Y6524816D2*
D165*
X15636109Y6515158D1*
X15626450Y6505275D1*
X15616567Y6515158D1*
X15626450Y6524816D1*
X15694509Y6515158D2*
X15830626D1*
X15694509Y6442530D2*
X15830626D1*
X15733367D2*
X15704167Y6413330D1*
X15694509Y6393788D1*
Y6364813D1*
X15704167Y6345271D1*
X15733367Y6335613D1*
X15830626D1*
X16202469Y6603206D2*
X16212127Y6622523D1*
X16231669Y6642065D1*
X16260869Y6651723D1*
X16280186D1*
X16309386Y6642065D1*
X16328702Y6622523D1*
X16338586Y6603206D1*
Y6574006D1*
X16328703Y6554465D1*
X16309386Y6535148D1*
X16280186Y6525265D1*
X16260869D1*
X16231669Y6535148D1*
X16212127Y6554465D1*
X16202469Y6574006D1*
Y6603206D1*
Y6462520D2*
X16299727Y6462519D1*
X16328703Y6452861D1*
X16338586Y6433319D1*
Y6404119D1*
X16328703Y6384803D1*
X16299727Y6355603D1*
X16202469D2*
X16338586D1*
X16134410Y6263658D2*
X16299727D1*
X16328703Y6253999D1*
X16338586Y6234458D1*
Y6215141D1*
X16202469Y6292858D2*
Y6224799D1*
M02*
