%TF.GenerationSoftware,Novarm,DipTrace,3.3.1.3*%
%TF.CreationDate,2020-09-22T12:08:31+00:00*%
%FSLAX35Y35*%
%MOMM*%
%TF.FileFunction,Plated,1,2,PTH,Drill*%
%TF.Part,Single*%
%TA.AperFunction,ComponentDrill*%
%ADD15C,1.8*%
%ADD17C,1.5*%
%ADD19C,1.2*%
%ADD22C,2.0*%
%ADD23C,1.3*%
%ADD25C,1.0*%
%TA.AperFunction,ViaDrill*%
%ADD47C,1.0*%
%TA.AperFunction,ComponentDrill*%
%ADD70C,0.8*%
%ADD74C,0.9*%
%ADD75C,1.397*%
%ADD76C,1.1*%
%ADD77C,1.02*%
%ADD78C,1.7*%
%ADD79C,0.96533*%
%ADD80C,0.965*%
%ADD81C,0.55867*%
%ADD82C,0.559*%
%ADD83C,1.16833*%
%ADD84C,1.168*%
%ADD85C,2.2*%
%TA.AperFunction,ViaDrill*%
%ADD164C,0.8*%
G75*
G01*
D22*
X12382500Y9207500D3*
X13382500D3*
X14859000Y9271000D3*
X15859000D3*
D25*
X7366000Y10477500D3*
X8890000D3*
X7366000Y9588500D3*
X8890000D3*
D74*
X3365500Y2286000D3*
Y1778000D3*
Y4762500D3*
Y4254500D3*
Y9842500D3*
Y9334500D3*
X3429000Y7366000D3*
Y6858000D3*
X1905000Y3746500D3*
X1651000D3*
X1397000Y8382000D3*
Y8128000D3*
X2349500Y5334000D3*
X2095500D3*
D23*
X22542500Y4508500D3*
Y698500D3*
X17145000Y7874000D3*
X20955000D3*
D74*
X1333500Y10985500D3*
X825500D3*
X1333500Y10287000D3*
X825500D3*
X21463000Y9779000D3*
Y10033000D3*
D25*
X7302500Y698500D3*
Y2222500D3*
X8001000Y4318000D3*
Y2794000D3*
Y7239000D3*
Y5715000D3*
X15684500Y762000D3*
Y2286000D3*
X8064500Y698500D3*
Y2222500D3*
D22*
X14859000Y11811000D3*
X15859000D3*
X12382500Y11747500D3*
X13382500D3*
D74*
X4318000Y9525000D3*
X5328000D3*
X4000500Y7112000D3*
X5010500D3*
X3937000Y2349500D3*
X4947000D3*
X4000500Y4762500D3*
X5010500D3*
D75*
X3048000Y12573000D3*
X4048760D3*
X4798060D3*
X5547400D3*
D76*
X16192500Y5270500D3*
Y4762500D3*
Y3810000D3*
Y3302000D3*
D74*
X952500Y254000D3*
Y1264000D3*
D17*
X22288500Y5524500D3*
X23788500D3*
X10604500Y10668000D3*
Y9168000D3*
X24003000Y1968500D3*
Y3068500D3*
D76*
X1270000Y7366000D3*
X1016000D3*
X1270000Y7112000D3*
X1016000D3*
X1270000Y6858000D3*
X1016000D3*
X3492500Y6223000D3*
X3238500D3*
X3492500Y5969000D3*
X3238500D3*
X3492500Y5715000D3*
X3238500D3*
D23*
X1016000Y9080500D3*
Y9588500D3*
D77*
X1079500Y5143500D3*
Y5397500D3*
D17*
X9969500Y12001500D3*
X8869500D3*
D76*
X1143000Y3048000D3*
X889000D3*
X1143000Y2794000D3*
X889000D3*
X1143000Y2540000D3*
X889000D3*
D15*
X18796000Y571500D3*
X21844000D3*
D17*
X6413500Y9144000D3*
Y8599000D3*
Y8053000D3*
Y6667500D3*
Y6122500D3*
Y5576500D3*
Y1905000D3*
Y1360000D3*
Y814000D3*
Y4318000D3*
Y3773000D3*
Y3227000D3*
D78*
X7366000Y5778500D3*
Y7810500D3*
Y2921000D3*
Y4953000D3*
D79*
X4953000Y2730500D3*
D80*
X3937000D3*
D79*
X5016500Y5143500D3*
D80*
X4000500D3*
D79*
X5334000Y9842500D3*
D80*
X4318000D3*
D79*
X5016500Y7556500D3*
D80*
X4000500D3*
D79*
X22352000Y6604000D3*
D80*
Y7874000D3*
D79*
X23050500Y6604000D3*
D80*
Y7874000D3*
D79*
X23749000Y6604000D3*
D80*
Y7874000D3*
D79*
X18986500Y8953500D3*
D80*
Y9969500D3*
D79*
X18478500Y8953500D3*
D80*
Y9969500D3*
D25*
X9588500Y10477500D3*
Y9715500D3*
D81*
X1905000Y1714500D3*
D82*
Y2476500D3*
D81*
X1841500Y4381500D3*
D82*
Y5143500D3*
D81*
X1905000Y9588500D3*
D82*
Y8826500D3*
D81*
Y6985000D3*
D82*
Y7747000D3*
D83*
X5270500Y381000D3*
D84*
X3746500D3*
D83*
X3365500D3*
D84*
X1841500D3*
D83*
X1397000D3*
D84*
Y1905000D3*
D85*
X14605000Y4445000D3*
Y3429000D3*
Y2794000D3*
Y5080000D3*
X9017000Y3429000D3*
Y4445000D3*
D74*
X2095500Y3281000D3*
X2349500D3*
X2603500D3*
X2857500D3*
X2032000Y8488000D3*
X2286000D3*
X2540000D3*
X2794000D3*
X1968500Y6202000D3*
X2222500D3*
X2476500D3*
X2730500D3*
D19*
X15303500Y7048500D3*
Y6794500D3*
Y6540500D3*
X16573500Y7048500D3*
Y6794500D3*
Y6540500D3*
D70*
X15684500Y7810500D3*
X15938500D3*
X16192500D3*
D74*
X22415500Y10033000D3*
Y9779000D3*
Y9525000D3*
Y9271000D3*
X2159000Y1651000D3*
Y1905000D3*
Y2159000D3*
Y2413000D3*
X2921000D3*
Y2159000D3*
Y1905000D3*
Y1651000D3*
X2159000Y4064000D3*
Y4318000D3*
Y4572000D3*
Y4826000D3*
X2921000D3*
Y4572000D3*
Y4318000D3*
Y4064000D3*
X2159000Y8890000D3*
Y9144000D3*
Y9398000D3*
Y9652000D3*
X2921000D3*
Y9398000D3*
Y9144000D3*
Y8890000D3*
X2159000Y6667500D3*
Y6921500D3*
Y7175500D3*
Y7429500D3*
X2921000D3*
Y7175500D3*
Y6921500D3*
Y6667500D3*
X24066500Y9334500D3*
X23812500D3*
X23558500D3*
X23304500D3*
Y10096500D3*
X23558500D3*
X23812500D3*
X24066500D3*
D164*
X23876000Y8699500D3*
X16954500Y10160000D3*
X20320000Y9144000D3*
X18986500Y9334500D3*
X762000Y3810000D3*
X317500Y3365500D3*
X762000Y3492500D3*
X444500Y3111500D3*
X2286000Y1143000D3*
D47*
X23812500Y10922000D3*
X19304000Y10223500D3*
Y10731500D3*
X22987000Y10096500D3*
X17970500Y11303000D3*
X16764000Y10922000D3*
D164*
X20320000Y10477500D3*
M02*
