G04 DipTrace 3.0.0.1*
G04 Top.gbr*
%MOMM*%
G04 #@! TF.FileFunction,Copper,L1,Top*
G04 #@! TF.Part,Single*
G04 #@! TA.AperFunction,Conductor*
%ADD13C,3.0*%
%ADD14C,2.096*%
%ADD15C,1.8*%
%ADD16C,2.6*%
G04 #@! TA.AperFunction,ViaPad*
%ADD17C,1.5*%
G04 #@! TA.AperFunction,ComponentPad*
%ADD18C,1.6*%
G04 #@! TA.AperFunction,Conductor*
%ADD20C,0.4*%
G04 #@! TA.AperFunction,ComponentPad*
%ADD21C,1.524*%
G04 #@! TA.AperFunction,Conductor*
%ADD22C,2.0*%
%ADD25C,1.0*%
G04 #@! TA.AperFunction,ViaPad*
%ADD26C,1.3*%
G04 #@! TA.AperFunction,ComponentPad*
%ADD27C,1.27*%
G04 #@! TA.AperFunction,CopperBalancing*
%ADD28C,0.635*%
%ADD29C,0.33*%
G04 #@! TA.AperFunction,ComponentPad*
%ADD30R,3.3X3.3*%
%ADD31C,3.3*%
%ADD32O,1.8X2.4*%
%ADD35R,1.6X1.6*%
%ADD36O,3.6X2.6*%
%ADD37O,2.6X3.6*%
%ADD38O,2.4X1.8*%
%ADD40R,1.5X1.5*%
%ADD41C,1.5*%
%ADD42O,2.096X4.096*%
%ADD43C,1.9*%
%ADD44R,1.9X1.9*%
%ADD45O,4.0X3.0*%
%ADD46O,3.0X4.0*%
%ADD47R,1.7X1.7*%
%ADD48C,1.7*%
%ADD49O,3.0X2.3*%
%ADD50R,1.62X1.62*%
%ADD51C,1.62*%
%ADD52O,3.5X5.0*%
%ADD53R,2.6X2.6*%
%ADD54C,2.6*%
%ADD55O,2.2X2.5*%
%ADD56C,1.524*%
%ADD58C,1.27*%
%ADD59C,1.778*%
%ADD60C,1.778*%
%ADD61O,6.0X4.0*%
%ADD63R,1.2X1.2*%
%ADD64C,1.2*%
%ADD65O,2.6X1.8*%
%ADD66O,1.3X2.0*%
%FSLAX35Y35*%
G04*
G71*
G90*
G75*
G01*
G04 Top*
%LPD*%
X6413500Y1360000D2*
D13*
X6646890D1*
X7175500Y952500D1*
X7302500Y698500D1*
X8064500D1*
X3048000Y12573000D2*
D14*
Y12218200D1*
D13*
Y11303000D1*
X3937000Y10414000D1*
X5715000D1*
X5853270Y9969500D1*
X6858000D1*
X7175080Y10286580D1*
D15*
X7366000Y10477500D1*
Y9588500D2*
D13*
Y10391763D1*
D15*
Y10477500D1*
X6413500Y8599000D2*
D16*
Y8572500D1*
X6159500Y8636000D1*
D13*
X5853270Y8942230D1*
Y9969500D1*
X12382500Y9207500D2*
Y11747500D1*
X14859000Y9271000D2*
Y11811000D1*
X12382500Y9207500D2*
X13017500Y8572500D1*
X14160500D1*
X14859000Y9271000D1*
X6413500Y8599000D2*
X6440000Y8572500D1*
X11662833D1*
X12382500Y9207500D1*
X5853270Y8942230D2*
Y8520270D1*
X5461000Y8128000D1*
Y889000D1*
X5676837Y673163D1*
X5969000Y381000D1*
X6984663D1*
X7302583Y698920D1*
D15*
Y698583D1*
X5270500Y381000D2*
D17*
X5384673D1*
X5676837Y673163D1*
X6413500Y6122500D2*
D13*
X6286500Y6159500D1*
X5969000Y6477000D1*
Y7747000D1*
X6246000Y7885500D1*
X6413500Y8053000D1*
Y6122500D2*
D16*
X6313000D1*
D13*
X5969000Y5778500D1*
Y5397500D1*
X6413500Y4953000D1*
X6540500D1*
X7620000Y3873500D1*
X8445500D1*
X9017000Y4445000D1*
X6413500Y814000D2*
X6361500D1*
X5905500Y1270000D1*
Y3492500D1*
X6223000Y3810000D1*
X6376500D1*
X6413500Y3773000D1*
X6577500D1*
X6985000Y3365500D1*
X8953500D1*
X9017000Y3429000D1*
X6413500Y5576500D2*
X6783000D1*
X6985000Y5778500D1*
X7366000D1*
X7874000D1*
X7937500Y5715000D1*
X8001000D1*
X1016000Y9080500D2*
D17*
Y9017000D1*
X635000Y9398000D1*
Y10287000D1*
Y10795000D1*
X825500Y10985500D1*
Y10287000D2*
X635000D1*
X1016000Y9080500D2*
X1079500D1*
X1397000Y8953500D1*
Y8382000D1*
X2476500Y6202000D2*
X2540000Y6032500D1*
X2654017Y5969000D1*
X3238500D1*
X5547400Y12573000D2*
D13*
X5715000D1*
X6794500Y11493500D1*
X7874000D1*
X8890000Y10477500D1*
X9969500Y12001500D2*
Y11303000D1*
X10604500Y10668000D1*
X4798060Y12573000D2*
Y12537440D1*
X8869500Y12001500D2*
Y11196500D1*
X9588500Y10477500D1*
X4798060Y12573000D2*
D14*
Y12672060D1*
D13*
X5207000Y13081000D1*
X6032500D1*
X7112000Y12001500D1*
X8869500D1*
X10604500Y9168000D2*
X10333890Y9224110D1*
X9842500Y9715500D1*
X9588500D1*
X9525000D1*
X9394947Y9080500D1*
X8655877D1*
X7585470Y10985500D1*
X5334000D1*
X4048760Y12270740D1*
D14*
Y12573000D1*
X14605000Y3429000D2*
D13*
X15367000D1*
X17145000Y1651000D1*
Y952500D1*
X17462500Y635000D1*
X18732500D1*
X18796000Y571500D1*
X16192500Y4762500D2*
X15748000Y4889500D1*
X14668500Y5969000D1*
Y6794500D1*
X14922500Y7048500D1*
D22*
X15303500D1*
X1079500Y5143500D2*
D17*
X1270000D1*
X1524000Y4889500D1*
X1905000D1*
X2095500Y5080000D1*
X2476500D1*
X3111500Y5715000D1*
X3238500D1*
X444500Y3111500D2*
D20*
Y3238500D1*
X698500Y3492500D1*
X762000D1*
X3492500Y5969000D2*
D17*
X3619500D1*
X3746500Y5842000D1*
Y5334000D1*
X3619500Y5207000D1*
Y5016500D1*
X3365500Y4762500D1*
X6413500Y3227000D2*
D13*
X6465500D1*
X6771500Y2921000D1*
X7366000D1*
X7810500D1*
X7937500Y2794000D1*
X8001000D1*
X16954500Y10160000D2*
D26*
Y10223500D1*
D17*
X17208500Y10477500D1*
X18478500D1*
X20320000D1*
X23876000D1*
X24066500Y10287000D1*
Y10096500D1*
X16954500Y10160000D2*
D26*
Y10020000D1*
D17*
Y9906000D1*
X16700500Y9652000D1*
Y8699500D1*
X16383000Y8382000D1*
X15811500D1*
X15684500Y8255000D1*
Y7985500D1*
D26*
Y7810500D1*
X20320000Y9144000D2*
D17*
Y10477500D1*
X18478500Y9969500D2*
D25*
Y10477500D1*
X317500Y3365500D2*
D20*
Y3556000D1*
X571500Y3810000D1*
X762000D1*
D26*
X23876000Y8699500D3*
X16954500Y10160000D3*
X20320000Y9144000D3*
X18986500Y9334500D3*
X762000Y3810000D3*
X317500Y3365500D3*
X762000Y3492500D3*
X444500Y3111500D3*
X2286000Y1143000D3*
D17*
X23812500Y10922000D3*
X19304000Y10223500D3*
Y10731500D3*
X22987000Y10096500D3*
X17970500Y11303000D3*
X16764000Y10922000D3*
D26*
X20320000Y10477500D3*
X22072662Y9493583D2*
D28*
X22308505D1*
X22522495D2*
X23601449D1*
X22072662Y9430417D2*
X22224045D1*
X22606955D2*
X23565234D1*
X22072662Y9367250D2*
X22184606D1*
X22646394D2*
X23548987D1*
X22072662Y9304083D2*
X22167118D1*
X22663882D2*
X23548615D1*
X22072662Y9240917D2*
X22166746D1*
X22664254D2*
X23564366D1*
X22072662Y9177750D2*
X22183365D1*
X22647635D2*
X23599589D1*
X22072662Y9114583D2*
X22221565D1*
X22609435D2*
X23668794D1*
X22072662Y9051417D2*
X22302056D1*
X22528944D2*
X24282338D1*
X22072662Y8988250D2*
X24282338D1*
X22072662Y8925083D2*
X24282338D1*
X22072662Y8861917D2*
X24282338D1*
X22072662Y8798750D2*
X24282338D1*
X22072662Y8735583D2*
X24282338D1*
X22072662Y8672417D2*
X24282338D1*
X22072662Y8609250D2*
X24282338D1*
X22072662Y8546083D2*
X24282338D1*
X22072662Y8482917D2*
X24282338D1*
X22072662Y8419750D2*
X24282338D1*
X22072662Y8356583D2*
X24282338D1*
X22072662Y8293417D2*
X24282338D1*
X22072662Y8230250D2*
X24282338D1*
X22072538Y8167083D2*
X24282338D1*
X17564162Y8103917D2*
X22223177D1*
X22480823D2*
X22921677D1*
X23179323D2*
X24282338D1*
X17564162Y8040750D2*
X22145538D1*
X22558462D2*
X22844038D1*
X23256962D2*
X24282338D1*
X17564162Y7977583D2*
X22106595D1*
X22597405D2*
X22805095D1*
X23295905D2*
X24282338D1*
X17564162Y7914417D2*
X22088363D1*
X22615637D2*
X22786863D1*
X23314137D2*
X24282338D1*
X17564162Y7851250D2*
X22086131D1*
X22617869D2*
X22784631D1*
X23316369D2*
X24282338D1*
X17564162Y7788083D2*
X22099774D1*
X22604226D2*
X22798274D1*
X23302726D2*
X24282338D1*
X17564162Y7724917D2*
X22132020D1*
X22571980D2*
X22830520D1*
X23270480D2*
X24282338D1*
X17564162Y7661750D2*
X22194651D1*
X22509349D2*
X22893151D1*
X23207849D2*
X24282338D1*
X17564162Y7598583D2*
X24282338D1*
X17564162Y7535417D2*
X24282338D1*
X17564162Y7472250D2*
X24282338D1*
X17564162Y7409083D2*
X24282338D1*
X17564162Y7345917D2*
X24282338D1*
X17564162Y7282750D2*
X24282338D1*
X17564162Y7219583D2*
X24282338D1*
X17564162Y7156417D2*
X24282338D1*
X17564162Y7093250D2*
X24282338D1*
X17564162Y7030083D2*
X24282338D1*
X17564162Y6966917D2*
X24282338D1*
X17564162Y6903750D2*
X24282338D1*
X17564162Y6840583D2*
X22236695D1*
X22467305D2*
X22935195D1*
X23165805D2*
X23633695D1*
X23864305D2*
X24282338D1*
X17564162Y6777417D2*
X22151243D1*
X22552757D2*
X22849743D1*
X23251257D2*
X23548243D1*
X23949757D2*
X24282338D1*
X17564162Y6714250D2*
X22109695D1*
X22594305D2*
X22808195D1*
X23292805D2*
X23506695D1*
X23991305D2*
X24282338D1*
X17564162Y6651083D2*
X22089480D1*
X22614520D2*
X22787980D1*
X23313020D2*
X23486480D1*
X24011520D2*
X24282338D1*
X17564162Y6587917D2*
X22085635D1*
X22618365D2*
X22784135D1*
X23316865D2*
X23482635D1*
X24015365D2*
X24282338D1*
X17564162Y6524750D2*
X22097541D1*
X22606459D2*
X22796041D1*
X23304959D2*
X23494541D1*
X24003459D2*
X24282338D1*
X17564162Y6461583D2*
X22127555D1*
X22576445D2*
X22826055D1*
X23274945D2*
X23524555D1*
X23973445D2*
X24282338D1*
X17564162Y6398417D2*
X22185722D1*
X22518278D2*
X22884222D1*
X23216778D2*
X23582722D1*
X23915278D2*
X24282338D1*
X17564162Y6335250D2*
X24282338D1*
X17564162Y6272083D2*
X24282338D1*
X17564162Y6208917D2*
X24282338D1*
X17564162Y6145750D2*
X24282338D1*
X17564162Y6082583D2*
X24282338D1*
X17564162Y6019417D2*
X24282338D1*
X17564162Y5956250D2*
X24282338D1*
X17564162Y5893083D2*
X24282338D1*
X17564162Y5829917D2*
X22096301D1*
X22480699D2*
X22958016D1*
X23119048D2*
X23596240D1*
X23980763D2*
X24282338D1*
X17564162Y5766750D2*
X22001795D1*
X22575205D2*
X22831884D1*
X23245056D2*
X23501734D1*
X24075268D2*
X24282338D1*
X17564162Y5703583D2*
X21949829D1*
X22627171D2*
X22773841D1*
X23303099D2*
X23449893D1*
X24127110D2*
X24282338D1*
X17564162Y5640417D2*
X21918575D1*
X22658425D2*
X22739983D1*
X23336957D2*
X23418639D1*
X24158364D2*
X24282338D1*
X17564162Y5577250D2*
X21902080D1*
X22674920D2*
X22722371D1*
X23354692D2*
X23402020D1*
X24174983D2*
X24282338D1*
X17564162Y5514083D2*
X21897987D1*
X22679013D2*
X22718047D1*
X23358909D2*
X23398051D1*
X24178952D2*
X24282338D1*
X17564162Y5450917D2*
X21906049D1*
X22670951D2*
X22726588D1*
X23350351D2*
X23406112D1*
X24170891D2*
X24282338D1*
X17564162Y5387750D2*
X21927133D1*
X22649867D2*
X22749160D1*
X23327779D2*
X23427072D1*
X24149931D2*
X24282338D1*
X17564162Y5324583D2*
X17836468D1*
X18156498D2*
X21964216D1*
X22612784D2*
X22789592D1*
X23287348D2*
X23464279D1*
X24112724D2*
X24282338D1*
X17564162Y5261417D2*
X17748163D1*
X18244803D2*
X22025856D1*
X22551144D2*
X22860161D1*
X23216778D2*
X23525919D1*
X24051084D2*
X24282338D1*
X17564162Y5198250D2*
X17697686D1*
X18295280D2*
X22159305D1*
X22417695D2*
X23659244D1*
X23917759D2*
X24282338D1*
X17564162Y5135083D2*
X17666928D1*
X18326038D2*
X24282338D1*
X17564162Y5071917D2*
X17650309D1*
X18342657D2*
X24282338D1*
X17564162Y5008750D2*
X17645968D1*
X18346998D2*
X24282338D1*
X17564162Y4945583D2*
X17653285D1*
X18339805D2*
X24282338D1*
X17564162Y4882417D2*
X17673005D1*
X18319961D2*
X24282338D1*
X17564162Y4819250D2*
X17707980D1*
X18284986D2*
X22439102D1*
X22645898D2*
X24282338D1*
X17564162Y4756083D2*
X17764906D1*
X18228059D2*
X22292506D1*
X22792494D2*
X24282338D1*
X17564162Y4692917D2*
X17872559D1*
X18120407D2*
X22231610D1*
X22853390D2*
X24282338D1*
X17564162Y4629750D2*
X22196140D1*
X22888860D2*
X24282338D1*
X17564162Y4566583D2*
X22177288D1*
X22907712D2*
X24282338D1*
X17564162Y4503417D2*
X22171955D1*
X22913045D2*
X24282338D1*
X17564162Y4440250D2*
X22179397D1*
X22905603D2*
X24282338D1*
X17564162Y4377083D2*
X22200605D1*
X22884395D2*
X24282338D1*
X17564162Y4313917D2*
X22239300D1*
X22845700D2*
X24282338D1*
X17564162Y4250750D2*
X22306273D1*
X22778727D2*
X24282338D1*
X17564162Y4187583D2*
X24282338D1*
X17564162Y4124417D2*
X24282338D1*
X17564162Y4061250D2*
X24282338D1*
X17564162Y3998083D2*
X24282338D1*
X17564162Y3934917D2*
X24282338D1*
X17564162Y3871750D2*
X17852839D1*
X18140127D2*
X24282338D1*
X17564162Y3808583D2*
X17756225D1*
X18236865D2*
X24282338D1*
X17564162Y3745417D2*
X17702647D1*
X18290319D2*
X24282338D1*
X17564162Y3682250D2*
X17669904D1*
X18323185D2*
X24282338D1*
X17564162Y3619083D2*
X17651673D1*
X18341293D2*
X24282338D1*
X17564162Y3555917D2*
X17645844D1*
X18347122D2*
X24282338D1*
X17564162Y3492750D2*
X17651673D1*
X18341293D2*
X24282338D1*
X17564162Y3429583D2*
X17669904D1*
X18323061D2*
X23874301D1*
X24131699D2*
X24282338D1*
X17564162Y3366417D2*
X17702771D1*
X18290195D2*
X23772354D1*
X24233646D2*
X24282280D1*
X17564162Y3303250D2*
X17756349D1*
X18236617D2*
X23718031D1*
X17564162Y3240083D2*
X17853335D1*
X18139755D2*
X23685289D1*
X17564162Y3176917D2*
X23667554D1*
X17564162Y3113750D2*
X23662345D1*
X17564162Y3050583D2*
X23662345D1*
X17564162Y2987417D2*
X23663833D1*
X17564162Y2924250D2*
X23675863D1*
X17564162Y2861083D2*
X23701784D1*
X17564162Y2797917D2*
X23745441D1*
X24260559D2*
X24282333D1*
X17564162Y2734750D2*
X23819855D1*
X24186145D2*
X24282338D1*
X17564162Y2671583D2*
X24282338D1*
X17564162Y2608417D2*
X24282338D1*
X17564162Y2545250D2*
X24282338D1*
X17564162Y2482083D2*
X24282338D1*
X17564162Y2418917D2*
X24282338D1*
X17564162Y2355750D2*
X24282338D1*
X17564162Y2292583D2*
X24282338D1*
X17564162Y2229417D2*
X24282338D1*
X17564162Y2166250D2*
X24282338D1*
X17564162Y2103083D2*
X24282338D1*
X17564162Y2039917D2*
X24282338D1*
X17564162Y1976750D2*
X24282338D1*
X17564162Y1913583D2*
X24282338D1*
X17564162Y1850417D2*
X24282338D1*
X17564162Y1787250D2*
X24282338D1*
X17564162Y1724083D2*
X24282338D1*
X17564162Y1660917D2*
X24282338D1*
X17564162Y1597750D2*
X24282338D1*
X17564162Y1534583D2*
X24282338D1*
X17564162Y1471417D2*
X24282338D1*
X17564162Y1408250D2*
X24282338D1*
X17564162Y1345083D2*
X24282338D1*
X17564162Y1281917D2*
X24282338D1*
X17564162Y1218750D2*
X24282338D1*
X17564162Y1155583D2*
X24282338D1*
X17564162Y1092417D2*
X24282338D1*
X17564162Y1029250D2*
X24282338D1*
X18966495Y966083D2*
X24282338D1*
X19054056Y902917D2*
X24282338D1*
X19105277Y839750D2*
X24282338D1*
X19137275Y776583D2*
X24282338D1*
X19155383Y713417D2*
X24282338D1*
X19161584Y650250D2*
X24282338D1*
X19161584Y587083D2*
X24282338D1*
X22492596Y4194214D2*
X22467841Y4195179D1*
X22443334Y4198079D1*
X22419130Y4202894D1*
X22395379Y4209592D1*
X22372226Y4218134D1*
X22349815Y4228466D1*
X22328284Y4240524D1*
X22307765Y4254234D1*
X22288385Y4269512D1*
X22270263Y4286263D1*
X22253512Y4304385D1*
X22238234Y4323765D1*
X22224524Y4344284D1*
X22212466Y4365815D1*
X22202134Y4388226D1*
X22193592Y4411379D1*
X22186894Y4435130D1*
X22182079Y4459334D1*
X22179179Y4483841D1*
X22178210Y4508500D1*
X22179179Y4533159D1*
X22182079Y4557666D1*
X22186894Y4581870D1*
X22193592Y4605621D1*
X22202134Y4628774D1*
X22212466Y4651185D1*
X22224524Y4672716D1*
X22238234Y4693235D1*
X22253512Y4712615D1*
X22270263Y4730737D1*
X22288385Y4747488D1*
X22307765Y4762766D1*
X22328284Y4776476D1*
X22349815Y4788534D1*
X22372226Y4798866D1*
X22395379Y4807408D1*
X22419130Y4814106D1*
X22443334Y4818921D1*
X22467841Y4821821D1*
X22524250Y4822790D1*
X22617159Y4821821D1*
X22641666Y4818921D1*
X22665870Y4814106D1*
X22689621Y4807408D1*
X22712774Y4798866D1*
X22735185Y4788534D1*
X22756716Y4776476D1*
X22777235Y4762766D1*
X22796615Y4747488D1*
X22814737Y4730737D1*
X22831488Y4712615D1*
X22846766Y4693235D1*
X22860476Y4672716D1*
X22872534Y4651185D1*
X22882866Y4628774D1*
X22891408Y4605621D1*
X22898106Y4581870D1*
X22902921Y4557666D1*
X22905821Y4533159D1*
X22906790Y4508500D1*
X22905821Y4483841D1*
X22902921Y4459334D1*
X22898106Y4435130D1*
X22891408Y4411379D1*
X22882866Y4388226D1*
X22872534Y4365815D1*
X22860476Y4344284D1*
X22846766Y4323765D1*
X22831488Y4304385D1*
X22814737Y4286263D1*
X22796615Y4269512D1*
X22777235Y4254234D1*
X22756716Y4240524D1*
X22735185Y4228466D1*
X22712774Y4218134D1*
X22689621Y4209592D1*
X22665870Y4202894D1*
X22641666Y4198079D1*
X22617159Y4195179D1*
X22560750Y4194210D1*
X22492500Y4194334D1*
X18339729Y4989487D2*
X18336551Y4962641D1*
X18331277Y4936127D1*
X18323939Y4910109D1*
X18314582Y4884746D1*
X18303265Y4860196D1*
X18290055Y4836609D1*
X18275036Y4814131D1*
X18258300Y4792902D1*
X18239950Y4773050D1*
X18220098Y4754700D1*
X18198869Y4737964D1*
X18176391Y4722945D1*
X18152804Y4709735D1*
X18128254Y4698418D1*
X18102891Y4689061D1*
X18076873Y4681723D1*
X18050359Y4676449D1*
X18023513Y4673271D1*
X17996500Y4672210D1*
X17969487Y4673271D1*
X17942641Y4676449D1*
X17916127Y4681723D1*
X17890109Y4689061D1*
X17864746Y4698418D1*
X17840196Y4709735D1*
X17816609Y4722945D1*
X17794131Y4737964D1*
X17772902Y4754700D1*
X17753050Y4773050D1*
X17734700Y4792902D1*
X17717964Y4814131D1*
X17702945Y4836609D1*
X17689735Y4860196D1*
X17678418Y4884746D1*
X17669061Y4910109D1*
X17661723Y4936127D1*
X17656449Y4962641D1*
X17653271Y4989487D1*
X17652210Y5016500D1*
X17653271Y5043513D1*
X17656449Y5070359D1*
X17661723Y5096873D1*
X17669061Y5122891D1*
X17678418Y5148254D1*
X17689735Y5172804D1*
X17702945Y5196391D1*
X17717964Y5218869D1*
X17734700Y5240098D1*
X17753050Y5259950D1*
X17772902Y5278300D1*
X17794131Y5295036D1*
X17816609Y5310055D1*
X17840196Y5323265D1*
X17864746Y5334582D1*
X17890109Y5343939D1*
X17916127Y5351277D1*
X17942641Y5356551D1*
X17969487Y5359729D1*
X17996500Y5360790D1*
X18023513Y5359729D1*
X18050359Y5356551D1*
X18076873Y5351277D1*
X18102891Y5343939D1*
X18128254Y5334582D1*
X18152804Y5323265D1*
X18176391Y5310055D1*
X18198869Y5295036D1*
X18220098Y5278300D1*
X18239950Y5259950D1*
X18258300Y5240098D1*
X18275036Y5218869D1*
X18290055Y5196391D1*
X18303265Y5172804D1*
X18314582Y5148254D1*
X18323939Y5122891D1*
X18331277Y5096873D1*
X18336551Y5070359D1*
X18339729Y5043513D1*
X18340790Y5016500D1*
X18339729Y4989487D1*
Y3528987D2*
X18336551Y3502141D1*
X18331277Y3475627D1*
X18323939Y3449609D1*
X18314582Y3424246D1*
X18303265Y3399696D1*
X18290055Y3376109D1*
X18275036Y3353631D1*
X18258300Y3332402D1*
X18239950Y3312550D1*
X18220098Y3294200D1*
X18198869Y3277464D1*
X18176391Y3262445D1*
X18152804Y3249235D1*
X18128254Y3237918D1*
X18102891Y3228561D1*
X18076873Y3221223D1*
X18050359Y3215949D1*
X18023513Y3212771D1*
X17996500Y3211710D1*
X17969487Y3212771D1*
X17942641Y3215949D1*
X17916127Y3221223D1*
X17890109Y3228561D1*
X17864746Y3237918D1*
X17840196Y3249235D1*
X17816609Y3262445D1*
X17794131Y3277464D1*
X17772902Y3294200D1*
X17753050Y3312550D1*
X17734700Y3332402D1*
X17717964Y3353631D1*
X17702945Y3376109D1*
X17689735Y3399696D1*
X17678418Y3424246D1*
X17669061Y3449609D1*
X17661723Y3475627D1*
X17656449Y3502141D1*
X17653271Y3528987D1*
X17652210Y3556000D1*
X17653271Y3583013D1*
X17656449Y3609859D1*
X17661723Y3636373D1*
X17669061Y3662391D1*
X17678418Y3687754D1*
X17689735Y3712304D1*
X17702945Y3735891D1*
X17717964Y3758369D1*
X17734700Y3779598D1*
X17753050Y3799450D1*
X17772902Y3817800D1*
X17794131Y3834536D1*
X17816609Y3849555D1*
X17840196Y3862765D1*
X17864746Y3874082D1*
X17890109Y3883439D1*
X17916127Y3890777D1*
X17942641Y3896051D1*
X17969487Y3899229D1*
X17996500Y3900290D1*
X18023513Y3899229D1*
X18050359Y3896051D1*
X18076873Y3890777D1*
X18102891Y3883439D1*
X18128254Y3874082D1*
X18152804Y3862765D1*
X18176391Y3849555D1*
X18198869Y3834536D1*
X18220098Y3817800D1*
X18239950Y3799450D1*
X18258300Y3779598D1*
X18275036Y3758369D1*
X18290055Y3735891D1*
X18303265Y3712304D1*
X18314582Y3687754D1*
X18323939Y3662391D1*
X18331277Y3636373D1*
X18336551Y3609859D1*
X18339729Y3583013D1*
X18340790Y3556000D1*
X18339729Y3528987D1*
X22238602Y5190214D2*
X22212272Y5191241D1*
X22186206Y5194326D1*
X22160462Y5199446D1*
X22135199Y5206571D1*
X22110573Y5215656D1*
X22086736Y5226645D1*
X22063834Y5239471D1*
X22042009Y5254054D1*
X22021396Y5270304D1*
X22002121Y5288121D1*
X21984304Y5307396D1*
X21968054Y5328009D1*
X21953471Y5349834D1*
X21940645Y5372736D1*
X21929656Y5396573D1*
X21920571Y5421199D1*
X21913446Y5446462D1*
X21908326Y5472206D1*
X21905241Y5498272D1*
X21904210Y5524500D1*
X21905241Y5550728D1*
X21908326Y5576794D1*
X21913446Y5602538D1*
X21920571Y5627801D1*
X21929656Y5652427D1*
X21940645Y5676264D1*
X21953471Y5699166D1*
X21968054Y5720991D1*
X21984304Y5741604D1*
X22002121Y5760879D1*
X22021396Y5778696D1*
X22042009Y5794946D1*
X22063834Y5809529D1*
X22086736Y5822355D1*
X22110573Y5833344D1*
X22135199Y5842429D1*
X22160462Y5849554D1*
X22186206Y5854674D1*
X22212272Y5857759D1*
X22270250Y5858790D1*
X22364728Y5857759D1*
X22390794Y5854674D1*
X22416538Y5849554D1*
X22441801Y5842429D1*
X22466427Y5833344D1*
X22490264Y5822355D1*
X22513166Y5809529D1*
X22534991Y5794946D1*
X22555604Y5778696D1*
X22574879Y5760879D1*
X22592696Y5741604D1*
X22608946Y5720991D1*
X22623529Y5699166D1*
X22636355Y5676264D1*
X22647344Y5652427D1*
X22656429Y5627801D1*
X22663554Y5602538D1*
X22668674Y5576794D1*
X22671759Y5550728D1*
X22672790Y5524500D1*
X22671759Y5498272D1*
X22668674Y5472206D1*
X22663554Y5446462D1*
X22656429Y5421199D1*
X22647344Y5396573D1*
X22636355Y5372736D1*
X22623529Y5349834D1*
X22608946Y5328009D1*
X22592696Y5307396D1*
X22574879Y5288121D1*
X22555604Y5270304D1*
X22534991Y5254054D1*
X22513166Y5239471D1*
X22490264Y5226645D1*
X22466427Y5215656D1*
X22441801Y5206571D1*
X22416538Y5199446D1*
X22390794Y5194326D1*
X22364728Y5191241D1*
X22306750Y5190210D1*
X22238500Y5190334D1*
X23738602Y5190214D2*
X23712272Y5191241D1*
X23686206Y5194326D1*
X23660462Y5199446D1*
X23635199Y5206571D1*
X23610573Y5215656D1*
X23586736Y5226645D1*
X23563834Y5239471D1*
X23542009Y5254054D1*
X23521396Y5270304D1*
X23502121Y5288121D1*
X23484304Y5307396D1*
X23468054Y5328009D1*
X23453471Y5349834D1*
X23440645Y5372736D1*
X23429656Y5396573D1*
X23420571Y5421199D1*
X23413446Y5446462D1*
X23408326Y5472206D1*
X23405241Y5498272D1*
X23404210Y5524500D1*
X23405241Y5550728D1*
X23408326Y5576794D1*
X23413446Y5602538D1*
X23420571Y5627801D1*
X23429656Y5652427D1*
X23440645Y5676264D1*
X23453471Y5699166D1*
X23468054Y5720991D1*
X23484304Y5741604D1*
X23502121Y5760879D1*
X23521396Y5778696D1*
X23542009Y5794946D1*
X23563834Y5809529D1*
X23586736Y5822355D1*
X23610573Y5833344D1*
X23635199Y5842429D1*
X23660462Y5849554D1*
X23686206Y5854674D1*
X23712272Y5857759D1*
X23770250Y5858790D1*
X23864728Y5857759D1*
X23890794Y5854674D1*
X23916538Y5849554D1*
X23941801Y5842429D1*
X23966427Y5833344D1*
X23990264Y5822355D1*
X24013166Y5809529D1*
X24034991Y5794946D1*
X24055604Y5778696D1*
X24074879Y5760879D1*
X24092696Y5741604D1*
X24108946Y5720991D1*
X24123529Y5699166D1*
X24136355Y5676264D1*
X24147344Y5652427D1*
X24156429Y5627801D1*
X24163554Y5602538D1*
X24168674Y5576794D1*
X24171759Y5550728D1*
X24172790Y5524500D1*
X24171759Y5498272D1*
X24168674Y5472206D1*
X24163554Y5446462D1*
X24156429Y5421199D1*
X24147344Y5396573D1*
X24136355Y5372736D1*
X24123529Y5349834D1*
X24108946Y5328009D1*
X24092696Y5307396D1*
X24074879Y5288121D1*
X24055604Y5270304D1*
X24034991Y5254054D1*
X24013166Y5239471D1*
X23990264Y5226645D1*
X23966427Y5215656D1*
X23941801Y5206571D1*
X23916538Y5199446D1*
X23890794Y5194326D1*
X23864728Y5191241D1*
X23806750Y5190210D1*
X23738500Y5190334D1*
X23351821Y5499841D2*
X23348921Y5475334D1*
X23344106Y5451130D1*
X23337408Y5427379D1*
X23328866Y5404226D1*
X23318534Y5381815D1*
X23306476Y5360284D1*
X23292766Y5339765D1*
X23277488Y5320385D1*
X23260737Y5302263D1*
X23242615Y5285512D1*
X23223235Y5270234D1*
X23202716Y5256524D1*
X23181185Y5244466D1*
X23158774Y5234134D1*
X23135621Y5225592D1*
X23111870Y5218894D1*
X23087666Y5214079D1*
X23063159Y5211179D1*
X23038500Y5210210D1*
X23013841Y5211179D1*
X22989334Y5214079D1*
X22965130Y5218894D1*
X22941379Y5225592D1*
X22918226Y5234134D1*
X22895815Y5244466D1*
X22874284Y5256524D1*
X22853765Y5270234D1*
X22834385Y5285512D1*
X22816263Y5302263D1*
X22799512Y5320385D1*
X22784234Y5339765D1*
X22770524Y5360284D1*
X22758466Y5381815D1*
X22748134Y5404226D1*
X22739592Y5427379D1*
X22732894Y5451130D1*
X22728079Y5475334D1*
X22725179Y5499841D1*
X22724210Y5524500D1*
X22725179Y5549159D1*
X22728079Y5573666D1*
X22732894Y5597870D1*
X22739592Y5621621D1*
X22748134Y5644774D1*
X22758466Y5667185D1*
X22770524Y5688716D1*
X22784234Y5709235D1*
X22799512Y5728615D1*
X22816263Y5746737D1*
X22834385Y5763488D1*
X22853765Y5778766D1*
X22874284Y5792476D1*
X22895815Y5804534D1*
X22918226Y5814866D1*
X22941379Y5823408D1*
X22965130Y5830106D1*
X22989334Y5834921D1*
X23013841Y5837821D1*
X23038500Y5838790D1*
X23063159Y5837821D1*
X23087666Y5834921D1*
X23111870Y5830106D1*
X23135621Y5823408D1*
X23158774Y5814866D1*
X23181185Y5804534D1*
X23202716Y5792476D1*
X23223235Y5778766D1*
X23242615Y5763488D1*
X23260737Y5746737D1*
X23277488Y5728615D1*
X23292766Y5709235D1*
X23306476Y5688716D1*
X23318534Y5667185D1*
X23328866Y5644774D1*
X23337408Y5621621D1*
X23344106Y5597870D1*
X23348921Y5573666D1*
X23351821Y5549159D1*
X23352790Y5524500D1*
X23351821Y5499841D1*
X23668714Y3118398D2*
X23669741Y3144728D1*
X23672826Y3170794D1*
X23677946Y3196538D1*
X23685071Y3221801D1*
X23694156Y3246427D1*
X23705145Y3270264D1*
X23717971Y3293166D1*
X23732554Y3314991D1*
X23748804Y3335604D1*
X23766621Y3354879D1*
X23785896Y3372696D1*
X23806509Y3388946D1*
X23828334Y3403529D1*
X23851236Y3416355D1*
X23875073Y3427344D1*
X23899699Y3436429D1*
X23924962Y3443554D1*
X23950706Y3448674D1*
X23976772Y3451759D1*
X24003000Y3452790D1*
X24029228Y3451759D1*
X24055294Y3448674D1*
X24081038Y3443554D1*
X24106301Y3436429D1*
X24130927Y3427344D1*
X24154764Y3416355D1*
X24177666Y3403529D1*
X24199491Y3388946D1*
X24220104Y3372696D1*
X24239379Y3354879D1*
X24257196Y3335604D1*
X24273446Y3314991D1*
X24288781Y3291824D1*
X24288750Y9075167D1*
X23807210Y9075334D1*
X23771938Y9078402D1*
X23751970Y9082374D1*
X23732375Y9087901D1*
X23713274Y9094947D1*
X23694785Y9103471D1*
X23677021Y9113419D1*
X23660093Y9124730D1*
X23644105Y9137334D1*
X23629154Y9151154D1*
X23615334Y9166105D1*
X23602730Y9182093D1*
X23591419Y9199021D1*
X23581471Y9216785D1*
X23572947Y9235274D1*
X23565901Y9254375D1*
X23560374Y9273970D1*
X23556402Y9293938D1*
X23554009Y9314156D1*
X23553210Y9334500D1*
X23554009Y9354844D1*
X23556402Y9375062D1*
X23560374Y9395030D1*
X23565901Y9414625D1*
X23572947Y9433726D1*
X23581471Y9452215D1*
X23591419Y9469979D1*
X23602730Y9486907D1*
X23615334Y9502895D1*
X23629154Y9517846D1*
X23644105Y9531666D1*
X23660093Y9544270D1*
X23679172Y9556786D1*
X22516827Y9556750D1*
X22490990Y9546666D1*
X22453715Y9537718D1*
X22415500Y9534710D1*
X22377285Y9537718D1*
X22340010Y9546666D1*
X22314597Y9556725D1*
X22066374Y9556750D1*
X22066152Y8189009D1*
X22063833Y8179350D1*
X22058643Y8170880D1*
X22051089Y8164428D1*
X22041912Y8160627D1*
X22034500Y8159750D1*
X17557874D1*
X17557750Y1012403D1*
X17600886Y969371D1*
X18638118Y969290D1*
X18658506Y978441D1*
X18684973Y988205D1*
X18712125Y995863D1*
X18739795Y1001367D1*
X18767810Y1004682D1*
X18796000Y1005790D1*
X18824190Y1004682D1*
X18852205Y1001367D1*
X18879875Y995863D1*
X18907027Y988205D1*
X18933494Y978441D1*
X18959114Y966630D1*
X18983729Y952845D1*
X19007185Y937172D1*
X19029340Y919706D1*
X19050056Y900556D1*
X19069206Y879840D1*
X19086672Y857685D1*
X19102345Y834229D1*
X19116130Y809614D1*
X19127941Y783994D1*
X19137705Y757527D1*
X19145363Y730375D1*
X19150867Y702705D1*
X19154182Y674690D1*
X19155290Y614750D1*
Y539716D1*
X24288626Y539750D1*
X24288750Y2844974D1*
X24273446Y2822009D1*
X24257196Y2801396D1*
X24239379Y2782121D1*
X24220104Y2764304D1*
X24199491Y2748054D1*
X24177666Y2733471D1*
X24154764Y2720645D1*
X24130927Y2709656D1*
X24106301Y2700571D1*
X24081038Y2693446D1*
X24055294Y2688326D1*
X24029228Y2685241D1*
X24003000Y2684210D1*
X23976772Y2685241D1*
X23950706Y2688326D1*
X23924962Y2693446D1*
X23899699Y2700571D1*
X23875073Y2709656D1*
X23851236Y2720645D1*
X23828334Y2733471D1*
X23806509Y2748054D1*
X23785896Y2764304D1*
X23766621Y2782121D1*
X23748804Y2801396D1*
X23732554Y2822009D1*
X23717971Y2843834D1*
X23705145Y2866736D1*
X23694156Y2890573D1*
X23685071Y2915199D1*
X23677946Y2940462D1*
X23672826Y2966206D1*
X23669741Y2992272D1*
X23668710Y3050250D1*
Y3118184D1*
X22611687Y6583562D2*
X22609283Y6563250D1*
X22605293Y6543190D1*
X22599741Y6523504D1*
X22592661Y6504315D1*
X22584098Y6485740D1*
X22574104Y6467894D1*
X22562741Y6450888D1*
X22550078Y6434825D1*
X22536194Y6419806D1*
X22521175Y6405922D1*
X22505112Y6393259D1*
X22488106Y6381896D1*
X22470260Y6371902D1*
X22451685Y6363339D1*
X22432496Y6356259D1*
X22412810Y6350707D1*
X22392750Y6346717D1*
X22372438Y6344313D1*
X22352000Y6343510D1*
X22331562Y6344313D1*
X22311250Y6346717D1*
X22291190Y6350707D1*
X22271504Y6356259D1*
X22252315Y6363339D1*
X22233740Y6371902D1*
X22215894Y6381896D1*
X22198888Y6393259D1*
X22182825Y6405922D1*
X22167806Y6419806D1*
X22153922Y6434825D1*
X22141259Y6450888D1*
X22129896Y6467894D1*
X22119902Y6485740D1*
X22111339Y6504315D1*
X22104259Y6523504D1*
X22098707Y6543190D1*
X22094717Y6563250D1*
X22092313Y6583562D1*
X22091510Y6604000D1*
X22092313Y6624438D1*
X22094717Y6644750D1*
X22098707Y6664810D1*
X22104259Y6684496D1*
X22111339Y6703685D1*
X22119902Y6722260D1*
X22129896Y6740106D1*
X22141259Y6757112D1*
X22153922Y6773175D1*
X22167806Y6788194D1*
X22182825Y6802078D1*
X22198888Y6814741D1*
X22215894Y6826104D1*
X22233740Y6836098D1*
X22252315Y6844661D1*
X22271504Y6851741D1*
X22291190Y6857293D1*
X22311250Y6861283D1*
X22331562Y6863687D1*
X22352000Y6864490D1*
X22372438Y6863687D1*
X22392750Y6861283D1*
X22412810Y6857293D1*
X22432496Y6851741D1*
X22451685Y6844661D1*
X22470260Y6836098D1*
X22488106Y6826104D1*
X22505112Y6814741D1*
X22521175Y6802078D1*
X22536194Y6788194D1*
X22550078Y6773175D1*
X22562741Y6757112D1*
X22574104Y6740106D1*
X22584098Y6722260D1*
X22592661Y6703685D1*
X22599741Y6684496D1*
X22605293Y6664810D1*
X22609283Y6644750D1*
X22611687Y6624438D1*
X22612490Y6604000D1*
X22611687Y6583562D1*
Y7853562D2*
X22609283Y7833250D1*
X22605293Y7813190D1*
X22599741Y7793504D1*
X22592661Y7774315D1*
X22584098Y7755740D1*
X22574104Y7737894D1*
X22562741Y7720888D1*
X22550078Y7704825D1*
X22536194Y7689806D1*
X22521175Y7675922D1*
X22505112Y7663259D1*
X22488106Y7651896D1*
X22470260Y7641902D1*
X22451685Y7633339D1*
X22432496Y7626259D1*
X22412810Y7620707D1*
X22392750Y7616717D1*
X22372438Y7614313D1*
X22352000Y7613510D1*
X22331562Y7614313D1*
X22311250Y7616717D1*
X22291190Y7620707D1*
X22271504Y7626259D1*
X22252315Y7633339D1*
X22233740Y7641902D1*
X22215894Y7651896D1*
X22198888Y7663259D1*
X22182825Y7675922D1*
X22167806Y7689806D1*
X22153922Y7704825D1*
X22141259Y7720888D1*
X22129896Y7737894D1*
X22119902Y7755740D1*
X22111339Y7774315D1*
X22104259Y7793504D1*
X22098707Y7813190D1*
X22094717Y7833250D1*
X22092313Y7853562D1*
X22091510Y7874000D1*
X22092313Y7894438D1*
X22094717Y7914750D1*
X22098707Y7934810D1*
X22104259Y7954496D1*
X22111339Y7973685D1*
X22119902Y7992260D1*
X22129896Y8010106D1*
X22141259Y8027112D1*
X22153922Y8043175D1*
X22167806Y8058194D1*
X22182825Y8072078D1*
X22198888Y8084741D1*
X22215894Y8096104D1*
X22233740Y8106098D1*
X22252315Y8114661D1*
X22271504Y8121741D1*
X22291190Y8127293D1*
X22311250Y8131283D1*
X22331562Y8133687D1*
X22352000Y8134490D1*
X22372438Y8133687D1*
X22392750Y8131283D1*
X22412810Y8127293D1*
X22432496Y8121741D1*
X22451685Y8114661D1*
X22470260Y8106098D1*
X22488106Y8096104D1*
X22505112Y8084741D1*
X22521175Y8072078D1*
X22536194Y8058194D1*
X22550078Y8043175D1*
X22562741Y8027112D1*
X22574104Y8010106D1*
X22584098Y7992260D1*
X22592661Y7973685D1*
X22599741Y7954496D1*
X22605293Y7934810D1*
X22609283Y7914750D1*
X22611687Y7894438D1*
X22612490Y7874000D1*
X22611687Y7853562D1*
X23310187Y6583562D2*
X23307783Y6563250D1*
X23303793Y6543190D1*
X23298241Y6523504D1*
X23291161Y6504315D1*
X23282598Y6485740D1*
X23272604Y6467894D1*
X23261241Y6450888D1*
X23248578Y6434825D1*
X23234694Y6419806D1*
X23219675Y6405922D1*
X23203612Y6393259D1*
X23186606Y6381896D1*
X23168760Y6371902D1*
X23150185Y6363339D1*
X23130996Y6356259D1*
X23111310Y6350707D1*
X23091250Y6346717D1*
X23070938Y6344313D1*
X23050500Y6343510D1*
X23030062Y6344313D1*
X23009750Y6346717D1*
X22989690Y6350707D1*
X22970004Y6356259D1*
X22950815Y6363339D1*
X22932240Y6371902D1*
X22914394Y6381896D1*
X22897388Y6393259D1*
X22881325Y6405922D1*
X22866306Y6419806D1*
X22852422Y6434825D1*
X22839759Y6450888D1*
X22828396Y6467894D1*
X22818402Y6485740D1*
X22809839Y6504315D1*
X22802759Y6523504D1*
X22797207Y6543190D1*
X22793217Y6563250D1*
X22790813Y6583562D1*
X22790010Y6604000D1*
X22790813Y6624438D1*
X22793217Y6644750D1*
X22797207Y6664810D1*
X22802759Y6684496D1*
X22809839Y6703685D1*
X22818402Y6722260D1*
X22828396Y6740106D1*
X22839759Y6757112D1*
X22852422Y6773175D1*
X22866306Y6788194D1*
X22881325Y6802078D1*
X22897388Y6814741D1*
X22914394Y6826104D1*
X22932240Y6836098D1*
X22950815Y6844661D1*
X22970004Y6851741D1*
X22989690Y6857293D1*
X23009750Y6861283D1*
X23030062Y6863687D1*
X23050500Y6864490D1*
X23070938Y6863687D1*
X23091250Y6861283D1*
X23111310Y6857293D1*
X23130996Y6851741D1*
X23150185Y6844661D1*
X23168760Y6836098D1*
X23186606Y6826104D1*
X23203612Y6814741D1*
X23219675Y6802078D1*
X23234694Y6788194D1*
X23248578Y6773175D1*
X23261241Y6757112D1*
X23272604Y6740106D1*
X23282598Y6722260D1*
X23291161Y6703685D1*
X23298241Y6684496D1*
X23303793Y6664810D1*
X23307783Y6644750D1*
X23310187Y6624438D1*
X23310990Y6604000D1*
X23310187Y6583562D1*
Y7853562D2*
X23307783Y7833250D1*
X23303793Y7813190D1*
X23298241Y7793504D1*
X23291161Y7774315D1*
X23282598Y7755740D1*
X23272604Y7737894D1*
X23261241Y7720888D1*
X23248578Y7704825D1*
X23234694Y7689806D1*
X23219675Y7675922D1*
X23203612Y7663259D1*
X23186606Y7651896D1*
X23168760Y7641902D1*
X23150185Y7633339D1*
X23130996Y7626259D1*
X23111310Y7620707D1*
X23091250Y7616717D1*
X23070938Y7614313D1*
X23050500Y7613510D1*
X23030062Y7614313D1*
X23009750Y7616717D1*
X22989690Y7620707D1*
X22970004Y7626259D1*
X22950815Y7633339D1*
X22932240Y7641902D1*
X22914394Y7651896D1*
X22897388Y7663259D1*
X22881325Y7675922D1*
X22866306Y7689806D1*
X22852422Y7704825D1*
X22839759Y7720888D1*
X22828396Y7737894D1*
X22818402Y7755740D1*
X22809839Y7774315D1*
X22802759Y7793504D1*
X22797207Y7813190D1*
X22793217Y7833250D1*
X22790813Y7853562D1*
X22790010Y7874000D1*
X22790813Y7894438D1*
X22793217Y7914750D1*
X22797207Y7934810D1*
X22802759Y7954496D1*
X22809839Y7973685D1*
X22818402Y7992260D1*
X22828396Y8010106D1*
X22839759Y8027112D1*
X22852422Y8043175D1*
X22866306Y8058194D1*
X22881325Y8072078D1*
X22897388Y8084741D1*
X22914394Y8096104D1*
X22932240Y8106098D1*
X22950815Y8114661D1*
X22970004Y8121741D1*
X22989690Y8127293D1*
X23009750Y8131283D1*
X23030062Y8133687D1*
X23050500Y8134490D1*
X23070938Y8133687D1*
X23091250Y8131283D1*
X23111310Y8127293D1*
X23130996Y8121741D1*
X23150185Y8114661D1*
X23168760Y8106098D1*
X23186606Y8096104D1*
X23203612Y8084741D1*
X23219675Y8072078D1*
X23234694Y8058194D1*
X23248578Y8043175D1*
X23261241Y8027112D1*
X23272604Y8010106D1*
X23282598Y7992260D1*
X23291161Y7973685D1*
X23298241Y7954496D1*
X23303793Y7934810D1*
X23307783Y7914750D1*
X23310187Y7894438D1*
X23310990Y7874000D1*
X23310187Y7853562D1*
X24008687Y6583562D2*
X24006283Y6563250D1*
X24002293Y6543190D1*
X23996741Y6523504D1*
X23989661Y6504315D1*
X23981098Y6485740D1*
X23971104Y6467894D1*
X23959741Y6450888D1*
X23947078Y6434825D1*
X23933194Y6419806D1*
X23918175Y6405922D1*
X23902112Y6393259D1*
X23885106Y6381896D1*
X23867260Y6371902D1*
X23848685Y6363339D1*
X23829496Y6356259D1*
X23809810Y6350707D1*
X23789750Y6346717D1*
X23769438Y6344313D1*
X23749000Y6343510D1*
X23728562Y6344313D1*
X23708250Y6346717D1*
X23688190Y6350707D1*
X23668504Y6356259D1*
X23649315Y6363339D1*
X23630740Y6371902D1*
X23612894Y6381896D1*
X23595888Y6393259D1*
X23579825Y6405922D1*
X23564806Y6419806D1*
X23550922Y6434825D1*
X23538259Y6450888D1*
X23526896Y6467894D1*
X23516902Y6485740D1*
X23508339Y6504315D1*
X23501259Y6523504D1*
X23495707Y6543190D1*
X23491717Y6563250D1*
X23489313Y6583562D1*
X23488510Y6604000D1*
X23489313Y6624438D1*
X23491717Y6644750D1*
X23495707Y6664810D1*
X23501259Y6684496D1*
X23508339Y6703685D1*
X23516902Y6722260D1*
X23526896Y6740106D1*
X23538259Y6757112D1*
X23550922Y6773175D1*
X23564806Y6788194D1*
X23579825Y6802078D1*
X23595888Y6814741D1*
X23612894Y6826104D1*
X23630740Y6836098D1*
X23649315Y6844661D1*
X23668504Y6851741D1*
X23688190Y6857293D1*
X23708250Y6861283D1*
X23728562Y6863687D1*
X23749000Y6864490D1*
X23769438Y6863687D1*
X23789750Y6861283D1*
X23809810Y6857293D1*
X23829496Y6851741D1*
X23848685Y6844661D1*
X23867260Y6836098D1*
X23885106Y6826104D1*
X23902112Y6814741D1*
X23918175Y6802078D1*
X23933194Y6788194D1*
X23947078Y6773175D1*
X23959741Y6757112D1*
X23971104Y6740106D1*
X23981098Y6722260D1*
X23989661Y6703685D1*
X23996741Y6684496D1*
X24002293Y6664810D1*
X24006283Y6644750D1*
X24008687Y6624438D1*
X24009490Y6604000D1*
X24008687Y6583562D1*
X22659037Y9251833D2*
X22653040Y9213972D1*
X22641195Y9177514D1*
X22623791Y9143359D1*
X22601260Y9112346D1*
X22574154Y9085240D1*
X22543141Y9062709D1*
X22508986Y9045305D1*
X22472528Y9033460D1*
X22434667Y9027463D1*
X22396333D1*
X22358472Y9033460D1*
X22322014Y9045305D1*
X22287859Y9062709D1*
X22256846Y9085240D1*
X22229740Y9112346D1*
X22207209Y9143359D1*
X22189805Y9177514D1*
X22177960Y9213972D1*
X22171963Y9251833D1*
Y9290167D1*
X22177960Y9328028D1*
X22189805Y9364486D1*
X22207209Y9398641D1*
X22229740Y9429654D1*
X22256846Y9456760D1*
X22287859Y9479291D1*
X22322014Y9496695D1*
X22358472Y9508540D1*
X22396333Y9514537D1*
X22434667D1*
X22472528Y9508540D1*
X22508986Y9496695D1*
X22543141Y9479291D1*
X22574154Y9456760D1*
X22601260Y9429654D1*
X22623791Y9398641D1*
X22641195Y9364486D1*
X22653040Y9328028D1*
X22659037Y9290167D1*
Y9251833D1*
X16675162Y12795583D2*
X24155338D1*
X16675162Y12732417D2*
X24155338D1*
X16675162Y12669250D2*
X24155338D1*
X16675162Y12606083D2*
X24155338D1*
X16675162Y12542917D2*
X24155338D1*
X16675162Y12479750D2*
X24155338D1*
X16675162Y12416583D2*
X24155338D1*
X16675162Y12353417D2*
X24155338D1*
X16675162Y12290250D2*
X24155338D1*
X16675162Y12227083D2*
X24155338D1*
X16675162Y12163917D2*
X24155338D1*
X16675162Y12100750D2*
X24155338D1*
X16675162Y12037583D2*
X24155338D1*
X16675162Y11974417D2*
X24155338D1*
X16675162Y11911250D2*
X24155338D1*
X16675162Y11848083D2*
X24155338D1*
X16675162Y11784917D2*
X24155338D1*
X16675162Y11721750D2*
X24155338D1*
X16675162Y11658583D2*
X24155338D1*
X16675162Y11595417D2*
X24155338D1*
X16675162Y11532250D2*
X24155338D1*
X16675162Y11469083D2*
X24155338D1*
X16675162Y11405917D2*
X24155338D1*
X16675162Y11342750D2*
X24155338D1*
X16675162Y11279583D2*
X24155338D1*
X16675162Y11216417D2*
X24155338D1*
X16675162Y11153250D2*
X24155338D1*
X16675162Y11090083D2*
X24155338D1*
X16675162Y11026917D2*
X24155338D1*
X16675162Y10963750D2*
X24155338D1*
X16675162Y10900583D2*
X24155338D1*
X16675162Y10837417D2*
X24155338D1*
X16675162Y10774250D2*
X24155338D1*
X16675162Y10711083D2*
X24155338D1*
X16675162Y10647917D2*
X17146401D1*
X23938099D2*
X24155338D1*
X16675162Y10584750D2*
X17055864D1*
X24028636D2*
X24155338D1*
X16675162Y10521583D2*
X16992736D1*
X24091764D2*
X24155338D1*
X16675162Y10458417D2*
X16929484D1*
X16675162Y10395250D2*
X16866357D1*
X16675162Y10332083D2*
X16805461D1*
X16675162Y10268917D2*
X16774703D1*
X17259808D2*
X18317803D1*
X18639197D2*
X20134374D1*
X20505626D2*
X23248975D1*
X23360025D2*
X23502975D1*
X23614025D2*
X23756975D1*
X16675162Y10205750D2*
X16769742D1*
X17196681D2*
X18317803D1*
X18639197D2*
X20134374D1*
X20505626D2*
X21392468D1*
X21533532D2*
X23155957D1*
X16675162Y10142583D2*
X16778920D1*
X17133429D2*
X18317803D1*
X18639197D2*
X18928990D1*
X19044010D2*
X20134374D1*
X20505626D2*
X21308504D1*
X21617496D2*
X22244881D1*
X22586119D2*
X23124827D1*
X16675162Y10079417D2*
X16778920D1*
X17130080D2*
X18317803D1*
X18639197D2*
X18836965D1*
X19136035D2*
X20134374D1*
X20505626D2*
X21278242D1*
X21647758D2*
X22244881D1*
X22586119D2*
X23119618D1*
X16675162Y10016250D2*
X16768874D1*
X17140126D2*
X18297835D1*
X18659165D2*
X18805835D1*
X19167165D2*
X20134374D1*
X20505626D2*
X21273157D1*
X21652843D2*
X22244881D1*
X22586119D2*
X23137850D1*
X16675162Y9953083D2*
X16741713D1*
X17140126D2*
X18292378D1*
X18664622D2*
X18800378D1*
X19172622D2*
X20134374D1*
X20505626D2*
X21272413D1*
X17139382Y9889917D2*
X18310113D1*
X18646887D2*
X18818113D1*
X19154887D2*
X20134374D1*
X20505626D2*
X21272413D1*
X17121646Y9826750D2*
X18361707D1*
X18595293D2*
X18869707D1*
X19103293D2*
X20134374D1*
X20505626D2*
X21272413D1*
X17072037Y9763583D2*
X20134374D1*
X20505626D2*
X21272413D1*
X17008785Y9700417D2*
X20134374D1*
X20505626D2*
X21272413D1*
X16945657Y9637250D2*
X20134374D1*
X20505626D2*
X21272413D1*
X16886126Y9574083D2*
X20134374D1*
X20505626D2*
X21615462D1*
X16886126Y9510917D2*
X20134374D1*
X20505626D2*
X21615462D1*
X16886126Y9447750D2*
X20134374D1*
X20505626D2*
X21615462D1*
X16886126Y9384583D2*
X20134374D1*
X20505626D2*
X21615462D1*
X16886126Y9321417D2*
X20134374D1*
X20505626D2*
X21615462D1*
X16886126Y9258250D2*
X20134374D1*
X20505626D2*
X21615462D1*
X16886126Y9195083D2*
X20134374D1*
X20505626D2*
X21615462D1*
X16886126Y9131917D2*
X18444927D1*
X18512108D2*
X18952927D1*
X19020108D2*
X20134746D1*
X20505254D2*
X21615462D1*
X16886126Y9068750D2*
X18333306D1*
X18623694D2*
X18841306D1*
X19131694D2*
X20150869D1*
X20489131D2*
X21615462D1*
X16886126Y9005583D2*
X18299323D1*
X18657677D2*
X18807323D1*
X19165677D2*
X20199734D1*
X20440266D2*
X21615462D1*
X16886126Y8942417D2*
X18292006D1*
X18664994D2*
X18800006D1*
X19172994D2*
X21615462D1*
X16886126Y8879250D2*
X18307633D1*
X18649367D2*
X18815633D1*
X19157367D2*
X21615462D1*
X16886126Y8816083D2*
X18355134D1*
X18601866D2*
X18863134D1*
X19109866D2*
X21615462D1*
X21621865Y9594710D2*
X21278710D1*
Y9963290D1*
X21292205Y9963777D1*
X21284314Y9987899D1*
X21279812Y10012876D1*
X21278784Y10038235D1*
X21281251Y10063495D1*
X21287164Y10088176D1*
X21296412Y10111811D1*
X21308820Y10133952D1*
X21324151Y10154177D1*
X21342117Y10172104D1*
X21362375Y10187394D1*
X21384541Y10199754D1*
X21408196Y10208952D1*
X21432889Y10214814D1*
X21458154Y10217226D1*
X21483511Y10216145D1*
X21508479Y10211590D1*
X21532584Y10203648D1*
X21555370Y10192470D1*
X21576404Y10178267D1*
X21595286Y10161309D1*
X21611660Y10141917D1*
X21625215Y10120460D1*
X21635693Y10097344D1*
X21642895Y10073007D1*
X21646686Y10047912D1*
X21647181Y10026651D1*
X21644267Y9999872D1*
X21653500Y10001250D1*
X22251169D1*
X22251210Y10197290D1*
X22579790D1*
Y10001258D1*
X23152227Y10001854D1*
X23140389Y10024303D1*
X23131839Y10048198D1*
X23126749Y10073061D1*
X23125220Y10098394D1*
X23127284Y10123689D1*
X23132898Y10148439D1*
X23141951Y10172148D1*
X23154260Y10194341D1*
X23169580Y10214574D1*
X23187604Y10232442D1*
X23207969Y10247585D1*
X23230269Y10259701D1*
X23254056Y10268547D1*
X23278854Y10273946D1*
X23304166Y10275790D1*
X23329484Y10274041D1*
X23354302Y10268734D1*
X23378122Y10259977D1*
X23400467Y10247944D1*
X23420889Y10232877D1*
X23431723Y10223277D1*
X23453116Y10241549D1*
X23477104Y10256249D1*
X23503096Y10267015D1*
X23530453Y10273583D1*
X23558500Y10275790D1*
X23586547Y10273583D1*
X23613904Y10267015D1*
X23639896Y10256249D1*
X23663884Y10241549D1*
X23685464Y10223075D1*
X23707116Y10241549D1*
X23731104Y10256249D1*
X23757096Y10267015D1*
X23784453Y10273583D1*
X23812500Y10275790D1*
X23824644Y10275313D1*
X23801774Y10298171D1*
X20499214Y10298210D1*
X20499290Y9144000D1*
X20497083Y9115953D1*
X20490515Y9088596D1*
X20479749Y9062604D1*
X20465049Y9038616D1*
X20446777Y9017223D1*
X20425384Y8998951D1*
X20401396Y8984251D1*
X20375404Y8973485D1*
X20348047Y8966917D1*
X20320000Y8964710D1*
X20291953Y8966917D1*
X20264596Y8973485D1*
X20238604Y8984251D1*
X20214616Y8998951D1*
X20193223Y9017223D1*
X20174951Y9038616D1*
X20160251Y9062604D1*
X20149485Y9088596D1*
X20142917Y9115953D1*
X20140710Y9144000D1*
Y10298286D1*
X18632909Y10298210D1*
X18632790Y10063138D1*
X18645251Y10038571D1*
X18654003Y10011635D1*
X18658434Y9983661D1*
Y9955339D1*
X18654003Y9927365D1*
X18645251Y9900429D1*
X18632393Y9875194D1*
X18615746Y9852281D1*
X18595719Y9832254D1*
X18572806Y9815607D1*
X18547571Y9802749D1*
X18520635Y9793997D1*
X18492661Y9789566D1*
X18464339D1*
X18436365Y9793997D1*
X18409429Y9802749D1*
X18384194Y9815607D1*
X18361281Y9832254D1*
X18341254Y9852281D1*
X18324607Y9875194D1*
X18311749Y9900429D1*
X18302997Y9927365D1*
X18298566Y9955339D1*
Y9983661D1*
X18302997Y10011635D1*
X18311749Y10038571D1*
X18324201Y10063081D1*
X18324210Y10298286D1*
X17282790Y10298210D1*
X17123838Y10139283D1*
X17123790Y10079013D1*
X17128836Y10061854D1*
X17133238Y10034067D1*
X17133790Y9924750D1*
X17133238Y9891933D1*
X17128836Y9864146D1*
X17120143Y9837389D1*
X17107370Y9812321D1*
X17090833Y9789560D1*
X17013925Y9711871D1*
X16879835Y9577781D1*
X16879790Y8794874D1*
X18392552Y8794750D1*
X18372411Y8807481D1*
X18350874Y8825874D1*
X18332481Y8847411D1*
X18317682Y8871559D1*
X18306844Y8897726D1*
X18300232Y8925265D1*
X18298010Y8953500D1*
X18300232Y8981735D1*
X18306844Y9009274D1*
X18317682Y9035441D1*
X18332481Y9059589D1*
X18350874Y9081126D1*
X18372411Y9099519D1*
X18396559Y9114318D1*
X18422726Y9125156D1*
X18450265Y9131768D1*
X18478500Y9133990D1*
X18506735Y9131768D1*
X18534274Y9125156D1*
X18560441Y9114318D1*
X18584589Y9099519D1*
X18606126Y9081126D1*
X18624519Y9059589D1*
X18639318Y9035441D1*
X18650156Y9009274D1*
X18656768Y8981735D1*
X18658990Y8953500D1*
X18656768Y8925265D1*
X18650156Y8897726D1*
X18639318Y8871559D1*
X18624519Y8847411D1*
X18606126Y8825874D1*
X18584589Y8807481D1*
X18564160Y8794765D1*
X18900552Y8794750D1*
X18880411Y8807481D1*
X18858874Y8825874D1*
X18840481Y8847411D1*
X18825682Y8871559D1*
X18814844Y8897726D1*
X18808232Y8925265D1*
X18806010Y8953500D1*
X18808232Y8981735D1*
X18814844Y9009274D1*
X18825682Y9035441D1*
X18840481Y9059589D1*
X18858874Y9081126D1*
X18880411Y9099519D1*
X18904559Y9114318D1*
X18930726Y9125156D1*
X18958265Y9131768D1*
X18986500Y9133990D1*
X19014735Y9131768D1*
X19042274Y9125156D1*
X19068441Y9114318D1*
X19092589Y9099519D1*
X19114126Y9081126D1*
X19132519Y9059589D1*
X19147318Y9035441D1*
X19158156Y9009274D1*
X19164768Y8981735D1*
X19166990Y8953500D1*
X19164768Y8925265D1*
X19158156Y8897726D1*
X19147318Y8871559D1*
X19132519Y8847411D1*
X19114126Y8825874D1*
X19092589Y8807481D1*
X19072160Y8794765D1*
X21621874Y8794750D1*
X21621750Y9594825D1*
X19166878Y9963151D2*
X19164205Y9937913D1*
X19158017Y9913300D1*
X19148439Y9889798D1*
X19135659Y9867872D1*
X19119929Y9847955D1*
X19101562Y9830441D1*
X19080920Y9815677D1*
X19058410Y9803954D1*
X19034479Y9795504D1*
X19009600Y9790494D1*
X18984263Y9789024D1*
X18958971Y9791122D1*
X18934223Y9796747D1*
X18910509Y9805787D1*
X18888297Y9818064D1*
X18868027Y9833336D1*
X18850099Y9851299D1*
X18834868Y9871600D1*
X18822635Y9893836D1*
X18813642Y9917569D1*
X18808067Y9942328D1*
X18806020Y9967624D1*
X18807541Y9992957D1*
X18812600Y10017827D1*
X18821098Y10041741D1*
X18832866Y10064227D1*
X18847671Y10084840D1*
X18865222Y10103172D1*
X18885170Y10118862D1*
X18907122Y10131598D1*
X18930643Y10141129D1*
X18955269Y10147267D1*
X18980512Y10149891D1*
X19005874Y10148947D1*
X19030852Y10144456D1*
X19054954Y10136505D1*
X19077702Y10125253D1*
X19098647Y10110921D1*
X19117374Y10093792D1*
X19133514Y10074207D1*
X19146747Y10052551D1*
X19156812Y10029253D1*
X19163510Y10004774D1*
X19166707Y9979597D1*
X19166878Y9963151D1*
X16850173Y10372728D2*
X17092060Y10613833D1*
X17114821Y10630370D1*
X17139889Y10643142D1*
X17166646Y10651836D1*
X17194433Y10656237D1*
X17303750Y10656790D1*
X23890067Y10656237D1*
X23917854Y10651836D1*
X23944611Y10643143D1*
X23969679Y10630370D1*
X23992440Y10613833D1*
X24070129Y10536925D1*
X24161750Y10445750D1*
Y12858626D1*
X16668874Y12858750D1*
X16668750Y9873878D1*
X16775165Y9980219D1*
X16775762Y10034067D1*
X16780164Y10061854D1*
X16785222Y10078757D1*
X16785212Y10160052D1*
X16780164Y10181646D1*
X16775763Y10209433D1*
Y10237567D1*
X16780164Y10265354D1*
X16788858Y10292111D1*
X16801630Y10317179D1*
X16818167Y10339940D1*
X16850173Y10372728D1*
X21463000Y10217166D2*
D29*
Y10033000D1*
X21278834D2*
X21647166D1*
X18986500Y10149866D2*
Y9789134D1*
X18806134Y9969500D2*
X19166866D1*
X22415500Y10197166D2*
Y10033000D1*
X22251334D2*
X22579666D1*
X23304500Y10275666D2*
Y10096500D1*
X23125334D2*
X23304500D1*
X165163Y11017583D2*
D28*
X597707D1*
X1016087D2*
X1145643D1*
X1521357D2*
X2311337D1*
X165163Y10954417D2*
X534453D1*
X1016087D2*
X1145517D1*
X1521483D2*
X2311337D1*
X165163Y10891250D2*
X477403D1*
X1016087D2*
X1168833D1*
X1498167D2*
X2311337D1*
X165163Y10828083D2*
X452473D1*
X1016087D2*
X1231343D1*
X1435657D2*
X2311337D1*
X165163Y10764917D2*
X449373D1*
X864777D2*
X2311337D1*
X165163Y10701750D2*
X449373D1*
X820627D2*
X2311337D1*
X165163Y10638583D2*
X449373D1*
X820627D2*
X2311337D1*
X165163Y10575417D2*
X449373D1*
X820627D2*
X2311337D1*
X165163Y10512250D2*
X449373D1*
X820627D2*
X2311337D1*
X165163Y10449083D2*
X449373D1*
X1016087D2*
X1239403D1*
X1427597D2*
X2311337D1*
X165163Y10385917D2*
X449373D1*
X1016087D2*
X1171687D1*
X1495313D2*
X2311337D1*
X165163Y10322750D2*
X449373D1*
X1016087D2*
X1146387D1*
X1520613D2*
X2311337D1*
X165163Y10259583D2*
X449373D1*
X1016087D2*
X1144897D1*
X1522103D2*
X2311337D1*
X165163Y10196417D2*
X449373D1*
X1016087D2*
X1166600D1*
X1500400D2*
X2311337D1*
X165163Y10133250D2*
X449373D1*
X1016087D2*
X1225513D1*
X1441487D2*
X2311337D1*
X165163Y10070083D2*
X449373D1*
X820627D2*
X2311337D1*
X165163Y10006917D2*
X449373D1*
X820627D2*
X2311337D1*
X165163Y9943750D2*
X449373D1*
X820627D2*
X2311337D1*
X165163Y9880583D2*
X449373D1*
X820627D2*
X2311337D1*
X165163Y9817417D2*
X449373D1*
X820627D2*
X2083507D1*
X2234493D2*
X2311337D1*
X165163Y9754250D2*
X449373D1*
X1200883D2*
X1872543D1*
X1937337D2*
X2005373D1*
X165163Y9691083D2*
X449373D1*
X1251110D2*
X1765883D1*
X165163Y9627917D2*
X449373D1*
X1273063D2*
X1735497D1*
X165163Y9564750D2*
X449373D1*
X1275297D2*
X1732520D1*
X165163Y9501583D2*
X449373D1*
X1258677D2*
X1755093D1*
X165163Y9438417D2*
X449373D1*
X1217253D2*
X1823677D1*
X165163Y9375250D2*
X450863D1*
X1108483D2*
X1974863D1*
X165163Y9312083D2*
X471327D1*
X980863D2*
X1995327D1*
X165163Y9248917D2*
X524160D1*
X1197780D2*
X2007233D1*
X165163Y9185750D2*
X587287D1*
X1305433D2*
X1978337D1*
X165163Y9122583D2*
X650540D1*
X1463440D2*
X1974613D1*
X165163Y9059417D2*
X713667D1*
X1548023D2*
X1973373D1*
X165163Y8996250D2*
X772207D1*
X1577417D2*
X1973373D1*
X165163Y8933083D2*
X812267D1*
X1582627D2*
X1769107D1*
X165163Y8869917D2*
X907143D1*
X1582627D2*
X1736613D1*
X165163Y8806750D2*
X1211373D1*
X1582627D2*
X1732023D1*
X165163Y8743583D2*
X1211373D1*
X1582627D2*
X1752737D1*
X165163Y8680417D2*
X1211373D1*
X1582627D2*
X1816113D1*
X1993887D2*
X2311337D1*
X165163Y8617250D2*
X1211373D1*
X1582627D2*
X1861380D1*
X165163Y8554083D2*
X1206413D1*
X1587587D2*
X1861380D1*
X165163Y8490917D2*
X1206413D1*
X1587587D2*
X1861380D1*
X165163Y8427750D2*
X1206413D1*
X1587587D2*
X1861380D1*
X165163Y8364583D2*
X1206413D1*
X1587587D2*
X1861380D1*
X165163Y8301417D2*
X1206413D1*
X1587587D2*
X2311337D1*
X165163Y8238250D2*
X1206413D1*
X1587587D2*
X2311337D1*
X165163Y8175083D2*
X1212490D1*
X1581510D2*
X2311337D1*
X165163Y8111917D2*
X1207033D1*
X1586967D2*
X2311337D1*
X165163Y8048750D2*
X1224273D1*
X1569727D2*
X2311337D1*
X165163Y7985583D2*
X1273633D1*
X1520367D2*
X2311337D1*
X165163Y7922417D2*
X2311337D1*
X165163Y7859250D2*
X1773943D1*
X2036057D2*
X2311337D1*
X165163Y7796083D2*
X1738227D1*
X2071773D2*
X2311337D1*
X165163Y7732917D2*
X1731403D1*
X2078597D2*
X2311337D1*
X165163Y7669750D2*
X1749760D1*
X2060240D2*
X2311337D1*
X165163Y7606583D2*
X1806810D1*
X2003190D2*
X2124560D1*
X2193477D2*
X2311337D1*
X165163Y7543417D2*
X943607D1*
X1465673D2*
X2014177D1*
X165163Y7480250D2*
X858777D1*
X1465673D2*
X1980690D1*
X165163Y7417083D2*
X827397D1*
X1465673D2*
X1973747D1*
X165163Y7353917D2*
X820700D1*
X1465673D2*
X1990117D1*
X165163Y7290750D2*
X835957D1*
X1465673D2*
X2015293D1*
X165163Y7227583D2*
X859767D1*
X1465673D2*
X1981063D1*
X165163Y7164417D2*
X827770D1*
X1458230D2*
X1973747D1*
X165163Y7101250D2*
X820700D1*
X1465300D2*
X1777667D1*
X165163Y7038083D2*
X835337D1*
X1450663D2*
X1739467D1*
X165163Y6974917D2*
X860760D1*
X1425240D2*
X1731157D1*
X165163Y6911750D2*
X828143D1*
X1457857D2*
X1747650D1*
X165163Y6848583D2*
X820577D1*
X1465423D2*
X1800980D1*
X165163Y6785417D2*
X834840D1*
X1451160D2*
X1973373D1*
X165163Y6722250D2*
X877750D1*
X1408250D2*
X1973373D1*
X165163Y6659083D2*
X1973373D1*
X165163Y6595917D2*
X1973373D1*
X165163Y6532750D2*
X1973373D1*
X165163Y6469583D2*
X2311337D1*
X165163Y6406417D2*
X2311337D1*
X165163Y6343250D2*
X1797880D1*
X165163Y6280083D2*
X1797880D1*
X165163Y6216917D2*
X1797880D1*
X165163Y6153750D2*
X1797880D1*
X165163Y6090583D2*
X1797880D1*
X165163Y6027417D2*
X2311337D1*
X165163Y5964250D2*
X2311337D1*
X165163Y5901083D2*
X2311337D1*
X165163Y5837917D2*
X2311337D1*
X165163Y5774750D2*
X2311337D1*
X165163Y5711583D2*
X2311337D1*
X165163Y5648417D2*
X2311337D1*
X165163Y5585250D2*
X2311337D1*
X165163Y5522083D2*
X936043D1*
X1222957D2*
X2311337D1*
X165163Y5458917D2*
X898340D1*
X1260660D2*
X1953653D1*
X165163Y5395750D2*
X887920D1*
X1271080D2*
X1915457D1*
X165163Y5332583D2*
X899580D1*
X1259420D2*
X1904913D1*
X165163Y5269417D2*
X887920D1*
X1404033D2*
X1724210D1*
X165163Y5206250D2*
X887920D1*
X1467160D2*
X1679563D1*
X165163Y5143083D2*
X887920D1*
X1530287D2*
X1667407D1*
X165163Y5079917D2*
X887920D1*
X1593540D2*
X1679933D1*
X165163Y5016750D2*
X887920D1*
X165163Y4953583D2*
X1199963D1*
X165163Y4890417D2*
X1263217D1*
X165163Y4827250D2*
X1326343D1*
X165163Y4764083D2*
X1389473D1*
X165163Y4700917D2*
X2024223D1*
X165163Y4637750D2*
X1985900D1*
X165163Y4574583D2*
X1973373D1*
X165163Y4511417D2*
X1728923D1*
X1954077D2*
X1983950D1*
X165163Y4448250D2*
X1681173D1*
X2001827D2*
X2022867D1*
X165163Y4385083D2*
X1667407D1*
X165163Y4321917D2*
X1678323D1*
X165163Y4258750D2*
X1720740D1*
X1962260D2*
X1983420D1*
X165163Y4195583D2*
X1973373D1*
X165163Y4132417D2*
X1973373D1*
X165163Y4069250D2*
X1973373D1*
X165163Y4006083D2*
X1973373D1*
X165163Y3942917D2*
X650787D1*
X873213D2*
X1973373D1*
X165163Y3879750D2*
X459173D1*
X922573D2*
X1517340D1*
X2095587D2*
X2311337D1*
X165163Y3816583D2*
X395920D1*
X937457D2*
X1474180D1*
X2095587D2*
X2311337D1*
X165163Y3753417D2*
X332793D1*
X927907D2*
X1460537D1*
X2095587D2*
X2311337D1*
X165163Y3690250D2*
X269663D1*
X887970D2*
X1469093D1*
X2095587D2*
X2311337D1*
X165163Y3627083D2*
X209087D1*
X570720D2*
X652897D1*
X871103D2*
X1504317D1*
X2095587D2*
X2311337D1*
X165163Y3563917D2*
X187030D1*
X507590D2*
X587783D1*
X921830D2*
X1619660D1*
X1682340D2*
X1714413D1*
X2095587D2*
X2311337D1*
X165163Y3500750D2*
X186783D1*
X448183D2*
X524657D1*
X937457D2*
X2311337D1*
X928527Y3437583D2*
X1924880D1*
X2266120D2*
X2293393D1*
X889707Y3374417D2*
X1924880D1*
X699330Y3311250D2*
X1924880D1*
X165163Y3248083D2*
X189260D1*
X636203D2*
X1924880D1*
X165163Y3184917D2*
X285663D1*
X603337D2*
X751990D1*
X1338673D2*
X1924880D1*
X165163Y3121750D2*
X269167D1*
X619833D2*
X708337D1*
X1338673D2*
X1924880D1*
X2266120D2*
X2302680D1*
X165163Y3058583D2*
X277353D1*
X611647D2*
X693700D1*
X1338673D2*
X2311337D1*
X165163Y2995417D2*
X314933D1*
X574067D2*
X700770D1*
X1338673D2*
X2311337D1*
X165163Y2932250D2*
X732893D1*
X1338673D2*
X2311337D1*
X165163Y2869083D2*
X708830D1*
X1338673D2*
X2311337D1*
X165163Y2805917D2*
X693700D1*
X1338300D2*
X2311337D1*
X165163Y2742750D2*
X700397D1*
X1331603D2*
X2311337D1*
X165163Y2679583D2*
X731900D1*
X1300100D2*
X2311337D1*
X165163Y2616417D2*
X709450D1*
X1322550D2*
X1806067D1*
X2003933D2*
X2311337D1*
X165163Y2553250D2*
X693823D1*
X1338177D2*
X1749387D1*
X2277033D2*
X2311307D1*
X165163Y2490083D2*
X700027D1*
X1331973D2*
X1731403D1*
X165163Y2426917D2*
X730907D1*
X1301093D2*
X1738350D1*
X165163Y2363750D2*
X813630D1*
X964370D2*
X1067630D1*
X1218370D2*
X1774440D1*
X165163Y2300583D2*
X2012937D1*
X165163Y2237417D2*
X1991357D1*
X165163Y2174250D2*
X1973993D1*
X165163Y2111083D2*
X1979823D1*
X165163Y2047917D2*
X1260610D1*
X1533390D2*
X2011947D1*
X165163Y1984750D2*
X1214723D1*
X1579277D2*
X1992100D1*
X165163Y1921583D2*
X1198227D1*
X1595773D2*
X1974117D1*
X165163Y1858417D2*
X1203190D1*
X1590810D2*
X1812393D1*
X165163Y1795250D2*
X1231713D1*
X1562287D2*
X1751620D1*
X165163Y1732083D2*
X1304517D1*
X1489483D2*
X1731777D1*
X165163Y1668917D2*
X1737110D1*
X165163Y1605750D2*
X1770843D1*
X165163Y1542583D2*
X1973373D1*
X165163Y1479417D2*
X1973373D1*
X165163Y1416250D2*
X851457D1*
X1053543D2*
X2311337D1*
X165163Y1353083D2*
X790563D1*
X1114437D2*
X2311337D1*
X165163Y1289917D2*
X768733D1*
X1136267D2*
X2311337D1*
X165163Y1226750D2*
X770720D1*
X1134280D2*
X2311337D1*
X165163Y1163583D2*
X797633D1*
X1107367D2*
X2311337D1*
X229033Y1100417D2*
X872790D1*
X1032210D2*
X2311337D1*
X300100Y1037250D2*
X2311337D1*
X371163Y974083D2*
X2311337D1*
X442230Y910917D2*
X2311337D1*
X513297Y847750D2*
X2311337D1*
X584360Y784583D2*
X2311337D1*
X655427Y721417D2*
X2311337D1*
X1752460Y3930790D2*
X1979797D1*
X1979710Y4243290D1*
X1995957D1*
X1988487Y4262597D1*
X1981970Y4289683D1*
X1969090Y4272530D1*
X1950470Y4253910D1*
X1929170Y4238437D1*
X1905710Y4226483D1*
X1880670Y4218347D1*
X1854663Y4214227D1*
X1828337D1*
X1802330Y4218347D1*
X1777290Y4226483D1*
X1753830Y4238437D1*
X1732530Y4253910D1*
X1713910Y4272530D1*
X1698437Y4293830D1*
X1686483Y4317290D1*
X1678347Y4342330D1*
X1674227Y4368337D1*
Y4394663D1*
X1678347Y4420670D1*
X1686483Y4445710D1*
X1698437Y4469170D1*
X1713910Y4490470D1*
X1732530Y4509090D1*
X1753830Y4524563D1*
X1777290Y4536517D1*
X1802330Y4544653D1*
X1828337Y4548773D1*
X1854663D1*
X1880670Y4544653D1*
X1905710Y4536517D1*
X1929170Y4524563D1*
X1950470Y4509090D1*
X1969090Y4490470D1*
X1984563Y4469170D1*
X1996517Y4445710D1*
X2004653Y4420670D1*
X2006370Y4412040D1*
X2022667Y4434440D1*
X2032423Y4444963D1*
X2017623Y4461740D1*
X2003470Y4482807D1*
X1992437Y4505660D1*
X1984737Y4529843D1*
X1980530Y4554870D1*
X1979900Y4580240D1*
X1982857Y4605447D1*
X1989343Y4629983D1*
X1999230Y4653357D1*
X2012320Y4675100D1*
X2028347Y4694777D1*
X2032223Y4699223D1*
X2013950Y4720617D1*
X2002397Y4738990D1*
X1986397Y4729750D1*
X1960403Y4718983D1*
X1933047Y4712417D1*
X1905000Y4710210D1*
X1509933Y4710763D1*
X1482147Y4715163D1*
X1455390Y4723857D1*
X1430320Y4736630D1*
X1407560Y4753167D1*
X1329870Y4830073D1*
X1201290Y4958210D1*
X894210D1*
Y5328790D1*
X907480D1*
X899330Y5354243D1*
X894780Y5382963D1*
Y5412037D1*
X899330Y5440757D1*
X908313Y5468407D1*
X921513Y5494313D1*
X938603Y5517837D1*
X959163Y5538397D1*
X982687Y5555487D1*
X1008593Y5568687D1*
X1036243Y5577670D1*
X1064963Y5582220D1*
X1094037D1*
X1122757Y5577670D1*
X1150407Y5568687D1*
X1176313Y5555487D1*
X1199837Y5538397D1*
X1220397Y5517837D1*
X1237487Y5494313D1*
X1250687Y5468407D1*
X1259670Y5440757D1*
X1264220Y5412037D1*
Y5382963D1*
X1259670Y5354243D1*
X1251493Y5328780D1*
X1264790Y5328790D1*
Y5322713D1*
X1284067Y5322237D1*
X1311853Y5317837D1*
X1338610Y5309143D1*
X1363680Y5296370D1*
X1386440Y5279833D1*
X1464130Y5202927D1*
X1598220Y5068837D1*
X1691307Y5068790D1*
X1681923Y5091650D1*
X1675777Y5117253D1*
X1673710Y5143500D1*
X1675777Y5169747D1*
X1681923Y5195350D1*
X1691997Y5219677D1*
X1705757Y5242123D1*
X1722853Y5262147D1*
X1742877Y5279243D1*
X1765323Y5293003D1*
X1789650Y5303077D1*
X1815253Y5309223D1*
X1841500Y5311290D1*
X1867747Y5309223D1*
X1893350Y5303077D1*
X1915573Y5293970D1*
X1911727Y5320200D1*
X1911573Y5345577D1*
X1914910Y5370737D1*
X1921670Y5395200D1*
X1931727Y5418503D1*
X1944890Y5440203D1*
X1960910Y5459890D1*
X1979480Y5477187D1*
X2000253Y5491770D1*
X2022833Y5503357D1*
X2046790Y5511737D1*
X2071670Y5516743D1*
X2097003Y5518283D1*
X2122310Y5516330D1*
X2147103Y5510917D1*
X2165200Y5504600D1*
X2165210Y5518290D1*
X2317633D1*
X2317750Y6068093D1*
X2297087Y6055617D1*
X2273270Y6045750D1*
X2248200Y6039733D1*
X2222500Y6037710D1*
X2196800Y6039733D1*
X2171730Y6045750D1*
X2147913Y6055617D1*
X2132763Y6064523D1*
X2132790Y6037710D1*
X1804210D1*
Y6366290D1*
X2132790D1*
Y6339623D1*
X2147913Y6348383D1*
X2171730Y6358250D1*
X2196800Y6364267D1*
X2222500Y6366290D1*
X2248200Y6364267D1*
X2273270Y6358250D1*
X2297087Y6348383D1*
X2317770Y6335780D1*
X2317750Y6488287D1*
X1979710Y6488210D1*
Y6834853D1*
X1956850Y6825423D1*
X1931247Y6819277D1*
X1905000Y6817210D1*
X1878753Y6819277D1*
X1853150Y6825423D1*
X1828823Y6835497D1*
X1806377Y6849257D1*
X1786353Y6866353D1*
X1769257Y6886377D1*
X1755497Y6908823D1*
X1745423Y6933150D1*
X1739277Y6958753D1*
X1737210Y6985000D1*
X1739277Y7011247D1*
X1745423Y7036850D1*
X1755497Y7061177D1*
X1769257Y7083623D1*
X1786353Y7103647D1*
X1806377Y7120743D1*
X1828823Y7134503D1*
X1853150Y7144577D1*
X1878753Y7150723D1*
X1905000Y7152790D1*
X1931247Y7150723D1*
X1956850Y7144577D1*
X1981177Y7134503D1*
X1984993Y7132363D1*
X1980530Y7158370D1*
X1979900Y7183740D1*
X1982857Y7208947D1*
X1989343Y7233483D1*
X1999230Y7256857D1*
X2012320Y7278600D1*
X2028347Y7298277D1*
X2032223Y7302723D1*
X2013950Y7324117D1*
X1999250Y7348103D1*
X1988487Y7374097D1*
X1981917Y7401453D1*
X1979710Y7429500D1*
X1981917Y7457547D1*
X1988487Y7484903D1*
X1999250Y7510897D1*
X2013950Y7534883D1*
X2032223Y7556277D1*
X2053617Y7574550D1*
X2077603Y7589250D1*
X2103597Y7600013D1*
X2130953Y7606583D1*
X2159000Y7608790D1*
X2187047Y7606583D1*
X2214403Y7600013D1*
X2240397Y7589250D1*
X2264383Y7574550D1*
X2285777Y7556277D1*
X2304050Y7534883D1*
X2317753Y7512670D1*
X2317750Y8326810D1*
X2298890Y8324217D1*
X2273110D1*
X2247647Y8328250D1*
X2223130Y8336217D1*
X2200160Y8347920D1*
X2196263Y8350523D1*
X2196290Y8323710D1*
X1867710D1*
Y8652290D1*
X2196290D1*
Y8625623D1*
X2211413Y8634383D1*
X2235230Y8644250D1*
X2260300Y8650267D1*
X2286000Y8652290D1*
X2311700Y8650267D1*
X2317780Y8649057D1*
X2317750Y8710787D1*
X2026373Y8710710D1*
X2013970Y8698910D1*
X1992670Y8683437D1*
X1969210Y8671483D1*
X1944170Y8663347D1*
X1918163Y8659227D1*
X1891837D1*
X1865830Y8663347D1*
X1840790Y8671483D1*
X1817330Y8683437D1*
X1796030Y8698910D1*
X1777410Y8717530D1*
X1761937Y8738830D1*
X1749983Y8762290D1*
X1741847Y8787330D1*
X1737727Y8813337D1*
Y8839663D1*
X1741847Y8865670D1*
X1749983Y8890710D1*
X1761937Y8914170D1*
X1777410Y8935470D1*
X1796030Y8954090D1*
X1817330Y8969563D1*
X1840790Y8981517D1*
X1865830Y8989653D1*
X1891837Y8993773D1*
X1918163D1*
X1944170Y8989653D1*
X1969210Y8981517D1*
X1979727Y8976670D1*
X1979710Y9069290D1*
X1995957D1*
X1988487Y9088597D1*
X1981917Y9115953D1*
X1979710Y9144000D1*
X1981917Y9172047D1*
X1988487Y9199403D1*
X1999250Y9225397D1*
X2013950Y9249383D1*
X2032423Y9270963D1*
X2017623Y9287740D1*
X2003470Y9308807D1*
X1992437Y9331660D1*
X1984737Y9355843D1*
X1980530Y9380870D1*
X1979900Y9406240D1*
X1982857Y9431447D1*
X1984973Y9441010D1*
X1969210Y9433483D1*
X1944170Y9425347D1*
X1918163Y9421227D1*
X1891837D1*
X1865830Y9425347D1*
X1840790Y9433483D1*
X1817330Y9445437D1*
X1796030Y9460910D1*
X1777410Y9479530D1*
X1761937Y9500830D1*
X1749983Y9524290D1*
X1741847Y9549330D1*
X1737727Y9575337D1*
Y9601663D1*
X1741847Y9627670D1*
X1749983Y9652710D1*
X1761937Y9676170D1*
X1777410Y9697470D1*
X1796030Y9716090D1*
X1817330Y9731563D1*
X1840790Y9743517D1*
X1865830Y9751653D1*
X1891837Y9755773D1*
X1918163D1*
X1944170Y9751653D1*
X1969210Y9743517D1*
X1992670Y9731563D1*
X1996907Y9728733D1*
X2006130Y9745680D1*
X2022667Y9768440D1*
X2042560Y9788333D1*
X2065320Y9804870D1*
X2090390Y9817643D1*
X2117147Y9826337D1*
X2144933Y9830737D1*
X2173067D1*
X2200853Y9826337D1*
X2227610Y9817643D1*
X2252680Y9804870D1*
X2275440Y9788333D1*
X2295333Y9768440D1*
X2311870Y9745680D1*
X2317753Y9735170D1*
X2317750Y11080627D1*
X1491383Y11080750D1*
X1503873Y11055753D1*
X1511910Y11031680D1*
X1516563Y11006730D1*
X1517790Y10985500D1*
X1516043Y10960180D1*
X1510833Y10935340D1*
X1502260Y10911453D1*
X1490487Y10888970D1*
X1475733Y10868317D1*
X1458287Y10849887D1*
X1438470Y10834027D1*
X1416663Y10821043D1*
X1393280Y10811177D1*
X1368763Y10804617D1*
X1343577Y10801487D1*
X1318200Y10801847D1*
X1293113Y10805690D1*
X1268790Y10812943D1*
X1245697Y10823470D1*
X1224270Y10837070D1*
X1204913Y10853487D1*
X1187993Y10872403D1*
X1173837Y10893467D1*
X1162703Y10916277D1*
X1154813Y10940400D1*
X1150313Y10965377D1*
X1149283Y10990737D1*
X1151750Y11015993D1*
X1157663Y11040677D1*
X1166913Y11064310D1*
X1175747Y11080760D1*
X1009673Y11080750D1*
X1009790Y10801210D1*
X894820D1*
X814330Y10720773D1*
X814290Y10471173D1*
X1009790Y10471290D1*
Y10102710D1*
X814207D1*
X814657Y9731390D1*
X832283Y9749657D1*
X851907Y9765763D1*
X873257Y9779497D1*
X896053Y9790667D1*
X919987Y9799130D1*
X944737Y9804770D1*
X969973Y9807513D1*
X1059020Y9807643D1*
X1084290Y9805247D1*
X1109117Y9799950D1*
X1133167Y9791817D1*
X1156110Y9780957D1*
X1177650Y9767520D1*
X1197490Y9751683D1*
X1215367Y9733660D1*
X1231043Y9713690D1*
X1244303Y9692047D1*
X1254977Y9669010D1*
X1262913Y9644900D1*
X1268010Y9620030D1*
X1270200Y9594740D1*
X1269463Y9569473D1*
X1265800Y9544353D1*
X1259260Y9519827D1*
X1249927Y9496217D1*
X1237930Y9473847D1*
X1223427Y9453010D1*
X1206613Y9433990D1*
X1187713Y9417043D1*
X1166980Y9402390D1*
X1144697Y9390233D1*
X1121153Y9380733D1*
X1096673Y9374020D1*
X1071580Y9370177D1*
X1038300Y9369210D1*
X963530Y9369907D1*
X938383Y9373390D1*
X913810Y9379757D1*
X902977Y9383573D1*
X986723Y9299833D1*
X1068207Y9299113D1*
X1102193Y9293730D1*
X1134920Y9283097D1*
X1165580Y9267477D1*
X1193417Y9247250D1*
X1217750Y9222917D1*
X1223037Y9216210D1*
X1476443Y9114230D1*
X1500607Y9099823D1*
X1522223Y9081813D1*
X1540753Y9060643D1*
X1555743Y9036837D1*
X1566827Y9010980D1*
X1573727Y8983703D1*
X1576290Y8953500D1*
Y8566173D1*
X1581290Y8566290D1*
Y8197710D1*
X1567523D1*
X1575410Y8174180D1*
X1580063Y8149230D1*
X1581290Y8128000D1*
X1579543Y8102680D1*
X1574333Y8077840D1*
X1565760Y8053953D1*
X1553987Y8031470D1*
X1539233Y8010817D1*
X1521787Y7992387D1*
X1501970Y7976527D1*
X1480163Y7963543D1*
X1456780Y7953677D1*
X1432263Y7947117D1*
X1407077Y7943987D1*
X1381700Y7944347D1*
X1356613Y7948190D1*
X1332290Y7955443D1*
X1309197Y7965970D1*
X1287770Y7979570D1*
X1268413Y7995987D1*
X1251493Y8014903D1*
X1237337Y8035967D1*
X1226203Y8058777D1*
X1218313Y8082900D1*
X1213813Y8107877D1*
X1212783Y8133237D1*
X1215250Y8158493D1*
X1221163Y8183177D1*
X1226427Y8197700D1*
X1212710Y8197710D1*
Y8566290D1*
X1217797D1*
X1217710Y8832080D1*
X1120260Y8871093D1*
X1097397Y8857250D1*
X1071403Y8846483D1*
X1044047Y8839917D1*
X1016000Y8837710D1*
X987953Y8839917D1*
X960597Y8846483D1*
X934603Y8857250D1*
X910573Y8871987D1*
X881443Y8885110D1*
X852103Y8903090D1*
X825940Y8925440D1*
X803590Y8951603D1*
X785610Y8980943D1*
X775773Y9003713D1*
X498667Y9281560D1*
X482130Y9304320D1*
X469357Y9329390D1*
X460663Y9356147D1*
X456263Y9383933D1*
X455710Y9493250D1*
X456263Y10809067D1*
X460663Y10836853D1*
X469357Y10863610D1*
X482130Y10888680D1*
X498667Y10911440D1*
X575573Y10989130D1*
X641210Y11055210D1*
Y11080633D1*
X158873Y11080750D1*
X158750Y3424410D1*
X166660Y3442357D1*
X180540Y3465007D1*
X193177Y3480210D1*
X193593Y3565753D1*
X196643Y3585013D1*
X202670Y3603563D1*
X211527Y3620940D1*
X222990Y3636720D1*
X341867Y3756140D1*
X490780Y3904510D1*
X506560Y3915973D1*
X523937Y3924830D1*
X542483Y3930857D1*
X561747Y3933907D1*
X647030Y3934290D1*
X662493Y3946960D1*
X685143Y3960840D1*
X709687Y3971003D1*
X735517Y3977207D1*
X762000Y3979290D1*
X788483Y3977207D1*
X814313Y3971003D1*
X838857Y3960840D1*
X861507Y3946960D1*
X881707Y3929707D1*
X898960Y3909507D1*
X912840Y3886857D1*
X923003Y3862313D1*
X929207Y3836483D1*
X931290Y3810000D1*
X929207Y3783517D1*
X923003Y3757687D1*
X912840Y3733143D1*
X898960Y3710493D1*
X881707Y3690293D1*
X861507Y3673040D1*
X838857Y3659160D1*
X820597Y3651313D1*
X838857Y3643340D1*
X861507Y3629460D1*
X881707Y3612207D1*
X898960Y3592007D1*
X912840Y3569357D1*
X923003Y3544813D1*
X929207Y3518983D1*
X931290Y3492500D1*
X929207Y3466017D1*
X923003Y3440187D1*
X912840Y3415643D1*
X898960Y3392993D1*
X881707Y3372793D1*
X861507Y3355540D1*
X838857Y3341660D1*
X814313Y3331497D1*
X788483Y3325293D1*
X762000Y3323210D1*
X735517Y3325293D1*
X712437Y3330720D1*
X585997Y3204223D1*
X595340Y3188357D1*
X605503Y3163813D1*
X611707Y3137983D1*
X613790Y3111500D1*
X611707Y3085017D1*
X605503Y3059187D1*
X595340Y3034643D1*
X581460Y3011993D1*
X564207Y2991793D1*
X544007Y2974540D1*
X521357Y2960660D1*
X496813Y2950497D1*
X470983Y2944293D1*
X444500Y2942210D1*
X418017Y2944293D1*
X392187Y2950497D1*
X367643Y2960660D1*
X344993Y2974540D1*
X324793Y2991793D1*
X307540Y3011993D1*
X293660Y3034643D1*
X283497Y3059187D1*
X277293Y3085017D1*
X275210Y3111500D1*
X277293Y3137983D1*
X283497Y3163813D1*
X293660Y3188357D1*
X298660Y3197280D1*
X277980Y3200887D1*
X252717Y3209097D1*
X229047Y3221157D1*
X207553Y3236770D1*
X188770Y3255553D1*
X173157Y3277047D1*
X161097Y3300717D1*
X158743Y3307097D1*
X158750Y1157263D1*
X710483Y666830D1*
X2317750Y666750D1*
Y1471787D1*
X1979710Y1471710D1*
Y1564353D1*
X1956850Y1554923D1*
X1931247Y1548777D1*
X1905000Y1546710D1*
X1878753Y1548777D1*
X1853150Y1554923D1*
X1828823Y1564997D1*
X1806377Y1578757D1*
X1786353Y1595853D1*
X1769257Y1615877D1*
X1755497Y1638323D1*
X1745423Y1662650D1*
X1739277Y1688253D1*
X1737210Y1714500D1*
X1739277Y1740747D1*
X1745423Y1766350D1*
X1755497Y1790677D1*
X1769257Y1813123D1*
X1786353Y1833147D1*
X1806377Y1850243D1*
X1828823Y1864003D1*
X1853150Y1874077D1*
X1878753Y1880223D1*
X1905000Y1882290D1*
X1931247Y1880223D1*
X1956850Y1874077D1*
X1981177Y1864003D1*
X1984993Y1861863D1*
X1980263Y1890933D1*
Y1919067D1*
X1984663Y1946853D1*
X1993357Y1973610D1*
X2006130Y1998680D1*
X2022667Y2021440D1*
X2032423Y2031963D1*
X2017623Y2048740D1*
X2003470Y2069807D1*
X1992437Y2092660D1*
X1984737Y2116843D1*
X1980530Y2141870D1*
X1979900Y2167240D1*
X1982857Y2192447D1*
X1989343Y2216983D1*
X1999230Y2240357D1*
X2012320Y2262100D1*
X2028347Y2281777D1*
X2032223Y2286223D1*
X2013950Y2307617D1*
X1999250Y2331603D1*
X1997110Y2336250D1*
X1981177Y2326997D1*
X1956850Y2316923D1*
X1931247Y2310777D1*
X1905000Y2308710D1*
X1878753Y2310777D1*
X1853150Y2316923D1*
X1828823Y2326997D1*
X1806377Y2340757D1*
X1786353Y2357853D1*
X1769257Y2377877D1*
X1755497Y2400323D1*
X1745423Y2424650D1*
X1739277Y2450253D1*
X1737210Y2476500D1*
X1739277Y2502747D1*
X1745423Y2528350D1*
X1755497Y2552677D1*
X1769257Y2575123D1*
X1786353Y2595147D1*
X1806377Y2612243D1*
X1828823Y2626003D1*
X1853150Y2636077D1*
X1878753Y2642223D1*
X1905000Y2644290D1*
X1931247Y2642223D1*
X1956850Y2636077D1*
X1981177Y2626003D1*
X2003623Y2612243D1*
X2023647Y2595147D1*
X2040743Y2575123D1*
X2052113Y2556940D1*
X2077603Y2572750D1*
X2103597Y2583513D1*
X2130953Y2590083D1*
X2159000Y2592290D1*
X2187047Y2590083D1*
X2214403Y2583513D1*
X2240397Y2572750D1*
X2264383Y2558050D1*
X2285777Y2539777D1*
X2304050Y2518383D1*
X2317753Y2496170D1*
X2317750Y3119810D1*
X2298730Y3124750D1*
X2274913Y3134617D1*
X2259763Y3143523D1*
X2259790Y3116710D1*
X1931210D1*
Y3445290D1*
X2259790D1*
Y3418623D1*
X2274913Y3427383D1*
X2298730Y3437250D1*
X2317720Y3442057D1*
X2317750Y3884787D1*
X2089377Y3884710D1*
X2089290Y3562210D1*
X1720710D1*
Y3575977D1*
X1698637Y3568473D1*
X1673723Y3563617D1*
X1648383Y3562230D1*
X1623090Y3564337D1*
X1598327Y3569897D1*
X1574563Y3578810D1*
X1552250Y3590900D1*
X1531807Y3605943D1*
X1513627Y3623653D1*
X1498050Y3643693D1*
X1485377Y3665680D1*
X1475843Y3689203D1*
X1469633Y3713810D1*
X1466860Y3739037D1*
X1467583Y3764407D1*
X1471783Y3789437D1*
X1479380Y3813653D1*
X1490233Y3836597D1*
X1504137Y3857830D1*
X1520827Y3876950D1*
X1539983Y3893597D1*
X1561243Y3907457D1*
X1584210Y3918260D1*
X1608440Y3925810D1*
X1633480Y3929957D1*
X1658850Y3930623D1*
X1684073Y3927797D1*
X1708670Y3921533D1*
X1720700Y3917100D1*
X1720710Y3930790D1*
X1752460D1*
X1517680Y10280650D2*
X1515063Y10255407D1*
X1509000Y10230760D1*
X1499610Y10207183D1*
X1487067Y10185117D1*
X1471613Y10164987D1*
X1453540Y10147167D1*
X1433190Y10132000D1*
X1410950Y10119773D1*
X1387240Y10110720D1*
X1362510Y10105007D1*
X1337233Y10102747D1*
X1311883Y10103983D1*
X1286943Y10108687D1*
X1262887Y10116777D1*
X1240167Y10128090D1*
X1219220Y10142420D1*
X1200440Y10159493D1*
X1184183Y10178983D1*
X1170760Y10200523D1*
X1160420Y10223700D1*
X1153367Y10248080D1*
X1149727Y10273200D1*
X1149573Y10298577D1*
X1152910Y10323737D1*
X1159670Y10348200D1*
X1169727Y10371503D1*
X1182890Y10393203D1*
X1198910Y10412890D1*
X1217480Y10430187D1*
X1238253Y10444770D1*
X1260833Y10456357D1*
X1284790Y10464737D1*
X1309670Y10469743D1*
X1335003Y10471283D1*
X1360310Y10469330D1*
X1385103Y10463917D1*
X1408923Y10455150D1*
X1431310Y10443193D1*
X1451840Y10428273D1*
X1470127Y10410677D1*
X1485823Y10390730D1*
X1498630Y10368820D1*
X1508307Y10345357D1*
X1514667Y10320787D1*
X1517590Y10295577D1*
X1517680Y10280650D1*
X1131237Y1249933D2*
X1126837Y1222147D1*
X1118143Y1195390D1*
X1105370Y1170320D1*
X1088833Y1147560D1*
X1068940Y1127667D1*
X1046180Y1111130D1*
X1021110Y1098357D1*
X994353Y1089663D1*
X966567Y1085263D1*
X938433D1*
X910647Y1089663D1*
X883890Y1098357D1*
X858820Y1111130D1*
X836060Y1127667D1*
X816167Y1147560D1*
X799630Y1170320D1*
X786857Y1195390D1*
X778163Y1222147D1*
X773763Y1249933D1*
Y1278067D1*
X778163Y1305853D1*
X786857Y1332610D1*
X799630Y1357680D1*
X816167Y1380440D1*
X836060Y1400333D1*
X858820Y1416870D1*
X883890Y1429643D1*
X910647Y1438337D1*
X938433Y1442737D1*
X966567D1*
X994353Y1438337D1*
X1021110Y1429643D1*
X1046180Y1416870D1*
X1068940Y1400333D1*
X1088833Y1380440D1*
X1105370Y1357680D1*
X1118143Y1332610D1*
X1126837Y1305853D1*
X1131237Y1278067D1*
Y1249933D1*
X1112460Y7555290D2*
X1459290D1*
Y7176710D1*
X1448003D1*
X1454060Y7156190D1*
X1458707Y7126850D1*
Y7097150D1*
X1454060Y7067810D1*
X1444880Y7039563D1*
X1431397Y7013097D1*
X1413937Y6989067D1*
X1410273Y6985100D1*
X1424733Y6967033D1*
X1437930Y6945353D1*
X1448107Y6922100D1*
X1455080Y6897697D1*
X1458727Y6872580D1*
X1458863Y6845310D1*
X1455470Y6820157D1*
X1448740Y6795683D1*
X1438793Y6772333D1*
X1425817Y6750520D1*
X1410037Y6730640D1*
X1391740Y6713050D1*
X1371253Y6698067D1*
X1348947Y6685960D1*
X1325220Y6676943D1*
X1300503Y6671183D1*
X1275237Y6668783D1*
X1249873Y6669783D1*
X1224873Y6674167D1*
X1200687Y6681857D1*
X1177743Y6692713D1*
X1156460Y6706540D1*
X1143023Y6717643D1*
X1127263Y6704860D1*
X1101937Y6689340D1*
X1074493Y6677973D1*
X1045610Y6671040D1*
X1016000Y6668710D1*
X986390Y6671040D1*
X957507Y6677973D1*
X930063Y6689340D1*
X904737Y6704860D1*
X882153Y6724153D1*
X862860Y6746737D1*
X847340Y6772063D1*
X835973Y6799507D1*
X829040Y6828390D1*
X826710Y6858000D1*
X829040Y6887610D1*
X835973Y6916493D1*
X847340Y6943937D1*
X862860Y6969263D1*
X875727Y6984900D1*
X862860Y7000737D1*
X847340Y7026063D1*
X835973Y7053507D1*
X829040Y7082390D1*
X826710Y7112000D1*
X829040Y7141610D1*
X835973Y7170493D1*
X847340Y7197937D1*
X862860Y7223263D1*
X875727Y7238900D1*
X862860Y7254737D1*
X847340Y7280063D1*
X835973Y7307507D1*
X829040Y7336390D1*
X826710Y7366000D1*
X829040Y7395610D1*
X835973Y7424493D1*
X847340Y7451937D1*
X862860Y7477263D1*
X882153Y7499847D1*
X904737Y7519140D1*
X930063Y7534660D1*
X957507Y7546027D1*
X986390Y7552960D1*
X1016000Y7555290D1*
X1045610Y7552960D1*
X1074493Y7546027D1*
X1080757Y7543713D1*
X1080710Y7555290D1*
X1112460D1*
X985460Y3237290D2*
X1332290D1*
Y2858710D1*
X1321003D1*
X1327060Y2838190D1*
X1331707Y2808850D1*
Y2779150D1*
X1327060Y2749810D1*
X1317880Y2721563D1*
X1304397Y2695097D1*
X1286937Y2671067D1*
X1283273Y2667100D1*
X1296140Y2651263D1*
X1311660Y2625937D1*
X1323027Y2598493D1*
X1329960Y2569610D1*
X1332290Y2540000D1*
X1329960Y2510390D1*
X1323027Y2481507D1*
X1311660Y2454063D1*
X1296140Y2428737D1*
X1276847Y2406153D1*
X1254263Y2386860D1*
X1228937Y2371340D1*
X1201493Y2359973D1*
X1172610Y2353040D1*
X1143000Y2350710D1*
X1113390Y2353040D1*
X1084507Y2359973D1*
X1057063Y2371340D1*
X1031737Y2386860D1*
X1016100Y2399727D1*
X1000263Y2386860D1*
X974937Y2371340D1*
X947493Y2359973D1*
X918610Y2353040D1*
X889000Y2350710D1*
X859390Y2353040D1*
X830507Y2359973D1*
X803063Y2371340D1*
X777737Y2386860D1*
X755153Y2406153D1*
X735860Y2428737D1*
X720340Y2454063D1*
X708973Y2481507D1*
X702040Y2510390D1*
X699710Y2540000D1*
X702040Y2569610D1*
X708973Y2598493D1*
X720340Y2625937D1*
X735860Y2651263D1*
X748727Y2666900D1*
X735860Y2682737D1*
X720340Y2708063D1*
X708973Y2735507D1*
X702040Y2764390D1*
X699710Y2794000D1*
X702040Y2823610D1*
X708973Y2852493D1*
X720340Y2879937D1*
X735860Y2905263D1*
X748727Y2920900D1*
X735860Y2936737D1*
X720340Y2962063D1*
X708973Y2989507D1*
X702040Y3018390D1*
X699710Y3048000D1*
X702040Y3077610D1*
X708973Y3106493D1*
X720340Y3133937D1*
X735860Y3159263D1*
X755153Y3181847D1*
X777737Y3201140D1*
X803063Y3216660D1*
X830507Y3228027D1*
X859390Y3234960D1*
X889000Y3237290D1*
X918610Y3234960D1*
X947493Y3228027D1*
X953757Y3225713D1*
X953710Y3237290D1*
X985460D1*
X2072273Y7733837D2*
X2068153Y7707830D1*
X2060017Y7682790D1*
X2048063Y7659330D1*
X2032590Y7638030D1*
X2013970Y7619410D1*
X1992670Y7603937D1*
X1969210Y7591983D1*
X1944170Y7583847D1*
X1918163Y7579727D1*
X1891837D1*
X1865830Y7583847D1*
X1840790Y7591983D1*
X1817330Y7603937D1*
X1796030Y7619410D1*
X1777410Y7638030D1*
X1761937Y7659330D1*
X1749983Y7682790D1*
X1741847Y7707830D1*
X1737727Y7733837D1*
Y7760163D1*
X1741847Y7786170D1*
X1749983Y7811210D1*
X1761937Y7834670D1*
X1777410Y7855970D1*
X1796030Y7874590D1*
X1817330Y7890063D1*
X1840790Y7902017D1*
X1865830Y7910153D1*
X1891837Y7914273D1*
X1918163D1*
X1944170Y7910153D1*
X1969210Y7902017D1*
X1992670Y7890063D1*
X2013970Y7874590D1*
X2032590Y7855970D1*
X2048063Y7834670D1*
X2060017Y7811210D1*
X2068153Y7786170D1*
X2072273Y7760163D1*
Y7733837D1*
X1589593Y1889843D2*
X1584853Y1859900D1*
X1575483Y1831070D1*
X1561720Y1804060D1*
X1543903Y1779533D1*
X1522467Y1758097D1*
X1497940Y1740280D1*
X1470930Y1726517D1*
X1442100Y1717147D1*
X1412157Y1712407D1*
X1381843D1*
X1351900Y1717147D1*
X1323070Y1726517D1*
X1296060Y1740280D1*
X1271533Y1758097D1*
X1250097Y1779533D1*
X1232280Y1804060D1*
X1218517Y1831070D1*
X1209147Y1859900D1*
X1204407Y1889843D1*
Y1920157D1*
X1209147Y1950100D1*
X1218517Y1978930D1*
X1232280Y2005940D1*
X1250097Y2030467D1*
X1271533Y2051903D1*
X1296060Y2069720D1*
X1323070Y2083483D1*
X1351900Y2092853D1*
X1381843Y2097593D1*
X1412157D1*
X1442100Y2092853D1*
X1470930Y2083483D1*
X1497940Y2069720D1*
X1522467Y2051903D1*
X1543903Y2030467D1*
X1561720Y2005940D1*
X1575483Y1978930D1*
X1584853Y1950100D1*
X1589593Y1920157D1*
Y1889843D1*
X703403Y3651313D2*
X685143Y3659160D1*
X662493Y3673040D1*
X647290Y3685677D1*
X622970Y3685710D1*
X441807Y3504537D1*
X441790Y3480470D1*
X454460Y3465007D1*
X468340Y3442357D1*
X469663Y3439480D1*
X617780Y3587010D1*
X625477Y3593073D1*
X642293Y3612207D1*
X662493Y3629460D1*
X685143Y3643340D1*
X703403Y3651187D1*
X1651000Y3930667D2*
D29*
Y3562333D1*
X1466833Y3746500D2*
X1651000D1*
X1397000Y8128000D2*
Y7943833D1*
X1212833Y8128000D2*
X1581167D1*
X2095500Y5518167D2*
Y5334000D1*
X1911333D2*
X2095500D1*
X1333500Y10985500D2*
Y10801333D1*
X1149333Y10985500D2*
X1517667D1*
X1333500Y10471167D2*
Y10102833D1*
X1149333Y10287000D2*
X1517667D1*
X1270000Y6858000D2*
Y6668833D1*
Y6858000D2*
X1459167D1*
X1016000Y9807667D2*
Y9369333D1*
Y9588500D2*
X1270167D1*
X2095500Y3445167D2*
Y3116833D1*
X1931333Y3281000D2*
X2095500D1*
X2032000Y8652167D2*
Y8323833D1*
X1867833Y8488000D2*
X2032000D1*
X1968500Y6366167D2*
Y6037833D1*
X1804333Y6202000D2*
X1968500D1*
X1979833Y2159000D2*
X2159000D1*
X1979833Y4572000D2*
X2159000D1*
X1979833Y9398000D2*
X2159000D1*
X1979833Y7175500D2*
X2159000D1*
D30*
X12382500Y9207500D3*
D31*
X13382500D3*
D30*
X14859000Y9271000D3*
D31*
X15859000D3*
D32*
X7366000Y10477500D3*
X8890000D3*
X7366000Y9588500D3*
X8890000D3*
D18*
X3365500Y2286000D3*
D35*
Y1778000D3*
D18*
Y4762500D3*
D35*
Y4254500D3*
D18*
Y9842500D3*
D35*
Y9334500D3*
D18*
X3429000Y7366000D3*
D35*
Y6858000D3*
X1905000Y3746500D3*
D18*
X1651000D3*
D35*
X1397000Y8382000D3*
D18*
Y8128000D3*
D35*
X2349500Y5334000D3*
D18*
X2095500D3*
D36*
X22542500Y4508500D3*
Y698500D3*
D37*
X17145000Y7874000D3*
X20955000D3*
D18*
X1333500Y10985500D3*
D35*
X825500D3*
D18*
X1333500Y10287000D3*
D35*
X825500D3*
X21463000Y9779000D3*
D18*
Y10033000D3*
D38*
X7302500Y698500D3*
Y2222500D3*
X8001000Y4318000D3*
Y2794000D3*
Y7239000D3*
Y5715000D3*
X15684500Y762000D3*
Y2286000D3*
X8064500Y698500D3*
Y2222500D3*
D30*
X14859000Y11811000D3*
D31*
X15859000D3*
D30*
X12382500Y11747500D3*
D31*
X13382500D3*
D40*
X4318000Y9525000D3*
D41*
X5328000D3*
D40*
X4000500Y7112000D3*
D41*
X5010500D3*
D40*
X3937000Y2349500D3*
D41*
X4947000D3*
D40*
X4000500Y4762500D3*
D41*
X5010500D3*
D42*
X3048000Y12573000D3*
X4048760D3*
X4798060D3*
X5547400D3*
D43*
X16192500Y5270500D3*
D44*
Y4762500D3*
D43*
Y3810000D3*
D44*
Y3302000D3*
D40*
X952500Y254000D3*
D41*
Y1264000D3*
D45*
X22288500Y5524500D3*
X23788500D3*
D46*
X10604500Y10668000D3*
Y9168000D3*
X24003000Y1968500D3*
Y3068500D3*
D47*
X1270000Y7366000D3*
D48*
X1016000D3*
X1270000Y7112000D3*
X1016000D3*
X1270000Y6858000D3*
X1016000D3*
D47*
X3492500Y6223000D3*
D48*
X3238500D3*
X3492500Y5969000D3*
X3238500D3*
X3492500Y5715000D3*
X3238500D3*
D49*
X1016000Y9080500D3*
Y9588500D3*
D50*
X1079500Y5143500D3*
D51*
Y5397500D3*
D45*
X9969500Y12001500D3*
X8869500D3*
D47*
X1143000Y3048000D3*
D48*
X889000D3*
X1143000Y2794000D3*
X889000D3*
X1143000Y2540000D3*
X889000D3*
D52*
X18796000Y571500D3*
X21844000D3*
D53*
X6413500Y9144000D3*
D54*
Y8599000D3*
Y8053000D3*
D53*
Y6667500D3*
D54*
Y6122500D3*
Y5576500D3*
D53*
Y1905000D3*
D54*
Y1360000D3*
Y814000D3*
D53*
Y4318000D3*
D54*
Y3773000D3*
Y3227000D3*
D55*
X7366000Y5778500D3*
Y7810500D3*
Y2921000D3*
Y4953000D3*
D21*
X4953000Y2730500D3*
D56*
X3937000D3*
D21*
X5016500Y5143500D3*
D56*
X4000500D3*
D21*
X5334000Y9842500D3*
D56*
X4318000D3*
D21*
X5016500Y7556500D3*
D56*
X4000500D3*
D21*
X22352000Y6604000D3*
D56*
Y7874000D3*
D21*
X23050500Y6604000D3*
D56*
Y7874000D3*
D21*
X23749000Y6604000D3*
D56*
Y7874000D3*
D21*
X18986500Y8953500D3*
D56*
Y9969500D3*
D21*
X18478500Y8953500D3*
D56*
Y9969500D3*
D18*
X9588500Y10477500D3*
D35*
Y9715500D3*
D27*
X1905000Y1714500D3*
D58*
Y2476500D3*
D27*
X1841500Y4381500D3*
D58*
Y5143500D3*
D27*
X1905000Y9588500D3*
D58*
Y8826500D3*
D27*
Y6985000D3*
D58*
Y7747000D3*
D59*
X5270500Y381000D3*
D60*
X3746500D3*
D59*
X3365500D3*
D60*
X1841500D3*
D59*
X1397000D3*
D60*
Y1905000D3*
D61*
X14605000Y4445000D3*
Y3429000D3*
Y2794000D3*
Y5080000D3*
X9017000Y3429000D3*
Y4445000D3*
D63*
X2095500Y3281000D3*
D64*
X2349500D3*
X2603500D3*
X2857500D3*
D63*
X2032000Y8488000D3*
D64*
X2286000D3*
X2540000D3*
X2794000D3*
D63*
X1968500Y6202000D3*
D64*
X2222500D3*
X2476500D3*
X2730500D3*
D65*
X15303500Y7048500D3*
Y6794500D3*
Y6540500D3*
X16573500Y7048500D3*
Y6794500D3*
Y6540500D3*
D66*
X15684500Y7810500D3*
X15938500D3*
X16192500D3*
D63*
X22415500Y10033000D3*
D64*
Y9779000D3*
Y9525000D3*
Y9271000D3*
D40*
X2159000Y1651000D3*
D41*
Y1905000D3*
Y2159000D3*
Y2413000D3*
X2921000D3*
Y2159000D3*
Y1905000D3*
Y1651000D3*
D40*
X2159000Y4064000D3*
D41*
Y4318000D3*
Y4572000D3*
Y4826000D3*
X2921000D3*
Y4572000D3*
Y4318000D3*
Y4064000D3*
D40*
X2159000Y8890000D3*
D41*
Y9144000D3*
Y9398000D3*
Y9652000D3*
X2921000D3*
Y9398000D3*
Y9144000D3*
Y8890000D3*
D40*
X2159000Y6667500D3*
D41*
Y6921500D3*
Y7175500D3*
Y7429500D3*
X2921000D3*
Y7175500D3*
Y6921500D3*
Y6667500D3*
D40*
X24066500Y9334500D3*
D41*
X23812500D3*
X23558500D3*
X23304500D3*
Y10096500D3*
X23558500D3*
X23812500D3*
X24066500D3*
M02*
