G04 DipTrace 3.0.0.1*
G04 TopSilk.gbr*
%MOMM*%
G04 #@! TF.FileFunction,Legend,Top*
G04 #@! TF.Part,Single*
%ADD10C,0.25*%
%ADD25C,1.0*%
%ADD164C,0.19608*%
%FSLAX35Y35*%
G04*
G71*
G90*
G75*
G01*
G04 TopSilk*
%LPD*%
X13982500Y9207500D2*
D10*
G02X13982500Y9207500I-1100000J0D01*
G01*
X12072900Y9144580D2*
Y9270420D1*
X12009980Y9207500D2*
X12136040D1*
X16459000Y9271000D2*
G02X16459000Y9271000I-1100000J0D01*
G01*
X14549400Y9208080D2*
Y9333920D1*
X14486480Y9271000D2*
X14612540D1*
X9017000Y10223500D2*
X7239000D1*
Y10731500D1*
X9017000D1*
Y10223500D1*
Y9334500D2*
X7239000D1*
Y9842500D1*
X9017000D1*
Y9334500D1*
X23304500Y4635651D2*
X21780500D1*
Y571349D1*
X23304500D1*
Y4635651D1*
X619479Y10955477D2*
Y11015523D1*
X589517Y10985500D2*
X649529D1*
X698479D2*
X699407Y11012077D1*
X702187Y11038525D1*
X706805Y11064714D1*
X713239Y11090518D1*
X721457Y11115810D1*
X731420Y11140467D1*
X743078Y11164369D1*
X756375Y11187399D1*
X771247Y11209446D1*
X787620Y11230402D1*
X805416Y11250165D1*
X824546Y11268638D1*
X844919Y11285732D1*
X866435Y11301363D1*
X888988Y11315456D1*
X912470Y11327941D1*
X936766Y11338757D1*
X961756Y11347853D1*
X987321Y11355183D1*
X1013334Y11360712D1*
X1039670Y11364413D1*
X1066200Y11366268D1*
X1092795D1*
X1119325Y11364413D1*
X1145661Y11360712D1*
X1171675Y11355183D1*
X1197239Y11347853D1*
X1222230Y11338757D1*
X1246525Y11327941D1*
X1270007Y11315456D1*
X1292561Y11301363D1*
X1314076Y11285732D1*
X1334449Y11268638D1*
X1353580Y11250165D1*
X1371375Y11230402D1*
X1387749Y11209446D1*
X1402620Y11187399D1*
X1415917Y11164369D1*
X1427576Y11140467D1*
X1437538Y11115810D1*
X1445757Y11090518D1*
X1452190Y11064714D1*
X1456809Y11038525D1*
X1459589Y11012077D1*
X1460517Y10985500D1*
X1459589Y10958923D1*
X1456809Y10932475D1*
X1452190Y10906286D1*
X1445757Y10880482D1*
X1437538Y10855190D1*
X1427576Y10830533D1*
X1415917Y10806631D1*
X1402620Y10783601D1*
X1387749Y10761554D1*
X1371375Y10740598D1*
X1353580Y10720835D1*
X1334449Y10702362D1*
X1314076Y10685268D1*
X1292561Y10669637D1*
X1270007Y10655544D1*
X1246525Y10643059D1*
X1222230Y10632243D1*
X1197239Y10623147D1*
X1171675Y10615817D1*
X1145661Y10610288D1*
X1119325Y10606587D1*
X1092795Y10604732D1*
X1066200D1*
X1039670Y10606587D1*
X1013334Y10610288D1*
X987321Y10615817D1*
X961756Y10623147D1*
X936766Y10632243D1*
X912470Y10643059D1*
X888988Y10655544D1*
X866435Y10669637D1*
X844919Y10685268D1*
X824546Y10702362D1*
X805416Y10720835D1*
X787620Y10740598D1*
X771247Y10761554D1*
X756375Y10783601D1*
X743078Y10806631D1*
X731420Y10830533D1*
X721457Y10855190D1*
X713239Y10880482D1*
X706805Y10906286D1*
X702187Y10932475D1*
X699407Y10958923D1*
X698479Y10985500D1*
X775005Y10439400D2*
X1383995D1*
X775005Y10134600D2*
X1383995D1*
G03X1383995Y10439400I304J152400D01*
G01*
X775005D2*
G03X775005Y10134600I-304J-152400D01*
G01*
X7556500Y2349500D2*
X7048500D1*
Y571500D1*
X7556500D1*
Y2349500D1*
X7747000Y2667000D2*
X8255000D1*
Y4445000D1*
X7747000D1*
Y2667000D1*
Y5588000D2*
X8255000D1*
Y7366000D1*
X7747000D1*
Y5588000D1*
X15938500Y2413000D2*
X15430500D1*
Y635000D1*
X15938500D1*
Y2413000D1*
X8318500Y2349500D2*
X7810500D1*
Y571500D1*
X8318500D1*
Y2349500D1*
X16459000Y11811000D2*
G02X16459000Y11811000I-1100000J0D01*
G01*
X14549400Y11748080D2*
Y11873920D1*
X14486480Y11811000D2*
X14612540D1*
X13982500Y11747500D2*
G02X13982500Y11747500I-1100000J0D01*
G01*
X12072900Y11684580D2*
Y11810420D1*
X12009980Y11747500D2*
X12136040D1*
X2773700Y10033000D2*
X5821700D1*
Y12064975D1*
X2773700D1*
Y10033000D1*
X4181266Y12738000D2*
G03X4247408Y12738000I33071J19403D01*
G01*
G02X4298919Y12729217I25017J-8722D01*
G01*
X4931684Y12738000D2*
G03X4997521Y12738000I32918J19136D01*
G01*
G02X5049032Y12729217I24998J-8834D01*
G01*
X5686369Y12726198D2*
X5813166D1*
X3198286Y12722904D2*
X3297956D1*
X3247969Y12672949D2*
Y12772859D1*
X17247001Y4503293D2*
Y5529707D1*
X17375336Y4503293D2*
Y5529707D1*
X16726385Y4503293D2*
X18302567D1*
X16726385D2*
Y5529707D1*
X18302567D1*
Y4503293D2*
Y5529707D1*
X17247001Y3042793D2*
Y4069207D1*
X17375336Y3042793D2*
Y4069207D1*
X16726385Y3042793D2*
X18302567D1*
X16726385D2*
Y4069207D1*
X18302567D1*
Y3042793D2*
Y4069207D1*
X21818500Y5994500D2*
X24258500D1*
Y5054500D1*
X21818500D1*
Y5994500D1*
X11074500Y11138000D2*
X10134500D1*
Y8698000D1*
X11074500D1*
Y11138000D1*
X1778000Y571500D2*
X6858000D1*
Y13017500D1*
X1778000D1*
Y571500D1*
X16573500Y2476348D2*
D25*
X21653500D1*
X16573500Y6032652D2*
X21653500D1*
Y1587271D2*
X16573500D1*
X21653500Y6921729D2*
X16573500D1*
Y571500D2*
D10*
X21653500D1*
Y7937500D1*
X16573500D1*
Y571500D1*
X23423000Y268500D2*
X25503000D1*
Y4768500D1*
X23423000D1*
Y268500D1*
X23876024Y2593650D2*
X25453080D1*
Y3543600D1*
X23876024D1*
Y2593650D1*
Y1493400D2*
X25453080D1*
Y2443350D1*
X23876024D1*
Y1493400D1*
X24511048Y1947000D2*
X24511821Y1969162D1*
X24514138Y1991215D1*
X24517986Y2013054D1*
X24523348Y2034570D1*
X24530196Y2055660D1*
X24538498Y2076220D1*
X24548214Y2096151D1*
X24559295Y2115355D1*
X24571687Y2133739D1*
X24585332Y2151214D1*
X24600161Y2167693D1*
X24616103Y2183097D1*
X24633080Y2197351D1*
X24651010Y2210385D1*
X24669804Y2222136D1*
X24689372Y2232547D1*
X24709618Y2241566D1*
X24730443Y2249151D1*
X24751747Y2255263D1*
X24773425Y2259873D1*
X24795371Y2262960D1*
X24817479Y2264506D1*
X24839641D1*
X24861749Y2262960D1*
X24883695Y2259873D1*
X24905373Y2255263D1*
X24926677Y2249151D1*
X24947502Y2241566D1*
X24967748Y2232547D1*
X24987316Y2222136D1*
X25006110Y2210385D1*
X25024040Y2197351D1*
X25041017Y2183097D1*
X25056959Y2167693D1*
X25071788Y2151214D1*
X25085433Y2133739D1*
X25097825Y2115355D1*
X25108906Y2096151D1*
X25118622Y2076220D1*
X25126924Y2055660D1*
X25133772Y2034570D1*
X25139134Y2013054D1*
X25142982Y1991215D1*
X25145299Y1969162D1*
X25146072Y1947000D1*
X25145299Y1924838D1*
X25142982Y1902785D1*
X25139134Y1880946D1*
X25133772Y1859430D1*
X25126924Y1838340D1*
X25118622Y1817780D1*
X25108906Y1797849D1*
X25097825Y1778645D1*
X25085433Y1760261D1*
X25071788Y1742786D1*
X25056959Y1726307D1*
X25041017Y1710903D1*
X25024040Y1696649D1*
X25006110Y1683615D1*
X24987316Y1671864D1*
X24967748Y1661453D1*
X24947502Y1652434D1*
X24926677Y1644849D1*
X24905373Y1638737D1*
X24883695Y1634127D1*
X24861749Y1631040D1*
X24839641Y1629494D1*
X24817479D1*
X24795371Y1631040D1*
X24773425Y1634127D1*
X24751747Y1638737D1*
X24730443Y1644849D1*
X24709618Y1652434D1*
X24689372Y1661453D1*
X24669804Y1671864D1*
X24651010Y1683615D1*
X24633080Y1696649D1*
X24616103Y1710903D1*
X24600161Y1726307D1*
X24585332Y1742786D1*
X24571687Y1760261D1*
X24559295Y1778645D1*
X24548214Y1797849D1*
X24538498Y1817780D1*
X24530196Y1838340D1*
X24523348Y1859430D1*
X24517986Y1880946D1*
X24514138Y1902785D1*
X24511821Y1924838D1*
X24511048Y1947000D1*
Y3090000D2*
X24511821Y3112162D1*
X24514138Y3134215D1*
X24517986Y3156054D1*
X24523348Y3177570D1*
X24530196Y3198660D1*
X24538498Y3219220D1*
X24548214Y3239151D1*
X24559295Y3258355D1*
X24571687Y3276739D1*
X24585332Y3294214D1*
X24600161Y3310693D1*
X24616103Y3326097D1*
X24633080Y3340351D1*
X24651010Y3353385D1*
X24669804Y3365136D1*
X24689372Y3375547D1*
X24709618Y3384566D1*
X24730443Y3392151D1*
X24751747Y3398263D1*
X24773425Y3402873D1*
X24795371Y3405960D1*
X24817479Y3407506D1*
X24839641D1*
X24861749Y3405960D1*
X24883695Y3402873D1*
X24905373Y3398263D1*
X24926677Y3392151D1*
X24947502Y3384566D1*
X24967748Y3375547D1*
X24987316Y3365136D1*
X25006110Y3353385D1*
X25024040Y3340351D1*
X25041017Y3326097D1*
X25056959Y3310693D1*
X25071788Y3294214D1*
X25085433Y3276739D1*
X25097825Y3258355D1*
X25108906Y3239151D1*
X25118622Y3219220D1*
X25126924Y3198660D1*
X25133772Y3177570D1*
X25139134Y3156054D1*
X25142982Y3134215D1*
X25145299Y3112162D1*
X25146072Y3090000D1*
X25145299Y3067838D1*
X25142982Y3045785D1*
X25139134Y3023946D1*
X25133772Y3002430D1*
X25126924Y2981340D1*
X25118622Y2960780D1*
X25108906Y2940849D1*
X25097825Y2921645D1*
X25085433Y2903261D1*
X25071788Y2885786D1*
X25056959Y2869307D1*
X25041017Y2853903D1*
X25024040Y2839649D1*
X25006110Y2826615D1*
X24987316Y2814864D1*
X24967748Y2804453D1*
X24947502Y2795434D1*
X24926677Y2787849D1*
X24905373Y2781737D1*
X24883695Y2777127D1*
X24861749Y2774040D1*
X24839641Y2772494D1*
X24817479D1*
X24795371Y2774040D1*
X24773425Y2777127D1*
X24751747Y2781737D1*
X24730443Y2787849D1*
X24709618Y2795434D1*
X24689372Y2804453D1*
X24669804Y2814864D1*
X24651010Y2826615D1*
X24633080Y2839649D1*
X24616103Y2853903D1*
X24600161Y2869307D1*
X24585332Y2885786D1*
X24571687Y2903261D1*
X24559295Y2921645D1*
X24548214Y2940849D1*
X24538498Y2960780D1*
X24530196Y2981340D1*
X24523348Y3002430D1*
X24517986Y3023946D1*
X24514138Y3045785D1*
X24511821Y3067838D1*
X24511048Y3090000D1*
X508000Y8826500D2*
X1524000D1*
Y9842500D1*
X508000D1*
Y8826500D1*
X954500Y4991500D2*
X1204500D1*
Y5549500D1*
X954500D1*
Y4991500D1*
X11669500Y11421500D2*
X7169500D1*
Y13501500D1*
X11669500D1*
Y11421500D1*
X9344350Y11874524D2*
X8394400D1*
Y13451580D1*
X9344350D1*
Y11874524D1*
X10444600D2*
X9494650D1*
Y13451580D1*
X10444600D1*
Y11874524D1*
X9673300Y12827060D2*
X9674074Y12849209D1*
X9676392Y12871249D1*
X9680243Y12893074D1*
X9685607Y12914578D1*
X9692460Y12935655D1*
X9700767Y12956204D1*
X9710488Y12976123D1*
X9721575Y12995316D1*
X9733975Y13013689D1*
X9747628Y13031153D1*
X9762466Y13047622D1*
X9778417Y13063017D1*
X9795404Y13077263D1*
X9813344Y13090289D1*
X9832150Y13102033D1*
X9851729Y13112438D1*
X9871987Y13121452D1*
X9892825Y13129032D1*
X9914141Y13135141D1*
X9935832Y13139748D1*
X9957791Y13142833D1*
X9979912Y13144379D1*
X10002088D1*
X10024209Y13142833D1*
X10046168Y13139748D1*
X10067859Y13135141D1*
X10089175Y13129032D1*
X10110013Y13121452D1*
X10130271Y13112438D1*
X10149850Y13102033D1*
X10168656Y13090289D1*
X10186596Y13077263D1*
X10203583Y13063017D1*
X10219534Y13047622D1*
X10234372Y13031153D1*
X10248025Y13013689D1*
X10260425Y12995316D1*
X10271512Y12976123D1*
X10281233Y12956204D1*
X10289540Y12935655D1*
X10296393Y12914578D1*
X10301757Y12893074D1*
X10305608Y12871249D1*
X10307926Y12849209D1*
X10308700Y12827060D1*
X10307926Y12804911D1*
X10305608Y12782871D1*
X10301757Y12761046D1*
X10296393Y12739542D1*
X10289540Y12718465D1*
X10281233Y12697916D1*
X10271512Y12677997D1*
X10260425Y12658804D1*
X10248025Y12640431D1*
X10234372Y12622967D1*
X10219534Y12606498D1*
X10203583Y12591103D1*
X10186596Y12576857D1*
X10168656Y12563831D1*
X10149850Y12552087D1*
X10130271Y12541682D1*
X10110013Y12532668D1*
X10089175Y12525088D1*
X10067859Y12518979D1*
X10046168Y12514372D1*
X10024209Y12511287D1*
X10002088Y12509741D1*
X9979912D1*
X9957791Y12511287D1*
X9935832Y12514372D1*
X9914141Y12518979D1*
X9892825Y12525088D1*
X9871987Y12532668D1*
X9851729Y12541682D1*
X9832150Y12552087D1*
X9813344Y12563831D1*
X9795404Y12576857D1*
X9778417Y12591103D1*
X9762466Y12606498D1*
X9747628Y12622967D1*
X9733975Y12640431D1*
X9721575Y12658804D1*
X9710488Y12677997D1*
X9700767Y12697916D1*
X9692460Y12718465D1*
X9685607Y12739542D1*
X9680243Y12761046D1*
X9676392Y12782871D1*
X9674074Y12804911D1*
X9673300Y12827060D1*
X8530300D2*
X8531074Y12849209D1*
X8533392Y12871249D1*
X8537243Y12893074D1*
X8542607Y12914578D1*
X8549460Y12935655D1*
X8557767Y12956204D1*
X8567488Y12976123D1*
X8578575Y12995316D1*
X8590975Y13013689D1*
X8604628Y13031153D1*
X8619466Y13047622D1*
X8635417Y13063017D1*
X8652404Y13077263D1*
X8670344Y13090289D1*
X8689150Y13102033D1*
X8708729Y13112438D1*
X8728987Y13121452D1*
X8749825Y13129032D1*
X8771141Y13135141D1*
X8792832Y13139748D1*
X8814791Y13142833D1*
X8836912Y13144379D1*
X8859088D1*
X8881209Y13142833D1*
X8903168Y13139748D1*
X8924859Y13135141D1*
X8946175Y13129032D1*
X8967013Y13121452D1*
X8987271Y13112438D1*
X9006850Y13102033D1*
X9025656Y13090289D1*
X9043596Y13077263D1*
X9060583Y13063017D1*
X9076534Y13047622D1*
X9091372Y13031153D1*
X9105025Y13013689D1*
X9117425Y12995316D1*
X9128512Y12976123D1*
X9138233Y12956204D1*
X9146540Y12935655D1*
X9153393Y12914578D1*
X9158757Y12893074D1*
X9162608Y12871249D1*
X9164926Y12849209D1*
X9165700Y12827060D1*
X9164926Y12804911D1*
X9162608Y12782871D1*
X9158757Y12761046D1*
X9153393Y12739542D1*
X9146540Y12718465D1*
X9138233Y12697916D1*
X9128512Y12677997D1*
X9117425Y12658804D1*
X9105025Y12640431D1*
X9091372Y12622967D1*
X9076534Y12606498D1*
X9060583Y12591103D1*
X9043596Y12576857D1*
X9025656Y12563831D1*
X9006850Y12552087D1*
X8987271Y12541682D1*
X8967013Y12532668D1*
X8946175Y12525088D1*
X8924859Y12518979D1*
X8903168Y12514372D1*
X8881209Y12511287D1*
X8859088Y12509741D1*
X8836912D1*
X8814791Y12511287D1*
X8792832Y12514372D1*
X8771141Y12518979D1*
X8749825Y12525088D1*
X8728987Y12532668D1*
X8708729Y12541682D1*
X8689150Y12552087D1*
X8670344Y12563831D1*
X8652404Y12576857D1*
X8635417Y12591103D1*
X8619466Y12606498D1*
X8604628Y12622967D1*
X8590975Y12640431D1*
X8578575Y12658804D1*
X8567488Y12677997D1*
X8557767Y12697916D1*
X8549460Y12718465D1*
X8542607Y12739542D1*
X8537243Y12761046D1*
X8533392Y12782871D1*
X8531074Y12804911D1*
X8530300Y12827060D1*
X3783500Y9379000D2*
X5783396D1*
Y7819000D1*
X3783500D1*
Y9379000D1*
Y6902500D2*
X5783396D1*
Y5342500D1*
X3783500D1*
Y6902500D1*
Y2140000D2*
X5783396D1*
Y580000D1*
X3783500D1*
Y2140000D1*
Y4553000D2*
X5783396D1*
Y2993000D1*
X3783500D1*
Y4553000D1*
X7112000Y5524500D2*
X7620000D1*
Y8064500D1*
X7112000D1*
Y5524500D1*
Y2667000D2*
X7620000D1*
Y5207000D1*
X7112000D1*
Y2667000D1*
X22479000Y7620203D2*
Y6857797D1*
X22225000D2*
X22479000D1*
X22225000Y7620203D2*
Y6857797D1*
Y7620203D2*
X22479000D1*
X23177500D2*
Y6857797D1*
X22923500D2*
X23177500D1*
X22923500Y7620203D2*
Y6857797D1*
Y7620203D2*
X23177500D1*
X23876000D2*
Y6857797D1*
X23622000D2*
X23876000D1*
X23622000Y7620203D2*
Y6857797D1*
Y7620203D2*
X23876000D1*
X19113500Y9715043D2*
Y9207957D1*
X18859500D2*
X19113500D1*
X18859500Y9715043D2*
Y9207957D1*
Y9715043D2*
X19113500D1*
X18605500D2*
Y9207957D1*
X18351500D2*
X18605500D1*
X18351500Y9715043D2*
Y9207957D1*
Y9715043D2*
X18605500D1*
X9740933Y9664192D2*
Y10528808D1*
X9436067Y9664192D2*
Y10528808D1*
X9740933D2*
G03X9436067Y10528808I-152433J-542D01*
G01*
Y9664192D2*
G03X9740933Y9664192I152433J542D01*
G01*
X3999662Y571500D2*
X5017338D1*
Y190500D2*
Y571500D1*
X3999662Y190500D2*
X5017338D1*
X3999662D2*
Y571500D1*
X2094662D2*
X3112338D1*
Y190500D2*
Y571500D1*
X2094662Y190500D2*
X3112338D1*
X2094662D2*
Y571500D1*
X1587500Y1651838D2*
Y634162D1*
X1206500D2*
X1587500D1*
X1206500Y1651838D2*
Y634162D1*
Y1651838D2*
X1587500D1*
X15113000Y7366000D2*
X8509000D1*
Y508000D1*
X15113000D1*
Y7366000D1*
X12893215Y10463164D2*
D164*
X12887179Y10475237D1*
X12874965Y10487450D1*
X12862892Y10493487D1*
X12838606D1*
X12826392Y10487450D1*
X12814319Y10475237D1*
X12808142Y10463164D1*
X12802106Y10444914D1*
Y10414450D1*
X12808142Y10396340D1*
X12814319Y10384127D1*
X12826392Y10372054D1*
X12838606Y10365877D1*
X12862892D1*
X12874965Y10372054D1*
X12887179Y10384127D1*
X12893215Y10396340D1*
X12932431Y10469060D2*
X12944644Y10475237D1*
X12962894Y10493346D1*
Y10365877D1*
X15342410Y10526664D2*
X15336374Y10538737D1*
X15324160Y10550950D1*
X15312087Y10556987D1*
X15287801D1*
X15275587Y10550950D1*
X15263514Y10538737D1*
X15257337Y10526664D1*
X15251301Y10508414D1*
Y10477950D1*
X15257337Y10459840D1*
X15263514Y10447627D1*
X15275587Y10435554D1*
X15287801Y10429377D1*
X15312087D1*
X15324160Y10435554D1*
X15336374Y10447627D1*
X15342410Y10459840D1*
X15387803Y10526523D2*
Y10532560D1*
X15393840Y10544773D1*
X15399876Y10550810D1*
X15412090Y10556846D1*
X15436376D1*
X15448449Y10550810D1*
X15454486Y10544773D1*
X15460663Y10532560D1*
Y10520487D1*
X15454486Y10508273D1*
X15442413Y10490164D1*
X15381626Y10429377D1*
X15466699D1*
X8111410Y10887164D2*
X8105374Y10899237D1*
X8093160Y10911450D1*
X8081087Y10917487D1*
X8056801D1*
X8044587Y10911450D1*
X8032514Y10899237D1*
X8026337Y10887164D1*
X8020301Y10868914D1*
Y10838450D1*
X8026337Y10820340D1*
X8032514Y10808127D1*
X8044587Y10796054D1*
X8056801Y10789877D1*
X8081087D1*
X8093160Y10796054D1*
X8105374Y10808127D1*
X8111410Y10820340D1*
X8162840Y10917346D2*
X8229522D1*
X8193163Y10868773D1*
X8211413D1*
X8223486Y10862737D1*
X8229522Y10856700D1*
X8235699Y10838450D1*
Y10826377D1*
X8229522Y10808127D1*
X8217449Y10795914D1*
X8199199Y10789877D1*
X8180949D1*
X8162840Y10795914D1*
X8156803Y10802090D1*
X8150626Y10814164D1*
X8108392Y9998164D2*
X8102356Y10010237D1*
X8090142Y10022450D1*
X8078069Y10028487D1*
X8053783D1*
X8041569Y10022450D1*
X8029496Y10010237D1*
X8023319Y9998164D1*
X8017283Y9979914D1*
Y9949450D1*
X8023319Y9931340D1*
X8029496Y9919127D1*
X8041569Y9907054D1*
X8053783Y9900877D1*
X8078069D1*
X8090142Y9907054D1*
X8102356Y9919127D1*
X8108392Y9931340D1*
X8208394Y9900877D2*
Y10028346D1*
X8147608Y9943414D1*
X8238717D1*
X22488053Y4794164D2*
X22482016Y4806237D1*
X22469803Y4818450D1*
X22457730Y4824487D1*
X22433443D1*
X22421230Y4818450D1*
X22409156Y4806237D1*
X22402980Y4794164D1*
X22396943Y4775914D1*
Y4745450D1*
X22402980Y4727340D1*
X22409156Y4715127D1*
X22421230Y4703054D1*
X22433443Y4696877D1*
X22457730D1*
X22469803Y4703054D1*
X22482016Y4715127D1*
X22488053Y4727340D1*
X22527268Y4800060D2*
X22539482Y4806237D1*
X22557732Y4824346D1*
Y4696877D1*
X22657734D2*
Y4824346D1*
X22596947Y4739414D1*
X22688057D1*
X949371Y11522164D2*
X943335Y11534237D1*
X931121Y11546450D1*
X919048Y11552487D1*
X894762D1*
X882548Y11546450D1*
X870475Y11534237D1*
X864298Y11522164D1*
X858262Y11503914D1*
Y11473450D1*
X864298Y11455340D1*
X870475Y11443127D1*
X882548Y11431054D1*
X894762Y11424877D1*
X919048D1*
X931121Y11431054D1*
X943335Y11443127D1*
X949371Y11455340D1*
X994764Y11522023D2*
Y11528060D1*
X1000800Y11540273D1*
X1006837Y11546310D1*
X1019050Y11552346D1*
X1043337D1*
X1055410Y11546310D1*
X1061446Y11540273D1*
X1067623Y11528060D1*
Y11515987D1*
X1061446Y11503773D1*
X1049373Y11485664D1*
X988587Y11424877D1*
X1073660D1*
X1185735Y11534237D2*
X1179699Y11546310D1*
X1161449Y11552346D1*
X1149376D1*
X1131126Y11546310D1*
X1118912Y11528060D1*
X1112876Y11497737D1*
Y11467414D1*
X1118912Y11443127D1*
X1131126Y11430914D1*
X1149376Y11424877D1*
X1155412D1*
X1173522Y11430914D1*
X1185735Y11443127D1*
X1191772Y11461377D1*
Y11467414D1*
X1185735Y11485664D1*
X1173522Y11497737D1*
X1155412Y11503773D1*
X1149376D1*
X1131126Y11497737D1*
X1118912Y11485664D1*
X1112876Y11467414D1*
X1000766Y10595064D2*
X994730Y10607137D1*
X982516Y10619350D1*
X970443Y10625387D1*
X946156D1*
X933943Y10619350D1*
X921870Y10607137D1*
X915693Y10595064D1*
X909656Y10576814D1*
Y10546350D1*
X915693Y10528241D1*
X921870Y10516027D1*
X933943Y10503954D1*
X946156Y10497777D1*
X970443D1*
X982516Y10503954D1*
X994730Y10516027D1*
X1000766Y10528241D1*
X1046159Y10594923D2*
Y10600960D1*
X1052195Y10613173D1*
X1058232Y10619210D1*
X1070445Y10625247D1*
X1094732D1*
X1106805Y10619210D1*
X1112841Y10613173D1*
X1119018Y10600960D1*
Y10588887D1*
X1112841Y10576673D1*
X1100768Y10558564D1*
X1039982Y10497777D1*
X1125055D1*
X1188557D2*
X1249344Y10625247D1*
X1164270D1*
X7226784Y2505164D2*
X7220748Y2517237D1*
X7208534Y2529450D1*
X7196461Y2535487D1*
X7172175D1*
X7159961Y2529450D1*
X7147888Y2517237D1*
X7141711Y2505164D1*
X7135675Y2486914D1*
Y2456450D1*
X7141711Y2438340D1*
X7147888Y2426127D1*
X7159961Y2414054D1*
X7172175Y2407877D1*
X7196461D1*
X7208534Y2414054D1*
X7220748Y2426127D1*
X7226784Y2438340D1*
X7272177Y2505023D2*
Y2511060D1*
X7278213Y2523273D1*
X7284250Y2529310D1*
X7296463Y2535346D1*
X7320750D1*
X7332823Y2529310D1*
X7338860Y2523273D1*
X7345037Y2511060D1*
Y2498987D1*
X7338860Y2486773D1*
X7326787Y2468664D1*
X7266000Y2407877D1*
X7351073D1*
X7469325Y2492950D2*
X7463148Y2474700D1*
X7451075Y2462487D1*
X7432825Y2456450D1*
X7426789D1*
X7408539Y2462487D1*
X7396466Y2474700D1*
X7390289Y2492950D1*
Y2498987D1*
X7396466Y2517237D1*
X7408539Y2529310D1*
X7426789Y2535346D1*
X7432825D1*
X7451075Y2529310D1*
X7463148Y2517237D1*
X7469325Y2492950D1*
Y2462487D1*
X7463148Y2432164D1*
X7451075Y2413914D1*
X7432825Y2407877D1*
X7420752D1*
X7402502Y2413914D1*
X7396466Y2426127D1*
X7922266Y4600664D2*
X7916230Y4612737D1*
X7904016Y4624950D1*
X7891943Y4630987D1*
X7867656D1*
X7855443Y4624950D1*
X7843370Y4612737D1*
X7837193Y4600664D1*
X7831156Y4582414D1*
Y4551950D1*
X7837193Y4533840D1*
X7843370Y4521627D1*
X7855443Y4509554D1*
X7867656Y4503377D1*
X7891943D1*
X7904016Y4509554D1*
X7916230Y4521627D1*
X7922266Y4533840D1*
X7973695Y4630846D2*
X8040378D1*
X8004018Y4582273D1*
X8022268D1*
X8034341Y4576237D1*
X8040378Y4570200D1*
X8046555Y4551950D1*
Y4539877D1*
X8040378Y4521627D1*
X8028305Y4509414D1*
X8010055Y4503377D1*
X7991805D1*
X7973695Y4509414D1*
X7967659Y4515590D1*
X7961482Y4527664D1*
X8122270Y4630846D2*
X8104020Y4624810D1*
X8091807Y4606560D1*
X8085770Y4576237D1*
Y4557987D1*
X8091807Y4527664D1*
X8104020Y4509414D1*
X8122270Y4503377D1*
X8134344D1*
X8152594Y4509414D1*
X8164667Y4527664D1*
X8170844Y4557987D1*
Y4576237D1*
X8164667Y4606560D1*
X8152594Y4624810D1*
X8134344Y4630846D1*
X8122270D1*
X8164667Y4606560D2*
X8091807Y4527664D1*
X7949571Y7521664D2*
X7943534Y7533737D1*
X7931321Y7545950D1*
X7919248Y7551987D1*
X7894961D1*
X7882748Y7545950D1*
X7870675Y7533737D1*
X7864498Y7521664D1*
X7858461Y7503414D1*
Y7472950D1*
X7864498Y7454840D1*
X7870675Y7442627D1*
X7882748Y7430554D1*
X7894961Y7424377D1*
X7919248D1*
X7931321Y7430554D1*
X7943534Y7442627D1*
X7949571Y7454840D1*
X8001000Y7551846D2*
X8067683D1*
X8031323Y7503273D1*
X8049573D1*
X8061646Y7497237D1*
X8067683Y7491200D1*
X8073860Y7472950D1*
Y7460877D1*
X8067683Y7442627D1*
X8055610Y7430414D1*
X8037360Y7424377D1*
X8019110D1*
X8001000Y7430414D1*
X7994963Y7436590D1*
X7988787Y7448664D1*
X8113075Y7527560D2*
X8125289Y7533737D1*
X8143539Y7551846D1*
Y7424377D1*
X15605766Y2568664D2*
X15599730Y2580737D1*
X15587516Y2592950D1*
X15575443Y2598987D1*
X15551156D1*
X15538943Y2592950D1*
X15526870Y2580737D1*
X15520693Y2568664D1*
X15514656Y2550414D1*
Y2519950D1*
X15520693Y2501840D1*
X15526870Y2489627D1*
X15538943Y2477554D1*
X15551156Y2471377D1*
X15575443D1*
X15587516Y2477554D1*
X15599730Y2489627D1*
X15605766Y2501840D1*
X15657195Y2598846D2*
X15723878D1*
X15687518Y2550273D1*
X15705768D1*
X15717841Y2544237D1*
X15723878Y2538200D1*
X15730055Y2519950D1*
Y2507877D1*
X15723878Y2489627D1*
X15711805Y2477414D1*
X15693555Y2471377D1*
X15675305D1*
X15657195Y2477414D1*
X15651159Y2483590D1*
X15644982Y2495664D1*
X15781484Y2598846D2*
X15848167D1*
X15811807Y2550273D1*
X15830057D1*
X15842130Y2544237D1*
X15848167Y2538200D1*
X15854344Y2519950D1*
Y2507877D1*
X15848167Y2489627D1*
X15836094Y2477414D1*
X15817844Y2471377D1*
X15799594D1*
X15781484Y2477414D1*
X15775447Y2483590D1*
X15769270Y2495664D1*
X7982748Y2505164D2*
X7976711Y2517237D1*
X7964498Y2529450D1*
X7952425Y2535487D1*
X7928138D1*
X7915925Y2529450D1*
X7903852Y2517237D1*
X7897675Y2505164D1*
X7891638Y2486914D1*
Y2456450D1*
X7897675Y2438340D1*
X7903852Y2426127D1*
X7915925Y2414054D1*
X7928138Y2407877D1*
X7952425D1*
X7964498Y2414054D1*
X7976711Y2426127D1*
X7982748Y2438340D1*
X8034177Y2535346D2*
X8100860D1*
X8064500Y2486773D1*
X8082750D1*
X8094823Y2480737D1*
X8100860Y2474700D1*
X8107037Y2456450D1*
Y2444377D1*
X8100860Y2426127D1*
X8088787Y2413914D1*
X8070537Y2407877D1*
X8052287D1*
X8034177Y2413914D1*
X8028140Y2420090D1*
X8021963Y2432164D1*
X8207039Y2407877D2*
Y2535346D1*
X8146252Y2450414D1*
X8237362D1*
X15280266Y13066664D2*
X15274230Y13078737D1*
X15262016Y13090950D1*
X15249943Y13096987D1*
X15225656D1*
X15213443Y13090950D1*
X15201370Y13078737D1*
X15195193Y13066664D1*
X15189156Y13048414D1*
Y13017950D1*
X15195193Y12999840D1*
X15201370Y12987627D1*
X15213443Y12975554D1*
X15225656Y12969377D1*
X15249943D1*
X15262016Y12975554D1*
X15274230Y12987627D1*
X15280266Y12999840D1*
X15331695Y13096846D2*
X15398378D1*
X15362018Y13048273D1*
X15380268D1*
X15392341Y13042237D1*
X15398378Y13036200D1*
X15404555Y13017950D1*
Y13005877D1*
X15398378Y12987627D1*
X15386305Y12975414D1*
X15368055Y12969377D1*
X15349805D1*
X15331695Y12975414D1*
X15325659Y12981590D1*
X15319482Y12993664D1*
X15516630Y13096846D2*
X15455984D1*
X15449947Y13042237D1*
X15455984Y13048273D1*
X15474234Y13054450D1*
X15492344D1*
X15510594Y13048273D1*
X15522807Y13036200D1*
X15528844Y13017950D1*
Y13005877D1*
X15522807Y12987627D1*
X15510594Y12975414D1*
X15492344Y12969377D1*
X15474234D1*
X15455984Y12975414D1*
X15449947Y12981590D1*
X15443770Y12993664D1*
X12806855Y13003164D2*
X12800818Y13015237D1*
X12788605Y13027450D1*
X12776531Y13033487D1*
X12752245D1*
X12740031Y13027450D1*
X12727958Y13015237D1*
X12721781Y13003164D1*
X12715745Y12984914D1*
Y12954450D1*
X12721781Y12936340D1*
X12727958Y12924127D1*
X12740031Y12912054D1*
X12752245Y12905877D1*
X12776531D1*
X12788605Y12912054D1*
X12800818Y12924127D1*
X12806855Y12936340D1*
X12858284Y13033346D2*
X12924966D1*
X12888607Y12984773D1*
X12906857D1*
X12918930Y12978737D1*
X12924966Y12972700D1*
X12931143Y12954450D1*
Y12942377D1*
X12924966Y12924127D1*
X12912893Y12911914D1*
X12894643Y12905877D1*
X12876393D1*
X12858284Y12911914D1*
X12852247Y12918090D1*
X12846070Y12930164D1*
X13043219Y13015237D2*
X13037182Y13027310D1*
X13018932Y13033346D1*
X13006859D1*
X12988609Y13027310D1*
X12976395Y13009060D1*
X12970359Y12978737D1*
Y12948414D1*
X12976395Y12924127D1*
X12988609Y12911914D1*
X13006859Y12905877D1*
X13012895D1*
X13031005Y12911914D1*
X13043219Y12924127D1*
X13049255Y12942377D1*
Y12948414D1*
X13043219Y12966664D1*
X13031005Y12978737D1*
X13012895Y12984773D1*
X13006859D1*
X12988609Y12978737D1*
X12976395Y12966664D1*
X12970359Y12948414D1*
X4193019Y12963787D2*
Y12836177D1*
X4235556D1*
X4253806Y12842354D1*
X4266019Y12854427D1*
X4272056Y12866640D1*
X4278092Y12884750D1*
Y12915214D1*
X4272056Y12933464D1*
X4266019Y12945537D1*
X4253806Y12957750D1*
X4235556Y12963787D1*
X4193019D1*
X4390167Y12963646D2*
X4329521D1*
X4323485Y12909037D1*
X4329521Y12915073D1*
X4347771Y12921250D1*
X4365881D1*
X4384131Y12915073D1*
X4396344Y12903000D1*
X4402381Y12884750D1*
Y12872677D1*
X4396344Y12854427D1*
X4384131Y12842214D1*
X4365881Y12836177D1*
X4347771D1*
X4329521Y12842214D1*
X4323485Y12848390D1*
X4317308Y12860464D1*
X17098441Y5715693D2*
Y5588084D1*
X17140977D1*
X17159227Y5594261D1*
X17171441Y5606334D1*
X17177477Y5618547D1*
X17183514Y5636657D1*
Y5667120D1*
X17177477Y5685370D1*
X17171441Y5697443D1*
X17159227Y5709657D1*
X17140977Y5715693D1*
X17098441D1*
X17295589Y5697443D2*
X17289553Y5709516D1*
X17271303Y5715553D1*
X17259230D1*
X17240980Y5709516D1*
X17228766Y5691266D1*
X17222730Y5660943D1*
Y5630620D1*
X17228766Y5606334D1*
X17240980Y5594120D1*
X17259230Y5588084D1*
X17265266D1*
X17283376Y5594120D1*
X17295589Y5606334D1*
X17301626Y5624584D1*
Y5630620D1*
X17295589Y5648870D1*
X17283376Y5660943D1*
X17265266Y5666980D1*
X17259230D1*
X17240980Y5660943D1*
X17228766Y5648870D1*
X17222730Y5630620D1*
X17095352Y4255193D2*
Y4127584D1*
X17137889D1*
X17156139Y4133761D1*
X17168352Y4145834D1*
X17174389Y4158047D1*
X17180425Y4176157D1*
Y4206620D1*
X17174389Y4224870D1*
X17168352Y4236943D1*
X17156139Y4249157D1*
X17137889Y4255193D1*
X17095352D1*
X17243928Y4127584D2*
X17304714Y4255053D1*
X17219641D1*
X23043179Y6180487D2*
X22964142D1*
Y6052877D1*
Y6119700D2*
X23012715D1*
X23082394Y6156060D2*
X23094608Y6162237D1*
X23112858Y6180346D1*
Y6052877D1*
X10581874Y11323987D2*
X10502837D1*
Y11196377D1*
Y11263200D2*
X10551410D1*
X10627266Y11293523D2*
Y11299560D1*
X10633303Y11311773D1*
X10639340Y11317810D1*
X10651553Y11323846D1*
X10675840D1*
X10687913Y11317810D1*
X10693949Y11311773D1*
X10700126Y11299560D1*
Y11287487D1*
X10693949Y11275273D1*
X10681876Y11257164D1*
X10621090Y11196377D1*
X10706163D1*
X4240624Y13203487D2*
Y13075877D1*
X4325697Y13203487D2*
Y13075877D1*
X4240624Y13142700D2*
X4325697D1*
X4364913Y13179060D2*
X4377126Y13185237D1*
X4395376Y13203346D1*
Y13075877D1*
X19008819Y8123487D2*
Y7995877D1*
X19093892Y8123487D2*
Y7995877D1*
X19008819Y8062700D2*
X19093892D1*
X19139285Y8093023D2*
Y8099060D1*
X19145321Y8111273D1*
X19151358Y8117310D1*
X19163571Y8123346D1*
X19187858D1*
X19199931Y8117310D1*
X19205967Y8111273D1*
X19212144Y8099060D1*
Y8086987D1*
X19205967Y8074773D1*
X19193894Y8056664D1*
X19133108Y7995877D1*
X19218181D1*
X24458554Y4954487D2*
Y4857340D1*
X24452517Y4839090D1*
X24446340Y4833054D1*
X24434267Y4826877D1*
X24422054D1*
X24409981Y4833054D1*
X24403944Y4839090D1*
X24397767Y4857340D1*
Y4869414D1*
X24497769Y4930060D2*
X24509983Y4936237D1*
X24528233Y4954346D1*
Y4826877D1*
X981231Y10028487D2*
Y9931340D1*
X975194Y9913090D1*
X969017Y9907054D1*
X956944Y9900877D1*
X944731D1*
X932658Y9907054D1*
X926621Y9913090D1*
X920444Y9931340D1*
Y9943414D1*
X1081233Y9900877D2*
Y10028346D1*
X1020446Y9943414D1*
X1111556D1*
X1047749Y5735487D2*
Y5638340D1*
X1041712Y5620090D1*
X1035535Y5614054D1*
X1023462Y5607877D1*
X1011249D1*
X999176Y5614054D1*
X993139Y5620090D1*
X986962Y5638340D1*
Y5650414D1*
X1159824Y5735346D2*
X1099178D1*
X1093141Y5680737D1*
X1099178Y5686773D1*
X1117428Y5692950D1*
X1135538D1*
X1153788Y5686773D1*
X1166001Y5674700D1*
X1172038Y5656450D1*
Y5644377D1*
X1166001Y5626127D1*
X1153788Y5613914D1*
X1135538Y5607877D1*
X1117428D1*
X1099178Y5613914D1*
X1093141Y5620090D1*
X1086965Y5632164D1*
X9390837Y13687487D2*
Y13590340D1*
X9384801Y13572090D1*
X9378624Y13566054D1*
X9366551Y13559877D1*
X9354337D1*
X9342264Y13566054D1*
X9336228Y13572090D1*
X9330051Y13590340D1*
Y13602414D1*
X9502913Y13669237D2*
X9496876Y13681310D1*
X9478626Y13687346D1*
X9466553D1*
X9448303Y13681310D1*
X9436090Y13663060D1*
X9430053Y13632737D1*
Y13602414D1*
X9436090Y13578127D1*
X9448303Y13565914D1*
X9466553Y13559877D1*
X9472590D1*
X9490699Y13565914D1*
X9502913Y13578127D1*
X9508949Y13596377D1*
Y13602414D1*
X9502913Y13620664D1*
X9490699Y13632737D1*
X9472590Y13638773D1*
X9466553D1*
X9448303Y13632737D1*
X9436090Y13620664D1*
X9430053Y13602414D1*
X5116517Y9564987D2*
X5104444Y9559090D1*
X5092231Y9546877D1*
X5086194Y9534664D1*
X5080017Y9516414D1*
Y9486090D1*
X5086194Y9467840D1*
X5092231Y9455767D1*
X5104444Y9443554D1*
X5116517Y9437517D1*
X5140804D1*
X5153017Y9443554D1*
X5165090Y9455767D1*
X5171127Y9467840D1*
X5177304Y9486090D1*
Y9516414D1*
X5171127Y9534664D1*
X5165090Y9546877D1*
X5153017Y9559090D1*
X5140804Y9564987D1*
X5116517D1*
X5134767Y9461804D2*
X5171127Y9425304D1*
X5216519Y9540560D2*
X5228733Y9546737D1*
X5246983Y9564846D1*
Y9437377D1*
X5089212Y7088487D2*
X5077139Y7082590D1*
X5064926Y7070377D1*
X5058889Y7058164D1*
X5052712Y7039914D1*
Y7009590D1*
X5058889Y6991340D1*
X5064926Y6979267D1*
X5077139Y6967054D1*
X5089212Y6961017D1*
X5113499D1*
X5125712Y6967054D1*
X5137785Y6979267D1*
X5143822Y6991340D1*
X5149999Y7009590D1*
Y7039914D1*
X5143822Y7058164D1*
X5137785Y7070377D1*
X5125712Y7082590D1*
X5113499Y7088487D1*
X5089212D1*
X5107462Y6985304D2*
X5143822Y6948804D1*
X5195391Y7058023D2*
Y7064060D1*
X5201428Y7076273D1*
X5207465Y7082310D1*
X5219678Y7088346D1*
X5243965D1*
X5256038Y7082310D1*
X5262074Y7076273D1*
X5268251Y7064060D1*
Y7051987D1*
X5262074Y7039773D1*
X5250001Y7021664D1*
X5189215Y6960877D1*
X5274288D1*
X5089212Y2325987D2*
X5077139Y2320090D1*
X5064926Y2307877D1*
X5058889Y2295664D1*
X5052712Y2277414D1*
Y2247090D1*
X5058889Y2228840D1*
X5064926Y2216767D1*
X5077139Y2204554D1*
X5089212Y2198517D1*
X5113499D1*
X5125712Y2204554D1*
X5137785Y2216767D1*
X5143822Y2228840D1*
X5149999Y2247090D1*
Y2277414D1*
X5143822Y2295664D1*
X5137785Y2307877D1*
X5125712Y2320090D1*
X5113499Y2325987D1*
X5089212D1*
X5107462Y2222804D2*
X5143822Y2186304D1*
X5201428Y2325846D2*
X5268111D1*
X5231751Y2277273D1*
X5250001D1*
X5262074Y2271237D1*
X5268111Y2265200D1*
X5274288Y2246950D1*
Y2234877D1*
X5268111Y2216627D1*
X5256038Y2204414D1*
X5237788Y2198377D1*
X5219538D1*
X5201428Y2204414D1*
X5195391Y2210590D1*
X5189215Y2222664D1*
X5086194Y4738987D2*
X5074121Y4733090D1*
X5061908Y4720877D1*
X5055871Y4708664D1*
X5049694Y4690414D1*
Y4660090D1*
X5055871Y4641840D1*
X5061908Y4629767D1*
X5074121Y4617554D1*
X5086194Y4611517D1*
X5110481D1*
X5122694Y4617554D1*
X5134767Y4629767D1*
X5140804Y4641840D1*
X5146981Y4660090D1*
Y4690414D1*
X5140804Y4708664D1*
X5134767Y4720877D1*
X5122694Y4733090D1*
X5110481Y4738987D1*
X5086194D1*
X5104444Y4635804D2*
X5140804Y4599304D1*
X5246983Y4611377D2*
Y4738846D1*
X5186196Y4653914D1*
X5277306D1*
X7288624Y8189700D2*
X7343234D1*
X7361484Y8195877D1*
X7367660Y8201914D1*
X7373697Y8213987D1*
Y8226200D1*
X7367660Y8238273D1*
X7361484Y8244450D1*
X7343234Y8250487D1*
X7288624D1*
Y8122877D1*
X7331160Y8189700D2*
X7373697Y8122877D1*
X7412913Y8226060D2*
X7425126Y8232237D1*
X7443376Y8250346D1*
Y8122877D1*
X7261319Y5332200D2*
X7315929D1*
X7334179Y5338377D1*
X7340356Y5344414D1*
X7346392Y5356487D1*
Y5368700D1*
X7340356Y5380773D1*
X7334179Y5386950D1*
X7315929Y5392987D1*
X7261319D1*
Y5265377D1*
X7303856Y5332200D2*
X7346392Y5265377D1*
X7391785Y5362523D2*
Y5368560D1*
X7397821Y5380773D1*
X7403858Y5386810D1*
X7416071Y5392846D1*
X7440358D1*
X7452431Y5386810D1*
X7458467Y5380773D1*
X7464644Y5368560D1*
Y5356487D1*
X7458467Y5344273D1*
X7446394Y5326164D1*
X7385608Y5265377D1*
X7470681D1*
X22099800Y7134319D2*
Y7188929D1*
X22093623Y7207179D1*
X22087587Y7213356D1*
X22075514Y7219392D1*
X22063300D1*
X22051227Y7213356D1*
X22045050Y7207179D1*
X22039013Y7188929D1*
Y7134319D1*
X22166623D1*
X22099800Y7176856D2*
X22166623Y7219392D1*
Y7282894D2*
X22039154Y7343681D1*
Y7258608D1*
X22798300Y7134390D2*
Y7188999D1*
X22792123Y7207249D1*
X22786087Y7213426D1*
X22774014Y7219463D1*
X22761800D1*
X22749727Y7213426D1*
X22743550Y7207249D1*
X22737513Y7188999D1*
Y7134390D1*
X22865123D1*
X22798300Y7176926D2*
X22865123Y7219462D1*
X22737654Y7289001D2*
X22743690Y7270892D1*
X22755764Y7264715D1*
X22767977D1*
X22780050Y7270892D1*
X22786227Y7282965D1*
X22792264Y7307251D1*
X22798300Y7325501D1*
X22810514Y7337574D1*
X22822587Y7343611D1*
X22840837D1*
X22852910Y7337574D1*
X22859087Y7331538D1*
X22865123Y7313288D1*
Y7289001D1*
X22859087Y7270892D1*
X22852910Y7264715D1*
X22840837Y7258678D1*
X22822587D1*
X22810514Y7264715D1*
X22798300Y7276928D1*
X22792264Y7295038D1*
X22786227Y7319324D1*
X22780050Y7331538D1*
X22767977Y7337574D1*
X22755764D1*
X22743690Y7331538D1*
X22737654Y7313288D1*
Y7289001D1*
X23496800Y7137338D2*
Y7191947D1*
X23490623Y7210197D1*
X23484587Y7216374D1*
X23472514Y7222411D1*
X23460300D1*
X23448227Y7216374D1*
X23442050Y7210197D1*
X23436013Y7191947D1*
Y7137338D1*
X23563623D1*
X23496800Y7179874D2*
X23563623Y7222411D1*
X23478550Y7340663D2*
X23496800Y7334486D1*
X23509014Y7322413D1*
X23515050Y7304163D1*
Y7298126D1*
X23509014Y7279876D1*
X23496800Y7267803D1*
X23478550Y7261626D1*
X23472514D1*
X23454264Y7267803D1*
X23442190Y7279876D1*
X23436154Y7298126D1*
Y7304163D1*
X23442190Y7322413D1*
X23454264Y7334486D1*
X23478550Y7340663D1*
X23509014D1*
X23539337Y7334486D1*
X23557587Y7322413D1*
X23563623Y7304163D1*
Y7292090D1*
X23557587Y7273840D1*
X23545373Y7267803D1*
X18734300Y9321980D2*
Y9376589D1*
X18728123Y9394839D1*
X18722087Y9401016D1*
X18710014Y9407053D1*
X18697800D1*
X18685727Y9401016D1*
X18679550Y9394839D1*
X18673513Y9376589D1*
Y9321980D1*
X18801123D1*
X18734300Y9364516D2*
X18801123Y9407053D1*
X18697940Y9446268D2*
X18691764Y9458482D1*
X18673654Y9476732D1*
X18801123D1*
X18673654Y9588807D2*
Y9528161D1*
X18728264Y9522124D1*
X18722227Y9528161D1*
X18716050Y9546411D1*
Y9564521D1*
X18722227Y9582771D1*
X18734300Y9594984D1*
X18752550Y9601021D1*
X18764623D1*
X18782873Y9594984D1*
X18795087Y9582771D1*
X18801123Y9564521D1*
Y9546411D1*
X18795087Y9528161D1*
X18788910Y9522124D1*
X18776837Y9515947D1*
X18226300Y9325068D2*
Y9379678D1*
X18220123Y9397928D1*
X18214087Y9404105D1*
X18202014Y9410141D1*
X18189800D1*
X18177727Y9404105D1*
X18171550Y9397928D1*
X18165513Y9379678D1*
Y9325068D1*
X18293123D1*
X18226300Y9367605D2*
X18293123Y9410141D1*
X18189940Y9449357D2*
X18183764Y9461570D1*
X18165654Y9479820D1*
X18293123D1*
X18183764Y9591896D2*
X18171690Y9585859D1*
X18165654Y9567609D1*
Y9555536D1*
X18171690Y9537286D1*
X18189940Y9525073D1*
X18220264Y9519036D1*
X18250587D1*
X18274873Y9525072D1*
X18287087Y9537286D1*
X18293123Y9555536D1*
Y9561572D1*
X18287087Y9579682D1*
X18274873Y9591896D1*
X18256623Y9597932D1*
X18250587D1*
X18232337Y9591896D1*
X18220264Y9579682D1*
X18214227Y9561572D1*
Y9555536D1*
X18220264Y9537286D1*
X18232337Y9525072D1*
X18250587Y9519036D1*
X9310866Y9956980D2*
Y10011589D1*
X9304689Y10029839D1*
X9298652Y10036016D1*
X9286579Y10042053D1*
X9274366D1*
X9262293Y10036016D1*
X9256116Y10029839D1*
X9250079Y10011589D1*
Y9956980D1*
X9377689D1*
X9310866Y9999516D2*
X9377689Y10042053D1*
X9274506Y10081268D2*
X9268329Y10093482D1*
X9250220Y10111732D1*
X9377689D1*
Y10175234D2*
X9250220Y10236021D1*
Y10150948D1*
X4344693Y696700D2*
X4399303D1*
X4417553Y702877D1*
X4423730Y708914D1*
X4429766Y720987D1*
Y733200D1*
X4423730Y745273D1*
X4417553Y751450D1*
X4399303Y757487D1*
X4344693D1*
Y629877D1*
X4387230Y696700D2*
X4429766Y629877D1*
X4481195Y757346D2*
X4547878D1*
X4511518Y708773D1*
X4529768D1*
X4541841Y702737D1*
X4547878Y696700D1*
X4554055Y678450D1*
Y666377D1*
X4547878Y648127D1*
X4535805Y635914D1*
X4517555Y629877D1*
X4499305D1*
X4481195Y635914D1*
X4475159Y642090D1*
X4468982Y654164D1*
X4672307Y714950D2*
X4666130Y696700D1*
X4654057Y684487D1*
X4635807Y678450D1*
X4629770D1*
X4611520Y684487D1*
X4599447Y696700D1*
X4593270Y714950D1*
Y720987D1*
X4599447Y739237D1*
X4611520Y751310D1*
X4629770Y757346D1*
X4635807D1*
X4654057Y751310D1*
X4666130Y739237D1*
X4672307Y714950D1*
Y684487D1*
X4666130Y654164D1*
X4654057Y635914D1*
X4635807Y629877D1*
X4623734D1*
X4605484Y635914D1*
X4599447Y648127D1*
X2433656Y696700D2*
X2488266D1*
X2506516Y702877D1*
X2512693Y708914D1*
X2518730Y720987D1*
Y733200D1*
X2512693Y745273D1*
X2506516Y751450D1*
X2488266Y757487D1*
X2433656D1*
Y629877D1*
X2476193Y696700D2*
X2518730Y629877D1*
X2618732D2*
Y757346D1*
X2557945Y672414D1*
X2649055D1*
X2724770Y757346D2*
X2706520Y751310D1*
X2694307Y733060D1*
X2688270Y702737D1*
Y684487D1*
X2694307Y654164D1*
X2706520Y635914D1*
X2724770Y629877D1*
X2736844D1*
X2755094Y635914D1*
X2767167Y654164D1*
X2773344Y684487D1*
Y702737D1*
X2767167Y733060D1*
X2755094Y751310D1*
X2736844Y757346D1*
X2724770D1*
X2767167Y733060D2*
X2694307Y654164D1*
X1081300Y1000462D2*
Y1055071D1*
X1075123Y1073321D1*
X1069087Y1079498D1*
X1057014Y1085535D1*
X1044800D1*
X1032727Y1079498D1*
X1026550Y1073321D1*
X1020513Y1055071D1*
Y1000462D1*
X1148123D1*
X1081300Y1042998D2*
X1148123Y1085534D1*
Y1185537D2*
X1020654D1*
X1105587Y1124750D1*
Y1215860D1*
X1044940Y1255075D2*
X1038764Y1267289D1*
X1020654Y1285539D1*
X1148123D1*
X11748856Y7551987D2*
Y7424377D1*
X11706319Y7551987D2*
X11791392D1*
X11836785Y7521523D2*
Y7527560D1*
X11842821Y7539773D1*
X11848858Y7545810D1*
X11861071Y7551846D1*
X11885358D1*
X11897431Y7545810D1*
X11903467Y7539773D1*
X11909644Y7527560D1*
Y7515487D1*
X11903467Y7503273D1*
X11891394Y7485164D1*
X11830608Y7424377D1*
X11915681D1*
M02*
